<svg xmlns="http://www.w3.org/2000/svg" xmlns:xlink="http://www.w3.org/1999/xlink" width="132.59" height="132.59" viewBox="0 0 132.59 132.59">
  <defs>
    <filter id="Elipse_11310" x="0" y="0" width="132.59" height="132.59" filterUnits="userSpaceOnUse">
      <feOffset dy="3" input="SourceAlpha"/>
      <feGaussianBlur stdDeviation="5.5" result="blur"/>
      <feFlood flood-color="#fff" flood-opacity="0.82"/>
      <feComposite operator="in" in2="blur"/>
      <feComposite in="SourceGraphic"/>
    </filter>
  </defs>
  <g id="Grupo_1101777" data-name="Grupo 1101777" transform="translate(-1206.5 -1992.338)">
    <g id="Grupo_1101774" data-name="Grupo 1101774" transform="translate(902 -8062.939)">
      <g id="Grupo_1098796" data-name="Grupo 1098796" transform="translate(321 10068.777)">
        <g transform="matrix(1, 0, 0, 1, -16.5, -13.5)" filter="url(#Elipse_11310)">
          <circle id="Elipse_11310-2" data-name="Elipse 11310" cx="49.795" cy="49.795" r="49.795" transform="translate(16.5 13.5)" fill="#fff"/>
        </g>
      </g>
    </g>
    <g id="mongodb_logo_icon_170944" transform="translate(1212.202 2046.39)">
      <g id="Grupo_1101775" data-name="Grupo 1101775" transform="translate(24.798 18.957)">
        <path id="Trazado_877573" data-name="Trazado 877573" d="M38.14,33.86v1.852a1.293,1.293,0,0,0,.012.219.469.469,0,0,0,.357.415,4.433,4.433,0,0,0,.562.11c.11.012.146.061.159.178.012.415-.024.464-.426.439a24.108,24.108,0,0,0-2.816,0H35.9c-.293.012-.317-.012-.317-.305,0-.049.012-.11.012-.159a.129.129,0,0,1,.146-.134c.2-.024.378-.073.562-.11a.506.506,0,0,0,.426-.475,6.824,6.824,0,0,0,.036-.854l.012-3.266a.5.5,0,0,0-.268-.464,3.469,3.469,0,0,0-.7-.293.96.96,0,0,1-.207-.073c-.178-.086-.183-.243-.012-.342a.622.622,0,0,1,.207-.073,11.077,11.077,0,0,0,2.169-.549c.146-.049.183-.036.2.11a1.045,1.045,0,0,1-.012.28,3.069,3.069,0,0,0-.024.464.168.168,0,0,0,.073.159c.061.037.122,0,.178-.036a6.63,6.63,0,0,1,.792-.535,3.742,3.742,0,0,1,1.293-.475,1.806,1.806,0,0,1,1.475.439,2.765,2.765,0,0,1,.463.536c.122.178.134.183.293.061a7.189,7.189,0,0,1,1.475-.865,2.263,2.263,0,0,1,1.67-.073,2,2,0,0,1,1.2,1.158,3.287,3.287,0,0,1,.28,1.365V35.83a.469.469,0,0,0,.305.464,4.546,4.546,0,0,0,.731.183c.159.036.159.036.159.2-.024.4-.061.426-.451.4a26.242,26.242,0,0,0-2.937,0c-.2.012-.2.012-.207-.183v-.061c-.012-.33-.012-.33.305-.4l.317-.086a.491.491,0,0,0,.378-.475l.036-.914-.024-2.388a1.9,1.9,0,0,0-.134-.622,1.5,1.5,0,0,0-1.621-.938,2.755,2.755,0,0,0-1.316.524.262.262,0,0,0-.134.256,18.987,18.987,0,0,1,.049,2.34v1.695a.469.469,0,0,0,.415.524l.562.122c.086.012.134.049.134.146V36.7c-.012.342-.036.357-.378.353-.975-.049-1.951-.036-2.913,0-.33.012-.357-.024-.342-.357.012-.2.036-.207.219-.243l.4-.073a.531.531,0,0,0,.512-.585l.036-.817-.024-2.45a1.961,1.961,0,0,0-.256-.878,1.283,1.283,0,0,0-1.146-.707,2.573,2.573,0,0,0-1.427.4.718.718,0,0,0-.415.744v1.779Zm22.963.074v1.719q0,.183.024.366a.375.375,0,0,0,.293.342,2.845,2.845,0,0,0,.646.11c.122.012.146.061.159.159v.086c-.012.426-.061.475-.475.451a23.488,23.488,0,0,0-2.779,0l-.357.012c-.073,0-.089-.036-.11-.086a1.24,1.24,0,0,1,0-.512c.012-.073.061-.089.134-.11.178-.024.33-.061.5-.089a.46.46,0,0,0,.426-.512l.036-1.024v-3a.453.453,0,0,0-.28-.451,4.383,4.383,0,0,0-.7-.293,1.027,1.027,0,0,1-.207-.086.221.221,0,0,1-.024-.39.437.437,0,0,1,.243-.1,10.346,10.346,0,0,0,2.267-.585c.086-.036.122-.012.159.061a.4.4,0,0,1,.036.243l-.036.573c0,.073-.036.178.024.207.073.049.122-.061.183-.089a5.432,5.432,0,0,1,1.183-.755,2.443,2.443,0,0,1,1.207-.268A2.049,2.049,0,0,1,65.437,31.1a3.2,3.2,0,0,1,.317,1.219l.036.892L65.8,35.9a.408.408,0,0,0,.293.415,3.988,3.988,0,0,0,.658.159c.2.024.207.061.219.243v.061c-.024.415-.049.426-.464.4a25.5,25.5,0,0,0-2.73,0c-.122.012-.243,0-.357.012-.073,0-.122-.012-.134-.086a1.314,1.314,0,0,1-.012-.488.134.134,0,0,1,.134-.122l.562-.089a.408.408,0,0,0,.33-.357l.024-.342-.012-2.547a4.288,4.288,0,0,0-.073-.878,1.422,1.422,0,0,0-1.266-1.133,2.289,2.289,0,0,0-1.536.39.672.672,0,0,0-.33.609v1.841c0-.036,0-.036.012-.036Z" transform="translate(-35.47 -26.276)" fill="#47474a"/>
        <path id="Trazado_877574" data-name="Trazado 877574" d="M104.079,29.957a4.756,4.756,0,0,0-1.036-2.377,4.7,4.7,0,0,0-1.877-1.39,6.768,6.768,0,0,0-2.413-.439c-.342-.012-5,.061-5.339,0a.182.182,0,0,0-.2.086,1.392,1.392,0,0,0-.159.28c-.146.33-.146.305.207.353a6.606,6.606,0,0,1,.854.159.67.67,0,0,1,.5.512c.024.134.049,4.424.049,6.423l-.049,1.427a1.337,1.337,0,0,1-.061.317.51.51,0,0,1-.28.33,1.445,1.445,0,0,1-.512.134c-.33.036-.378.049-.488.415l-.036.134c-.024.159-.012.183.146.183l3.644.036,1.427-.024.987-.122a6.141,6.141,0,0,0,2.974-1.414,4.95,4.95,0,0,0,1.17-1.536,5.412,5.412,0,0,0,.524-2.182,4.334,4.334,0,0,0-.036-1.3Zm-1.768,1.73a4.88,4.88,0,0,1-.609,2.218,3.374,3.374,0,0,1-2.255,1.73,4,4,0,0,1-1.338.073,4.05,4.05,0,0,1-.951-.183,1.021,1.021,0,0,1-.755-1.07l-.012-7.349c0-.439.2-.535.512-.549a8.248,8.248,0,0,1,1.439.024,5.4,5.4,0,0,1,1.475.357,3.55,3.55,0,0,1,.963.6,4.25,4.25,0,0,1,1.338,2.1,6.052,6.052,0,0,1,.2,2.035Zm11.9,1.2a1.152,1.152,0,0,0-.012-.207,2.337,2.337,0,0,0-1.011-1.572,3.808,3.808,0,0,0-1.17-.549,1.3,1.3,0,0,0-.207-.061.1.1,0,0,1,.086-.086,3.112,3.112,0,0,0,.682-.439,2.29,2.29,0,0,0,.755-1.183,2.31,2.31,0,0,0-.841-2.365,3.233,3.233,0,0,0-1.9-.6c-1.316-.024-2.644,0-3.96,0a7.4,7.4,0,0,1-1.146-.036c-.073-.012-.178-.036-.232.049a1.733,1.733,0,0,0-.232.5c-.012.086.012.134.11.146l.841.122a.6.6,0,0,1,.585.524,5.158,5.158,0,0,1,.036.609l-.024,2.279-.012,4.509a4.269,4.269,0,0,1-.086.792.446.446,0,0,1-.317.366,2.514,2.514,0,0,1-.731.146.3.3,0,0,0-.317.207,1.583,1.583,0,0,0-.11.342c-.024.146.012.2.159.178.11-.012,4.132.086,4.887.012a7.4,7.4,0,0,0,1.34-.243,4.6,4.6,0,0,0,2.035-1.2,2.622,2.622,0,0,0,.755-1.755,2.192,2.192,0,0,0,.036-.488ZM108.3,27.888l.036-.975a.27.27,0,0,1,.256-.305,3.571,3.571,0,0,1,.878-.024,4.24,4.24,0,0,1,.865.146,1.821,1.821,0,0,1,1.2.975,1.748,1.748,0,0,1,.17.744,2.344,2.344,0,0,1-.146,1,1.342,1.342,0,0,1-1.011.829,17.305,17.305,0,0,1-2.035.049c-.183,0-.2-.024-.2-.207V28.972A7.84,7.84,0,0,1,108.3,27.9Zm3.96,6.557a1.87,1.87,0,0,1-1.121,1.133,2.131,2.131,0,0,1-.892.159,7.1,7.1,0,0,1-1.133-.073,1.06,1.06,0,0,1-.78-.951c-.061-.622-.024-1.256-.036-1.719V31.385c0-.2.024-.256.232-.256l1.146.012.78.089a2.638,2.638,0,0,1,1.439.755,1.976,1.976,0,0,1,.524,1.207,2.7,2.7,0,0,1-.146,1.243Z" transform="translate(-42.747 -25.749)" fill="#c2bfbf"/>
        <path id="Trazado_877575" data-name="Trazado 877575" d="M76.094,31.3l.317.049a.786.786,0,0,0,.865-.585,1.231,1.231,0,0,0,0-.7c-.073,0-.11.061-.146.086a1.171,1.171,0,0,1-.609.256,2.8,2.8,0,0,1-1.3-.134l-.6-.207a3.523,3.523,0,0,0-1.293-.169,4.482,4.482,0,0,0-1.755.549,2.382,2.382,0,0,0-1.2,1.439,2.847,2.847,0,0,0-.073,1.158,2.16,2.16,0,0,0,1.414,1.841c.049.012.086.036.134.049.11.061.122.122.024.207l-.305.207-.731.451a.273.273,0,0,0-.146.39,1.275,1.275,0,0,0,.39.585,2.033,2.033,0,0,0,.561.342c.134.061.134.089.012.2l-.7.5a4.167,4.167,0,0,0-.658.585,1.2,1.2,0,0,0-.293,1.1,2.06,2.06,0,0,0,.633,1.1,2.586,2.586,0,0,0,1.121.609,4.782,4.782,0,0,0,4.644-1.3,2.657,2.657,0,0,0,.78-1.784,1.712,1.712,0,0,0-1.316-1.779l-.658-.122L73.2,36.03a1.348,1.348,0,0,1-.622-.159.417.417,0,0,1-.146-.609.579.579,0,0,1,.415-.232l.39-.036a3.532,3.532,0,0,0,2.059-.938,2.158,2.158,0,0,0,.622-1.036,3.249,3.249,0,0,0,.024-1.605c-.036-.134-.024-.146.146-.122Zm-2.988,6.071a1.287,1.287,0,0,0,.219,0,7.145,7.145,0,0,1,1.536.2,3.192,3.192,0,0,1,.475.183,1.167,1.167,0,0,1,.609,1.231,1.54,1.54,0,0,1-.854,1.2,2.609,2.609,0,0,1-1.036.293c-.134.012-.256,0-.39,0a2.894,2.894,0,0,1-1.243-.207,1.923,1.923,0,0,1-.719-.488,1.257,1.257,0,0,1,.012-1.841,1.79,1.79,0,0,1,1.39-.562Zm1.39-3.8a1.191,1.191,0,0,1-1.377.755,1.459,1.459,0,0,1-1.133-.817,2.625,2.625,0,0,1-.219-1.938,1.193,1.193,0,0,1,.975-.963,1.493,1.493,0,0,1,1.682.8,2.662,2.662,0,0,1,.256,1.3,2.761,2.761,0,0,1-.183.854ZM59.14,32.736a3.37,3.37,0,0,0-.8-1.755,3.219,3.219,0,0,0-2.487-1.073,4.288,4.288,0,0,0-2.34.671,3.175,3.175,0,0,0-1.426,1.865,4.242,4.242,0,0,0-.036,2.145,3.255,3.255,0,0,0,3.692,2.633,4.054,4.054,0,0,0,1.5-.439,3.288,3.288,0,0,0,1.572-1.548,4,4,0,0,0,.39-1.877l-.061-.622Zm-1.73,2.706a1.481,1.481,0,0,1-1.256,1.024,2.039,2.039,0,0,1-1.487-.378,2.533,2.533,0,0,1-.768-.914,4.673,4.673,0,0,1-.33-3.193,1.828,1.828,0,0,1,.512-.89,1.662,1.662,0,0,1,1.561-.39,2.219,2.219,0,0,1,1.338.89,3.5,3.5,0,0,1,.609,1.561,6.42,6.42,0,0,1,.061.755,4.078,4.078,0,0,1-.232,1.536Zm28.362-2.608a3.3,3.3,0,0,0-.854-1.889,3.255,3.255,0,0,0-2.462-1.036,4.343,4.343,0,0,0-2.267.622,3.1,3.1,0,0,0-1.523,2.011,4.254,4.254,0,0,0,.293,2.9,2.958,2.958,0,0,0,1.987,1.646,4,4,0,0,0,2.876-.305,3.341,3.341,0,0,0,1.706-1.828,4.5,4.5,0,0,0,.28-1.621,2.788,2.788,0,0,0-.036-.5Zm-1.682,2.45a1.518,1.518,0,0,1-1.3,1.183,2.026,2.026,0,0,1-1.439-.342,2.478,2.478,0,0,1-.841-1,3.752,3.752,0,0,1-.39-1.34,4.738,4.738,0,0,1,.061-1.706,1.739,1.739,0,0,1,.11-.329A1.643,1.643,0,0,1,82.273,30.7a2.218,2.218,0,0,1,1.39.963,3.589,3.589,0,0,1,.562,1.605,3.269,3.269,0,0,1,.036.682,4.148,4.148,0,0,1-.178,1.34Z" transform="translate(-37.553 -26.274)" fill="#47474a"/>
      </g>
    </g>
    <g id="Grupo_1101776" data-name="Grupo 1101776" transform="translate(1255.91 2014.82)">
      <path id="Trazado_877570" data-name="Trazado 877570" d="M16.148,5.154l1.133,2.13a6.39,6.39,0,0,0,.856,1.064,29.538,29.538,0,0,1,2.66,3.008,26.144,26.144,0,0,1,4.142,8.354,20.56,20.56,0,0,1,.879,5.669,19.967,19.967,0,0,1-5.854,14.763,16.937,16.937,0,0,1-2.082,1.782c-.395,0-.579-.312-.741-.579a4.624,4.624,0,0,1-.579-1.666,7.988,7.988,0,0,1-.185-2.106V37.25c-.023-.07-.37-31.933-.232-32.1Z" transform="translate(0.353 0.005)" fill="#599636"/>
      <path id="Trazado_877571" data-name="Trazado 877571" d="M16.5,5.09c-.047-.094-.094-.023-.139.023a2.121,2.121,0,0,1-.395,1.273A6.014,6.014,0,0,1,14.949,7.4a22.154,22.154,0,0,0-4.975,6.34A25.7,25.7,0,0,0,7.106,24.111a34.411,34.411,0,0,0,.833,7.312,22.053,22.053,0,0,0,5.819,9.14,25.3,25.3,0,0,0,2.059,1.758c.208,0,.232-.185.277-.324a6.349,6.349,0,0,0,.208-.9c.208-1.156.324-2.314.462-3.471L16.51,5.09Z" transform="translate(0 0)" fill="#6cac48"/>
      <path id="Trazado_877572" data-name="Trazado 877572" d="M17.309,42.139a3.29,3.29,0,0,1,.579-1.411,1.469,1.469,0,0,1-.648-.6,4.923,4.923,0,0,1-.347-.764,13.1,13.1,0,0,1-.486-2.985v-.6a2.916,2.916,0,0,0-.139,1,23.145,23.145,0,0,1-.416,3.123,2.8,2.8,0,0,1-.37,1.2.454.454,0,0,0,.023.162,13.875,13.875,0,0,1,.6,3.749v.462c0,.555-.023.44.44.623a2.033,2.033,0,0,1,.579.232c.139,0,.162-.114.162-.208l-.07-.764v-2.13a5.586,5.586,0,0,1,.094-1.088Z" transform="translate(0.328 1.201)" fill="#c2bfbf"/>
    </g>
  </g>
</svg>
