<svg xmlns="http://www.w3.org/2000/svg" xmlns:xlink="http://www.w3.org/1999/xlink" width="295" height="240" viewBox="0 0 295 240">
  <defs>
    <clipPath id="clip-path">
      <rect id="Rectángulo_402280" data-name="Rectángulo 402280" width="295" height="240" transform="translate(180 2773)" fill="#fff" stroke="#707070" stroke-width="1"/>
    </clipPath>
    <clipPath id="clip-path-2">
      <rect id="Rectángulo_402297" data-name="Rectángulo 402297" width="259.5" height="236.692" fill="none"/>
    </clipPath>
    <clipPath id="clip-path-3">
      <rect id="Rectángulo_402296" data-name="Rectángulo 402296" width="259.5" height="236.691" fill="none"/>
    </clipPath>
    <clipPath id="clip-path-4">
      <rect id="Rectángulo_402282" data-name="Rectángulo 402282" width="7.218" height="10.07" fill="none"/>
    </clipPath>
    <clipPath id="clip-path-5">
      <rect id="Rectángulo_402283" data-name="Rectángulo 402283" width="9.851" height="11.306" fill="none"/>
    </clipPath>
    <clipPath id="clip-path-6">
      <rect id="Rectángulo_402284" data-name="Rectángulo 402284" width="6.064" height="6.064" fill="none"/>
    </clipPath>
    <clipPath id="clip-path-7">
      <rect id="Rectángulo_402285" data-name="Rectángulo 402285" width="5.506" height="5.507" fill="none"/>
    </clipPath>
    <clipPath id="clip-path-8">
      <rect id="Rectángulo_402286" data-name="Rectángulo 402286" width="11.374" height="11.374" fill="none"/>
    </clipPath>
    <clipPath id="clip-path-9">
      <rect id="Rectángulo_402287" data-name="Rectángulo 402287" width="7.345" height="7.345" fill="none"/>
    </clipPath>
    <clipPath id="clip-path-10">
      <rect id="Rectángulo_402288" data-name="Rectángulo 402288" width="6.113" height="6.113" fill="none"/>
    </clipPath>
    <clipPath id="clip-path-11">
      <rect id="Rectángulo_402289" data-name="Rectángulo 402289" width="8.465" height="8.465" fill="none"/>
    </clipPath>
    <clipPath id="clip-path-12">
      <rect id="Rectángulo_402290" data-name="Rectángulo 402290" width="4.143" height="4.143" fill="none"/>
    </clipPath>
    <clipPath id="clip-path-13">
      <rect id="Rectángulo_402291" data-name="Rectángulo 402291" width="9.682" height="8.716" fill="none"/>
    </clipPath>
    <clipPath id="clip-path-14">
      <rect id="Rectángulo_402292" data-name="Rectángulo 402292" width="9.693" height="9.693" fill="none"/>
    </clipPath>
    <clipPath id="clip-path-15">
      <rect id="Rectángulo_402293" data-name="Rectángulo 402293" width="6.951" height="6.951" fill="none"/>
    </clipPath>
    <clipPath id="clip-path-16">
      <rect id="Rectángulo_402305" data-name="Rectángulo 402305" width="119.373" height="91.003" fill="none"/>
    </clipPath>
    <clipPath id="clip-path-18">
      <rect id="Rectángulo_402298" data-name="Rectángulo 402298" width="21.451" height="30.709" fill="none"/>
    </clipPath>
    <clipPath id="clip-path-19">
      <rect id="Rectángulo_402299" data-name="Rectángulo 402299" width="17.861" height="19.153" fill="none"/>
    </clipPath>
    <clipPath id="clip-path-20">
      <rect id="Rectángulo_402300" data-name="Rectángulo 402300" width="12.102" height="10.273" fill="none"/>
    </clipPath>
    <clipPath id="clip-path-21">
      <rect id="Rectángulo_402301" data-name="Rectángulo 402301" width="34.28" height="28.705" fill="none"/>
    </clipPath>
    <clipPath id="clip-path-22">
      <rect id="Rectángulo_402302" data-name="Rectángulo 402302" width="5.508" height="6.555" fill="none"/>
    </clipPath>
    <clipPath id="clip-path-23">
      <rect id="Rectángulo_402303" data-name="Rectángulo 402303" width="27.608" height="36.576" fill="none"/>
    </clipPath>
    <clipPath id="clip-path-24">
      <rect id="Rectángulo_402306" data-name="Rectángulo 402306" width="23.574" height="16.571" transform="translate(0 0)" fill="#fff"/>
    </clipPath>
  </defs>
  <g id="Grupo_1100631" data-name="Grupo 1100631" transform="translate(-180 -418)">
    <g id="Enmascarar_grupo_1098698" data-name="Enmascarar grupo 1098698" transform="translate(0 -2355)" clip-path="url(#clip-path)">
      <path id="Rectángulo_402276" data-name="Rectángulo 402276" d="M0,0H214a21,21,0,0,1,21,21V86a0,0,0,0,1,0,0H8a8,8,0,0,1-8-8V0A0,0,0,0,1,0,0Z" transform="translate(180 2927)" fill="#fff" opacity="0.29"/>
    </g>
    <g id="Grupo_1100562" data-name="Grupo 1100562" transform="translate(215.5 421.115)">
      <g id="Grupo_1100606" data-name="Grupo 1100606" clip-path="url(#clip-path-2)">
        <g id="Grupo_1100605" data-name="Grupo 1100605" transform="translate(0 0.001)">
          <g id="Grupo_1100604" data-name="Grupo 1100604" clip-path="url(#clip-path-3)">
            <path id="Trazado_877136" data-name="Trazado 877136" d="M486.6,225.356H323.856a3.9,3.9,0,0,1-3.9-3.9V87.1a3.9,3.9,0,0,1,3.9-3.9H486.6a3.9,3.9,0,0,1,3.9,3.9V221.453a3.9,3.9,0,0,1-3.9,3.9" transform="translate(-264.601 -68.805)" fill="#fff"/>
            <path id="Trazado_877137" data-name="Trazado 877137" d="M482.1,223.58H331.852a14.636,14.636,0,0,1-14.619-14.619V95.1A14.635,14.635,0,0,1,331.852,80.48H474.1A14.635,14.635,0,0,1,488.723,95.1V208.961c0,8.061,1.442,14.619-6.619,14.619M331.852,81.421A13.694,13.694,0,0,0,318.174,95.1V208.961a13.694,13.694,0,0,0,13.678,13.679H482.1c7.542,0,5.678-6.136,5.678-13.679V95.1A13.694,13.694,0,0,0,474.1,81.421Z" transform="translate(-262.352 -66.558)" fill="#030047"/>
            <path id="Trazado_877138" data-name="Trazado 877138" d="M539.137,331.69H404.046a1.7,1.7,0,0,1-1.7-1.7V244.872a1.7,1.7,0,0,1,1.7-1.7H539.137a1.7,1.7,0,0,1,1.7,1.7v85.121a1.7,1.7,0,0,1-1.7,1.7" transform="translate(-332.742 -201.106)" fill="#605efd"/>
            <path id="Trazado_877139" data-name="Trazado 877139" d="M490.5,99.506v-2.16A14.149,14.149,0,0,0,476.354,83.2H334.1a14.149,14.149,0,0,0-14.148,14.149v2.16Z" transform="translate(-264.601 -68.805)" fill="#e6f3fc"/>
            <path id="Trazado_877140" data-name="Trazado 877140" d="M488.253,97.729H317.7a.47.47,0,0,1-.47-.47V95.1A14.635,14.635,0,0,1,331.852,80.48H474.1A14.635,14.635,0,0,1,488.723,95.1v2.161a.47.47,0,0,1-.47.47m-170.079-.941H487.782V95.1A13.694,13.694,0,0,0,474.1,81.421H331.852A13.694,13.694,0,0,0,318.174,95.1Z" transform="translate(-262.352 -66.558)" fill="#030047"/>
            <path id="Trazado_877141" data-name="Trazado 877141" d="M383.5,127a2.216,2.216,0,1,0,2.215-2.215A2.215,2.215,0,0,0,383.5,127" transform="translate(-317.155 -103.201)" fill="#030047"/>
            <path id="Trazado_877142" data-name="Trazado 877142" d="M421.539,127a2.215,2.215,0,1,0,2.215-2.215A2.215,2.215,0,0,0,421.539,127" transform="translate(-348.613 -103.201)" fill="#030047"/>
            <path id="Trazado_877143" data-name="Trazado 877143" d="M459.576,127a2.215,2.215,0,1,0,2.215-2.215A2.215,2.215,0,0,0,459.576,127" transform="translate(-380.069 -103.201)" fill="#030047"/>
            <path id="Trazado_877146" data-name="Trazado 877146" d="M567.769,858.852a35.914,35.914,0,0,0,10.938-6.731c5.435-4.843-1.414-16.235-1.414-16.235s2.951.709,3.661-.3,1.3-7.43-8.09-9.559-15.052,10.1-15.052,10.1c-5.844.414-6.047,12.838-6.047,12.838" transform="translate(-456.309 -682.92)" fill="#fff"/>
            <path id="Trazado_877147" data-name="Trazado 877147" d="M565.52,857.082a.47.47,0,0,1-.153-.915,35.824,35.824,0,0,0,10.778-6.637c5.081-4.528-1.438-15.531-1.5-15.641a.471.471,0,0,1,.513-.7c1.066.255,2.809.394,3.167-.114a4.628,4.628,0,0,0-.126-3.483c-.694-1.8-2.591-4.192-7.683-5.347-8.9-2.012-14.467,9.716-14.522,9.835a.47.47,0,0,1-.393.271c-5.352.38-5.608,12.257-5.61,12.377a.477.477,0,0,1-.478.462.471.471,0,0,1-.463-.478c.009-.517.274-12.495,6.211-13.272.884-1.74,6.574-12.124,15.463-10.113,5.5,1.247,7.577,3.911,8.353,5.927a5.372,5.372,0,0,1,.018,4.361c-.589.839-2.1.813-3.146.674,1.518,2.837,5.64,11.653.827,15.943a36.041,36.041,0,0,1-11.1,6.824.462.462,0,0,1-.153.026" transform="translate(-454.06 -680.68)" fill="#030047"/>
            <path id="Trazado_877148" data-name="Trazado 877148" d="M448.588,988.487l16.049-37.959,25.778,9.5s-15.742,46.366-16.292,46.41-25.534-17.954-25.534-17.954" transform="translate(-370.982 -786.087)" fill="#ffcc3d"/>
            <g id="Grupo_1100570" data-name="Grupo 1100570" transform="translate(110.515 179.561)" opacity="0.4">
              <g id="Grupo_1100569" data-name="Grupo 1100569">
                <g id="Grupo_1100568" data-name="Grupo 1100568" clip-path="url(#clip-path-4)">
                  <path id="Trazado_877149" data-name="Trazado 877149" d="M642.532,1048a.465.465,0,0,1-.143-.022,5.147,5.147,0,0,1,1.567-10.048,5.015,5.015,0,0,1,1.771.318.47.47,0,0,1-.331.881,4.072,4.072,0,0,0-1.44-.259,4.207,4.207,0,0,0-1.28,8.212.47.47,0,0,1-.143.918" transform="translate(-638.813 -1037.929)" fill="#fff"/>
                </g>
              </g>
            </g>
            <path id="Trazado_877150" data-name="Trazado 877150" d="M446.339,986.71a.459.459,0,0,1-.183-.037.47.47,0,0,1-.25-.616L461.955,948.1a.473.473,0,0,1,.6-.259l25.778,9.5a.471.471,0,0,1,.282.593c-.05.147-5.073,14.939-9.493,27.675a.47.47,0,1,1-.889-.309c3.994-11.509,8.48-24.7,9.343-27.235l-24.926-9.189-15.874,37.546a.471.471,0,0,1-.433.287" transform="translate(-368.734 -783.841)" fill="#030047"/>
            <path id="Trazado_877151" data-name="Trazado 877151" d="M279.3,761.39s1.921-8.806,13.288-6.831,11.688,15.21,4.643,19.159Z" transform="translate(-230.983 -623.782)" fill="#030047"/>
            <path id="Trazado_877152" data-name="Trazado 877152" d="M310.026,989.575l-21.6,5.393-9.1-26.017h19.809Z" transform="translate(-230.997 -801.322)" fill="#fff"/>
            <path id="Trazado_877153" data-name="Trazado 877153" d="M286.175,993.191a.47.47,0,0,1-.444-.315l-9.105-26.017a.471.471,0,0,1,.444-.626H296.88a.469.469,0,0,1,.416.251l10.9,20.624a.47.47,0,0,1-.3.676l-21.6,5.393a.46.46,0,0,1-.114.014m-8.442-26.017,8.744,24.987,20.6-5.144L296.6,967.174Z" transform="translate(-228.748 -799.075)" fill="#030047"/>
            <path id="Trazado_877154" data-name="Trazado 877154" d="M177.81,1125.99h64.549l-6.572-44.563a6.468,6.468,0,0,0-7.518-5.43c-10.383,1.825-30.691,5.391-42.82,7.5a11.217,11.217,0,0,0-9.279,11.65Z" transform="translate(-145.68 -889.769)" fill="#ffcc3d"/>
            <path id="Trazado_877155" data-name="Trazado 877155" d="M458.241,1124.1l-26.807-45.453a10.229,10.229,0,0,0-10.559-4.883l-7.042,1.221-7.253,1.274,19.43,47.84Z" transform="translate(-336.242 -887.881)" fill="#ffcc3d"/>
            <path id="Trazado_877156" data-name="Trazado 877156" d="M480.226,1274a.47.47,0,0,1-.436-.293l-7.618-18.757a.47.47,0,1,1,.871-.354l7.618,18.757a.47.47,0,0,1-.436.647" transform="translate(-390.457 -1037.31)" fill="#030047"/>
            <g id="Grupo_1100573" data-name="Grupo 1100573" transform="translate(102.864 210.231)" opacity="0.4">
              <g id="Grupo_1100572" data-name="Grupo 1100572">
                <g id="Grupo_1100571" data-name="Grupo 1100571" clip-path="url(#clip-path-5)">
                  <path id="Trazado_877157" data-name="Trazado 877157" d="M600.386,1226.518a5.795,5.795,0,0,1-1.863-11.281.47.47,0,1,1,.3.89,4.853,4.853,0,1,0,4.83,8.181.47.47,0,1,1,.634.694,5.775,5.775,0,0,1-3.9,1.515" transform="translate(-594.592 -1215.212)" fill="#fff"/>
                </g>
              </g>
            </g>
            <path id="Trazado_877158" data-name="Trazado 877158" d="M476.912,1099.013a.47.47,0,0,1-.406-.231l-13.052-22.13a9.807,9.807,0,0,0-10.073-4.658l-7.042,1.221a.47.47,0,0,1-.161-.927l7.042-1.221a10.754,10.754,0,0,1,11.044,5.107l13.052,22.13a.47.47,0,0,1-.4.709" transform="translate(-368.667 -885.645)" fill="#030047"/>
            <path id="Trazado_877159" data-name="Trazado 877159" d="M252.02,845.72a15.333,15.333,0,0,1-3.035-2.513c-7.286-7.834-10.549-20.563-4-26.653s20.71-2.93,28,4.9,7.319,18.157,2.316,22.984c-2.513,2.424-7.27,4.074-12.309,4.138" transform="translate(-199.681 -672.649)" fill="#fff"/>
            <path id="Trazado_877160" data-name="Trazado 877160" d="M260.734,846.808a.47.47,0,0,1-.006-.941c4.824-.062,9.53-1.635,11.989-4.007,4.691-4.526,4.872-14.576-2.334-22.325A26.527,26.527,0,0,0,256.364,812c-5.514-1.054-10.367-.088-13.313,2.652-2.92,2.715-4,7.063-3.046,12.243a28.4,28.4,0,0,0,7.07,13.746,14.919,14.919,0,0,0,2.942,2.435.47.47,0,1,1-.5.795,15.826,15.826,0,0,1-3.128-2.59,29.367,29.367,0,0,1-7.306-14.216c-1.016-5.507.167-10.16,3.33-13.1s8.318-4,14.131-2.887a27.5,27.5,0,0,1,14.53,7.816c7.583,8.154,7.31,18.807,2.3,23.643-2.622,2.529-7.579,4.205-12.63,4.27Z" transform="translate(-197.426 -670.406)" fill="#030047"/>
            <path id="Trazado_877162" data-name="Trazado 877162" d="M751.459,983.744a.47.47,0,0,1-.455-.592l2.964-11.047a3.171,3.171,0,0,0-1.73-3.688l-.216-.1a1.439,1.439,0,0,0-1.886.675l-6.579,13.462a.47.47,0,1,1-.845-.413l6.579-13.462a2.384,2.384,0,0,1,3.127-1.116l.216.1a4.111,4.111,0,0,1,2.243,4.783L751.913,983.4a.471.471,0,0,1-.454.349" transform="translate(-614.184 -799.914)" fill="#030047"/>
            <path id="Trazado_877166" data-name="Trazado 877166" d="M1380.855,522.342l.685,4.639a2.179,2.179,0,0,0,1.2,1.638l4.211,2.065a2.179,2.179,0,0,1,.01,3.908l-4.2,2.086a2.179,2.179,0,0,0-1.188,1.644l-.663,4.643a2.179,2.179,0,0,1-3.714,1.217l-3.282-3.35a2.179,2.179,0,0,0-1.93-.622l-4.62.8a2.179,2.179,0,0,1-2.3-3.156l2.172-4.156a2.178,2.178,0,0,0-.005-2.028l-2.192-4.146a2.179,2.179,0,0,1,2.289-3.167l4.624.781a2.179,2.179,0,0,0,1.927-.631l3.265-3.366a2.179,2.179,0,0,1,3.72,1.2" transform="translate(-1128.667 -430.437)" fill="#ffcc3d"/>
            <path id="Trazado_877167" data-name="Trazado 877167" d="M124.305,125.284l3.631,2.968a2.179,2.179,0,0,0,1.987.406l4.5-1.308a2.179,2.179,0,0,1,2.638,2.883l-1.7,4.37a2.179,2.179,0,0,0,.228,2.015l2.636,3.879a2.179,2.179,0,0,1-1.927,3.4l-4.682-.268a2.179,2.179,0,0,0-1.846.84l-2.875,3.705a2.179,2.179,0,0,1-3.829-.781l-1.192-4.536a2.179,2.179,0,0,0-1.369-1.5l-4.412-1.589a2.179,2.179,0,0,1-.44-3.883l3.945-2.535a2.179,2.179,0,0,0,1-1.764l.148-4.688a2.179,2.179,0,0,1,3.557-1.618" transform="translate(-94.82 -103.201)" fill="#605efd"/>
            <path id="Trazado_877170" data-name="Trazado 877170" d="M884.006,966.339l-1.394,7.96a5.119,5.119,0,0,1-1.275,2.582l-2.131,2.316" transform="translate(-727.104 -799.163)" fill="#fff"/>
            <line id="Línea_659" data-name="Línea 659" x1="4.021" y2="9.723" transform="translate(156.082 172.984)" fill="#fff"/>
            <line id="Línea_660" data-name="Línea 660" x1="2.443" y2="5.88" transform="translate(160.212 177.841)" fill="#fff"/>
            <path id="Trazado_877174" data-name="Trazado 877174" d="M102.848,804.157s.145-.088,2.76,1.139c0,0,2.028-4.43-2.829-6.938,0,0,11.354-14.68,1.054-19.216S80.4,783.679,76.882,791.9s.694,27.591.694,27.591-10.46.854-8.859,11.741a17.622,17.622,0,0,0-5.337,19.746c4.269,12.595,21.56,8.325,21.56,8.325s12.274,5.06,21.454-4.087,1.677-21.068,1.677-21.068l17.865-3.133s.1-3.519-7.053-4.373-11.794-2.668-13.555-6.991-2.479-15.491-2.479-15.491" transform="translate(-51.511 -643.349)" fill="#030047"/>
            <path id="Trazado_877175" data-name="Trazado 877175" d="M251.068,927.9s-8.585-2.021-10.906.867,5.278,12.665,9.412,11.464a11.388,11.388,0,0,0,6.11-4.355" transform="translate(-198.257 -766.805)" fill="#fff"/>
            <path id="Trazado_877176" data-name="Trazado 877176" d="M246.6,938.571c-2.53,0-5.671-2.734-7.687-5.755-1.884-2.823-2.388-5.282-1.349-6.576,2.478-3.084,11.018-1.116,11.38-1.031a.47.47,0,0,1-.215.916c-2.308-.543-8.681-1.474-10.431.7-.746.929-.2,3.074,1.4,5.465,2.043,3.061,5.413,5.863,7.517,5.252a11.024,11.024,0,0,0,5.843-4.153.47.47,0,0,1,.8.5,11.775,11.775,0,0,1-6.377,4.557,3.131,3.131,0,0,1-.875.12" transform="translate(-196.028 -764.574)" fill="#030047"/>
            <path id="Trazado_877177" data-name="Trazado 877177" d="M261.765,950.652a.471.471,0,0,1-.283-.095,6.847,6.847,0,0,1-2.1-2.623,2.1,2.1,0,0,1-.223-.825,1.142,1.142,0,0,1,.47-.986,1.473,1.473,0,0,1,.821-.208l3.241-.09a.49.49,0,0,1,.483.458.47.47,0,0,1-.457.483l-3.24.09a.855.855,0,0,0-.317.044.246.246,0,0,0-.059.187,1.286,1.286,0,0,0,.139.458,5.9,5.9,0,0,0,1.81,2.261.47.47,0,0,1-.284.846" transform="translate(-214.324 -782.199)" fill="#030047"/>
            <path id="Trazado_877178" data-name="Trazado 877178" d="M691.11,1149.619l6.623-35.075-24.342-10.073L661.9,1149.619Z" transform="translate(-547.389 -913.398)" fill="#ffcc3d"/>
            <path id="Trazado_877179" data-name="Trazado 877179" d="M666.38,1142.729a.49.49,0,0,1-.118-.015.47.47,0,0,1-.338-.573l10.33-40.036a.469.469,0,0,1,.244-.3.464.464,0,0,1,.389-.016l24.342,9.939a.47.47,0,0,1,.284.523l-4.294,22.438a.47.47,0,0,1-.924-.176l4.222-22.061-23.487-9.59-10.2,39.514a.47.47,0,0,1-.455.353" transform="translate(-550.707 -911.15)" fill="#030047"/>
            <path id="Trazado_877180" data-name="Trazado 877180" d="M362.884,854.836a3.779,3.779,0,0,1,2.378-3.469" transform="translate(-300.104 -704.081)" fill="#fff"/>
            <path id="Trazado_877181" data-name="Trazado 877181" d="M360.635,853.064a.47.47,0,0,1-.47-.459,4.239,4.239,0,0,1,2.66-3.911.47.47,0,0,1,.377.862,3.3,3.3,0,0,0-2.1,3.027.47.47,0,0,1-.459.481Z" transform="translate(-297.856 -701.839)" fill="#030047"/>
            <path id="Trazado_877182" data-name="Trazado 877182" d="M378.675,864.692c1.019.49,1.577,1.439,1.249,2.127s-1.417.838-2.438.354-1.582-1.44-1.249-2.126,1.417-.838,2.438-.354" transform="translate(-311.069 -714.869)" fill="#030047"/>
            <path id="Trazado_877183" data-name="Trazado 877183" d="M396.258,837.584a18.05,18.05,0,0,0,7.028,3.2c.834.179,1.811.394,2.162,1.172a2.559,2.559,0,0,1,.134,1.154c-.045,1.2-.841,3.937-.886,5.14" transform="translate(-327.705 -692.683)" fill="#fff"/>
            <path id="Trazado_877184" data-name="Trazado 877184" d="M402.45,846.475h-.018a.47.47,0,0,1-.452-.487,18.665,18.665,0,0,1,.453-2.651,18.7,18.7,0,0,0,.433-2.489,2.2,2.2,0,0,0-.093-.942c-.256-.568-1.093-.748-1.832-.906a18.582,18.582,0,0,1-7.212-3.286.47.47,0,1,1,.565-.752,17.629,17.629,0,0,0,6.844,3.119c.862.184,2.041.437,2.492,1.438a2.982,2.982,0,0,1,.175,1.365,18.6,18.6,0,0,1-.453,2.65,18.681,18.681,0,0,0-.433,2.49.471.471,0,0,1-.47.453" transform="translate(-325.458 -690.435)" fill="#030047"/>
            <path id="Trazado_877185" data-name="Trazado 877185" d="M406.175,924.942a.47.47,0,0,1-.036-.939,3.158,3.158,0,0,0,2.9-3.4.47.47,0,0,1,.431-.506.477.477,0,0,1,.506.432,4.1,4.1,0,0,1-3.769,4.412h-.037" transform="translate(-335.518 -760.92)" fill="#030047"/>
            <g id="Grupo_1100576" data-name="Grupo 1100576" transform="translate(84.713 196.459)" opacity="0.4">
              <g id="Grupo_1100575" data-name="Grupo 1100575">
                <g id="Grupo_1100574" data-name="Grupo 1100574" clip-path="url(#clip-path-6)">
                  <path id="Trazado_877186" data-name="Trazado 877186" d="M492.7,1141.667a3.032,3.032,0,1,1,3.032-3.032,3.035,3.035,0,0,1-3.032,3.032m0-5.123a2.091,2.091,0,1,0,2.091,2.091,2.094,2.094,0,0,0-2.091-2.091" transform="translate(-489.669 -1135.604)" fill="#fff"/>
                </g>
              </g>
            </g>
            <g id="Grupo_1100579" data-name="Grupo 1100579" transform="translate(70.621 212.428)" opacity="0.4">
              <g id="Grupo_1100578" data-name="Grupo 1100578">
                <g id="Grupo_1100577" data-name="Grupo 1100577" clip-path="url(#clip-path-7)">
                  <path id="Trazado_877187" data-name="Trazado 877187" d="M410.966,1233.417a2.753,2.753,0,1,1,2.753-2.753,2.756,2.756,0,0,1-2.753,2.753m0-4.566a1.813,1.813,0,1,0,1.813,1.813,1.815,1.815,0,0,0-1.813-1.813" transform="translate(-408.213 -1227.91)" fill="#fff"/>
                </g>
              </g>
            </g>
            <g id="Grupo_1100582" data-name="Grupo 1100582" transform="translate(55.734 221.568)" opacity="0.4">
              <g id="Grupo_1100581" data-name="Grupo 1100581">
                <g id="Grupo_1100580" data-name="Grupo 1100580" clip-path="url(#clip-path-8)">
                  <path id="Trazado_877188" data-name="Trazado 877188" d="M327.851,1292.12a5.687,5.687,0,1,1,5.687-5.687,5.693,5.693,0,0,1-5.687,5.687m0-10.433a4.746,4.746,0,1,0,4.746,4.746,4.752,4.752,0,0,0-4.746-4.746" transform="translate(-322.164 -1280.747)" fill="#fff"/>
                </g>
              </g>
            </g>
            <g id="Grupo_1100585" data-name="Grupo 1100585" transform="translate(65.661 193.897)" opacity="0.4">
              <g id="Grupo_1100584" data-name="Grupo 1100584">
                <g id="Grupo_1100583" data-name="Grupo 1100583" clip-path="url(#clip-path-9)">
                  <path id="Trazado_877189" data-name="Trazado 877189" d="M383.213,1128.143a3.672,3.672,0,1,1,3.672-3.672,3.676,3.676,0,0,1-3.672,3.672m0-6.4a2.732,2.732,0,1,0,2.732,2.732,2.735,2.735,0,0,0-2.732-2.732" transform="translate(-379.541 -1120.798)" fill="#fff"/>
                </g>
              </g>
            </g>
            <g id="Grupo_1100588" data-name="Grupo 1100588" transform="translate(89.276 214.711)" opacity="0.4">
              <g id="Grupo_1100587" data-name="Grupo 1100587">
                <g id="Grupo_1100586" data-name="Grupo 1100586" clip-path="url(#clip-path-10)">
                  <path id="Trazado_877190" data-name="Trazado 877190" d="M519.1,1247.219a3.057,3.057,0,1,1,3.057-3.057,3.06,3.06,0,0,1-3.057,3.057m0-5.173a2.116,2.116,0,1,0,2.116,2.116,2.118,2.118,0,0,0-2.116-2.116" transform="translate(-516.044 -1241.106)" fill="#fff"/>
                </g>
              </g>
            </g>
            <g id="Grupo_1100591" data-name="Grupo 1100591" transform="translate(123.538 217.832)" opacity="0.4">
              <g id="Grupo_1100590" data-name="Grupo 1100590">
                <g id="Grupo_1100589" data-name="Grupo 1100589" clip-path="url(#clip-path-11)">
                  <path id="Trazado_877191" data-name="Trazado 877191" d="M718.324,1267.616a4.233,4.233,0,1,1,4.233-4.233,4.238,4.238,0,0,1-4.233,4.233m0-7.525a3.292,3.292,0,1,0,3.292,3.292,3.3,3.3,0,0,0-3.292-3.292" transform="translate(-714.091 -1259.151)" fill="#fff"/>
                </g>
              </g>
            </g>
            <g id="Grupo_1100594" data-name="Grupo 1100594" transform="translate(134.184 203.824)" opacity="0.4">
              <g id="Grupo_1100593" data-name="Grupo 1100593">
                <g id="Grupo_1100592" data-name="Grupo 1100592" clip-path="url(#clip-path-12)">
                  <path id="Trazado_877192" data-name="Trazado 877192" d="M777.7,1182.32a2.071,2.071,0,1,1,2.071-2.072,2.074,2.074,0,0,1-2.071,2.072m0-3.2a1.131,1.131,0,1,0,1.131,1.13,1.132,1.132,0,0,0-1.131-1.13" transform="translate(-775.632 -1178.177)" fill="#fff"/>
                </g>
              </g>
            </g>
            <g id="Grupo_1100597" data-name="Grupo 1100597" transform="translate(135.785 227.375)" opacity="0.4">
              <g id="Grupo_1100596" data-name="Grupo 1100596">
                <g id="Grupo_1100595" data-name="Grupo 1100595" clip-path="url(#clip-path-13)">
                  <path id="Trazado_877193" data-name="Trazado 877193" d="M785.878,1323.026a.47.47,0,0,1-.426-.271,5.918,5.918,0,0,1,8.931-7.239.47.47,0,1,1-.569.748,4.976,4.976,0,0,0-7.986,3.959,4.989,4.989,0,0,0,.476,2.133.47.47,0,0,1-.226.625.463.463,0,0,1-.2.045" transform="translate(-784.887 -1314.31)" fill="#fff"/>
                </g>
              </g>
            </g>
            <g id="Grupo_1100600" data-name="Grupo 1100600" transform="translate(35.695 220.594)" opacity="0.4">
              <g id="Grupo_1100599" data-name="Grupo 1100599">
                <g id="Grupo_1100598" data-name="Grupo 1100598" clip-path="url(#clip-path-14)">
                  <path id="Trazado_877194" data-name="Trazado 877194" d="M211.174,1284.808a4.846,4.846,0,1,1,4.846-4.847,4.852,4.852,0,0,1-4.846,4.847m0-8.752a3.906,3.906,0,1,0,3.906,3.906,3.91,3.91,0,0,0-3.906-3.906" transform="translate(-206.328 -1275.115)" fill="#fff"/>
                </g>
              </g>
            </g>
            <g id="Grupo_1100603" data-name="Grupo 1100603" transform="translate(96.854 175.11)" opacity="0.4">
              <g id="Grupo_1100602" data-name="Grupo 1100602">
                <g id="Grupo_1100601" data-name="Grupo 1100601" clip-path="url(#clip-path-15)">
                  <path id="Trazado_877195" data-name="Trazado 877195" d="M563.325,1019.15a3.475,3.475,0,1,1,3.476-3.475,3.479,3.479,0,0,1-3.476,3.475m0-6.01a2.535,2.535,0,1,0,2.535,2.535,2.538,2.538,0,0,0-2.535-2.535" transform="translate(-559.849 -1012.199)" fill="#fff"/>
                </g>
              </g>
            </g>
            <path id="Trazado_877196" data-name="Trazado 877196" d="M586.726,880.115s12.03-3.27,13.477,1.259-7.862,5.472-7.862,5.472,2.413,4.56-2.139,5.095" transform="translate(-485.222 -726.912)" fill="#fff"/>
            <path id="Trazado_877197" data-name="Trazado 877197" d="M587.953,890.206a.47.47,0,0,1-.054-.937,2.557,2.557,0,0,0,2.133-1.135c.675-1.282-.345-3.253-.356-3.273a.47.47,0,0,1,.368-.687c.057-.006,5.717-.608,7.239-2.93a2.141,2.141,0,0,0,.223-1.931c-1.074-3.364-9.68-1.825-12.906-.949a.47.47,0,0,1-.247-.908c.509-.138,12.483-3.331,14.048,1.57a3.068,3.068,0,0,1-.333,2.734c-1.447,2.207-5.672,3.028-7.294,3.268a4.507,4.507,0,0,1,.09,3.541,3.42,3.42,0,0,1-2.857,1.635c-.019,0-.037,0-.056,0" transform="translate(-482.974 -724.706)" fill="#030047"/>
            <path id="Trazado_877198" data-name="Trazado 877198" d="M1105.527,990.31l-3.816-8.928a2.015,2.015,0,0,0-2.251-1.183l-9.719,1.958a3.377,3.377,0,0,1-3.661-4.872l14.246-27.305a3.377,3.377,0,0,1,4.556-1.432l19.53,10.189a3.377,3.377,0,0,1,1.432,4.556l-14.219,27.254a3.377,3.377,0,0,1-6.1-.235" transform="translate(-897.866 -784.131)" fill="#605efd"/>
            <path id="Trazado_877199" data-name="Trazado 877199" d="M1106.4,990.589l-.154,0a3.815,3.815,0,0,1-3.389-2.333l-3.816-8.928a1.552,1.552,0,0,0-1.726-.908l-9.718,1.958a3.847,3.847,0,0,1-4.17-5.551l14.246-27.306a3.853,3.853,0,0,1,5.19-1.632l19.53,10.189a3.852,3.852,0,0,1,1.631,5.191l-14.219,27.254a3.811,3.811,0,0,1-3.4,2.067m-2.678-2.7a2.906,2.906,0,0,0,5.249.2l14.219-27.254a2.911,2.911,0,0,0-1.232-3.922l-19.53-10.189a2.91,2.91,0,0,0-3.921,1.233l-14.246,27.306a2.906,2.906,0,0,0,3.151,4.193l9.718-1.958a2.5,2.5,0,0,1,2.776,1.46Z" transform="translate(-895.63 -781.891)" fill="#030047"/>
            <path id="Trazado_877200" data-name="Trazado 877200" d="M24.953,429.107a23.333,23.333,0,1,0-14.068-29.848,23.333,23.333,0,0,0,14.068,29.848" transform="translate(-7.86 -317.411)" fill="#ffcc3d"/>
            <path id="Trazado_877201" data-name="Trazado 877201" d="M45.132,423.684a.471.471,0,0,1-.292-.84A22.864,22.864,0,1,0,10.481,415.7a.471.471,0,0,1-.83.444,23.8,23.8,0,1,1,35.772,7.443.47.47,0,0,1-.291.1" transform="translate(-5.661 -315.182)" fill="#030047"/>
            <path id="Trazado_877202" data-name="Trazado 877202" d="M164.112,609.7l8.5,3.668a2.161,2.161,0,0,0,3.013-1.859l.536-9.247Z" transform="translate(-135.721 -498.068)" fill="#ffcc3d"/>
            <path id="Trazado_877203" data-name="Trazado 877203" d="M211.879,611.758a2.632,2.632,0,0,1-1.041-.215.47.47,0,1,1,.373-.864,1.691,1.691,0,0,0,2.357-1.455l.536-9.246a.47.47,0,1,1,.939.054l-.536,9.247a2.631,2.631,0,0,1-2.627,2.479" transform="translate(-174.128 -495.815)" fill="#030047"/>
            <path id="Trazado_877204" data-name="Trazado 877204" d="M89.99,463.309c1.951,8.722-8.9,17.462-8.9,17.462S67.55,477.487,65.6,468.764a7.91,7.91,0,0,1,10.788-9.02,7.91,7.91,0,0,1,13.6,3.565" transform="translate(-54.091 -378.04)" fill="#fff"/>
            <path id="Trazado_877205" data-name="Trazado 877205" d="M312.611,1361.986H79.835a.47.47,0,1,1,0-.941H312.611a.47.47,0,1,1,0,.941" transform="translate(-65.635 -1125.585)" fill="#030047"/>
            <path id="Trazado_877206" data-name="Trazado 877206" d="M1354.82,1025.837a.439.439,0,0,1-.1-.01,39.666,39.666,0,0,1-12.338-4.882.47.47,0,1,1,.487-.8,38.734,38.734,0,0,0,12.046,4.767.47.47,0,0,1-.1.93" transform="translate(-1109.964 -843.6)" fill="#fff"/>
            <path id="Trazado_877207" data-name="Trazado 877207" d="M1340.42,949.449a.47.47,0,0,1-.256-.865l13.788-8.936a.47.47,0,1,1,.511.789l-13.788,8.936a.468.468,0,0,1-.255.076" transform="translate(-1108.138 -777.026)" fill="#fff"/>
            <path id="Trazado_877208" data-name="Trazado 877208" d="M1308.117,940.056a.47.47,0,0,1-.457-.361l-2.158-9.028a.47.47,0,0,1,.915-.219l2.158,9.028a.471.471,0,0,1-.348.567.492.492,0,0,1-.11.013" transform="translate(-1079.639 -769.185)" fill="#fff"/>
            <path id="Trazado_877209" data-name="Trazado 877209" d="M8.195,869.449,5.6,871.08a2.6,2.6,0,0,1-3.575-.813L.4,867.675a2.588,2.588,0,0,1,.811-3.567l2.593-1.64a2.6,2.6,0,0,1,3.575.813l1.629,2.6a2.588,2.588,0,0,1-.811,3.567" transform="translate(0 -712.934)" fill="#ffcc3d"/>
            <path id="Trazado_877210" data-name="Trazado 877210" d="M1363.536,364.009l-2.591,1.631a2.6,2.6,0,0,1-3.575-.813l-1.631-2.591a2.588,2.588,0,0,1,.811-3.567l2.593-1.64a2.6,2.6,0,0,1,3.575.813l1.629,2.6a2.588,2.588,0,0,1-.811,3.567" transform="translate(-1120.867 -294.936)" fill="#ffcc3d"/>
            <path id="Trazado_877211" data-name="Trazado 877211" d="M18.724,288.129l-2.385,1.5a2.391,2.391,0,0,1-3.29-.748l-1.5-2.385a2.382,2.382,0,0,1,.747-3.283l2.387-1.509a2.391,2.391,0,0,1,3.29.748l1.5,2.393a2.382,2.382,0,0,1-.747,3.283" transform="translate(-9.247 -232.668)" fill="#ffcc3d"/>
            <path id="Trazado_877212" data-name="Trazado 877212" d="M779.387,6.793,777,8.294a2.391,2.391,0,0,1-3.29-.748l-1.5-2.385a2.382,2.382,0,0,1,.746-3.283L775.344.369a2.392,2.392,0,0,1,3.291.748l1.5,2.393a2.382,2.382,0,0,1-.747,3.283" transform="translate(-638.316 -0.004)" fill="#ffcc3d"/>
            <g id="Grupo_1100609" data-name="Grupo 1100609" transform="translate(77.5 42.973)">
              <g id="Grupo_1100628" data-name="Grupo 1100628" clip-path="url(#clip-path-16)">
                <g id="Grupo_1100627" data-name="Grupo 1100627">
                  <g id="Grupo_1100626" data-name="Grupo 1100626" clip-path="url(#clip-path-16)">
                    <path id="Trazado_877213" data-name="Trazado 877213" d="M121.72,96.024s.127-.179.385-.518l.217-.285c.073-.11.139-.24.219-.376a5.875,5.875,0,0,0,.49-.979c.076-.193.167-.394.244-.612l.195-.706a5.035,5.035,0,0,0,.163-.787,8.39,8.39,0,0,0,.12-.866,16.406,16.406,0,0,0-.191-4.178,37.569,37.569,0,0,0-3.837-10.8,84.362,84.362,0,0,0-8.24-12.815A131.178,131.178,0,0,0,99.2,49.3,150.287,150.287,0,0,0,83.067,35.527c-3.011-2.213-6.187-4.36-9.535-6.381A92.1,92.1,0,0,0,62.94,23.592,49.5,49.5,0,0,0,51.155,19.9a20.833,20.833,0,0,0-6.284-.154,11.766,11.766,0,0,0-3.036.879,8.579,8.579,0,0,0-2.548,1.863,8.6,8.6,0,0,0-1.566,2.742,11.78,11.78,0,0,0-.53,3.117,20.769,20.769,0,0,0,.866,6.228,49.464,49.464,0,0,0,5.011,11.292,92.069,92.069,0,0,0,6.724,9.893c2.39,3.1,4.885,6.009,7.426,8.749A150.22,150.22,0,0,0,72.734,78.967,131.089,131.089,0,0,0,87.845,89.6a84.357,84.357,0,0,0,13.668,6.728,37.573,37.573,0,0,0,11.171,2.581,16.382,16.382,0,0,0,4.172-.286,8.48,8.48,0,0,0,.847-.218,4.994,4.994,0,0,0,.763-.251l.679-.274c.208-.1.4-.215.581-.312a5.868,5.868,0,0,0,.916-.6c.126-.095.248-.175.349-.26l.258-.248c.308-.295.471-.442.471-.442s-.15.158-.453.46l-.255.253c-.1.087-.221.17-.346.266a5.785,5.785,0,0,1-.915.611c-.183.1-.372.216-.581.32l-.681.281a5.024,5.024,0,0,1-.766.258,8.509,8.509,0,0,1-.851.225,16.38,16.38,0,0,1-4.192.31,37.478,37.478,0,0,1-11.215-2.548,84.131,84.131,0,0,1-13.71-6.707A130.8,130.8,0,0,1,72.6,79.127,150.039,150.039,0,0,1,57.049,64.662C54.5,61.919,52,59,49.6,55.9a92.114,92.114,0,0,1-6.746-9.915,49.659,49.659,0,0,1-5.039-11.348,21.021,21.021,0,0,1-.876-6.3,12.03,12.03,0,0,1,.543-3.187A8.847,8.847,0,0,1,39.1,22.32,8.823,8.823,0,0,1,41.73,20.4a12.013,12.013,0,0,1,3.1-.9,21.07,21.07,0,0,1,6.36.156,49.67,49.67,0,0,1,11.844,3.715,92.192,92.192,0,0,1,10.616,5.573c3.354,2.028,6.534,4.181,9.549,6.4a149.967,149.967,0,0,1,16.14,13.806,130.679,130.679,0,0,1,12.282,13.842,84.074,84.074,0,0,1,8.224,12.858A37.477,37.477,0,0,1,123.657,86.7a16.358,16.358,0,0,1,.169,4.2,8.332,8.332,0,0,1-.127.871,5.027,5.027,0,0,1-.17.791l-.2.709c-.079.219-.173.421-.252.614a5.8,5.8,0,0,1-.5.979c-.082.136-.15.265-.225.374l-.223.283c-.265.336-.405.5-.405.5" transform="translate(-22.267 -11.649)" fill="#e0e0e0"/>
                    <path id="Trazado_877214" data-name="Trazado 877214" d="M120.749,89.022s-.024-.218-.057-.643q-.013-.16-.028-.357c-.018-.131-.056-.272-.087-.426a5.829,5.829,0,0,0-.286-1.057c-.072-.195-.137-.405-.225-.62l-.325-.656a4.968,4.968,0,0,0-.4-.7,8.35,8.35,0,0,0-.487-.727,16.376,16.376,0,0,0-2.924-2.99,37.571,37.571,0,0,0-10.056-5.509,84.385,84.385,0,0,0-14.679-4.077,131.108,131.108,0,0,0-18.356-2.121,150.292,150.292,0,0,0-21.2.463c-3.72.353-7.52.866-11.364,1.586a92.063,92.063,0,0,0-11.6,2.906,49.476,49.476,0,0,0-11.253,5.088,20.844,20.844,0,0,0-4.793,4.068,11.766,11.766,0,0,0-1.68,2.677,7.566,7.566,0,0,0,0,6.175,11.772,11.772,0,0,0,1.679,2.679,20.774,20.774,0,0,0,4.792,4.071,49.445,49.445,0,0,0,11.256,5.091,92.031,92.031,0,0,0,11.6,2.907c3.845.72,7.645,1.233,11.366,1.586a150.329,150.329,0,0,0,21.205.463A131.17,131.17,0,0,0,91.2,106.781a84.367,84.367,0,0,0,14.679-4.078,37.573,37.573,0,0,0,10.054-5.509,16.386,16.386,0,0,0,2.923-2.99,8.44,8.44,0,0,0,.487-.727,4.966,4.966,0,0,0,.4-.7l.325-.656c.087-.214.153-.425.225-.62a5.834,5.834,0,0,0,.286-1.056c.031-.154.069-.3.087-.426s.02-.251.028-.357c.033-.425.057-.643.057-.643s-.007.218-.032.645q-.01.161-.022.359c-.016.132-.052.274-.081.429a5.739,5.739,0,0,1-.276,1.065c-.07.2-.134.409-.22.626l-.322.663a4.985,4.985,0,0,1-.4.7,8.418,8.418,0,0,1-.485.735,16.371,16.371,0,0,1-2.922,3.021,37.475,37.475,0,0,1-10.065,5.564,84.1,84.1,0,0,1-14.7,4.121,130.737,130.737,0,0,1-18.38,2.154,149.989,149.989,0,0,1-21.237-.44c-3.727-.351-7.534-.861-11.388-1.58a92.137,92.137,0,0,1-11.634-2.909,49.655,49.655,0,0,1-11.314-5.114,21.03,21.03,0,0,1-4.85-4.121A12.017,12.017,0,0,1,10.709,92.2a7.814,7.814,0,0,1,0-6.37,12.017,12.017,0,0,1,1.717-2.737,21.067,21.067,0,0,1,4.85-4.117,49.672,49.672,0,0,1,11.312-5.112,92.079,92.079,0,0,1,11.632-2.908c3.853-.72,7.66-1.23,11.386-1.58a149.953,149.953,0,0,1,21.234-.44,130.749,130.749,0,0,1,18.38,2.154,84.074,84.074,0,0,1,14.7,4.121,37.473,37.473,0,0,1,10.066,5.564A16.337,16.337,0,0,1,118.91,83.8a8.177,8.177,0,0,1,.485.734,4.969,4.969,0,0,1,.4.7l.322.663c.087.216.151.429.221.626a5.766,5.766,0,0,1,.276,1.065c.029.156.065.3.081.429s.015.252.022.359c.025.427.032.645.032.645" transform="translate(-6.049 -41.451)" fill="#e0e0e0"/>
                    <path id="Trazado_877215" data-name="Trazado 877215" d="M129.5,1.758s-.187-.115-.543-.349l-.3-.2c-.115-.066-.249-.122-.39-.192A5.836,5.836,0,0,0,127.261.6c-.2-.063-.4-.14-.627-.2l-.718-.146a4.956,4.956,0,0,0-.8-.108,8.323,8.323,0,0,0-.872-.06,16.39,16.39,0,0,0-4.155.478,37.577,37.577,0,0,0-10.515,4.572,84.433,84.433,0,0,0-12.216,9.1A131.16,131.16,0,0,0,84.438,27.446,150.238,150.238,0,0,0,71.813,44.487c-2,3.156-3.923,6.473-5.709,9.952a92.05,92.05,0,0,0-4.811,10.949A49.487,49.487,0,0,0,58.42,77.4a20.827,20.827,0,0,0,.278,6.28,11.774,11.774,0,0,0,1.086,2.968,7.567,7.567,0,0,0,4.877,3.787,11.771,11.771,0,0,0,3.146.314,20.791,20.791,0,0,0,6.154-1.293,49.457,49.457,0,0,0,10.92-5.777,92.026,92.026,0,0,0,9.406-7.389c2.925-2.6,5.658-5.287,8.217-8.011A150.288,150.288,0,0,0,115.862,51.8,131.127,131.127,0,0,0,125.432,36a84.341,84.341,0,0,0,5.77-14.1,37.55,37.55,0,0,0,1.806-11.322,16.376,16.376,0,0,0-.572-4.142,8.36,8.36,0,0,0-.276-.83,4.964,4.964,0,0,0-.3-.744l-.32-.659c-.116-.2-.242-.382-.352-.558a5.869,5.869,0,0,0-.66-.873c-.1-.12-.191-.235-.284-.33l-.265-.241c-.315-.287-.473-.439-.473-.439s.168.139.49.421l.27.237c.094.093.184.208.289.327a5.788,5.788,0,0,1,.673.871c.112.176.241.357.359.558l.327.66a5,5,0,0,1,.311.746,8.525,8.525,0,0,1,.283.833,16.372,16.372,0,0,1,.6,4.161,37.479,37.479,0,0,1-1.769,11.364,84.117,84.117,0,0,1-5.747,14.139,130.74,130.74,0,0,1-9.558,15.846,150.025,150.025,0,0,1-13.359,16.515c-2.561,2.731-5.3,5.427-8.226,8.032a92.134,92.134,0,0,1-9.427,7.413,49.657,49.657,0,0,1-10.974,5.808A21.021,21.021,0,0,1,67.816,91a12.026,12.026,0,0,1-3.217-.322,7.815,7.815,0,0,1-5.031-3.907,12.018,12.018,0,0,1-1.111-3.034,21.059,21.059,0,0,1-.282-6.356,49.678,49.678,0,0,1,2.89-12.072,92.16,92.16,0,0,1,4.829-10.975c1.792-3.486,3.721-6.807,5.727-9.967A149.984,149.984,0,0,1,84.282,27.312,130.7,130.7,0,0,1,97.245,14.106a84.094,84.094,0,0,1,12.261-9.091A37.483,37.483,0,0,1,120.07.468,16.367,16.367,0,0,1,124.249.01a8.387,8.387,0,0,1,.878.066,5.052,5.052,0,0,1,.8.115l.721.152c.224.064.431.144.63.209a5.794,5.794,0,0,1,1.011.434c.141.072.275.131.389.2l.3.2c.353.241.53.37.53.37" transform="translate(-35.007 0)" fill="#e0e0e0"/>
                    <path id="Trazado_877216" data-name="Trazado 877216" d="M3.506,176.363a2.054,2.054,0,1,1-2.9,0,2.053,2.053,0,0,1,2.9,0" transform="translate(0 -105.97)" fill="#e0e0e0"/>
                    <path id="Trazado_877217" data-name="Trazado 877217" d="M294.391,13.9a2.053,2.053,0,1,1-2.054-2.054,2.054,2.054,0,0,1,2.054,2.054" transform="translate(-175.018 -7.142)" fill="#e0e0e0"/>
                    <path id="Trazado_877218" data-name="Trazado 877218" d="M39.9,193.49a.522.522,0,1,1-.522-.522.522.522,0,0,1,.522.522" transform="translate(-23.429 -116.344)" fill="#e0e0e0"/>
                    <path id="Trazado_877219" data-name="Trazado 877219" d="M67.957,48.568a.522.522,0,1,1-.522-.522.522.522,0,0,1,.522.522" transform="translate(-40.343 -28.968)" fill="#e0e0e0"/>
                    <path id="Trazado_877220" data-name="Trazado 877220" d="M273.062,119.011a.522.522,0,1,1-.522-.522.522.522,0,0,1,.522.522" transform="translate(-164.005 -71.439)" fill="#e0e0e0"/>
                    <path id="Trazado_877221" data-name="Trazado 877221" d="M291.328,57.736a.522.522,0,1,1-.522-.522.522.522,0,0,1,.522.522" transform="translate(-175.018 -34.495)" fill="#e0e0e0"/>
                    <path id="Trazado_877222" data-name="Trazado 877222" d="M139.034,53.756a32.727,32.727,0,1,1-32.726-32.948,32.837,32.837,0,0,1,32.726,32.948" transform="translate(-44.364 -12.546)" fill="#ffcc3d"/>
                    <g id="Grupo_1100610" data-name="Grupo 1100610" transform="translate(29.218 38.719)" opacity="0.3">
                      <g id="Grupo_1100609-2" data-name="Grupo 1100609">
                        <g id="Grupo_1100608" data-name="Grupo 1100608" clip-path="url(#clip-path-18)">
                          <path id="Trazado_877223" data-name="Trazado 877223" d="M94.188,114.686c.171-1.434,1.289-2.889.647-4.184-.72-1.444-2.816-1.212-4.292-1.859-2.061-.906-2.7-3.463-4.044-5.27-1.206-1.616-4.023-3.391-6.166-2.9a2.613,2.613,0,0,0-2.247,2.418l-.2-.031c-.575-.062-1.248-.093-1.563-.57-.368-.554-.005-1.377-.383-1.921a3.029,3.029,0,0,0-.818-.611c-.28-.2-.517-.569-.347-.87.14-.254.5-.305.683-.538a.529.529,0,0,0-.01-.647c-.59-.7-1.248.725-1.574,1.061a2.826,2.826,0,0,1-.264.249v.005c-.005.062-.01.119-.01.181-.008.194-.007.393-.01.59s-.01.394-.01.59c0,.16.005.319.008.479s0,.321.008.479a5.553,5.553,0,0,1,1.01.5c.637.368,1.346.854,1.387,1.59a.607.607,0,0,0,.068.347.5.5,0,0,0,.305.155,9.011,9.011,0,0,0,1.662.233c.01.657.057,1.346.047,2a22.588,22.588,0,0,0-.223,2.822,7.6,7.6,0,0,0,1.874,3.479c3.055,4.08,4.7,8.759,6.487,13.554.332.264.8.616,1.146.859.269.194.517.363.792.549s.522.343.8.52c.2.124.24.159.442.278-.026-.057.023.04,0-.017-.72-1.579-.721-3.768.827-4.55a3.526,3.526,0,0,0,.875-.461c.689-.652.124-2,.813-2.651.388-.363.994-.337,1.476-.554a2.433,2.433,0,0,0,1.077-2.46,15.028,15.028,0,0,1-.274-2.837" transform="translate(-73.582 -97.508)"/>
                        </g>
                      </g>
                    </g>
                    <g id="Grupo_1100613" data-name="Grupo 1100613" transform="translate(29.629 17.682)" opacity="0.3">
                      <g id="Grupo_1100612" data-name="Grupo 1100612">
                        <g id="Grupo_1100611" data-name="Grupo 1100611" clip-path="url(#clip-path-19)">
                          <path id="Trazado_877224" data-name="Trazado 877224" d="M76.238,58.628a1.514,1.514,0,0,1,2.138.068,2.255,2.255,0,0,1,.171,1.672c-.12.766-.238,1.533-.363,2.3a1.2,1.2,0,0,0,.031.689c.228.486,1.025.394,1.331-.042a2.121,2.121,0,0,0,.191-1.558,2.956,2.956,0,0,1,.016-1.59c.518-1.232,2.355-1.046,3.422-1.848a5.8,5.8,0,0,0,1.351-2.061,2.283,2.283,0,0,1,1.88-1.424c.28.01.554.114.833.1a1.114,1.114,0,0,0,.714-1.8,2.061,2.061,0,0,1-.363-.373.679.679,0,0,1,.259-.813,1.932,1.932,0,0,1,.87-.28c.7-.114,1.4-.223,2.1-.332.772-.119,1.76-.518,1.651-1.289-.093-.668-1-.968-1.134-1.631a2.208,2.208,0,0,0-.088-.486c-.212-.425-.849-.254-1.258-.026a1.012,1.012,0,0,0-1.538-.492,2.7,2.7,0,0,0-.611,1.455,7.042,7.042,0,0,1-2.273,3.06,1.894,1.894,0,0,1-1.1.621c-.43.021-.88-.44-.683-.818.135-.259.507-.409.471-.7-.052-.363-.683-.337-.808-.683.249-1.025,1.424-1.45,2.325-2a5.628,5.628,0,0,0,2.377-2.92.741.741,0,0,0,.031-.6c-.135-.259-.482-.3-.777-.3-.694-.01-1.559.083-1.812.73a7.686,7.686,0,0,0-.119,1.1c-.243,1.077-1.719,1.2-2.62,1.838a8.254,8.254,0,0,1-1.015.787,3.827,3.827,0,0,1-1.377.222c-.083.005-.294,0-.377.008-.285.4-.509.757-.773,1.167s-.53.869-.776,1.291a32.408,32.408,0,0,0-2.781,6.351c-.253.774-.472,1.609-.666,2.407s-.332,1.557-.467,2.377a9.231,9.231,0,0,0,.59-2.061,3.777,3.777,0,0,1,1.03-2.123" transform="translate(-74.618 -44.529)"/>
                        </g>
                      </g>
                    </g>
                    <g id="Grupo_1100616" data-name="Grupo 1100616" transform="translate(50.197 10.582)" opacity="0.3">
                      <g id="Grupo_1100615" data-name="Grupo 1100615">
                        <g id="Grupo_1100614" data-name="Grupo 1100614" clip-path="url(#clip-path-20)">
                          <path id="Trazado_877225" data-name="Trazado 877225" d="M134.968,33.045c.309-.406.219-.989.419-1.458.333-.779,1.368-1.058,1.727-1.825.138-.3.172-.656.413-.876.2-.183.5-.22.714-.385a1,1,0,0,0-.23-1.537c-1.283-.82-3.645.128-4.754.93-1.426,1.031-2.82,2.273-4.717,2.152a3.729,3.729,0,0,0-1.557.008c-.49.185-.792.92-.37,1.231.235.173.567.125.832.247a1.056,1.056,0,0,1,.3,1.417c-.239.483-.669.845-.951,1.3a2.468,2.468,0,0,0-.352,1.5,1.368,1.368,0,0,0,.444.963c.59.471,1.487.068,1.987-.5a7.407,7.407,0,0,1,1.493-1.685,3.727,3.727,0,0,1,1.063-.37l2.473-.588a1.791,1.791,0,0,0,1.064-.529" transform="translate(-126.416 -26.649)"/>
                        </g>
                      </g>
                    </g>
                    <g id="Grupo_1100619" data-name="Grupo 1100619" transform="translate(60.393 15.45)" opacity="0.3">
                      <g id="Grupo_1100618" data-name="Grupo 1100618">
                        <g id="Grupo_1100617" data-name="Grupo 1100617" clip-path="url(#clip-path-21)">
                          <path id="Trazado_877226" data-name="Trazado 877226" d="M186.363,64.419q0-.707-.042-1.4c-.025-.465-.043-.936-.09-1.4-.036-.373-.069-.745-.12-1.113-.05-.388-.1-.835-.166-1.219a29.8,29.8,0,0,0-.72-3.29c-.122-.427-.329-.883-.467-1.3s-.284-.837-.439-1.251v-.005h0c-.166-.311-.341-.616-.533-.916-1.817-2.878-4.458-5.136-6.457-7.89-.652-.9-1.16-1.636-2.314-1.812-1.709-.264-2.573.71-3.785-.911-.326-.435-.9-.839-1.377-.58.124.347.254.694.378,1.046a.492.492,0,0,1,.042.228c-.026.243-.388.311-.6.176a2.123,2.123,0,0,1-.455-.585,1.676,1.676,0,0,0-2.459-.2.943.943,0,0,0-.544-.766,1.122,1.122,0,0,1-1.408.906c-.1-.316.466-.373.663-.642.181-.253-.036-.606-.269-.818a3.6,3.6,0,0,0-2.252-.875,3.09,3.09,0,0,1-1.543-.181c-.264-.155-.45-.414-.719-.564a2,2,0,0,0-1.874.3,3.659,3.659,0,0,0-1.89,1.859c-.285.86.342,2.024,1.243,1.916a1.754,1.754,0,0,1,.689-.078.834.834,0,0,1,.492.792,2.334,2.334,0,0,0,.15.968c.155.29.626.435.808.161a1.8,1.8,0,0,0,.264-1.657,2.209,2.209,0,0,1,.119-1.693c.347-.471,1.331-.321,1.263.259-.041.342-.43.59-.414.937s.446.538.8.523a3.791,3.791,0,0,1,1.051-.052c.347.083.621.533.373.787-.43.486-1.548-.347-1.771.259-.062.155,0,.331-.016.5-.041.507-.678.694-1.186.756a2.793,2.793,0,0,1-1.507-.109.957.957,0,0,1-.513-1.258.577.577,0,0,0-.792.29,1.661,1.661,0,0,0-.057.942c-.538-.119-1.02.337-1.325.787s-.606.984-1.128,1.144-1.253-.057-1.528.419c-.357.621.678,1.408.316,2.024-.207.347-.7.337-1.1.446a1.693,1.693,0,0,0-.694,2.63,2.035,2.035,0,0,0,2.878-.01,9.212,9.212,0,0,0,1.113-1.926,1.752,1.752,0,0,1,1.807-1.01,2.187,2.187,0,0,1,.741.466c.347.29.694.58,1.041.875.223.187.466.419.445.709-.021.233-.2.415-.28.632-.217.627.689,1.222,1.258.88a1.25,1.25,0,0,0,.243-1.755c-.538-.746-1.755-1.119-1.724-2.04.621-.507,1.6.026,1.962.746s.373,1.564.678,2.3,1.16,1.4,1.874,1.041c-.186-.642-.367-1.279-.554-1.916.456-.342.979.652,1.522.486.331-.1.372-.58.228-.9a4.517,4.517,0,0,1-.461-.937,1.067,1.067,0,0,1,1.237-1.093,1.619,1.619,0,0,1,1.212,1.336,2.968,2.968,0,0,0,.166.741c.238.5.854.647,1.362.854s1.041.72.828,1.227c-.1.222-.331.435-.249.663.078.2.378.29.378.507-.005.145-.155.243-.29.3-.342.14-.714.186-1.046.347a.944.944,0,0,0-.606.839c.041.517.657.766.947,1.2a6.349,6.349,0,0,1,.414,1.418,5.094,5.094,0,0,0,.782,1.134,12.877,12.877,0,0,1,1.481,4.064c.186.627.528,1.325,1.17,1.445a1.965,1.965,0,0,0,1.035-.2,6.246,6.246,0,0,0,2.537-1.512,2.135,2.135,0,0,0,.2-2.723.527.527,0,0,0-.316-.2.952.952,0,0,0-.487.171,1.387,1.387,0,0,1-1.445-.311,4.068,4.068,0,0,1-.859-1.289c-.254-.513-.507-1.03-.766-1.548a.9.9,0,0,1,1.108.1,5.984,5.984,0,0,1,.756.932,4.821,4.821,0,0,0,3.267,1.532,3.119,3.119,0,0,1,.922.192c.916.419,1.181,1.771,2.149,2.06a6.15,6.15,0,0,1,.823.187,1.514,1.514,0,0,1,.689,1.025,16.349,16.349,0,0,0,.606,2.289,2.116,2.116,0,0,0,1.75,1.393,1.816,1.816,0,0,0,1.294-.565c.041-.714.088-1.454.088-2.179,0-.15,0-.3-.01-.45" transform="translate(-152.093 -38.909)"/>
                        </g>
                      </g>
                    </g>
                    <g id="Grupo_1100622" data-name="Grupo 1100622" transform="translate(78.05 54.513)" opacity="0.3">
                      <g id="Grupo_1100621" data-name="Grupo 1100621">
                        <g id="Grupo_1100620" data-name="Grupo 1100620" clip-path="url(#clip-path-22)">
                          <path id="Trazado_877227" data-name="Trazado 877227" d="M199.931,137.312c-.488.1-.585.383-.85.744-.345.47-.839.94-1.152,1.4-.532.786-.053,2.013-.753,2.674a5.654,5.654,0,0,0-.455.372.825.825,0,0,0,.168,1.142,1.122,1.122,0,0,0,1.219.022,1.785,1.785,0,0,0,.747-1.02,1.719,1.719,0,0,1,.378-.837c.4-.351,1.023-.091,1.551-.164,2.243-.314,1.28-4.757-.853-4.337" transform="translate(-196.559 -137.284)"/>
                        </g>
                      </g>
                    </g>
                    <g id="Grupo_1100625" data-name="Grupo 1100625" transform="translate(55.779 30.119)" opacity="0.3">
                      <g id="Grupo_1100624" data-name="Grupo 1100624">
                        <g id="Grupo_1100623" data-name="Grupo 1100623" clip-path="url(#clip-path-23)">
                          <path id="Trazado_877228" data-name="Trazado 877228" d="M166.875,94.1c1.291-1.117,1.813-3.642.208-4.226-.607-.221-1.307-.043-1.909-.276a3,3,0,0,1-1.437-1.98L161.5,81.365c-.449-1.255-1.131-2.709-2.45-2.894a7.166,7.166,0,0,0-2.216.387c-2.557.465-6.857-5.722-8.8-1.557-.272-1.132-2.112-.707-2.7.3s-.712,2.337-1.644,3.035c-.711.533-1.754.565-2.334,1.236a3.009,3.009,0,0,0-.53,1.764l-.3,3.571a4.876,4.876,0,0,0,.33,2.825,1.686,1.686,0,0,0,2.428.654,7.307,7.307,0,0,0,.733-1.1,1.857,1.857,0,0,1,1.91-.659,3.226,3.226,0,0,1,1.454,1.023c3.328,3.584,4.521,8.687,4.667,13.576a7.781,7.781,0,0,0,.357,2.647c.386.976,1.2,1.764,1.438,2.786a12.126,12.126,0,0,0,.347,2.379c.62,1.348,2.689,1.4,3.816.44a6.363,6.363,0,0,0,1.745-3.99,10.38,10.38,0,0,1,1.2-4.248,14.725,14.725,0,0,0,1.614-2.229c.5-1.186.129-2.593.591-3.793.613-1.593,2.426-2.3,3.717-3.415" transform="translate(-140.474 -75.852)"/>
                        </g>
                      </g>
                    </g>
                    <path id="Trazado_877229" data-name="Trazado 877229" d="M138.911,53.659s-.012-.18-.024-.532-.009-.876-.069-1.561a33.552,33.552,0,0,0-.926-5.924,32.581,32.581,0,0,0-1.331-4.125,31.645,31.645,0,0,0-2.261-4.63,33.188,33.188,0,0,0-8.269-9.365,32.384,32.384,0,0,0-13.76-6.183,32.835,32.835,0,0,0-12.829.152,34.63,34.63,0,0,0-4.373,1.263A32.7,32.7,0,0,0,79.922,34.263a31.88,31.88,0,0,0-2.643,4.311c-.4.752-.739,1.537-1.087,2.321-.314.8-.635,1.6-.893,2.423a32.55,32.55,0,0,0-1.231,5.068,33.1,33.1,0,0,0,0,10.539,32.634,32.634,0,0,0,1.231,5.07c.259.825.579,1.625.893,2.423.348.784.686,1.569,1.086,2.321a31.982,31.982,0,0,0,2.643,4.313A32.7,32.7,0,0,0,95.068,84.564a34.589,34.589,0,0,0,4.373,1.263,32.815,32.815,0,0,0,12.83.152,32.378,32.378,0,0,0,13.76-6.184,33.185,33.185,0,0,0,8.268-9.366,31.663,31.663,0,0,0,2.261-4.63,32.829,32.829,0,0,0,1.331-4.124,33.6,33.6,0,0,0,.925-5.924c.06-.684.048-1.209.069-1.561s.024-.532.024-.532,0,.18,0,.532,0,.877-.049,1.563a32.5,32.5,0,0,1-2.206,10.082,31.717,31.717,0,0,1-2.252,4.652,33.238,33.238,0,0,1-8.279,9.422A32.484,32.484,0,0,1,112.3,86.147a32.992,32.992,0,0,1-12.9-.138A34.816,34.816,0,0,1,95,84.742,32.872,32.872,0,0,1,79.756,73.17a32.1,32.1,0,0,1-2.662-4.339c-.4-.756-.743-1.547-1.094-2.335-.316-.8-.638-1.608-.9-2.438a32.693,32.693,0,0,1-1.239-5.1,33.356,33.356,0,0,1,0-10.6,32.727,32.727,0,0,1,1.24-5.1c.26-.83.583-1.634.9-2.437.351-.789.691-1.578,1.094-2.334a32.062,32.062,0,0,1,2.662-4.338A32.872,32.872,0,0,1,95,22.575a34.773,34.773,0,0,1,4.4-1.266,32.978,32.978,0,0,1,12.9-.139,32.49,32.49,0,0,1,13.817,6.236,33.229,33.229,0,0,1,8.28,9.422,31.626,31.626,0,0,1,2.253,4.652,32.428,32.428,0,0,1,1.318,4.142,32.756,32.756,0,0,1,.889,5.942c.054.685.035,1.211.049,1.563s0,.532,0,.532" transform="translate(-44.278 -12.416)" fill="#263238"/>
                    <path id="Trazado_877230" data-name="Trazado 877230" d="M159,87.72c-.058,0-.1-14.626-.1-32.665s.046-32.667.1-32.667.1,14.623.1,32.667-.046,32.665-.1,32.665" transform="translate(-95.801 -13.498)" fill="#263238"/>
                    <path id="Trazado_877231" data-name="Trazado 877231" d="M163.87,87.543s.053-.043.162-.119l.485-.331c.433-.281,1.047-.731,1.823-1.329a35.666,35.666,0,0,0,5.833-5.868A38.422,38.422,0,0,0,178.129,69.2a46.628,46.628,0,0,0,2.634-14.755,52.483,52.483,0,0,0-1.671-14.915,30.24,30.24,0,0,0-5.493-10.9,19.193,19.193,0,0,0-3.37-3.283,18.281,18.281,0,0,0-3.036-1.854,20.43,20.43,0,0,0-2.085-.853l-.556-.189c-.125-.044-.187-.071-.187-.071s.066.014.193.051l.563.17a18.4,18.4,0,0,1,2.107.82,17.931,17.931,0,0,1,3.071,1.834,19.124,19.124,0,0,1,3.414,3.283,30.19,30.19,0,0,1,5.563,10.936,52.278,52.278,0,0,1,1.695,14.971,46.513,46.513,0,0,1-2.662,14.815,38.236,38.236,0,0,1-6.021,10.72,34.776,34.776,0,0,1-5.9,5.84c-.785.59-1.408,1.03-1.849,1.3l-.5.314c-.113.069-.173.1-.173.1" transform="translate(-98.8 -13.498)" fill="#263238"/>
                    <path id="Trazado_877232" data-name="Trazado 877232" d="M128.927,87.6s-.062-.032-.176-.1l-.507-.319c-.45-.275-1.087-.72-1.892-1.312a40.661,40.661,0,0,1-9.669-10.478,30.815,30.815,0,0,1-3-6,42.919,42.919,0,0,1-1.967-7.155,51.3,51.3,0,0,1-.8-7.926,51.842,51.842,0,0,1,1.767-15.246,31.214,31.214,0,0,1,2.525-6.222,21.4,21.4,0,0,1,3.436-4.732,21.694,21.694,0,0,1,6.943-4.783,22.528,22.528,0,0,1,2.159-.8l.574-.171c.129-.037.2-.052.2-.052s-.064.028-.191.072l-.567.19c-.5.168-1.226.435-2.139.837a21.954,21.954,0,0,0-6.871,4.811,21.385,21.385,0,0,0-3.391,4.712,31.2,31.2,0,0,0-2.492,6.194A52.035,52.035,0,0,0,111.114,54.3a51.439,51.439,0,0,0,.8,7.894,42.965,42.965,0,0,0,1.946,7.125,30.806,30.806,0,0,0,2.971,5.978,40.794,40.794,0,0,0,3.465,4.686A41.381,41.381,0,0,0,126.4,85.8c.8.6,1.425,1.056,1.867,1.341l.5.336c.111.077.165.12.165.12" transform="translate(-66.86 -13.443)" fill="#263238"/>
                    <path id="Trazado_877233" data-name="Trazado 877233" d="M139.662,102.252c0,.057-14.562.1-32.521.1s-32.524-.046-32.524-.1,14.559-.1,32.524-.1,32.521.046,32.521.1" transform="translate(-44.988 -61.588)" fill="#263238"/>
                    <path id="Trazado_877234" data-name="Trazado 877234" d="M141.564,59.981c0,.057-12.423.1-27.744.1s-27.746-.046-27.746-.1,12.42-.1,27.746-.1,27.744.046,27.744.1" transform="translate(-51.896 -36.102)" fill="#263238"/>
                    <path id="Trazado_877235" data-name="Trazado 877235" d="M140.545,145.32c0,.057-12.706.1-28.375.1s-28.378-.046-28.378-.1,12.7-.1,28.378-.1,28.375.046,28.375.1" transform="translate(-50.519 -87.554)" fill="#263238"/>
                    <path id="Trazado_877236" data-name="Trazado 877236" d="M128.718,101.461H87.8a10.493,10.493,0,0,1,0-20.986h40.915a10.493,10.493,0,1,1,0,20.986" transform="translate(-46.612 -48.52)" fill="#fff"/>
                    <path id="Trazado_877237" data-name="Trazado 877237" d="M128.577,101.3s.129-.013.38-.03a8.392,8.392,0,0,0,1.111-.11,10.2,10.2,0,0,0,4-1.47,11.023,11.023,0,0,0,1.2-.857l.586-.536c.2-.179.373-.4.567-.606a10.527,10.527,0,0,0,1.891-3.134,10.406,10.406,0,0,0,.679-4.14,10.35,10.35,0,0,0-4.713-8.324,9.956,9.956,0,0,0-1.2-.666,9.971,9.971,0,0,0-4.115-1.009c-3.923-.035-8.127,0-12.544-.01l-28.751.008A10.344,10.344,0,0,0,77.4,89.241a10.326,10.326,0,0,0,.057,3.522A10.654,10.654,0,0,0,78.665,96a10.507,10.507,0,0,0,4.942,4.388,11.127,11.127,0,0,0,3.135.776c1.061.08,2.132.036,3.176.049l6.091.005,10.933.013,15.83.033,4.3.019,1.119.01c.252,0,.381.011.381.011s-.129.007-.381.011l-1.119.01-4.3.019-15.83.033-10.933.013-6.091.005c-1.049-.012-2.1.035-3.193-.045a11.313,11.313,0,0,1-3.193-.787A10.7,10.7,0,0,1,78.494,96.1a10.836,10.836,0,0,1-1.232-3.3,10.5,10.5,0,0,1-.061-3.589,10.6,10.6,0,0,1,10.464-9l28.751.008c4.42.011,8.615-.014,12.55.029a10.136,10.136,0,0,1,4.179,1.034,10.252,10.252,0,0,1,1.213.68,10.815,10.815,0,0,1,3.531,3.856,10.7,10.7,0,0,1,1.225,4.6,10.489,10.489,0,0,1-2.627,7.344c-.2.206-.37.428-.576.608l-.594.537a11.073,11.073,0,0,1-1.212.856,10.113,10.113,0,0,1-4.033,1.443,7.653,7.653,0,0,1-1.117.089c-.252.009-.381.009-.381.009" transform="translate(-46.471 -48.363)" fill="#263238"/>
                    <path id="Trazado_877238" data-name="Trazado 877238" d="M114.654,94.076l-3.235,9.083h-3.084l-1.709-4.944-1.776,4.944h-3.084l-3.234-9.083h3.017l1.86,5.5,1.927-5.5h2.715l1.877,5.547,1.927-5.547Z" transform="translate(-59.407 -56.72)" fill="#263238"/>
                    <path id="Trazado_877239" data-name="Trazado 877239" d="M154.284,94.076l-3.235,9.083h-3.083l-1.709-4.944-1.777,4.944H141.4l-3.235-9.083h3.017l1.86,5.5,1.927-5.5h2.715l1.877,5.547,1.927-5.547Z" transform="translate(-83.3 -56.72)" fill="#263238"/>
                    <path id="Trazado_877240" data-name="Trazado 877240" d="M193.914,94.076l-3.235,9.083H187.6l-1.709-4.944-1.776,4.944h-3.084l-3.235-9.083h3.017l1.86,5.5,1.927-5.5h2.715l1.877,5.547,1.927-5.547Z" transform="translate(-107.194 -56.72)" fill="#263238"/>
                    <g id="Grupo_1100629" data-name="Grupo 1100629" transform="translate(78.659 62.085)">
                      <path id="Trazado_877241" data-name="Trazado 877241" d="M76.776,157.758l14.183,4.128a.762.762,0,0,1,.317,1.28l-9.678,9.35a.762.762,0,0,1-1.252-.307L75.84,158.732a.762.762,0,0,1,.936-.974" transform="translate(-75.799 -157.727)" fill="#12263f"/>
                      <path id="Trazado_877242" data-name="Trazado 877242" d="M77.375,182.411l-10-9.287L63.4,176.993l9.947,9.537Z" transform="translate(-56.741 -167.01)" fill="#12263f"/>
                    </g>
                  </g>
                </g>
              </g>
            </g>
            <path id="Trazado_877243" data-name="Trazado 877243" d="M676.306,772.718H623.388a2.359,2.359,0,0,1-2.359-2.359v-51.7a2.359,2.359,0,0,1,2.359-2.359h52.918a2.359,2.359,0,0,1,2.359,2.359v51.7a2.359,2.359,0,0,1-2.359,2.359" transform="translate(-513.591 -592.385)" fill="#030047"/>
            <path id="Trazado_877244" data-name="Trazado 877244" d="M695.639,771.216l3.7,7.5a3.132,3.132,0,0,0,2.358,1.713l8.274,1.2a3.132,3.132,0,0,1,1.736,5.341l-5.987,5.836a3.131,3.131,0,0,0-.9,2.772l1.413,8.241a3.132,3.132,0,0,1-4.544,3.3l-7.4-3.891a3.131,3.131,0,0,0-2.914,0l-7.4,3.891a3.132,3.132,0,0,1-4.544-3.3l1.414-8.241a3.131,3.131,0,0,0-.9-2.772l-5.987-5.836a3.132,3.132,0,0,1,1.736-5.341l8.274-1.2a3.132,3.132,0,0,0,2.358-1.713l3.7-7.5a3.132,3.132,0,0,1,5.616,0" transform="translate(-556.575 -636.354)" fill="#ffcc3d"/>
            <path id="Trazado_877169" data-name="Trazado 877169" d="M759.129,973.747a.469.469,0,0,1-.184-.037l-19.478-8.266a.47.47,0,0,1-.287-.433l.01-7.178a6.346,6.346,0,0,1,.641-2.762.47.47,0,1,1,.845.413,5.4,5.4,0,0,0-.545,2.35l-.009,6.866,18.9,8.023c2.132-2.066,18.734-18.176,20.546-20.483a1.452,1.452,0,0,0,.131-1.979,2.227,2.227,0,0,0-2.807-.524l-2.716,1.46a.47.47,0,0,1-.655-.6c.807-1.891,1.4-4.276.962-4.83a1.241,1.241,0,0,0-.955-.55h-.018a2.856,2.856,0,0,0-1.751,1.012.47.47,0,0,1-.8-.465c.526-1.45,1.678-5.757.127-6.517-.881-.433-2.2.688-2.627,1.156a.47.47,0,0,1-.8-.437c.257-.987.718-3.9-.5-4.316a2.052,2.052,0,0,0-1.719.338,5.155,5.155,0,0,0-2.166,2.774l-2.715,7.834a.473.473,0,0,1-.139.2l-11.545,9.859a.47.47,0,0,1-.611-.715l11.448-9.777,2.673-7.713a6.1,6.1,0,0,1,2.573-3.275,2.933,2.933,0,0,1,2.506-.419c1.543.531,1.546,2.667,1.355,4.112a2.718,2.718,0,0,1,2.677-.47c1.882.923,1.333,4.226.8,6.208a2.547,2.547,0,0,1,1.238-.333,2.149,2.149,0,0,1,1.679.9c.734.921.139,3.143-.368,4.586l1.6-.858a3.172,3.172,0,0,1,4,.778,2.386,2.386,0,0,1-.137,3.132c-1.966,2.5-20.085,20.05-20.856,20.8a.472.472,0,0,1-.327.132" transform="translate(-611.303 -772.942)" fill="#030047"/>
            <path id="Trazado_877161" data-name="Trazado 877161" d="M745.385,984.483l6.579-13.462a1.9,1.9,0,0,1,2.506-.9l.215.1a3.646,3.646,0,0,1,1.986,4.237l-2.964,11.046" transform="translate(-616.433 -802.149)" fill="#fff"/>
            <g id="Grupo_1100630" data-name="Grupo 1100630" transform="translate(124.45 146.42)" clip-path="url(#clip-path-24)">
              <path id="Trazado_877249" data-name="Trazado 877249" d="M63.729,79.764a1.887,1.887,0,1,0-1.888,1.888,1.887,1.887,0,0,0,1.888-1.888" transform="translate(-50.103 -65.08)" fill="#fff"/>
              <path id="Trazado_877250" data-name="Trazado 877250" d="M46.554,55.654a1.153,1.153,0,0,1-.818-.339,5.626,5.626,0,0,0-7.872-.083,1.157,1.157,0,0,1-1.6-1.67,7.94,7.94,0,0,1,11.109.118,1.157,1.157,0,0,1-.818,1.975" transform="translate(-30.007 -42.916)" fill="#fff"/>
              <path id="Trazado_877251" data-name="Trazado 877251" d="M34.58,30.409a1.154,1.154,0,0,1-.86-.383,9.184,9.184,0,0,0-13.594-.07,1.157,1.157,0,1,1-1.7-1.565,11.5,11.5,0,0,1,17.017.088,1.157,1.157,0,0,1-.859,1.931" transform="translate(-15.141 -20.617)" fill="#fff"/>
              <path id="Trazado_877252" data-name="Trazado 877252" d="M22.417,6.676a1.152,1.152,0,0,1-.811-.332A14.065,14.065,0,0,0,1.962,6.279,1.157,1.157,0,1,1,.352,4.618a16.378,16.378,0,0,1,22.876.076,1.157,1.157,0,0,1-.811,1.982" transform="translate(0 0)" fill="#fff"/>
            </g>
          </g>
        </g>
      </g>
    </g>
    <path id="Trazado_877245" data-name="Trazado 877245" d="M750.825,958.558l11.545-9.859,2.714-7.834a5.626,5.626,0,0,1,2.369-3.024,2.533,2.533,0,0,1,2.112-.379c1.9.655.8,4.879.8,4.879s1.784-1.943,3.18-1.259c2.282,1.119.109,7.1.109,7.1s1.962-2.318,3.45-.452c.893,1.12-.9,5.309-.9,5.309l2.716-1.46a2.688,2.688,0,0,1,3.4.651,1.9,1.9,0,0,1-.134,2.556c-1.969,2.508-20.813,20.748-20.813,20.748L741.9,967.268l.01-7.178a5.84,5.84,0,0,1,.593-2.556" transform="translate(-398.051 -354.083)" fill="#fff"/>
    <path id="Trazado_877246" data-name="Trazado 877246" d="M876.958,977.417a.47.47,0,0,1-.346-.789l2.131-2.316a4.635,4.635,0,0,0,1.157-2.344l1.394-7.96a.47.47,0,0,1,.926.161l-1.394,7.96a5.577,5.577,0,0,1-1.392,2.819l-2.131,2.316a.468.468,0,0,1-.346.152" transform="translate(-509.355 -375.798)" fill="#030047"/>
    <path id="Trazado_877247" data-name="Trazado 877247" d="M899.957,1007.858a.479.479,0,0,1-.18-.035.47.47,0,0,1-.255-.614l4.021-9.723a.47.47,0,1,1,.869.359l-4.021,9.723a.471.471,0,0,1-.435.291" transform="translate(-528.376 -403.564)" fill="#030047"/>
    <path id="Trazado_877248" data-name="Trazado 877248" d="M923.835,1032.089a.471.471,0,0,1-.434-.651l2.442-5.88a.47.47,0,0,1,.869.361l-2.443,5.88a.471.471,0,0,1-.434.29" transform="translate(-548.122 -426.782)" fill="#030047"/>
  </g>
</svg>
