<svg xmlns="http://www.w3.org/2000/svg" width="48" height="41" viewBox="0 0 48 41">
  <g id="Grupo_1101552" data-name="Grupo 1101552" transform="translate(-252.955 -633.997)">
    <rect id="Rectángulo_400902" data-name="Rectángulo 400902" width="48" height="41" rx="8" transform="translate(252.955 633.997)" fill="#d6e1fd"/>
    <g id="Grupo_1098863" data-name="Grupo 1098863" transform="translate(265.138 638.905)">
      <path id="Trazado_873186" data-name="Trazado 873186" d="M100.565,25.275c-2.188.573-3.187,2.288-2.783,4.77l.4,2.436h14.53l.353-2.436c1.066-7.368-10.449-9.77-12.5-4.77Z" transform="translate(-97.695 -22.639)" fill="#99edf2" fill-rule="evenodd"/>
    </g>
    <g id="Grupo_1098864" data-name="Grupo 1098864" transform="translate(271.388 638.905)">
      <path id="Trazado_873189" data-name="Trazado 873189" d="M181.836,23.316c3.862-.28,8.7,2.288,8.276,7.017-.011.121-.026.245-.043.369l-.257,1.774h2.349l.353-2.436c.88-6.084-6.816-8.782-10.679-6.724Z" transform="translate(-181.836 -22.634)" fill="#7fced3" fill-rule="evenodd"/>
    </g>
    <g id="ingeniero-de-software_1_" data-name="ingeniero-de-software (1)" transform="translate(262.463 638.416)">
      <g id="Grupo_1098862" data-name="Grupo 1098862" transform="translate(0 0)">
        <g id="Grupo_1098832" data-name="Grupo 1098832" transform="translate(3.934 8.093)">
          <path id="Trazado_873190" data-name="Trazado 873190" d="M113.625,159.125l-4.027.007c-1.767,0-2.143.223-3.216,2.23v2.2a5.259,5.259,0,0,0,.3,1.683,8.164,8.164,0,0,0,1.159,2.174l5.694,1.527,5.915-1.527a8.165,8.165,0,0,0,1.159-2.174,5.258,5.258,0,0,0,.3-1.683v-2.2c-1.073-2.007-1.494-2.228-3.259-2.23Z" transform="translate(-106.381 -159.125)" fill="#fff" fill-rule="evenodd"/>
        </g>
        <g id="Grupo_1098834" data-name="Grupo 1098834" transform="translate(4.955)">
          <path id="Trazado_873192" data-name="Trazado 873192" d="M104.431,24.689a.488.488,0,0,1-.43-.258c-1.024-1.916-1.306-1.971-2.829-1.972l-4.028-.007-4.026.007c-1.537,0-1.772.075-2.787,1.972a.488.488,0,0,1-.912-.152l-.4-2.436h0c-.432-2.654.627-4.556,2.911-5.255a4.676,4.676,0,0,1,3.09-2.436,8.687,8.687,0,0,1,4.594.058,8.48,8.48,0,0,1,4.256,2.6,6.209,6.209,0,0,1,1.394,5.025l-.353,2.436a.488.488,0,0,1-.4.411A.482.482,0,0,1,104.431,24.689Zm-14.444-3,.179,1.1c.75-1.095,1.4-1.305,2.951-1.307l4.027-.007,4.029.007c1.543,0,2.226.222,2.973,1.285l.156-1.073c.534-3.69-2.328-5.831-4.941-6.544-2.589-.706-5.695-.236-6.622,2.028a.488.488,0,0,1-.328.287c-2.466.646-2.68,2.652-2.425,4.22Z" transform="translate(-88.929 -13.87)" fill="#4529c7"/>
        </g>
        <g id="Grupo_1098836" data-name="Grupo 1098836" transform="translate(19.668 9.843)">
          <path id="Trazado_873194" data-name="Trazado 873194" d="M353.732,195.395q-.138,0-.279-.011a.488.488,0,0,1,.073-.973,1.837,1.837,0,0,0,1.8-.784,1.483,1.483,0,0,0,.112-1.487,1.367,1.367,0,0,0-1.3-.636h-.35a.488.488,0,0,1,0-.976h.35a2.312,2.312,0,0,1,2.157,1.145,2.47,2.47,0,0,1-.149,2.484A2.778,2.778,0,0,1,353.732,195.395Z" transform="translate(-353.002 -190.528)" fill="#4529c7"/>
        </g>
        <g id="Grupo_1098837" data-name="Grupo 1098837" transform="translate(3.154 9.843)">
          <path id="Trazado_873195" data-name="Trazado 873195" d="M59.439,195.395a2.776,2.776,0,0,1-2.416-1.237,2.47,2.47,0,0,1-.149-2.484,2.312,2.312,0,0,1,2.156-1.145h.35a.488.488,0,0,1,0,.976h-.35a1.366,1.366,0,0,0-1.3.636,1.484,1.484,0,0,0,.112,1.488,1.837,1.837,0,0,0,1.8.783.488.488,0,1,1,.073.973Q59.577,195.395,59.439,195.395Z" transform="translate(-56.607 -190.528)" fill="#4529c7"/>
        </g>
        <g id="Grupo_1098838" data-name="Grupo 1098838" transform="translate(5.439 9.843)">
          <path id="Trazado_873196" data-name="Trazado 873196" d="M111.181,197.561a.488.488,0,0,1-.393-.777,6.378,6.378,0,0,0,1.366-3.569v-2.2a.488.488,0,0,1,.976,0v2.2a7.254,7.254,0,0,1-1.555,4.146A.487.487,0,0,1,111.181,197.561Zm-11.609,0a.487.487,0,0,1-.394-.2,7.255,7.255,0,0,1-1.555-4.146v-2.2a.488.488,0,0,1,.976,0v2.2a6.379,6.379,0,0,0,1.366,3.569.488.488,0,0,1-.393.777Z" transform="translate(-97.624 -190.529)" fill="#4529c7"/>
        </g>
        <g id="Grupo_1098843" data-name="Grupo 1098843" transform="translate(3.266 16.387)">
          <path id="Trazado_873201" data-name="Trazado 873201" d="M98.755,307.979H88.022a.912.912,0,0,0-.8.985v11.229h13.6V308.964a.912.912,0,0,0-.8-.985Z" transform="translate(-87.217 -307.979)" fill="#99edf2" fill-rule="evenodd"/>
        </g>
        <g id="Grupo_1098848" data-name="Grupo 1098848" transform="translate(9.148 18.272)">
          <path id="Trazado_873206" data-name="Trazado 873206" d="M167.239,342.7a3.471,3.471,0,0,0-1.414.816l-.5-.288a.319.319,0,0,0-.435.117l-.67,1.158a.316.316,0,0,0,.117.432l.495.286a3.546,3.546,0,0,0,0,1.629l-.495.286a.316.316,0,0,0-.117.432l.67,1.158a.32.32,0,0,0,.435.115l.5-.286a3.466,3.466,0,0,0,1.414.814v.571a.317.317,0,0,0,.316.317H168.9a.317.317,0,0,0,.316-.317v-.571a3.466,3.466,0,0,0,1.414-.814l.5.286a.319.319,0,0,0,.433-.115l.67-1.158a.316.316,0,0,0-.117-.432l-.495-.286a3.544,3.544,0,0,0,0-1.629l.495-.286a.316.316,0,0,0,.117-.432l-.67-1.158a.318.318,0,0,0-.433-.117l-.5.288a3.471,3.471,0,0,0-1.414-.816v-.571a.316.316,0,0,0-.316-.315h-1.341a.316.316,0,0,0-.316.315v.571Zm.988,1.835a1.5,1.5,0,1,1-1.507,1.5,1.5,1.5,0,0,1,1.507-1.5Z" transform="translate(-164.181 -341.815)" fill="#e5e1e5" fill-rule="evenodd"/>
        </g>
        <g id="Grupo_1098849" data-name="Grupo 1098849" transform="translate(11.198 20.506)">
          <path id="Trazado_873207" data-name="Trazado 873207" d="M202.985,385.886a1.989,1.989,0,1,1,1.993-1.989A1.994,1.994,0,0,1,202.985,385.886Zm0-3A1.013,1.013,0,1,0,204,383.9,1.017,1.017,0,0,0,202.985,382.884Z" transform="translate(-200.99 -381.908)" fill="#4529c7"/>
        </g>
        <g id="Grupo_1098850" data-name="Grupo 1098850" transform="translate(8.659 17.784)">
          <path id="Trazado_873208" data-name="Trazado 873208" d="M160.619,342.478h-1.341a.806.806,0,0,1-.8-.805v-.224a3.989,3.989,0,0,1-.982-.566l-.2.113a.81.81,0,0,1-1.1-.293l-.67-1.159a.8.8,0,0,1,.3-1.1l.194-.112a4.012,4.012,0,0,1,0-1.129l-.2-.113a.8.8,0,0,1-.295-1.1l.669-1.157a.808.808,0,0,1,1.1-.3l.2.115a3.991,3.991,0,0,1,.982-.567v-.225a.8.8,0,0,1,.8-.8h1.341a.8.8,0,0,1,.8.8v.225a3.99,3.99,0,0,1,.982.567l.2-.114a.806.806,0,0,1,1.1.3l.669,1.157a.8.8,0,0,1-.3,1.1l-.194.112a4.016,4.016,0,0,1,0,1.129l.2.113a.8.8,0,0,1,.295,1.1L163.7,340.7a.807.807,0,0,1-1.1.293l-.2-.113a3.985,3.985,0,0,1-.983.567v.224A.805.805,0,0,1,160.619,342.478Zm-1.169-.976h1v-.4a.488.488,0,0,1,.351-.468,3,3,0,0,0,1.215-.7.488.488,0,0,1,.579-.07l.353.2.5-.861-.347-.2a.488.488,0,0,1-.231-.534,3.058,3.058,0,0,0,0-1.406.488.488,0,0,1,.231-.534l.347-.2-.5-.862-.351.2a.488.488,0,0,1-.58-.069,3,3,0,0,0-1.215-.7.488.488,0,0,1-.351-.468v-.4h-1v.4a.488.488,0,0,1-.351.468,3,3,0,0,0-1.215.7.488.488,0,0,1-.581.069l-.35-.2-.5.862.347.2a.488.488,0,0,1,.231.534,3.056,3.056,0,0,0,0,1.406.488.488,0,0,1-.231.534l-.347.2.5.861.351-.2a.488.488,0,0,1,.579.069,3,3,0,0,0,1.215.7.488.488,0,0,1,.351.468v.4Zm3.639-1.354h0Zm.5-.858h0Zm-7.282,0h0Zm7.22-.234h0Zm-7.16,0h0Zm7.161-2.575h0Zm-7.16,0h0Zm7.221-.234h0Zm-7.284,0h0Zm6.786-.861h0Zm-.233-.061h0Zm-5.82,0h0Z" transform="translate(-155.415 -333.057)" fill="#4529c7"/>
        </g>
        <g id="Grupo_1098851" data-name="Grupo 1098851" transform="translate(4.371 15.899)">
          <path id="Trazado_873209" data-name="Trazado 873209" d="M95.612,312.412H78.947a.488.488,0,0,1-.488-.488V300.7a1.475,1.475,0,0,1,1.474-1.473H85.9a.488.488,0,1,1,0,.976H79.933a.5.5,0,0,0-.5.5v10.741h15.69V300.7a.5.5,0,0,0-.5-.5H88.174a.488.488,0,1,1,0-.976h6.453A1.475,1.475,0,0,1,96.1,300.7v11.229A.488.488,0,0,1,95.612,312.412Z" transform="translate(-78.459 -299.222)" fill="#4529c7"/>
        </g>
        <g id="Grupo_1098852" data-name="Grupo 1098852" transform="translate(2.978 28.113)">
          <path id="Trazado_873210" data-name="Trazado 873210" d="M71.929,522.093a.488.488,0,0,1,0-.976.977.977,0,0,0,.978-.974v-.724H54.429v.724a.977.977,0,0,0,.978.974.488.488,0,0,1,0,.976,1.954,1.954,0,0,1-1.954-1.95v-.737a.965.965,0,0,1,.964-.963h18.5a.966.966,0,0,1,.966.963v.737A1.954,1.954,0,0,1,71.929,522.093Z" transform="translate(-53.453 -518.444)" fill="#4529c7"/>
        </g>
        <g id="Grupo_1098855" data-name="Grupo 1098855" transform="translate(0 22.057)">
          <path id="Trazado_873213" data-name="Trazado 873213" d="M25.507,419.452H.877A.876.876,0,0,1,0,418.578v-2.989c0-1.788.343-4.286,3.312-5.329l1.386-.486a.488.488,0,0,1,.323.921l-1.386.486c-1.864.655-2.659,1.973-2.659,4.408v2.887H25.408v-2.887c0-2.435-.8-3.753-2.659-4.408l-1.386-.486a.488.488,0,0,1,.323-.921l1.386.486c2.969,1.043,3.312,3.541,3.312,5.329v2.989A.876.876,0,0,1,25.507,419.452Z" transform="translate(0 -409.746)" fill="#4529c7"/>
        </g>
        <g id="Grupo_1098856" data-name="Grupo 1098856" transform="translate(17.063 14.618)">
          <path id="Trazado_873214" data-name="Trazado 873214" d="M355.147,275.768a6.156,6.156,0,0,1-8.815,8.271l-1.713-.08-2.258-.106.867-2.084.659-1.581a6.162,6.162,0,0,1,11.262-4.421Z" transform="translate(-342.36 -272.913)" fill="#99edf2" fill-rule="evenodd"/>
        </g>
        <g id="Grupo_1098858" data-name="Grupo 1098858" transform="translate(18.587 13.948)">
          <path id="Trazado_873216" data-name="Trazado 873216" d="M341.671,277.481A6.646,6.646,0,0,1,337.9,276.3l-3.83-.179a.488.488,0,0,1-.428-.675l1.471-3.533a6.651,6.651,0,1,1,11.867,2.926.488.488,0,0,1-.778-.589,5.667,5.667,0,1,0-10.1-2.371.488.488,0,0,1-.029.278l-1.258,3.022,3.277.153a.488.488,0,0,1,.262.092,5.664,5.664,0,0,0,6.365.193.488.488,0,0,1,.521.825A6.661,6.661,0,0,1,341.671,277.481Z" transform="translate(-333.603 -264.21)" fill="#4529c7"/>
        </g>
        <g id="Grupo_1098859" data-name="Grupo 1098859" transform="translate(22.59 18.68)">
          <path id="Trazado_873217" data-name="Trazado 873217" d="M406.894,353.331a.488.488,0,0,1-.422-.243l-.952-1.64a.488.488,0,0,1,0-.5l.952-1.575a.488.488,0,1,1,.835.5l-.8,1.328.807,1.39a.488.488,0,0,1-.422.733Z" transform="translate(-405.453 -349.14)" fill="#4529c7"/>
        </g>
        <g id="Grupo_1098860" data-name="Grupo 1098860" transform="translate(25.427 18.509)">
          <path id="Trazado_873218" data-name="Trazado 873218" d="M456.853,350.608a.488.488,0,0,1-.453-.669l1.419-3.555a.488.488,0,0,1,.906.362l-1.419,3.555A.488.488,0,0,1,456.853,350.608Z" transform="translate(-456.365 -346.077)" fill="#4529c7"/>
        </g>
        <g id="Grupo_1098861" data-name="Grupo 1098861" transform="translate(28.879 18.68)">
          <path id="Trazado_873219" data-name="Trazado 873219" d="M518.82,353.331a.488.488,0,0,1-.421-.733l.807-1.39-.8-1.328a.488.488,0,0,1,.835-.5l.952,1.575a.488.488,0,0,1,0,.5l-.952,1.64A.487.487,0,0,1,518.82,353.331Z" transform="translate(-518.333 -349.139)" fill="#4529c7"/>
        </g>
      </g>
    </g>
  </g>
</svg>
