<svg xmlns="http://www.w3.org/2000/svg" width="150" height="128" viewBox="0 0 150 128">
  <g id="Grupo_1101734" data-name="Grupo 1101734" transform="translate(-883 -8812.389)">
    <rect id="Rectángulo_402838" data-name="Rectángulo 402838" width="150" height="128" rx="23" transform="translate(883 8812.389)" fill="#f7eefe"/>
    <g id="Grupo_1101767" data-name="Grupo 1101767" transform="translate(904.634 8828.479)">
      <rect id="Rectángulo_402929" data-name="Rectángulo 402929" width="62.619" height="42.876" rx="5.553" transform="translate(106.733 65.217) rotate(180)" fill="#fff" stroke="#090817" stroke-linecap="round" stroke-linejoin="round" stroke-width="1"/>
      <circle id="Elipse_11622" data-name="Elipse 11622" cx="1.165" cy="1.165" r="1.165" transform="translate(100.773 23.65)" fill="#080717"/>
      <circle id="Elipse_11623" data-name="Elipse 11623" cx="1.165" cy="1.165" r="1.165" transform="translate(95.579 23.65)" fill="#080717"/>
      <circle id="Elipse_11624" data-name="Elipse 11624" cx="1.165" cy="1.165" r="1.165" transform="translate(90.385 23.65)" fill="#080717"/>
      <rect id="Rectángulo_402930" data-name="Rectángulo 402930" width="33.981" height="34.369" rx="4.161" transform="translate(102.14 62.872) rotate(180)" fill="#fff" stroke="#090817" stroke-linecap="round" stroke-linejoin="round" stroke-width="1"/>
      <rect id="Rectángulo_402931" data-name="Rectángulo 402931" width="14.563" height="32.039" rx="3.806" transform="translate(100.976 61.74) rotate(180)" fill="#080717"/>
      <g id="Grupo_1101767-2" data-name="Grupo 1101767" transform="translate(70.101 31.319)">
        <rect id="Rectángulo_402932" data-name="Rectángulo 402932" width="11.262" height="3.042" rx="1.521" transform="translate(29.45 3.042) rotate(180)" fill="none" stroke="#fff" stroke-linecap="round" stroke-linejoin="round" stroke-width="1"/>
        <path id="Trazado_877474" data-name="Trazado 877474" d="M388.257,241.265H376.995" transform="translate(-358.807 -235.262)" fill="none" stroke="#fff" stroke-linecap="round" stroke-linejoin="round" stroke-width="1"/>
        <path id="Trazado_877475" data-name="Trazado 877475" d="M388.257,252.135H376.995" transform="translate(-358.807 -243.171)" fill="none" stroke="#fff" stroke-linecap="round" stroke-linejoin="round" stroke-width="1"/>
        <path id="Trazado_877476" data-name="Trazado 877476" d="M388.257,263.006H376.995" transform="translate(-358.807 -251.08)" fill="none" stroke="#fff" stroke-linecap="round" stroke-linejoin="round" stroke-width="1"/>
        <path id="Trazado_877477" data-name="Trazado 877477" d="M388.257,273.876H376.995" transform="translate(-358.807 -258.989)" fill="none" stroke="#fff" stroke-linecap="round" stroke-linejoin="round" stroke-width="1"/>
        <path id="Trazado_877478" data-name="Trazado 877478" d="M388.257,284.746H376.995" transform="translate(-358.807 -266.898)" fill="none" stroke="#fff" stroke-linecap="round" stroke-linejoin="round" stroke-width="1"/>
        <path id="Trazado_877479" data-name="Trazado 877479" d="M388.257,295.616H376.995" transform="translate(-358.807 -274.807)" fill="none" stroke="#fff" stroke-linecap="round" stroke-linejoin="round" stroke-width="1"/>
        <path id="Trazado_877480" data-name="Trazado 877480" d="M388.257,306.486H376.995" transform="translate(-358.807 -282.716)" fill="none" stroke="#fff" stroke-linecap="round" stroke-linejoin="round" stroke-width="1"/>
        <path id="Trazado_877481" data-name="Trazado 877481" d="M388.257,317.356H376.995" transform="translate(-358.807 -290.624)" fill="none" stroke="#fff" stroke-linecap="round" stroke-linejoin="round" stroke-width="1"/>
        <path id="Trazado_877482" data-name="Trazado 877482" d="M341.735,228.435h-8.22" transform="translate(-327.172 -225.927)" fill="none" stroke="#080717" stroke-linecap="round" stroke-linejoin="round" stroke-width="1"/>
        <path id="Trazado_877483" data-name="Trazado 877483" d="M313.6,228.435h-3.366" transform="translate(-310.231 -225.927)" fill="none" stroke="#080717" stroke-linecap="round" stroke-linejoin="round" stroke-width="1"/>
        <path id="Trazado_877484" data-name="Trazado 877484" d="M350.9,241.265h-4.79" transform="translate(-336.334 -235.262)" fill="none" stroke="#080717" stroke-linecap="round" stroke-linejoin="round" stroke-width="1"/>
        <path id="Trazado_877485" data-name="Trazado 877485" d="M318.516,241.265h-8.285" transform="translate(-310.231 -235.262)" fill="none" stroke="#080717" stroke-linecap="round" stroke-linejoin="round" stroke-width="1"/>
        <path id="Trazado_877486" data-name="Trazado 877486" d="M341.735,252.135h-8.22" transform="translate(-327.172 -243.171)" fill="none" stroke="#080717" stroke-linecap="round" stroke-linejoin="round" stroke-width="1"/>
        <path id="Trazado_877487" data-name="Trazado 877487" d="M313.6,252.135h-3.366" transform="translate(-310.231 -243.171)" fill="none" stroke="#080717" stroke-linecap="round" stroke-linejoin="round" stroke-width="1"/>
        <path id="Trazado_877488" data-name="Trazado 877488" d="M350.033,264.966H344.92" transform="translate(-335.47 -252.506)" fill="none" stroke="#080717" stroke-linecap="round" stroke-linejoin="round" stroke-width="1"/>
        <path id="Trazado_877489" data-name="Trazado 877489" d="M318.516,264.966h-8.285" transform="translate(-310.231 -252.506)" fill="none" stroke="#080717" stroke-linecap="round" stroke-linejoin="round" stroke-width="1"/>
        <path id="Trazado_877490" data-name="Trazado 877490" d="M337.241,275.776h-9.9" transform="translate(-322.678 -260.372)" fill="none" stroke="#080717" stroke-linecap="round" stroke-linejoin="round" stroke-width="1"/>
        <path id="Trazado_877491" data-name="Trazado 877491" d="M312.925,275.776h-2.694" transform="translate(-310.231 -260.372)" fill="none" stroke="#080717" stroke-linecap="round" stroke-linejoin="round" stroke-width="1"/>
        <path id="Trazado_877492" data-name="Trazado 877492" d="M349.039,288.607h-5.485" transform="translate(-334.476 -269.707)" fill="none" stroke="#080717" stroke-linecap="round" stroke-linejoin="round" stroke-width="1"/>
        <path id="Trazado_877493" data-name="Trazado 877493" d="M317.949,288.607h-7.718" transform="translate(-310.231 -269.707)" fill="none" stroke="#080717" stroke-linecap="round" stroke-linejoin="round" stroke-width="1"/>
        <path id="Trazado_877494" data-name="Trazado 877494" d="M352.021,299.417h-4.369" transform="translate(-337.458 -277.572)" fill="none" stroke="#080717" stroke-linecap="round" stroke-linejoin="round" stroke-width="1"/>
        <path id="Trazado_877495" data-name="Trazado 877495" d="M319.066,299.417h-8.835" transform="translate(-310.231 -277.572)" fill="none" stroke="#080717" stroke-linecap="round" stroke-linejoin="round" stroke-width="1"/>
        <path id="Trazado_877496" data-name="Trazado 877496" d="M335.1,312.248H324.4" transform="translate(-320.538 -286.908)" fill="none" stroke="#080717" stroke-linecap="round" stroke-linejoin="round" stroke-width="1"/>
        <path id="Trazado_877497" data-name="Trazado 877497" d="M312.367,312.248h-2.136" transform="translate(-310.231 -286.908)" fill="none" stroke="#080717" stroke-linecap="round" stroke-linejoin="round" stroke-width="1"/>
        <path id="Trazado_877498" data-name="Trazado 877498" d="M341.735,323.058h-8.22" transform="translate(-327.172 -294.773)" fill="none" stroke="#080717" stroke-linecap="round" stroke-linejoin="round" stroke-width="1"/>
        <path id="Trazado_877499" data-name="Trazado 877499" d="M313.6,323.058h-3.366" transform="translate(-310.231 -294.773)" fill="none" stroke="#080717" stroke-linecap="round" stroke-linejoin="round" stroke-width="1"/>
      </g>
      <path id="Trazado_877500" data-name="Trazado 877500" d="M109.141,386.022l-.458,19.063h34.862v-17.6Z" transform="translate(-93.487 -309.265)" fill="#080717"/>
      <path id="Trazado_877501" data-name="Trazado 877501" d="M179.216,423.63l-2.245,2.4-.641,6.413" transform="translate(-142.706 -336.628)" fill="none" stroke="#fff" stroke-linecap="round" stroke-linejoin="round" stroke-width="1"/>
      <path id="Trazado_877502" data-name="Trazado 877502" d="M219.1,207.642c-.03-1.864-1.954-1.006-1.954-1.006-.03-1.637-1.864-1.018-1.864-1.018s.08-6.694-.763-6.413-1.2,6.974-1.2,6.974a5.7,5.7,0,0,0-2.125,2.686,14.133,14.133,0,0,0,.149,3.847l-7.093,16.628a43.168,43.168,0,0,1-5.825-11.068c-1.1-3.169-1.169-4.642-2.447-6.408-2.415-3.339-6.912-4.623-11.908-4.876a57.592,57.592,0,0,0,7.233,26.631c1.48,1.46,12.38,12.019,18.539,8.77a6.343,6.343,0,0,0,2.563-2.8c4.133-7.6,5.408-18.034,5.845-24.239,2.787-.929,2.234-5.333,2.353-6.929.122-1.624-1.5-.782-1.5-.782Z" transform="translate(-148.338 -173.335)" fill="#fff" stroke="#090817" stroke-linecap="round" stroke-linejoin="round" stroke-width="1"/>
      <path id="Trazado_877503" data-name="Trazado 877503" d="M145.1,229.109c-.206-8.679-.194-11.531-2.441-14.257a14.622,14.622,0,0,0-7.727-4.525,2.417,2.417,0,0,1-1.8-2.346v-4.855h-7.455v4.718a2.647,2.647,0,0,1-1.959,2.549,14.515,14.515,0,0,0-7.039,4.068c-2.4,2.676-2.6,5.629-2.964,18.31-.18,6.214-.381,14.111-.545,23.324H146C145.5,244.191,145.241,234.937,145.1,229.109Z" transform="translate(-96.751 -176.194)" fill="#fff" stroke="#090817" stroke-linecap="round" stroke-linejoin="round" stroke-width="1"/>
      <path id="Trazado_877504" data-name="Trazado 877504" d="M121.885,227.658s7.365,1.383,10.086-.165c0,0,6.744,1.638,8.788,4.564s2.8,6.012,2.942,16.514,1.027,26.294,1.027,26.294H110.013s.674-29.869.859-35.256S117.882,228.391,121.885,227.658Z" transform="translate(-94.455 -193.923)" fill="#6556ff"/>
      <path id="Trazado_877505" data-name="Trazado 877505" d="M190.616,227.5s7.425.346,10.1,4.043,7.425,16.633,7.425,16.633l-7.415,5.355-4.088-14.658Z" transform="translate(-153.1 -193.928)" fill="#6556ff"/>
      <path id="Trazado_877506" data-name="Trazado 877506" d="M75.517,268.79c-2.525,0-2.806-.361-1.6-.8s2-1.483,1.2-1.964c-.778-.466-1.518,1.066-5.147.755l-6.8-10.129c13.035-13,20.132-14.381,20.122-19.077a5.953,5.953,0,0,0-3.37-5.04c-3.288-1.522-7.244,1.144-10.907,3.614-.891.6-2.685,1.871-7.849,7.194-7.77,8.009-8.186,9.753-8.257,10.983-.057,1,.043,2.91,4.008,8.418a69.193,69.193,0,0,0,10.724,11.722c.476.807,1.209,1.7,2.143,1.74,1.723.082,4.25-.561,5.612-.361s2.525.722,3.206.16-1.4-1.523-1.4-1.523,3.246,1.323,3.687.561-2.4-1.884-2.4-1.884,3.447,1.042,3.728,0-3.567-1.764-3.567-1.764,3.236.281,3.582-.521S78.042,268.79,75.517,268.79Z" transform="translate(-52.901 -197.265)" fill="#fff" stroke="#090817" stroke-linecap="round" stroke-linejoin="round" stroke-width="1"/>
      <path id="Trazado_877507" data-name="Trazado 877507" d="M97.324,228.1s-6.6.572-11.408,4.479a93.838,93.838,0,0,0-9.66,9.461l7.826,8.48s14.279-8.979,16.8-12.377-.15-9.171-3.562-10.043Z" transform="translate(-69.894 -194.364)" fill="#6556ff"/>
      <path id="Trazado_877508" data-name="Trazado 877508" d="M142.291,130.112a12.981,12.981,0,0,0-25.783.013,3.018,3.018,0,1,0,.537,5.893,13.95,13.95,0,0,0,4.714,7.53,13.125,13.125,0,0,0,14.037,1.229A13.142,13.142,0,0,0,141.9,136.1a3.016,3.016,0,1,0,.388-5.991Z" transform="translate(-96.748 -114.737)" fill="#fff" stroke="#090817" stroke-linecap="round" stroke-linejoin="round" stroke-width="1"/>
      <path id="Trazado_877509" data-name="Trazado 877509" d="M147.37,153.961a5.394,5.394,0,0,0-5.472.974" transform="translate(-117.654 -140.163)" fill="none" stroke="#080717" stroke-linecap="round" stroke-linejoin="round" stroke-width="1"/>
      <circle id="Elipse_11625" data-name="Elipse 11625" cx="1.399" cy="1.399" r="1.399" transform="translate(26.007 17.45)" fill="#080717"/>
      <path id="Trazado_877510" data-name="Trazado 877510" d="M185.776,153.083a4.406,4.406,0,0,1,4.813.9" transform="translate(-149.578 -139.525)" fill="none" stroke="#080717" stroke-linecap="round" stroke-linejoin="round" stroke-width="1"/>
      <circle id="Elipse_11626" data-name="Elipse 11626" cx="1.399" cy="1.399" r="1.399" transform="translate(36.946 17.215)" fill="#080717"/>
      <path id="Trazado_877511" data-name="Trazado 877511" d="M170.971,169.708s1.369,3.195,1.05,3.707-2.021.394-2.021.394" transform="translate(-138.1 -151.879)" fill="none" stroke="#080717" stroke-linecap="round" stroke-linejoin="round" stroke-width="1"/>
      <ellipse id="Elipse_11627" data-name="Elipse 11627" cx="1.261" cy="1.932" rx="1.261" ry="1.932" transform="translate(37.624 23.565) rotate(-89.943)" fill="#6556ff"/>
      <ellipse id="Elipse_11628" data-name="Elipse 11628" cx="1.261" cy="1.932" rx="1.261" ry="1.932" transform="translate(24.145 23.657) rotate(-89.943)" fill="#6556ff"/>
      <path id="Trazado_877512" data-name="Trazado 877512" d="M117.172,119.7a.84.84,0,0,1,.917.218c.376.436.616,1.786,1.171,1.795s.611-4.086,2.174-4.967,4.72-1.2,5.527-2.926-.236-5.291,2.53-4.449c0,0,2.2-1.362,3.246.561s1.644,4.089,5.011,3.969,4.65,5.732,5.572,6.974,1.042-.611,1.373-1.017,1.593.191,1.593.191v-3.142a3.5,3.5,0,0,0,.8-4.569c-1.443-3.006-3.973-3.327-7.137-6.614s-9.938,0-9.938,0a9.206,9.206,0,0,0-6.828-.521c-3.593,1.242-5.557,4.81-6.679,6.372s1,3.968,1,3.968Z" transform="translate(-98.941 -104.262)" fill="#080717"/>
      <circle id="Elipse_11629" data-name="Elipse 11629" cx="3.904" cy="3.904" r="3.904" transform="translate(23.297 14.532)" fill="none" stroke="#080717" stroke-linecap="round" stroke-linejoin="round" stroke-width="1"/>
      <circle id="Elipse_11630" data-name="Elipse 11630" cx="3.904" cy="3.904" r="3.904" transform="translate(34.7 14.532)" fill="none" stroke="#080717" stroke-linecap="round" stroke-linejoin="round" stroke-width="1"/>
      <path id="Trazado_877513" data-name="Trazado 877513" d="M167,173.452h3.675" transform="translate(-135.92 -154.603)" fill="none" stroke="#080717" stroke-linecap="round" stroke-linejoin="round" stroke-width="1"/>
      <path id="Trazado_877514" data-name="Trazado 877514" d="M117.159,168.482l1.523-.163a1.412,1.412,0,0,0,.16,2.435" transform="translate(-99.654 -150.869)" fill="none" stroke="#080717" stroke-linecap="round" stroke-linejoin="round" stroke-width="1"/>
      <path id="Trazado_877515" data-name="Trazado 877515" d="M222.819,168.317l-2,.1s1.643,1.383,0,2.565" transform="translate(-175.072 -150.867)" fill="none" stroke="#080717" stroke-linecap="round" stroke-linejoin="round" stroke-width="1"/>
      <path id="Trazado_877516" data-name="Trazado 877516" d="M161.594,196.543a3.054,3.054,0,0,0,3.637,1.444" transform="translate(-131.984 -171.404)" fill="none" stroke="#080717" stroke-linecap="round" stroke-linejoin="round" stroke-width="1"/>
      <path id="Trazado_877517" data-name="Trazado 877517" d="M113.462,275.278l-1.205,8.3" transform="translate(-96.087 -228.69)" fill="none" stroke="#fff" stroke-linecap="round" stroke-linejoin="round" stroke-width="1"/>
      <path id="Trazado_877518" data-name="Trazado 877518" d="M227.584,264.966l1.658,14.657" transform="translate(-179.997 -221.187)" fill="none" stroke="#fff" stroke-linecap="round" stroke-linejoin="round" stroke-width="1"/>
      <path id="Trazado_877519" data-name="Trazado 877519" d="M292.883,229.862a5.758,5.758,0,0,0-.882-2.284s2.2.561,2.445,0-3.006-2.747-3.006-2.747" transform="translate(-226.458 -191.985)" fill="none" stroke="#080717" stroke-linecap="round" stroke-linejoin="round" stroke-width="1"/>
      <path id="Trazado_877520" data-name="Trazado 877520" d="M297.039,222.77l-.6,1.543" transform="translate(-230.093 -190.486)" fill="none" stroke="#080717" stroke-linecap="round" stroke-linejoin="round" stroke-width="1"/>
      <path id="Trazado_877521" data-name="Trazado 877521" d="M302.956,226.108l-.941,1.806" transform="translate(-234.152 -192.915)" fill="none" stroke="#080717" stroke-linecap="round" stroke-linejoin="round" stroke-width="1"/>
      <path id="Trazado_877522" data-name="Trazado 877522" d="M299.588,231.869s.2.812.661.947,2.9-2.615,2.9-2.615" transform="translate(-232.386 -195.893)" fill="none" stroke="#080717" stroke-linecap="round" stroke-linejoin="round" stroke-width="1"/>
      <path id="Trazado_877523" data-name="Trazado 877523" d="M308.149,237.759s-1.984,1.444-2.42,1.323-.306-1.2-.306-1.2" transform="translate(-236.618 -201.392)" fill="none" stroke="#080717" stroke-linecap="round" stroke-linejoin="round" stroke-width="1"/>
      <path id="Trazado_877524" data-name="Trazado 877524" d="M257.361,309.846s-1.052,4.107.811,6.867" transform="translate(-201.447 -253.841)" fill="none" stroke="#080717" stroke-linecap="round" stroke-linejoin="round" stroke-width="1"/>
      <path id="Trazado_877525" data-name="Trazado 877525" d="M72.21,318.285a5.813,5.813,0,0,1,5.01.928" transform="translate(-66.95 -259.828)" fill="none" stroke="#080717" stroke-linecap="round" stroke-linejoin="round" stroke-width="1"/>
      <path id="Trazado_877526" data-name="Trazado 877526" d="M129.261,386.08a6.937,6.937,0,0,1,3.81.559" transform="translate(-108.459 -309.265)" fill="none" stroke="#080717" stroke-linecap="round" stroke-linejoin="round" stroke-width="1"/>
      <path id="Trazado_877527" data-name="Trazado 877527" d="M131.027,380.719a15.4,15.4,0,0,1,4.717.7" transform="translate(-109.744 -305.407)" fill="none" stroke="#080717" stroke-linecap="round" stroke-linejoin="round" stroke-width="1"/>
      <path id="Trazado_877528" data-name="Trazado 877528" d="M132.461,374.936a15.5,15.5,0,0,1,4.538.533" transform="translate(-110.787 -301.196)" fill="none" stroke="#080717" stroke-linecap="round" stroke-linejoin="round" stroke-width="1"/>
      <path id="Trazado_877529" data-name="Trazado 877529" d="M135.727,129.119a5.951,5.951,0,0,1-4.149,4.028" transform="translate(-110.145 -122.347)" fill="none" stroke="#fff" stroke-linecap="round" stroke-linejoin="round" stroke-width="1"/>
      <path id="Trazado_877530" data-name="Trazado 877530" d="M129.574,125.808s-1.609,3.006-4.615,2.4" transform="translate(-105.329 -119.938)" fill="none" stroke="#fff" stroke-linecap="round" stroke-linejoin="round" stroke-width="1"/>
      <path id="Trazado_877531" data-name="Trazado 877531" d="M188.521,123.381a7.918,7.918,0,0,0,8.3,3.146" transform="translate(-151.576 -118.173)" fill="none" stroke="#fff" stroke-linecap="round" stroke-linejoin="round" stroke-width="1"/>
      <path id="Trazado_877532" data-name="Trazado 877532" d="M196.685,123.381s3.367,2.705,5.712,1.563" transform="translate(-157.516 -118.173)" fill="none" stroke="#fff" stroke-linecap="round" stroke-linejoin="round" stroke-width="1"/>
      <path id="Trazado_877533" data-name="Trazado 877533" d="M284.159,125.68a6.8,6.8,0,1,0-10.23,5.878v3.621h6.851v-3.621a6.8,6.8,0,0,0,3.378-5.878Z" transform="translate(-211.258 -114.893)" fill="#fff" stroke="#090817" stroke-linecap="round" stroke-linejoin="round" stroke-width="1"/>
      <rect id="Rectángulo_402933" data-name="Rectángulo 402933" width="8.269" height="5.178" rx="2.381" transform="translate(61.951 19.547)" fill="#080717"/>
      <path id="Trazado_877534" data-name="Trazado 877534" d="M285.083,153.5s-.472-9.922-1.512-9.426,1.087,2.577,3.048,1.087-.118-1.915-.449-1.348,1.748,3.686,3.213,2.174-1.417-2.221-1.8.567-.957,7.843-.957,7.843" transform="translate(-220.533 -132.862)" fill="none" stroke="#080717" stroke-linecap="round" stroke-linejoin="round" stroke-width="1"/>
      <g id="Grupo_1101768" data-name="Grupo 1101768" transform="translate(86.558 71.048)">
        <path id="Trazado_877535" data-name="Trazado 877535" d="M375.046,375.113a5.459,5.459,0,1,1,5.459,5.459A5.459,5.459,0,0,1,375.046,375.113Zm1.937,0a3.522,3.522,0,1,0,3.522-3.522A3.522,3.522,0,0,0,376.983,375.113Z" transform="translate(-373.846 -368.405)" fill="#080717"/>
        <rect id="Rectángulo_402934" data-name="Rectángulo 402934" width="1.76" height="2.717" rx="0.88" transform="translate(5.779)" fill="#080717"/>
        <rect id="Rectángulo_402935" data-name="Rectángulo 402935" width="1.76" height="2.717" rx="0.88" transform="translate(5.779 10.601)" fill="#080717"/>
        <rect id="Rectángulo_402936" data-name="Rectángulo 402936" width="2.717" height="1.76" rx="0.88" transform="translate(0 5.779)" fill="#080717"/>
        <rect id="Rectángulo_402937" data-name="Rectángulo 402937" width="2.717" height="1.76" rx="0.88" transform="translate(10.601 5.779)" fill="#080717"/>
        <path id="Trazado_877536" data-name="Trazado 877536" d="M.675,0h.409A.676.676,0,0,1,1.76.676V2.042a.676.676,0,0,1-.676.676H.676A.676.676,0,0,1,0,2.042V.676A.676.676,0,0,1,.676,0Z" transform="translate(1.307 2.573) rotate(-45)" fill="#080717"/>
        <rect id="Rectángulo_402938" data-name="Rectángulo 402938" width="1.76" height="2.717" rx="0.88" transform="translate(8.801 10.097) rotate(-45)" fill="#080717"/>
        <path id="Trazado_877537" data-name="Trazado 877537" d="M377.509,401.095a.672.672,0,0,0,.478-.2l.966-.966a.675.675,0,0,0,0-.956c-.293-.293-.429-.487-.767-.487a.67.67,0,0,0-.478.2l-.966.966a.676.676,0,0,0,0,.956C377.034,400.9,377.171,401.095,377.509,401.095Z" transform="translate(-374.936 -389.384)" fill="#080717"/>
        <path id="Trazado_877538" data-name="Trazado 877538" d="M405.024,373.577a.67.67,0,0,0,.478-.2l.966-.966a.675.675,0,0,0,0-.956c-.293-.293-.429-.487-.767-.487a.672.672,0,0,0-.478.2l-.966.966a.677.677,0,0,0,0,.956C404.55,373.383,404.687,373.577,405.024,373.577Z" transform="translate(-394.956 -369.363)" fill="#080717"/>
      </g>
      <g id="Grupo_1101769" data-name="Grupo 1101769" transform="translate(76.641 69.878)">
        <path id="Trazado_877539" data-name="Trazado 877539" d="M336.828,366.677a3.209,3.209,0,1,1,3.209,3.209A3.209,3.209,0,0,1,336.828,366.677Zm1.138,0a2.07,2.07,0,1,0,2.07-2.07A2.07,2.07,0,0,0,337.966,366.677Z" transform="translate(-336.122 -362.734)" fill="#080717"/>
        <rect id="Rectángulo_402939" data-name="Rectángulo 402939" width="1.035" height="1.597" rx="0.517" transform="translate(3.397)" fill="#080717"/>
        <rect id="Rectángulo_402940" data-name="Rectángulo 402940" width="1.035" height="1.597" rx="0.517" transform="translate(3.397 6.232)" fill="#080717"/>
        <rect id="Rectángulo_402941" data-name="Rectángulo 402941" width="1.597" height="1.035" rx="0.517" transform="translate(0 3.397)" fill="#080717"/>
        <rect id="Rectángulo_402942" data-name="Rectángulo 402942" width="1.597" height="1.035" rx="0.517" transform="translate(6.232 3.397)" fill="#080717"/>
        <path id="Trazado_877540" data-name="Trazado 877540" d="M338.673,365.774c.181,0,.245-.082.451-.286a.4.4,0,0,0,0-.562l-.568-.568a.394.394,0,0,0-.281-.116c-.181,0-.245.082-.451.286a.4.4,0,0,0,0,.562l.568.568A.4.4,0,0,0,338.673,365.774Z" transform="translate(-336.763 -363.297)" fill="#080717"/>
        <path id="Trazado_877541" data-name="Trazado 877541" d="M354.851,381.951c.181,0,.245-.082.451-.286a.4.4,0,0,0,0-.562l-.567-.568a.394.394,0,0,0-.281-.116c-.181,0-.245.082-.451.286a.4.4,0,0,0,0,.562l.567.568a.4.4,0,0,0,.281.116Z" transform="translate(-348.534 -375.067)" fill="#080717"/>
        <path id="Trazado_877542" data-name="Trazado 877542" d="M338.275,381.951a.4.4,0,0,0,.281-.116l.568-.568a.4.4,0,0,0,0-.562c-.211-.211-.268-.286-.451-.286a.394.394,0,0,0-.281.116l-.568.568a.4.4,0,0,0,0,.562C338.036,381.876,338.093,381.951,338.275,381.951Z" transform="translate(-336.763 -375.067)" fill="#080717"/>
        <path id="Trazado_877543" data-name="Trazado 877543" d="M354.454,365.774a.4.4,0,0,0,.282-.116l.567-.568a.4.4,0,0,0,0-.562c-.211-.211-.268-.286-.451-.286a.4.4,0,0,0-.281.116l-.567.568a.4.4,0,0,0,0,.562C354.214,365.7,354.272,365.774,354.454,365.774Z" transform="translate(-348.534 -363.297)" fill="#080717"/>
      </g>
      <path id="Trazado_877544" data-name="Trazado 877544" d="M374.116,119.526h14.969a1.144,1.144,0,0,1,1.144,1.144v10.04a1.144,1.144,0,0,1-1.144,1.143H377.249l-2.3,3.144a.2.2,0,0,1-.37-.121v-3.024h-.458a1.144,1.144,0,0,1-1.143-1.143v-10.04A1.144,1.144,0,0,1,374.116,119.526Z" transform="translate(-285.78 -115.368)" fill="#fff" stroke="#090817" stroke-linecap="round" stroke-linejoin="round" stroke-width="1"/>
      <path id="Trazado_877545" data-name="Trazado 877545" d="M383.677,131.192l-3.719,2.714,3.652,2.814" transform="translate(-290.862 -123.856)" fill="none" stroke="#080717" stroke-linecap="round" stroke-linejoin="round" stroke-width="1"/>
      <path id="Trazado_877546" data-name="Trazado 877546" d="M415.751,131.192l3.719,2.714-3.651,2.814" transform="translate(-316.904 -123.856)" fill="none" stroke="#080717" stroke-linecap="round" stroke-linejoin="round" stroke-width="1"/>
      <path id="Trazado_877547" data-name="Trazado 877547" d="M401.517,129.47l-2.077,7.137" transform="translate(-305.036 -122.603)" fill="none" stroke="#080717" stroke-linecap="round" stroke-linejoin="round" stroke-width="1"/>
    </g>
  </g>
</svg>
