<svg xmlns="http://www.w3.org/2000/svg" xmlns:xlink="http://www.w3.org/1999/xlink" width="132.59" height="132.59" viewBox="0 0 132.59 132.59">
  <defs>
    <filter id="Elipse_11310" x="0" y="0" width="132.59" height="132.59" filterUnits="userSpaceOnUse">
      <feOffset dy="3" input="SourceAlpha"/>
      <feGaussianBlur stdDeviation="5.5" result="blur"/>
      <feFlood flood-color="#fff" flood-opacity="0.82"/>
      <feComposite operator="in" in2="blur"/>
      <feComposite in="SourceGraphic"/>
    </filter>
  </defs>
  <g id="Grupo_1101770" data-name="Grupo 1101770" transform="translate(-261.205 -1992.338)">
    <g id="Grupo_1101720" data-name="Grupo 1101720" transform="translate(-43.295 -8062.939)">
      <g id="Grupo_1098796" data-name="Grupo 1098796" transform="translate(321 10068.777)">
        <g transform="matrix(1, 0, 0, 1, -16.5, -13.5)" filter="url(#Elipse_11310)">
          <circle id="Elipse_11310-2" data-name="Elipse 11310" cx="49.795" cy="49.795" r="49.795" transform="translate(16.5 13.5)" fill="#fff"/>
        </g>
      </g>
    </g>
    <g id="Visual_Studio_Code_1_" data-name="Visual Studio Code (1)" transform="translate(128.046 1866.757)">
      <path id="Trazado_877548" data-name="Trazado 877548" d="M167.76,675.135s-1.574-1.135.315-2.65l4.4-3.935a1.87,1.87,0,0,1,2.591-.171l40.606,30.743v14.741s-.021,2.314-2.989,2.06Z" transform="translate(0 -495.932)" fill="#2489ca"/>
      <path id="Trazado_877549" data-name="Trazado 877549" d="M182.72,1235.5l-10.464,9.515s-1.076.8,0,2.229l4.861,4.418s1.155,1.238,2.859-.171l11.095-8.412Z" transform="translate(-4.496 -1046.793)" fill="#1070b3"/>
      <path id="Trazado_877550" data-name="Trazado 877550" d="M836.228,206.444l19.195-14.655-.124-14.664s-.819-3.2-3.555-1.536L826.2,198.837Z" transform="translate(-639.628 -17.658)" fill="#0877b9"/>
      <path id="Trazado_877551" data-name="Trazado 877551" d="M1693.363,220.013a2.641,2.641,0,0,0,2.467.766l14.959-7.372a3.149,3.149,0,0,0,1.645-2.924V166.47a2.943,2.943,0,0,0-1.981-2.6l-12.963-6.249a3.6,3.6,0,0,0-4.69.315s2.388-1.718,3.555,1.536v58.2a2.633,2.633,0,0,1-.256,1.147c-.342.69-1.082,1.332-2.859,1.061Z" transform="translate(-1480.685)" fill="#3c99d4"/>
    </g>
  </g>
</svg>
