<svg xmlns="http://www.w3.org/2000/svg" xmlns:xlink="http://www.w3.org/1999/xlink" width="295" height="220" viewBox="0 0 295 220">
  <defs>
    <clipPath id="clip-path">
      <rect id="Rectángulo_403111" data-name="Rectángulo 403111" width="295" height="220" transform="translate(180 438)" fill="#fff" stroke="#707070" stroke-width="1"/>
    </clipPath>
    <clipPath id="clip-path-2">
      <rect id="Rectángulo_402280" data-name="Rectángulo 402280" width="295" height="240" transform="translate(180 2773)" fill="#fff" stroke="#707070" stroke-width="1"/>
    </clipPath>
    <clipPath id="clip-path-3">
      <rect id="Rectángulo_403099" data-name="Rectángulo 403099" width="315.666" height="163.146" fill="none"/>
    </clipPath>
    <clipPath id="clip-path-4">
      <rect id="Rectángulo_403071" data-name="Rectángulo 403071" width="55.066" height="56.465" fill="none"/>
    </clipPath>
    <clipPath id="clip-path-5">
      <rect id="Rectángulo_403097" data-name="Rectángulo 403097" width="22.278" height="79.875" fill="none"/>
    </clipPath>
    <clipPath id="clip-path-6">
      <rect id="Rectángulo_403098" data-name="Rectángulo 403098" width="75.447" height="75.448" fill="none"/>
    </clipPath>
    <clipPath id="clip-path-7">
      <rect id="Rectángulo_403116" data-name="Rectángulo 403116" width="75.681" height="69.996" fill="none"/>
    </clipPath>
    <clipPath id="clip-path-8">
      <rect id="Rectángulo_403110" data-name="Rectángulo 403110" width="160.903" height="172.525" fill="none"/>
    </clipPath>
    <clipPath id="clip-path-10">
      <rect id="Rectángulo_403106" data-name="Rectángulo 403106" width="9.391" height="3.148" fill="none"/>
    </clipPath>
    <clipPath id="clip-path-11">
      <rect id="Rectángulo_403107" data-name="Rectángulo 403107" width="10.082" height="12.686" fill="none"/>
    </clipPath>
    <clipPath id="clip-path-12">
      <rect id="Rectángulo_403108" data-name="Rectángulo 403108" width="10.081" height="12.686" fill="none"/>
    </clipPath>
  </defs>
  <g id="Enmascarar_grupo_1098736" data-name="Enmascarar grupo 1098736" transform="translate(-180 -438)" clip-path="url(#clip-path)">
    <g id="Enmascarar_grupo_1098698" data-name="Enmascarar grupo 1098698" transform="translate(0 -2355)" clip-path="url(#clip-path-2)">
      <path id="Rectángulo_402276" data-name="Rectángulo 402276" d="M0,0H214a21,21,0,0,1,21,21V86a0,0,0,0,1,0,0H8a8,8,0,0,1-8-8V0A0,0,0,0,1,0,0Z" transform="translate(180 2927)" fill="#fff" opacity="0.29"/>
    </g>
    <g id="Grupo_1102165" data-name="Grupo 1102165" transform="translate(169.667 456.427)">
      <g id="Grupo_1102208" data-name="Grupo 1102208">
        <g id="Grupo_1102180" data-name="Grupo 1102180">
          <g id="Grupo_1102179" data-name="Grupo 1102179" clip-path="url(#clip-path-3)">
            <path id="Trazado_883914" data-name="Trazado 883914" d="M101.051,32.456,97.2,31.44a51.972,51.972,0,0,1,7.27-15.023C111.512,6.366,121.167.711,132.39.064,143.644-.588,153.439,3.78,160.7,12.689a44.172,44.172,0,0,1,7.588,13.7l-3.815,1.152a40.9,40.9,0,0,0-6.945-12.435C151.027,7.187,142.646,3.465,132.62,4.043,122.554,4.624,114.2,9.523,107.8,18.6a48.879,48.879,0,0,0-6.751,13.852" transform="translate(-48.771 0)" fill="#f0c518"/>
            <path id="Trazado_883915" data-name="Trazado 883915" d="M90.7,49.833l1.375,17.141,12.352-12.105-8.172,1.166Z" transform="translate(-45.512 -25.005)" fill="#f0c518"/>
            <path id="Trazado_883916" data-name="Trazado 883916" d="M215.161,38.177,228.911,48.5l-.884-17.273-4.541,6.893Z" transform="translate(-107.962 -15.671)" fill="#f0c518"/>
            <path id="Trazado_883917" data-name="Trazado 883917" d="M453.9,37.6l-3.985-.087a40.887,40.887,0,0,0-2.751-13.974C443.431,14,436.615,7.861,426.9,5.3c-9.75-2.567-19.207-.5-28.108,6.156A48.867,48.867,0,0,0,388.085,22.54l-3.349-2.16A51.951,51.951,0,0,1,396.3,8.348c9.812-7.374,20.745-9.759,31.616-6.9,10.9,2.87,18.861,10.055,23.01,20.776A44.163,44.163,0,0,1,453.9,37.6" transform="translate(-193.05 -0.138)" fill="#ff6a81"/>
            <path id="Trazado_883918" data-name="Trazado 883918" d="M378.64,26l-4,16.723,15.495-7.683L382,33.614Z" transform="translate(-187.983 -13.045)" fill="#ff6a81"/>
            <path id="Trazado_883919" data-name="Trazado 883919" d="M502.451,57.488l9.874,14.078,4.511-16.7-6.453,5.148Z" transform="translate(-252.117 -27.532)" fill="#ff6a81"/>
            <g id="Grupo_1102172" data-name="Grupo 1102172" transform="translate(98.513 84.415)" opacity="0.2">
              <g id="Grupo_1102171" data-name="Grupo 1102171">
                <g id="Grupo_1102170" data-name="Grupo 1102170" clip-path="url(#clip-path-4)">
                  <path id="Trazado_883927" data-name="Trazado 883927" d="M197.8,171.977l8.576-.236q.18,1.726.474,3.437l-8.317,2.109.98,3.863a59.8,59.8,0,0,0,4.705,12.489l1.813,3.55,7.633-3.9q.912,1.486,1.925,2.91L209,201.687l2.551,3.063a60.341,60.341,0,0,0,9.575,9.207l3.16,2.429,5.226-6.8q1.46.955,2.977,1.808l-3.6,7.779,3.618,1.674a59.853,59.853,0,0,0,12.659,4.218l3.9.83,1.786-8.391c.646.085,1.294.154,1.945.215V196.227c-.5-.081-.992-.169-1.484-.275-.261-.056-.52-.116-.768-.176l-.273-.069c-.192-.048-.384-.1-.569-.149l-.117-.032c-.123-.034-.246-.067-.368-.1l-.1-.03c-.2-.06-.407-.123-.615-.189-.117-.037-.233-.077-.349-.116l-.109-.037q-.244-.081-.487-.168l-.286-.1c-.166-.061-.331-.124-.516-.2l-.243-.094c-.2-.08-.4-.163-.608-.25l-.131-.054q-.371-.16-.737-.329a30.358,30.358,0,0,1-5.841-3.545c-.386-.3-.774-.614-1.137-.924l-.13-.111c-.387-.333-.768-.679-1.129-1.024l-.165-.156q-.135-.13-.268-.263l-.468-.478c-.133-.138-.264-.277-.4-.419l-.193-.209c-.134-.146-.265-.294-.4-.45l-.248-.282a30.315,30.315,0,0,1-3.969-5.948c-.248-.488-.484-.986-.7-1.484-.088-.2-.174-.4-.258-.6l-.029-.07q-.111-.269-.217-.542l-.031-.08c-.079-.2-.155-.408-.229-.612l-.03-.083c-.083-.233-.164-.467-.241-.7-.059-.178-.115-.359-.17-.539-.049-.158-.1-.317-.143-.479l-.087-.3c-.048-.171-.094-.344-.138-.517a30.443,30.443,0,0,1-.829-4.615H197.728Z" transform="translate(-197.728 -169.431)" fill="#0b0542"/>
                </g>
              </g>
            </g>
            <rect id="Rectángulo_403072" data-name="Rectángulo 403072" width="92.686" height="99.362" transform="translate(200.534 50.947)" fill="#221276"/>
            <path id="Trazado_883928" data-name="Trazado 883928" d="M495.183,135.733v-5.648H402.5v98.334H412v-2.567H485.94v2.567h9.5V135.733Z" transform="translate(-201.963 -65.273)" fill="#221276"/>
            <rect id="Rectángulo_403073" data-name="Rectángulo 403073" width="101.789" height="25.019" rx="7.495" transform="translate(195.983 46.397)" fill="#6258cc"/>
            <path id="Trazado_883929" data-name="Trazado 883929" d="M484.55,116.81a1.412,1.412,0,0,1-1.412,1.412h-26.7a1.412,1.412,0,1,1,0-2.824h26.7a1.412,1.412,0,0,1,1.412,1.412" transform="translate(-228.319 -57.904)" fill="#221276"/>
            <rect id="Rectángulo_403074" data-name="Rectángulo 403074" width="8.473" height="8.473" transform="translate(282.419 54.67)" fill="#221276"/>
            <rect id="Rectángulo_403075" data-name="Rectángulo 403075" width="2.311" height="8.473" transform="translate(277.797 54.67)" fill="#ff6a81"/>
            <rect id="Rectángulo_403076" data-name="Rectángulo 403076" width="2.311" height="8.473" transform="translate(273.561 54.67)" fill="#fdfffe"/>
            <rect id="Rectángulo_403077" data-name="Rectángulo 403077" width="2.311" height="8.473" transform="translate(268.94 54.67)" fill="#221276"/>
            <rect id="Rectángulo_403078" data-name="Rectángulo 403078" width="2.311" height="8.473" transform="translate(264.062 54.67)" fill="#221276"/>
            <path id="Trazado_883930" data-name="Trazado 883930" d="M408.645,104.958A1.155,1.155,0,1,0,409.8,103.8a1.155,1.155,0,0,0-1.155,1.155" transform="translate(-205.047 -52.086)" fill="#221276"/>
            <path id="Trazado_883931" data-name="Trazado 883931" d="M419.106,104.958a1.155,1.155,0,1,0,1.155-1.155,1.155,1.155,0,0,0-1.155,1.155" transform="translate(-210.297 -52.086)" fill="#221276"/>
            <path id="Trazado_883932" data-name="Trazado 883932" d="M429.567,104.958a1.155,1.155,0,1,0,1.155-1.155,1.155,1.155,0,0,0-1.155,1.155" transform="translate(-215.546 -52.086)" fill="#221276"/>
            <path id="Trazado_883933" data-name="Trazado 883933" d="M440.028,104.958a1.155,1.155,0,1,0,1.155-1.155,1.155,1.155,0,0,0-1.155,1.155" transform="translate(-220.795 -52.086)" fill="#221276"/>
            <path id="Trazado_883934" data-name="Trazado 883934" d="M408.645,124.8a1.155,1.155,0,1,0,1.155-1.155,1.155,1.155,0,0,0-1.155,1.155" transform="translate(-205.047 -62.041)" fill="#221276"/>
            <path id="Trazado_883935" data-name="Trazado 883935" d="M419.106,124.8a1.155,1.155,0,1,0,1.155-1.155,1.155,1.155,0,0,0-1.155,1.155" transform="translate(-210.297 -62.041)" fill="#221276"/>
            <path id="Trazado_883936" data-name="Trazado 883936" d="M429.567,124.8a1.155,1.155,0,1,0,1.155-1.155,1.155,1.155,0,0,0-1.155,1.155" transform="translate(-215.546 -62.041)" fill="#221276"/>
            <path id="Trazado_883937" data-name="Trazado 883937" d="M440.028,124.8a1.155,1.155,0,1,0,1.155-1.155,1.155,1.155,0,0,0-1.155,1.155" transform="translate(-220.795 -62.041)" fill="#221276"/>
            <path id="Trazado_883938" data-name="Trazado 883938" d="M414.056,114.878a1.155,1.155,0,1,0,1.155-1.155,1.155,1.155,0,0,0-1.155,1.155" transform="translate(-207.763 -57.063)" fill="#221276"/>
            <path id="Trazado_883939" data-name="Trazado 883939" d="M424.517,114.878a1.155,1.155,0,1,0,1.155-1.155,1.155,1.155,0,0,0-1.155,1.155" transform="translate(-213.012 -57.063)" fill="#221276"/>
            <path id="Trazado_883940" data-name="Trazado 883940" d="M434.978,114.878a1.155,1.155,0,1,0,1.155-1.155,1.155,1.155,0,0,0-1.155,1.155" transform="translate(-218.261 -57.063)" fill="#221276"/>
            <path id="Trazado_883941" data-name="Trazado 883941" d="M445.439,114.878a1.155,1.155,0,1,0,1.155-1.155,1.155,1.155,0,0,0-1.155,1.155" transform="translate(-223.51 -57.063)" fill="#221276"/>
            <rect id="Rectángulo_403079" data-name="Rectángulo 403079" width="101.789" height="25.019" rx="7.495" transform="translate(195.983 74.04)" fill="#6258cc"/>
            <path id="Trazado_883942" data-name="Trazado 883942" d="M484.55,172.294a1.412,1.412,0,0,1-1.412,1.412h-26.7a1.412,1.412,0,1,1,0-2.824h26.7a1.412,1.412,0,0,1,1.412,1.412" transform="translate(-228.319 -85.744)" fill="#221276"/>
            <rect id="Rectángulo_403080" data-name="Rectángulo 403080" width="8.473" height="8.473" transform="translate(282.419 82.313)" fill="#221276"/>
            <rect id="Rectángulo_403081" data-name="Rectángulo 403081" width="2.311" height="8.473" transform="translate(277.797 82.313)" fill="#ff6a81"/>
            <rect id="Rectángulo_403082" data-name="Rectángulo 403082" width="2.311" height="8.473" transform="translate(273.561 82.313)" fill="#fdfffe"/>
            <rect id="Rectángulo_403083" data-name="Rectángulo 403083" width="2.311" height="8.473" transform="translate(268.94 82.313)" fill="#221276"/>
            <rect id="Rectángulo_403084" data-name="Rectángulo 403084" width="2.311" height="8.473" transform="translate(264.062 82.313)" fill="#221276"/>
            <path id="Trazado_883943" data-name="Trazado 883943" d="M408.645,160.441a1.155,1.155,0,1,0,1.155-1.155,1.155,1.155,0,0,0-1.155,1.155" transform="translate(-205.047 -79.926)" fill="#221276"/>
            <path id="Trazado_883944" data-name="Trazado 883944" d="M419.106,160.441a1.155,1.155,0,1,0,1.155-1.155,1.155,1.155,0,0,0-1.155,1.155" transform="translate(-210.297 -79.926)" fill="#221276"/>
            <path id="Trazado_883945" data-name="Trazado 883945" d="M429.567,160.441a1.155,1.155,0,1,0,1.155-1.155,1.155,1.155,0,0,0-1.155,1.155" transform="translate(-215.546 -79.926)" fill="#221276"/>
            <path id="Trazado_883946" data-name="Trazado 883946" d="M440.028,160.441a1.155,1.155,0,1,0,1.155-1.155,1.155,1.155,0,0,0-1.155,1.155" transform="translate(-220.795 -79.926)" fill="#221276"/>
            <path id="Trazado_883947" data-name="Trazado 883947" d="M408.645,180.281a1.155,1.155,0,1,0,1.155-1.155,1.155,1.155,0,0,0-1.155,1.155" transform="translate(-205.047 -89.881)" fill="#221276"/>
            <path id="Trazado_883948" data-name="Trazado 883948" d="M419.106,180.281a1.155,1.155,0,1,0,1.155-1.155,1.155,1.155,0,0,0-1.155,1.155" transform="translate(-210.297 -89.881)" fill="#221276"/>
            <path id="Trazado_883949" data-name="Trazado 883949" d="M429.567,180.281a1.155,1.155,0,1,0,1.155-1.155,1.155,1.155,0,0,0-1.155,1.155" transform="translate(-215.546 -89.881)" fill="#221276"/>
            <path id="Trazado_883950" data-name="Trazado 883950" d="M440.028,180.281a1.155,1.155,0,1,0,1.155-1.155,1.155,1.155,0,0,0-1.155,1.155" transform="translate(-220.795 -89.881)" fill="#221276"/>
            <path id="Trazado_883951" data-name="Trazado 883951" d="M414.056,170.361a1.155,1.155,0,1,0,1.155-1.155,1.155,1.155,0,0,0-1.155,1.155" transform="translate(-207.763 -84.903)" fill="#221276"/>
            <path id="Trazado_883952" data-name="Trazado 883952" d="M424.517,170.361a1.155,1.155,0,1,0,1.155-1.155,1.155,1.155,0,0,0-1.155,1.155" transform="translate(-213.012 -84.903)" fill="#221276"/>
            <path id="Trazado_883953" data-name="Trazado 883953" d="M434.978,170.361a1.155,1.155,0,1,0,1.155-1.155,1.155,1.155,0,0,0-1.155,1.155" transform="translate(-218.261 -84.903)" fill="#221276"/>
            <path id="Trazado_883954" data-name="Trazado 883954" d="M445.439,170.361a1.155,1.155,0,1,0,1.155-1.155,1.155,1.155,0,0,0-1.155,1.155" transform="translate(-223.51 -84.903)" fill="#221276"/>
            <rect id="Rectángulo_403085" data-name="Rectángulo 403085" width="101.789" height="25.019" rx="7.495" transform="translate(195.983 101.683)" fill="#6258cc"/>
            <path id="Trazado_883955" data-name="Trazado 883955" d="M484.55,227.777a1.412,1.412,0,0,1-1.412,1.412h-26.7a1.412,1.412,0,1,1,0-2.824h26.7a1.412,1.412,0,0,1,1.412,1.412" transform="translate(-228.319 -113.584)" fill="#221276"/>
            <rect id="Rectángulo_403086" data-name="Rectángulo 403086" width="8.473" height="8.473" transform="translate(282.419 109.956)" fill="#221276"/>
            <rect id="Rectángulo_403087" data-name="Rectángulo 403087" width="2.311" height="8.473" transform="translate(277.797 109.956)" fill="#ff6a81"/>
            <rect id="Rectángulo_403088" data-name="Rectángulo 403088" width="2.311" height="8.473" transform="translate(273.561 109.956)" fill="#fdfffe"/>
            <rect id="Rectángulo_403089" data-name="Rectángulo 403089" width="2.311" height="8.473" transform="translate(268.94 109.956)" fill="#221276"/>
            <rect id="Rectángulo_403090" data-name="Rectángulo 403090" width="2.311" height="8.473" transform="translate(264.062 109.956)" fill="#221276"/>
            <path id="Trazado_883956" data-name="Trazado 883956" d="M408.645,215.925a1.155,1.155,0,1,0,1.155-1.155,1.155,1.155,0,0,0-1.155,1.155" transform="translate(-205.047 -107.766)" fill="#221276"/>
            <path id="Trazado_883957" data-name="Trazado 883957" d="M419.106,215.925a1.155,1.155,0,1,0,1.155-1.155,1.155,1.155,0,0,0-1.155,1.155" transform="translate(-210.297 -107.766)" fill="#221276"/>
            <path id="Trazado_883958" data-name="Trazado 883958" d="M429.567,215.925a1.155,1.155,0,1,0,1.155-1.155,1.155,1.155,0,0,0-1.155,1.155" transform="translate(-215.546 -107.766)" fill="#221276"/>
            <path id="Trazado_883959" data-name="Trazado 883959" d="M440.028,215.925a1.155,1.155,0,1,0,1.155-1.155,1.155,1.155,0,0,0-1.155,1.155" transform="translate(-220.795 -107.766)" fill="#221276"/>
            <path id="Trazado_883960" data-name="Trazado 883960" d="M408.645,235.765a1.155,1.155,0,1,0,1.155-1.155,1.155,1.155,0,0,0-1.155,1.155" transform="translate(-205.047 -117.721)" fill="#221276"/>
            <path id="Trazado_883961" data-name="Trazado 883961" d="M419.106,235.765a1.155,1.155,0,1,0,1.155-1.155,1.155,1.155,0,0,0-1.155,1.155" transform="translate(-210.297 -117.721)" fill="#221276"/>
            <path id="Trazado_883962" data-name="Trazado 883962" d="M429.567,235.765a1.155,1.155,0,1,0,1.155-1.155,1.155,1.155,0,0,0-1.155,1.155" transform="translate(-215.546 -117.721)" fill="#221276"/>
            <path id="Trazado_883963" data-name="Trazado 883963" d="M440.028,235.765a1.155,1.155,0,1,0,1.155-1.155,1.155,1.155,0,0,0-1.155,1.155" transform="translate(-220.795 -117.721)" fill="#221276"/>
            <path id="Trazado_883964" data-name="Trazado 883964" d="M414.056,225.845a1.155,1.155,0,1,0,1.155-1.155,1.155,1.155,0,0,0-1.155,1.155" transform="translate(-207.763 -112.744)" fill="#221276"/>
            <path id="Trazado_883965" data-name="Trazado 883965" d="M424.517,225.845a1.155,1.155,0,1,0,1.155-1.155,1.155,1.155,0,0,0-1.155,1.155" transform="translate(-213.012 -112.744)" fill="#221276"/>
            <path id="Trazado_883966" data-name="Trazado 883966" d="M434.978,225.845a1.155,1.155,0,1,0,1.155-1.155,1.155,1.155,0,0,0-1.155,1.155" transform="translate(-218.261 -112.744)" fill="#221276"/>
            <path id="Trazado_883967" data-name="Trazado 883967" d="M445.439,225.845a1.155,1.155,0,1,0,1.155-1.155,1.155,1.155,0,0,0-1.155,1.155" transform="translate(-223.51 -112.744)" fill="#221276"/>
            <rect id="Rectángulo_403091" data-name="Rectángulo 403091" width="101.789" height="25.019" rx="7.495" transform="translate(195.983 129.327)" fill="#6258cc"/>
            <path id="Trazado_883968" data-name="Trazado 883968" d="M484.55,283.26a1.412,1.412,0,0,1-1.412,1.412h-26.7a1.412,1.412,0,0,1,0-2.824h26.7a1.412,1.412,0,0,1,1.412,1.412" transform="translate(-228.319 -141.424)" fill="#221276"/>
            <rect id="Rectángulo_403092" data-name="Rectángulo 403092" width="8.473" height="8.473" transform="translate(282.419 137.6)" fill="#221276"/>
            <rect id="Rectángulo_403093" data-name="Rectángulo 403093" width="2.311" height="8.473" transform="translate(277.797 137.6)" fill="#ff6a81"/>
            <rect id="Rectángulo_403094" data-name="Rectángulo 403094" width="2.311" height="8.473" transform="translate(273.561 137.6)" fill="#fdfffe"/>
            <rect id="Rectángulo_403095" data-name="Rectángulo 403095" width="2.311" height="8.473" transform="translate(268.94 137.6)" fill="#221276"/>
            <rect id="Rectángulo_403096" data-name="Rectángulo 403096" width="2.311" height="8.473" transform="translate(264.062 137.6)" fill="#221276"/>
            <path id="Trazado_883969" data-name="Trazado 883969" d="M408.645,271.408a1.155,1.155,0,1,0,1.155-1.155,1.155,1.155,0,0,0-1.155,1.155" transform="translate(-205.047 -135.606)" fill="#221276"/>
            <path id="Trazado_883970" data-name="Trazado 883970" d="M419.106,271.408a1.155,1.155,0,1,0,1.155-1.155,1.155,1.155,0,0,0-1.155,1.155" transform="translate(-210.297 -135.606)" fill="#221276"/>
            <path id="Trazado_883971" data-name="Trazado 883971" d="M429.567,271.408a1.155,1.155,0,1,0,1.155-1.155,1.155,1.155,0,0,0-1.155,1.155" transform="translate(-215.546 -135.606)" fill="#221276"/>
            <path id="Trazado_883972" data-name="Trazado 883972" d="M440.028,271.408a1.155,1.155,0,1,0,1.155-1.155,1.155,1.155,0,0,0-1.155,1.155" transform="translate(-220.795 -135.606)" fill="#221276"/>
            <path id="Trazado_883973" data-name="Trazado 883973" d="M408.645,291.248a1.155,1.155,0,1,0,1.155-1.155,1.155,1.155,0,0,0-1.155,1.155" transform="translate(-205.047 -145.561)" fill="#221276"/>
            <path id="Trazado_883974" data-name="Trazado 883974" d="M419.106,291.248a1.155,1.155,0,1,0,1.155-1.155,1.155,1.155,0,0,0-1.155,1.155" transform="translate(-210.297 -145.561)" fill="#221276"/>
            <path id="Trazado_883975" data-name="Trazado 883975" d="M429.567,291.248a1.155,1.155,0,1,0,1.155-1.155,1.155,1.155,0,0,0-1.155,1.155" transform="translate(-215.546 -145.561)" fill="#221276"/>
            <path id="Trazado_883976" data-name="Trazado 883976" d="M440.028,291.248a1.155,1.155,0,1,0,1.155-1.155,1.155,1.155,0,0,0-1.155,1.155" transform="translate(-220.795 -145.561)" fill="#221276"/>
            <path id="Trazado_883977" data-name="Trazado 883977" d="M414.056,281.328a1.155,1.155,0,1,0,1.155-1.155,1.155,1.155,0,0,0-1.155,1.155" transform="translate(-207.763 -140.584)" fill="#221276"/>
            <path id="Trazado_883978" data-name="Trazado 883978" d="M424.517,281.328a1.155,1.155,0,1,0,1.155-1.155,1.155,1.155,0,0,0-1.155,1.155" transform="translate(-213.012 -140.584)" fill="#221276"/>
            <path id="Trazado_883979" data-name="Trazado 883979" d="M434.978,281.328a1.155,1.155,0,1,0,1.155-1.155,1.155,1.155,0,0,0-1.155,1.155" transform="translate(-218.261 -140.584)" fill="#221276"/>
            <path id="Trazado_883980" data-name="Trazado 883980" d="M445.439,281.328a1.155,1.155,0,1,0,1.155-1.155,1.155,1.155,0,0,0-1.155,1.155" transform="translate(-223.51 -140.584)" fill="#221276"/>
            <g id="Grupo_1102175" data-name="Grupo 1102175" transform="translate(195.983 46.397)" opacity="0.2">
              <g id="Grupo_1102174" data-name="Grupo 1102174">
                <g id="Grupo_1102173" data-name="Grupo 1102173" clip-path="url(#clip-path-5)">
                  <path id="Trazado_883981" data-name="Trazado 883981" d="M393.362,96.858v17.551a3.734,3.734,0,0,0,3.734,3.734h.817v2.624H397.1a3.734,3.734,0,0,0-3.734,3.734v17.551a3.734,3.734,0,0,0,3.734,3.734h.817v2.624H397.1a3.734,3.734,0,0,0-3.734,3.734v10.979c.1-.106.2-.208.3-.315l6.708,5.322,2.322-2.928a59.9,59.9,0,0,0,7.034-11.224l1.622-3.366-7.7-3.71q.725-1.838,1.305-3.73l8.335,1.91.835-3.642a59.851,59.851,0,0,0,1.506-13.174l.011-3.737-8.562-.024q-.134-1.949-.415-3.883l8.361-1.847-.806-3.649a59.551,59.551,0,0,0-4.3-12.576l-1.6-3.379-7.732,3.651q-.969-1.711-2.07-3.349l6.738-5.27-.846-1.082H397.1a3.734,3.734,0,0,0-3.734,3.734" transform="translate(-393.362 -93.124)" fill="#221276"/>
                  <path id="Trazado_883982" data-name="Trazado 883982" d="M393.362,245.738a3.731,3.731,0,0,0,2,3.3l.927-.748-2.924-3.622Z" transform="translate(-393.362 -169.167)" fill="#221276"/>
                </g>
              </g>
            </g>
            <path id="Trazado_883983" data-name="Trazado 883983" d="M316.267,119.36a56.1,56.1,0,0,0,1.411-12.35l-8.428-.024q0-1.095-.042-2.2a48.208,48.208,0,0,0-1.076-8.287l8.223-1.817A55.841,55.841,0,0,0,312.329,82.9l-7.607,3.592a47.177,47.177,0,0,0-5.553-8.987l6.633-5.189a56.323,56.323,0,0,0-8.675-8.869l-5.339,6.521a47.638,47.638,0,0,0-8.848-5.753l3.769-7.524a55.888,55.888,0,0,0-11.684-4.3l-2.007,8.175a47.579,47.579,0,0,0-10.477-1.35l.153-8.428c-1.14-.02-2.3-.006-3.441.042a56.293,56.293,0,0,0-12.266,1.891l2.2,8.127a47.029,47.029,0,0,0-9.84,3.877L235.4,57.295A56.156,56.156,0,0,0,225.137,64.3l5.49,6.389a48.252,48.252,0,0,0-7.192,7.714l-6.757-5.031A56.162,56.162,0,0,0,210.407,84.1l7.689,3.415a47.027,47.027,0,0,0-3.18,10.086l-8.262-1.625a56.234,56.234,0,0,0-1.03,12.375l8.427-.232c.007.244.012.487.022.732a48.023,48.023,0,0,0,1.416,9.717l-8.164,2.071a55.858,55.858,0,0,0,4.391,11.656l7.493-3.827a47.292,47.292,0,0,0,5.827,8.808l-6.472,5.391a56.353,56.353,0,0,0,8.942,8.6l5.136-6.682a47.484,47.484,0,0,0,9.023,5.479l-3.533,7.636a55.87,55.87,0,0,0,11.814,3.936L251.7,153.4a47.793,47.793,0,0,0,10.508,1.027l.1,8.428c.57-.007,1.148-.023,1.718-.047a56.432,56.432,0,0,0,10.588-1.465l-1.944-8.2a47.1,47.1,0,0,0,9.957-3.565l3.71,7.55a56.106,56.106,0,0,0,10.479-6.688l-5.289-6.552a48.288,48.288,0,0,0,5.182-4.872q1.173-1.277,2.241-2.623l6.6,5.236a56.233,56.233,0,0,0,6.6-10.523l-7.579-3.65a46.994,46.994,0,0,0,3.494-9.981Zm-20.4-11.05q-.005.129-.012.257-.032.646-.087,1.285c-.005.066-.012.131-.019.2q-.059.635-.141,1.264c0,.03-.007.06-.011.09-.058.431-.126.86-.2,1.286-.025.145-.048.29-.075.435v.006c-.027.143-.057.285-.085.428q-.076.38-.16.757a34.015,34.015,0,0,1-2.64,7.529l-.005.01q-.18.369-.37.733h0q-.19.366-.389.727v0q-.2.361-.406.717h0q-.206.354-.42.7l-.007.011q-.214.348-.436.69l0,0h0q-.223.345-.455.684h0q-.232.339-.471.673v0q-.238.331-.485.657l-.005.007a34.465,34.465,0,0,1-6.023,6.171q-.224.179-.452.355c-.091.07-.183.139-.275.208-.148.112-.3.222-.447.332l-.281.2c-.154.11-.31.218-.466.326-.091.062-.181.125-.272.186q-.258.173-.519.342l-.231.15q-.367.233-.74.458l-.022.014q-.387.232-.782.455c-.075.042-.151.083-.226.125-.186.1-.373.206-.562.306-.1.052-.2.1-.3.153-.168.087-.337.174-.508.259a34.029,34.029,0,0,1-7.445,2.673q-.436.1-.875.191l-.193.04q-.523.1-1.053.191l-.277.044q-.419.066-.84.122l-.292.039c-.359.044-.72.085-1.083.118q-.413.038-.83.067h0q-.439.03-.881.049t-.872.026h-.013a34.25,34.25,0,0,1-7.791-.756q-.441-.095-.878-.2l-.3-.074c-.218-.055-.436-.112-.653-.171-.183-.05-.366-.1-.547-.152h0q-.4-.117-.795-.243l-.014,0c-.174-.056-.346-.114-.519-.172s-.366-.125-.548-.19l-.324-.117c-.191-.07-.382-.143-.571-.216-.1-.037-.191-.073-.285-.111-.231-.092-.46-.187-.689-.283l-.155-.065q-.418-.179-.832-.37a34.312,34.312,0,0,1-6.608-4.012q-.664-.513-1.3-1.057l-.132-.113q-.654-.564-1.279-1.16l-.116-.109-.006-.006q-.294-.283-.581-.573l0,0c-.1-.106-.207-.214-.311-.322q-.226-.233-.446-.471l-.22-.239q-.227-.25-.449-.5c-.081-.092-.163-.183-.243-.276h0a34.254,34.254,0,0,1-4.532-6.778q-.419-.826-.8-1.678-.15-.34-.293-.683h0q-.16-.386-.311-.776l0,0q-.151-.39-.293-.785h0q-.142-.4-.275-.8h0c-.067-.2-.13-.406-.193-.609-.055-.179-.109-.359-.161-.539-.033-.114-.067-.228-.1-.342-.054-.193-.106-.388-.157-.583a34.374,34.374,0,0,1-1.087-7.241c-.01-.233-.016-.464-.021-.7,0-.17-.006-.339-.008-.509,0-.134,0-.268,0-.4,0-.17,0-.34.006-.51s0-.345.01-.517v-.006q.014-.433.039-.863v-.006c.012-.209.028-.417.045-.625s.036-.438.057-.656c.01-.105.019-.211.03-.316q.045-.424.1-.846c0-.037.008-.074.013-.111.042-.317.09-.633.142-.948.015-.095.033-.189.049-.283q.057-.332.12-.663a34.021,34.021,0,0,1,2.369-7.5c.167-.372.339-.742.519-1.108l.071-.14q.262-.525.541-1.041c.038-.069.074-.14.112-.209l0,0q.2-.36.405-.715v0c.112-.193.228-.384.344-.574q.362-.593.747-1.17l.113-.17q.383-.569.79-1.121a34.472,34.472,0,0,1,5.327-5.752c.306-.263.619-.519.935-.772l.188-.15q.465-.367.943-.718.233-.171.47-.338.4-.287.818-.562l.167-.109q.339-.222.683-.437l.262-.161q.332-.2.669-.4l.207-.12q.433-.247.873-.482a34,34,0,0,1,7.356-2.877c.19-.05.381-.1.572-.145.218-.053.437-.106.657-.155h.006c.133-.029.266-.055.4-.084.192-.04.385-.08.579-.118.122-.023.245-.045.367-.067q.271-.049.544-.095c.129-.021.257-.041.386-.061q.269-.042.54-.078l.387-.051c.185-.023.372-.044.559-.064.17-.018.339-.038.509-.054h.005q.872-.081,1.757-.12c.54-.023,1.077-.032,1.612-.03l.3,0a34.127,34.127,0,0,1,9.145,1.357h0q.4.117.8.245h0q.4.126.793.263h0c.2.068.392.14.587.211s.393.147.589.223l.286.111q.389.155.774.319l.084.035c.283.122.564.248.844.377.087.04.172.082.259.123q.291.138.578.279a34.363,34.363,0,0,1,6.56,4.247q.62.509,1.214,1.047l.106.094q.621.566,1.214,1.162l.04.04q.611.616,1.19,1.262l.048.055q.555.621,1.08,1.27a34.2,34.2,0,0,1,4.672,7.624h0c.087.2.171.395.255.593.127.3.252.606.371.913l.014.035c.123.318.24.639.354.962.074.209.147.419.218.631h0c.075.227.147.456.217.685q.179.583.337,1.174l.064.245c.1.4.2.808.295,1.216a34.5,34.5,0,0,1,.784,5.994c.023.552.032,1.1.03,1.647,0,.436-.013.87-.032,1.3" transform="translate(-103.166 -25.48)" fill="#00c0cb"/>
            <g id="Grupo_1102178" data-name="Grupo 1102178" transform="translate(120.725 43.616)" opacity="0.2">
              <g id="Grupo_1102177" data-name="Grupo 1102177">
                <g id="Grupo_1102176" data-name="Grupo 1102176" clip-path="url(#clip-path-6)">
                  <path id="Trazado_883984" data-name="Trazado 883984" d="M242.31,125.267a37.724,37.724,0,1,0,37.724-37.724,37.724,37.724,0,0,0-37.724,37.724" transform="translate(-242.31 -87.543)" fill="#0b0542"/>
                </g>
              </g>
            </g>
            <path id="Trazado_883985" data-name="Trazado 883985" d="M249.271,128.76A34.256,34.256,0,1,0,283.526,94.5a34.256,34.256,0,0,0-34.256,34.256" transform="translate(-125.078 -47.42)" fill="#fff"/>
          </g>
        </g>
        <text id="API" transform="translate(137.823 88.498)" fill="#221276" font-size="27" font-family="Roboto-Bold, Roboto" font-weight="700"><tspan x="0" y="0" letter-spacing="0.05em">A</tspan><tspan y="0" letter-spacing="0.049em">P</tspan><tspan y="0">I</tspan></text>
      </g>
      <g id="Grupo_1102209" data-name="Grupo 1102209" transform="translate(229.652 125.512)">
        <rect id="Rectángulo_403112" data-name="Rectángulo 403112" width="71.061" height="65.377" transform="translate(4.619 4.618)" fill="#0e1165"/>
        <rect id="Rectángulo_403113" data-name="Rectángulo 403113" width="71.061" height="65.376" transform="translate(2.221 2.22)" fill="#e2654d"/>
        <rect id="Rectángulo_403114" data-name="Rectángulo 403114" width="71.061" height="65.377" transform="translate(0 -0.001)" fill="#e8bbc7" opacity="0.72"/>
        <rect id="Rectángulo_403115" data-name="Rectángulo 403115" width="65.258" height="60.037" transform="translate(2.902 2.669)" fill="none" stroke="#fff" stroke-linecap="round" stroke-miterlimit="10" stroke-width="1.075"/>
        <g id="Grupo_1102210" data-name="Grupo 1102210" transform="translate(0 -0.001)">
          <g id="Grupo_1102209-2" data-name="Grupo 1102209" clip-path="url(#clip-path-7)">
            <path id="Trazado_884058" data-name="Trazado 884058" d="M20.932,81.761h0a4.036,4.036,0,0,0,4.036-4.036V46.272a4.036,4.036,0,0,0-8.073,0V77.725a4.036,4.036,0,0,0,4.036,4.036" transform="translate(-9.272 -23.178)" fill="#fff"/>
            <path id="Trazado_884059" data-name="Trazado 884059" d="M47.984,75.267h0a4.036,4.036,0,0,0,4.036-4.036V34.439a4.036,4.036,0,1,0-8.073,0V71.231a4.036,4.036,0,0,0,4.036,4.036" transform="translate(-24.117 -16.684)" fill="#fff"/>
            <path id="Trazado_884060" data-name="Trazado 884060" d="M75.036,65.914h0a4.036,4.036,0,0,0,4.036-4.036V17.394a4.036,4.036,0,1,0-8.072,0V61.877a4.036,4.036,0,0,0,4.036,4.036" transform="translate(-38.963 -7.33)" fill="#fff"/>
            <path id="Trazado_884061" data-name="Trazado 884061" d="M102.088,85.568h0a4.036,4.036,0,0,0,4.036-4.036V53.209a4.036,4.036,0,1,0-8.072,0V81.532a4.036,4.036,0,0,0,4.036,4.036" transform="translate(-53.808 -26.985)" fill="#fff"/>
            <path id="Trazado_884062" data-name="Trazado 884062" d="M129.14,65.914h0a4.036,4.036,0,0,0,4.036-4.036V17.394a4.036,4.036,0,0,0-8.073,0V61.877a4.036,4.036,0,0,0,4.036,4.036" transform="translate(-68.653 -7.33)" fill="#e2654d"/>
          </g>
        </g>
      </g>
      <g id="Grupo_1102210-2" data-name="Grupo 1102210" transform="translate(188.223 128.839)">
        <g id="Grupo_1102213" data-name="Grupo 1102213">
          <g id="Grupo_1102215" data-name="Grupo 1102215">
            <path id="Trazado_884063" data-name="Trazado 884063" d="M47.171,28.361h-29.4A14.18,14.18,0,1,1,17.773,0h29.4a14.18,14.18,0,1,1,0,28.361" transform="translate(-1.518)" fill="#8ea6ff"/>
            <rect id="Rectángulo_403119" data-name="Rectángulo 403119" width="23.357" height="7.956" transform="translate(14.586 10.017)" fill="#3459cc"/>
            <rect id="Rectángulo_403120" data-name="Rectángulo 403120" width="2.44" height="7.956" transform="translate(39.378 10.017)" fill="#3459cc"/>
            <rect id="Rectángulo_403121" data-name="Rectángulo 403121" width="2.44" height="7.956" transform="translate(43.042 10.017)" fill="#3459cc"/>
            <rect id="Rectángulo_403122" data-name="Rectángulo 403122" width="2.44" height="7.956" transform="translate(46.706 10.017)" fill="#3459cc"/>
            <rect id="Rectángulo_403123" data-name="Rectángulo 403123" width="2.44" height="7.956" transform="translate(50.37 10.017)" fill="#3459cc"/>
            <path id="Trazado_884065" data-name="Trazado 884065" d="M24.44,7.287l-9.788,9.788,9.788,9.788Z" transform="translate(-6.191 -3.079)" fill="#3459cc"/>
          </g>
        </g>
      </g>
    </g>
    <g id="Grupo_1102183" data-name="Grupo 1102183" transform="translate(194.528 485.476)">
      <g id="Grupo_1102207" data-name="Grupo 1102207" clip-path="url(#clip-path-8)">
        <g id="Grupo_1102206" data-name="Grupo 1102206">
          <g id="Grupo_1102205" data-name="Grupo 1102205" clip-path="url(#clip-path-8)">
            <path id="Trazado_884018" data-name="Trazado 884018" d="M115.808,199.715c9.5,0,14.5-13.475,16.361-19.954a21.074,21.074,0,0,1-4.382-1.273c-1.716-1.334-1.716-13.726-1.716-13.726l-9.437,1.324-9.437-1.324s0,12.392-1.716,13.726a22.3,22.3,0,0,1-4.57,1.317c1.448,6.634,5.517,19.911,14.9,19.911" transform="translate(-47.714 -77.904)" fill="#d18491"/>
            <path id="Trazado_884019" data-name="Trazado 884019" d="M120.3,203.761c-4.71-4.1-26.374-8.326-35.845-10.548-1.858,6.479-6.863,19.955-16.361,19.955-9.38,0-13.45-13.277-14.9-19.911-9.565,2.233-30.977,6.428-35.657,10.5C11.63,208.908,0,263.815,0,263.815H137.841s-11.63-54.907-17.54-60.055" transform="translate(0 -91.357)" fill="#f0c518"/>
            <path id="Trazado_884020" data-name="Trazado 884020" d="M266.512,171.146l4,56.814H251.708s2.221-60.436,2.412-61.008c0,0,2.258-49.933,5.529-49.569.858.1,2.2,2.4,2.31,4.379.325,5.7-.651,16.76-.651,16.76s10.352-1.121,16.834,6.7-6.864,16.586-6.864,16.586Z" transform="translate(-119.015 -55.501)" fill="#d18491"/>
            <path id="Trazado_884021" data-name="Trazado 884021" d="M57.037,55.869a10.206,10.206,0,0,1-8.18-16c-2.95-2.631-3.983-7.18-3.187-11.051a11.572,11.572,0,0,1,7.515-8.473c-.452-2.647,1.167-6.087,3.177-7.866A10.824,10.824,0,0,1,67.1,10.492c1.054-3.973,4-7.753,8.013-8.638A11.514,11.514,0,0,1,86.2,5.657C88.994,2.148,93.745-.62,98.168.122s8.269,4.718,8.275,9.2a12.609,12.609,0,0,1,11.6,1.249,10.587,10.587,0,0,1,4.449,10.474,6.272,6.272,0,0,1,3.392.8,11.779,11.779,0,0,1,5.641,15.079,11.058,11.058,0,0,1,3.1,8.694,14.8,14.8,0,0,1-1.719,5.138c-1.66,3.183-4.221,6.167-7.691,7.083" transform="translate(-21.472 0)" fill="#0e1165"/>
            <path id="Trazado_884022" data-name="Trazado 884022" d="M133.651,70.8c0,15.614-9.878,39.2-28.272,39.2S77.107,86.413,77.107,70.8s12.657-33.746,28.272-33.746S133.651,55.185,133.651,70.8" transform="translate(-36.458 -17.52)" fill="#d18491"/>
            <g id="Grupo_1102198" data-name="Grupo 1102198" transform="translate(64.486 76.444)" style="mix-blend-mode: multiply;isolation: isolate">
              <g id="Grupo_1102197" data-name="Grupo 1102197">
                <g id="Grupo_1102196" data-name="Grupo 1102196" clip-path="url(#clip-path-10)">
                  <path id="Trazado_884023" data-name="Trazado 884023" d="M128.249,145.048a13.777,13.777,0,0,0-5.924.818,6.537,6.537,0,0,0,4.722,2.289,6.279,6.279,0,0,0,4.668-2.481,17.717,17.717,0,0,0-3.466-.626" transform="translate(-122.325 -145.008)" fill="#d18491"/>
                </g>
              </g>
            </g>
            <path id="Trazado_884024" data-name="Trazado 884024" d="M126.211,142.168a17.717,17.717,0,0,1,3.466.626A14.529,14.529,0,0,0,132,138.915a13.887,13.887,0,0,1-6.6,1.452,33.491,33.491,0,0,1-7.387-.816,12.81,12.81,0,0,0,2.273,3.435,13.776,13.776,0,0,1,5.924-.818" transform="translate(-55.8 -65.683)" fill="#0e1165"/>
            <path id="Trazado_884025" data-name="Trazado 884025" d="M102.135,163.09a23.962,23.962,0,0,0,23.629,3.688,20.839,20.839,0,0,0,6.963-4.633,16.753,16.753,0,0,1-6.572,5.5c-7.778,3.743-18.3,2.048-24.021-4.558" transform="translate(-48.292 -76.667)" fill="#0e1165"/>
            <path id="Trazado_884026" data-name="Trazado 884026" d="M111.475,101.91a3.211,3.211,0,1,1-3.211-3.211,3.211,3.211,0,0,1,3.211,3.211" transform="translate(-49.672 -46.668)" fill="#0e1165"/>
            <path id="Trazado_884027" data-name="Trazado 884027" d="M142.556,101.91a3.211,3.211,0,1,0,3.211-3.211,3.211,3.211,0,0,0-3.211,3.211" transform="translate(-67.405 -46.668)" fill="#0e1165"/>
            <path id="Trazado_884028" data-name="Trazado 884028" d="M93.155,92.874a11.047,11.047,0,0,1,6.484-7.03,9.245,9.245,0,0,1,4.976-1.139c1.734.2,3.7,1.129,4.359,2.86l-.2.226a10.573,10.573,0,0,0-2.234-.207c-1.371.014-2.629.256-4.008.289a9.176,9.176,0,0,0-2.092.249,11.256,11.256,0,0,0-7.006,4.867l-.279-.115" transform="translate(-44.046 -40.026)" fill="#0e1165"/>
            <path id="Trazado_884029" data-name="Trazado 884029" d="M154.516,92.989a11.253,11.253,0,0,0-7.006-4.867,9.17,9.17,0,0,0-2.092-.249c-1.379-.033-2.638-.276-4.009-.289a10.574,10.574,0,0,0-2.234.207l-.2-.226c.655-1.731,2.625-2.661,4.359-2.86a9.248,9.248,0,0,1,4.977,1.14,11.9,11.9,0,0,1,5.575,4.8,9.354,9.354,0,0,1,.909,2.23Z" transform="translate(-65.712 -40.026)" fill="#0e1165"/>
            <path id="Trazado_884030" data-name="Trazado 884030" d="M72.486,74.912A4.017,4.017,0,0,0,75.2,73.367c3.834-4.14,4.954-10.133,4.9-15.775a9.66,9.66,0,0,0,7.433-.571,9.2,9.2,0,0,0,4.325-5.841A10.283,10.283,0,0,0,99.3,53.406a9.219,9.219,0,0,0,6.273-3.816c3.087,3.219,8.229,4.828,12.36,3.148a11.52,11.52,0,0,0,7.514,5.852c.526,2.989.257,6.54,1.481,9.316a12.982,12.982,0,0,0,5.944,6.641c1.543-6.713.686-13.978-1.334-20.563a43.618,43.618,0,0,0-4.592-10.816C121.928,35.307,112.7,30.683,103.4,29.98a21.294,21.294,0,0,0-8.522.845c-4.364,1.5-7.8,4.947-10.436,8.738-6.913,9.956-10.866,23.279-11.955,35.35" transform="translate(-34.273 -14.132)" fill="#0e1165"/>
            <path id="Trazado_884031" data-name="Trazado 884031" d="M191.2,107.821a11.571,11.571,0,0,1-5.849,7.68,6.436,6.436,0,0,1-3.034.868,5.688,5.688,0,0,1-5.071-4.358,11,11,0,0,1,.85-6.82c1.123-2.792,3.122-5.66,6.2-6.111,4.969-.726,7.753,4.749,6.9,8.742" transform="translate(-83.692 -46.817)" fill="#d18491"/>
            <g id="Grupo_1102201" data-name="Grupo 1102201" transform="translate(95.972 54.461)" style="mix-blend-mode: multiply;isolation: isolate">
              <g id="Grupo_1102200" data-name="Grupo 1102200">
                <g id="Grupo_1102199" data-name="Grupo 1102199" clip-path="url(#clip-path-11)">
                  <path id="Trazado_884032" data-name="Trazado 884032" d="M182.051,115.35a5.871,5.871,0,0,0,2.841-1.5,1.136,1.136,0,0,0,.356-.524c.093-.4-.209-.776-.49-1.087l-1.709-1.882a.988.988,0,0,1-.268-.42.936.936,0,0,1,.09-.528c.824-2.154,1.786-4.47,3.841-5.619a3.043,3.043,0,0,1,4.232.934,8.656,8.656,0,0,1,1.184,2.542s.211,4.764-3.373,7.348a6.264,6.264,0,0,1-6.705.731" transform="translate(-182.05 -103.307)" fill="#d18491"/>
                </g>
              </g>
            </g>
            <path id="Trazado_884033" data-name="Trazado 884033" d="M192.129,106.862c-.806-2.021-2.584-4.464-4.942-3.207-1.713,1.373-2.768,3.492-3.763,5.428-.018.042-.087.182-.105.222-1.768-1.105-.631-.1-.968-.426l0,.007c.008-.013.022-.05.03-.064a.911.911,0,0,1,.075-.143c.064-.062-.059.022.163-.154,1.549.54.442.685.78.584-.024.074-.062.2-.084.273,0-.007-.023.125-.023.088,0-.011-.009-.063-.009-.044a2.755,2.755,0,0,0,.354.444c.466.534.963,1.142,1.419,1.69a1.885,1.885,0,0,1,.557,1.221c-.008.489-.455.85-.77,1.083a5.514,5.514,0,0,1-2.788,1.078,5.856,5.856,0,0,0,2.838-1.979.381.381,0,0,0-.038-.388c-.47-.652-1.362-1.393-1.94-2.049a1.766,1.766,0,0,1-.644-1,2,2,0,0,1,.085-.577l.025-.092c0-.011,0-.006,0,0,.339-.1-.767.036.782.573.222-.181.1-.088.159-.149a.548.548,0,0,0,.042-.072c-.016.042-.036.094-.055.135-.339-.326.794.69-.971-.423.022-.064.093-.216.12-.28,1.043-2.157,2.194-4.448,4.251-5.825,2.952-1.386,5.078,1.384,5.425,4.051" transform="translate(-86.078 -48.437)" fill="#0e1165"/>
            <path id="Trazado_884034" data-name="Trazado 884034" d="M57.4,107.821a11.571,11.571,0,0,0,5.849,7.68,6.436,6.436,0,0,0,3.034.868,5.688,5.688,0,0,0,5.071-4.358,11,11,0,0,0-.85-6.82c-1.123-2.792-3.122-5.66-6.2-6.111-4.969-.726-7.753,4.749-6.9,8.742" transform="translate(-27.068 -46.817)" fill="#d18491"/>
            <g id="Grupo_1102204" data-name="Grupo 1102204" transform="translate(31.788 54.461)" style="mix-blend-mode: multiply;isolation: isolate">
              <g id="Grupo_1102203" data-name="Grupo 1102203">
                <g id="Grupo_1102202" data-name="Grupo 1102202" clip-path="url(#clip-path-12)">
                  <path id="Trazado_884035" data-name="Trazado 884035" d="M70.38,115.35a5.873,5.873,0,0,1-2.842-1.5,1.135,1.135,0,0,1-.356-.524c-.094-.4.208-.776.49-1.087l1.709-1.882a.993.993,0,0,0,.268-.42.941.941,0,0,0-.09-.528c-.825-2.154-1.787-4.47-3.843-5.619a3.041,3.041,0,0,0-4.231.934,8.643,8.643,0,0,0-1.185,2.542s-.211,4.764,3.374,7.348a6.264,6.264,0,0,0,6.705.731" transform="translate(-60.299 -103.307)" fill="#d18491"/>
                </g>
              </g>
            </g>
            <path id="Trazado_884036" data-name="Trazado 884036" d="M60.3,106.9c.978-5.843,6.105-5.548,8.578-.793a22.2,22.2,0,0,1,1.168,2.74,1.279,1.279,0,0,1-.025,1.14,20.7,20.7,0,0,1-1.567,1.67,6.189,6.189,0,0,0-.886.981.364.364,0,0,0-.016.382,5.94,5.94,0,0,0,2.826,1.96c-1.093-.056-4.046-1.123-3.485-2.619a5.3,5.3,0,0,1,.917-1.287c.39-.5.978-1.124,1.332-1.593a12.653,12.653,0,0,0-2.857-5.01c-2.686-2.482-4.876-.34-5.986,2.431" transform="translate(-28.513 -48.48)" fill="#0e1165"/>
            <path id="Trazado_884037" data-name="Trazado 884037" d="M128.336,98.576a9.873,9.873,0,0,0,2.363,5.783c1.491,1.581,3.61,3.092,4.049,5.478a6.3,6.3,0,0,1-5.651,7.749,5.635,5.635,0,0,1-3.276-.773c4.294,1.163,8.432-2.308,7.453-6.658-.4-2.126-2.248-3.32-3.495-5.069a8.34,8.34,0,0,1-1.443-6.51" transform="translate(-59.492 -46.61)" fill="#0e1165"/>
            <path id="Trazado_884038" data-name="Trazado 884038" d="M70.119,68.1a6.533,6.533,0,0,1,4.924-8.262A7.478,7.478,0,0,1,80.2,52.082" transform="translate(-33.029 -24.626)" fill="none" stroke="#fff" stroke-linecap="round" stroke-miterlimit="10" stroke-width="1.045"/>
            <path id="Trazado_884039" data-name="Trazado 884039" d="M85.06,33.109a9.006,9.006,0,0,1,10.393,1.85c2.349-1.893,6.31-1.321,8.372.881" transform="translate(-40.219 -15.229)" fill="none" stroke="#fff" stroke-linecap="round" stroke-miterlimit="10" stroke-width="1.045"/>
            <path id="Trazado_884040" data-name="Trazado 884040" d="M136.022,17.914a7.627,7.627,0,0,1,9.641,5.7c2.844-.413,5.709,1.486,6.989,4.059" transform="translate(-64.315 -8.322)" fill="none" stroke="#fff" stroke-linecap="round" stroke-miterlimit="10" stroke-width="1.045"/>
            <path id="Trazado_884041" data-name="Trazado 884041" d="M141.4,47.759a8.5,8.5,0,0,1,9.153,4.832,6.6,6.6,0,0,1,7.2,4.787" transform="translate(-66.86 -22.516)" fill="none" stroke="#fff" stroke-linecap="round" stroke-miterlimit="10" stroke-width="1.045"/>
            <path id="Trazado_884042" data-name="Trazado 884042" d="M187.465,57.277a6.524,6.524,0,0,1,3.571,8.152c1.9,1.2,2.131,4.488,1.112,6.487" transform="translate(-88.639 -27.082)" fill="none" stroke="#fff" stroke-linecap="round" stroke-miterlimit="10" stroke-width="1.045"/>
            <path id="Trazado_884043" data-name="Trazado 884043" d="M257.271,174.649c1.192-2.712,2.342-8.507,4.059-10.921s4.52-3.746,7.2-4.982c.467-.215,1.1-.4,1.427-.006a1.087,1.087,0,0,1,.2.6c.3,2.885-1.529,5.553-3.548,7.635a1.526,1.526,0,0,0-.581,1.069,1.542,1.542,0,0,0,.274.664,13.656,13.656,0,0,1,1.613,10.408,11.342,11.342,0,0,1-6.958,7.73" transform="translate(-121.645 -74.948)" fill="none" stroke="#0e1165" stroke-linecap="round" stroke-miterlimit="10" stroke-width="2.061"/>
            <path id="Trazado_884044" data-name="Trazado 884044" d="M283.97,199.985a5.78,5.78,0,0,1-7.05-.667" transform="translate(-130.936 -94.243)" fill="none" stroke="#0e1165" stroke-linecap="round" stroke-miterlimit="10" stroke-width="2.061"/>
            <path id="Trazado_884045" data-name="Trazado 884045" d="M290.687,166.549a41.6,41.6,0,0,1-7.956,18.427c-.084.11-.2.233-.337.2s-.078-.309.038-.234" transform="translate(-133.487 -78.749)" fill="none" stroke="#0e1165" stroke-linecap="round" stroke-miterlimit="10" stroke-width="2.061"/>
            <path id="Trazado_884046" data-name="Trazado 884046" d="M283.449,160.792c-.763,5.1-3.138,9.79-5.478,14.382" transform="translate(-131.433 -76.027)" fill="none" stroke="#0e1165" stroke-linecap="round" stroke-miterlimit="10" stroke-width="2.061"/>
            <path id="Trazado_884047" data-name="Trazado 884047" d="M92.125,196.114s3.925,22.468,19.5,22.468,20.054-22.413,20.054-22.413" transform="translate(-43.559 -92.728)" fill="none" stroke="#0e1165" stroke-linecap="round" stroke-miterlimit="10" stroke-width="2.061"/>
            <path id="Trazado_884048" data-name="Trazado 884048" d="M47.471,225.883a260.246,260.246,0,0,0,4.664,52.9" transform="translate(-22.433 -106.804)" fill="none" stroke="#0e1165" stroke-linecap="round" stroke-miterlimit="10" stroke-width="2.061"/>
            <path id="Trazado_884049" data-name="Trazado 884049" d="M197.418,225.883a260.247,260.247,0,0,1-4.664,52.9" transform="translate(-91.14 -106.804)" fill="none" stroke="#0e1165" stroke-linecap="round" stroke-miterlimit="10" stroke-width="2.061"/>
            <path id="Trazado_884050" data-name="Trazado 884050" d="M41.246,270.5H135.6V218.565a3.947,3.947,0,0,0-3.947-3.947H45.193a3.947,3.947,0,0,0-3.947,3.947Z" transform="translate(-19.502 -101.477)" fill="#8ea6ff"/>
            <path id="Trazado_884051" data-name="Trazado 884051" d="M48.643,272.14H135.2V224.5a3.621,3.621,0,0,0-3.621-3.621H52.264a3.621,3.621,0,0,0-3.621,3.621Z" transform="translate(-23 -104.437)" fill="none" stroke="#3459cc" stroke-linecap="round" stroke-miterlimit="10" stroke-width="1.933"/>
            <path id="Trazado_884052" data-name="Trazado 884052" d="M131.72,262.538A9.543,9.543,0,1,1,122.178,253a9.542,9.542,0,0,1,9.542,9.542" transform="translate(-53.257 -119.624)" fill="#fdffff"/>
            <path id="Trazado_884053" data-name="Trazado 884053" d="M129.1,210.122H117.084a2.515,2.515,0,1,1,0-5.03H129.1a2.515,2.515,0,1,1,0,5.03" transform="translate(-54.171 -96.973)" fill="#0e1165"/>
            <path id="Trazado_884054" data-name="Trazado 884054" d="M34.727,322.477H135.953v-.972a4.227,4.227,0,0,0-4.226-4.227H38.954a4.227,4.227,0,0,0-4.227,4.227Z" transform="translate(-16.42 -150.018)" fill="#fdffff"/>
            <path id="Trazado_884055" data-name="Trazado 884055" d="M121.748,208.233a1.54,1.54,0,1,1-1.54-1.54,1.54,1.54,0,0,1,1.54,1.54" transform="translate(-56.11 -97.73)" fill="#fdffff"/>
            <path id="Trazado_884056" data-name="Trazado 884056" d="M129.172,209.879h5.621a1.155,1.155,0,0,0,0-2.31h-5.621a1.155,1.155,0,0,0,0,2.31" transform="translate(-60.53 -98.145)" fill="#8ea6ff"/>
            <path id="Trazado_884057" data-name="Trazado 884057" d="M132,260.1a12.262,12.262,0,1,1-12.262-12.262A12.262,12.262,0,0,1,132,260.1Z" transform="translate(-50.818 -117.184)" fill="none" stroke="#3459cc" stroke-linecap="round" stroke-miterlimit="10" stroke-width="1.933"/>
          </g>
        </g>
      </g>
    </g>
    <g id="Grupo_1102214" data-name="Grupo 1102214" transform="translate(357.89 588.266)">
      <path id="Trazado_884064" data-name="Trazado 884064" d="M24.072,98.225H7.833a7.833,7.833,0,1,1,0-15.666H24.072a7.833,7.833,0,1,1,0,15.666" transform="translate(0 -34.884)" fill="#e2654d"/>
      <rect id="Rectángulo_403117" data-name="Rectángulo 403117" width="18.521" height="2.122" transform="translate(6.828 51.814)" fill="#fdffff"/>
      <rect id="Rectángulo_403118" data-name="Rectángulo 403118" width="18.521" height="2.122" transform="translate(6.828 56.252)" fill="#fdffff"/>
    </g>
    <g id="Grupo_1102216" data-name="Grupo 1102216" transform="translate(357.89 570.266)">
      <path id="Trazado_884064-2" data-name="Trazado 884064" d="M24.072,98.225H7.833a7.833,7.833,0,1,1,0-15.666H24.072a7.833,7.833,0,1,1,0,15.666" transform="translate(0 -34.884)" fill="#e2654d"/>
      <rect id="Rectángulo_403117-2" data-name="Rectángulo 403117" width="18.521" height="2.122" transform="translate(6.828 51.814)" fill="#fdffff"/>
      <rect id="Rectángulo_403118-2" data-name="Rectángulo 403118" width="18.521" height="2.122" transform="translate(6.828 56.252)" fill="#fdffff"/>
    </g>
  </g>
</svg>
