<svg xmlns="http://www.w3.org/2000/svg" width="98.873" height="82.926" viewBox="0 0 98.873 82.926">
  <g id="factura_1_" data-name="factura (1)" transform="translate(-8 -48)">
    <g id="Grupo_1097364" data-name="Grupo 1097364" transform="translate(9.595 49.595)">
      <g id="Grupo_1097362" data-name="Grupo 1097362" transform="translate(0 11.163)">
        <path id="Trazado_847084" data-name="Trazado 847084" d="M16,400h95.684v7.176a3.987,3.987,0,0,1-3.987,3.987H19.987A3.987,3.987,0,0,1,16,407.176Z" transform="translate(-16 -342.59)" fill="#d8d7da"/>
        <path id="Trazado_847085" data-name="Trazado 847085" d="M225.542,406.379H209.595L208,400h19.137Z" transform="translate(-169.727 -342.59)" fill="#787680"/>
        <path id="Trazado_847086" data-name="Trazado 847086" d="M116.547,112h5.582a3.986,3.986,0,0,1,3.987,3.987V169.41H40V115.987A3.986,3.986,0,0,1,43.987,112H68.705" transform="translate(-35.216 -112)" fill="#3e3d42"/>
        <path id="Trazado_847087" data-name="Trazado 847087" d="M135.763,136h4.784v47.842H64V136H87.921" transform="translate(-54.432 -131.216)" fill="#78b9eb"/>
      </g>
      <path id="Trazado_847088" data-name="Trazado 847088" d="M184,108.305V115h47.842V56H184V77.052" transform="translate(-150.511 -56)" fill="#ff9811"/>
      <g id="Grupo_1097363" data-name="Grupo 1097363" transform="translate(13.771 20.646)">
        <circle id="Elipse_11292" data-name="Elipse 11292" cx="15.902" cy="15.902" r="15.902" transform="translate(0 0)" fill="#ffda44"/>
        <path id="Trazado_847089" data-name="Trazado 847089" d="M328,168h11.163v25.516H328Z" transform="translate(-279.577 -166.319)" fill="#ffda44"/>
      </g>
    </g>
    <g id="Grupo_1097365" data-name="Grupo 1097365" transform="translate(8 48)">
      <path id="Trazado_847090" data-name="Trazado 847090" d="M105.278,116.573h-3.189V64.745a5.588,5.588,0,0,0-5.582-5.582H92.521V49.595A1.6,1.6,0,0,0,90.926,48H43.084a1.6,1.6,0,0,0-1.595,1.595v9.568H18.366a5.588,5.588,0,0,0-5.582,5.582v51.829H9.595A1.6,1.6,0,0,0,8,118.168v7.176a5.588,5.588,0,0,0,5.582,5.582h87.71a5.588,5.588,0,0,0,5.582-5.582v-7.176A1.6,1.6,0,0,0,105.278,116.573ZM92.521,108.6V67.137h1.595v44.652H20.758V67.137H41.489v1.668c-.526-.048-1.057-.074-1.595-.074a17.542,17.542,0,1,0,0,35.084c.538,0,1.068-.026,1.595-.074V108.6a1.6,1.6,0,0,0,1.595,1.595H90.926A1.6,1.6,0,0,0,92.521,108.6ZM44.679,51.189H89.331V107H44.679v-3.853a17.544,17.544,0,0,0,0-33.756Zm9.568,35.084A14.353,14.353,0,1,1,39.895,71.921,14.353,14.353,0,0,1,54.247,86.273ZM15.974,64.745a2.394,2.394,0,0,1,2.392-2.392H41.489v1.595H19.163a1.6,1.6,0,0,0-1.595,1.595v47.842a1.6,1.6,0,0,0,1.595,1.595H95.71a1.6,1.6,0,0,0,1.595-1.595V65.542a1.6,1.6,0,0,0-1.595-1.595H92.521V62.353h3.987A2.394,2.394,0,0,1,98.9,64.745v51.829H15.974Zm48.988,55.018-.8,3.189H50.709l-.8-3.189Zm38.722,5.582a2.394,2.394,0,0,1-2.392,2.392H13.582a2.394,2.394,0,0,1-2.392-2.392v-5.582H46.622l1.294,5.171a1.6,1.6,0,0,0,1.547,1.208H65.41a1.6,1.6,0,0,0,1.547-1.208l1.294-5.171h35.433Z" transform="translate(-8 -48)"/>
      <path id="Trazado_847092" data-name="Trazado 847092" d="M217.595,83.189h3.189a1.595,1.595,0,1,0,0-3.189h-3.189a1.595,1.595,0,0,0,0,3.189Z" transform="translate(-174.537 -73.621)"/>
      <path id="Trazado_847093" data-name="Trazado 847093" d="M257.595,83.189h23.921a1.595,1.595,0,1,0,0-3.189H257.595a1.595,1.595,0,1,0,0,3.189Z" transform="translate(-206.563 -73.621)"/>
      <g id="Grupo_1097366" data-name="Grupo 1097366" transform="translate(41.463 11.163)">
        <path id="Trazado_847094" data-name="Trazado 847094" d="M217.595,107.189h3.189a1.595,1.595,0,1,0,0-3.189h-3.189a1.595,1.595,0,0,0,0,3.189Z" transform="translate(-216 -104)"/>
        <path id="Trazado_847095" data-name="Trazado 847095" d="M257.595,107.189h23.921a1.595,1.595,0,1,0,0-3.189H257.595a1.595,1.595,0,1,0,0,3.189Z" transform="translate(-248.026 -104)"/>
      </g>
      <g id="Grupo_1097367" data-name="Grupo 1097367" transform="translate(21.523 42.687)">
        <path id="Trazado_847094-2" data-name="Trazado 847094" d="M217.595,107.189h3.189a1.595,1.595,0,1,0,0-3.189h-3.189a1.595,1.595,0,0,0,0,3.189Z" transform="translate(-216 -104)"/>
        <path id="Trazado_847095-2" data-name="Trazado 847095" d="M256.7,107.189h10.558c.389,0,.7-.714.7-1.595s-.315-1.595-.7-1.595H256.7c-.389,0-.7.714-.7,1.595S256.315,107.189,256.7,107.189Z" transform="translate(-248.026 -104)"/>
      </g>
      <g id="Grupo_1097368" data-name="Grupo 1097368" transform="translate(21.523 36.57)">
        <path id="Trazado_847094-3" data-name="Trazado 847094" d="M217.595,107.189h3.189a1.595,1.595,0,1,0,0-3.189h-3.189a1.595,1.595,0,0,0,0,3.189Z" transform="translate(-216 -104)"/>
        <path id="Trazado_847095-3" data-name="Trazado 847095" d="M256.7,107.189h10.558c.389,0,.7-.714.7-1.595s-.315-1.595-.7-1.595H256.7c-.389,0-.7.714-.7,1.595S256.315,107.189,256.7,107.189Z" transform="translate(-248.026 -104)"/>
      </g>
      <g id="Grupo_1097369" data-name="Grupo 1097369" transform="translate(21.523 30.454)">
        <path id="Trazado_847094-4" data-name="Trazado 847094" d="M217.595,107.189h3.189a1.595,1.595,0,1,0,0-3.189h-3.189a1.595,1.595,0,0,0,0,3.189Z" transform="translate(-216 -104)"/>
        <path id="Trazado_847095-4" data-name="Trazado 847095" d="M256.7,107.189h10.558c.389,0,.7-.714.7-1.595s-.315-1.595-.7-1.595H256.7c-.389,0-.7.714-.7,1.595S256.315,107.189,256.7,107.189Z" transform="translate(-248.026 -104)"/>
      </g>
      <path id="Trazado_847096" data-name="Trazado 847096" d="M217.595,131.189h3.189a1.595,1.595,0,1,0,0-3.189h-3.189a1.595,1.595,0,0,0,0,3.189Z" transform="translate(-174.537 -112.053)"/>
      <path id="Trazado_847097" data-name="Trazado 847097" d="M257.595,131.189h23.921a1.595,1.595,0,0,0,0-3.189H257.595a1.595,1.595,0,0,0,0,3.189Z" transform="translate(-206.563 -112.053)"/>
      <path id="Trazado_847098" data-name="Trazado 847098" d="M332.758,160H321.595A1.6,1.6,0,0,0,320,161.595V187.11a1.6,1.6,0,0,0,1.595,1.595h11.163a1.6,1.6,0,0,0,1.595-1.595V161.595A1.6,1.6,0,0,0,332.758,160Zm-1.595,25.516h-7.974V163.189h7.974Z" transform="translate(-257.806 -137.674)"/>
    </g>
  </g>
</svg>
