<svg xmlns="http://www.w3.org/2000/svg" xmlns:xlink="http://www.w3.org/1999/xlink" width="132.59" height="132.59" viewBox="0 0 132.59 132.59">
  <defs>
    <filter id="Elipse_11310" x="0" y="0" width="132.59" height="132.59" filterUnits="userSpaceOnUse">
      <feOffset dy="3" input="SourceAlpha"/>
      <feGaussianBlur stdDeviation="5.5" result="blur"/>
      <feFlood flood-color="#fff" flood-opacity="0.82"/>
      <feComposite operator="in" in2="blur"/>
      <feComposite in="SourceGraphic"/>
    </filter>
  </defs>
  <g id="Grupo_1101786" data-name="Grupo 1101786" transform="translate(-891.205 -1992.338)">
    <g id="Grupo_1101773" data-name="Grupo 1101773" transform="translate(586.705 -8062.939)">
      <g id="Grupo_1098796" data-name="Grupo 1098796" transform="translate(321 10068.777)">
        <g transform="matrix(1, 0, 0, 1, -16.5, -13.5)" filter="url(#Elipse_11310)">
          <circle id="Elipse_11310-2" data-name="Elipse 11310" cx="49.795" cy="49.795" r="49.795" transform="translate(16.5 13.5)" fill="#fff"/>
        </g>
      </g>
    </g>
    <path id="node-js" d="M30.069,67.764a5.459,5.459,0,0,1-2.615-.685l-8.28-4.918c-1.245-.685-.623-.934-.249-1.058a15.082,15.082,0,0,0,3.735-1.681.573.573,0,0,1,.623.062l6.35,3.8a.791.791,0,0,0,.747,0L55.22,48.9a.715.715,0,0,0,.374-.685v-28.7a.715.715,0,0,0-.374-.685L30.38,4.513a.791.791,0,0,0-.747,0L4.794,18.832a.781.781,0,0,0-.374.685v28.7a.781.781,0,0,0,.374.685l6.786,3.922c3.673,1.868,5.976-.311,5.976-2.49V22.007a.757.757,0,0,1,.747-.747h3.175a.757.757,0,0,1,.747.747V50.333c0,4.918-2.677,7.782-7.346,7.782-1.432,0-2.552,0-5.727-1.556L2.615,52.823A5.254,5.254,0,0,1,0,48.279v-28.7a5.254,5.254,0,0,1,2.615-4.545L27.454.654a5.556,5.556,0,0,1,5.229,0l24.84,14.381a5.254,5.254,0,0,1,2.615,4.545v28.7a5.254,5.254,0,0,1-2.615,4.545L32.684,67.2a6.372,6.372,0,0,1-2.615.56ZM37.726,48.03c-10.895,0-13.136-4.98-13.136-9.214a.757.757,0,0,1,.747-.747h3.237a.64.64,0,0,1,.685.623c.5,3.3,1.93,4.918,8.529,4.918,5.229,0,7.471-1.183,7.471-3.984,0-1.619-.623-2.8-8.778-3.611-6.786-.685-11.019-2.179-11.019-7.6,0-5.043,4.233-8.031,11.33-8.031,7.969,0,11.891,2.739,12.389,8.716a1,1,0,0,1-.187.56.769.769,0,0,1-.5.249H45.259a.729.729,0,0,1-.685-.56c-.747-3.424-2.677-4.545-7.782-4.545-5.727,0-6.412,1.992-6.412,3.486,0,1.805.809,2.366,8.529,3.362,7.657,1,11.268,2.428,11.268,7.782-.062,5.478-4.545,8.591-12.451,8.591Z" transform="translate(927.431 2021.751)" fill="#539e43"/>
  </g>
</svg>
