<svg xmlns="http://www.w3.org/2000/svg" xmlns:xlink="http://www.w3.org/1999/xlink" width="127" height="105" viewBox="0 0 127 105">
  <defs>
    <linearGradient id="linear-gradient" x1="0.5" x2="0.5" y2="1" gradientUnits="objectBoundingBox">
      <stop offset="0" stop-color="#7737f0"/>
      <stop offset="1" stop-color="#291155"/>
    </linearGradient>
  </defs>
  <g id="Grupo_1101785" data-name="Grupo 1101785" transform="translate(-1173 -2658)">
    <rect id="Rectángulo_402949" data-name="Rectángulo 402949" width="127" height="105" rx="5" transform="translate(1173 2658)" fill="url(#linear-gradient)"/>
    <g id="download_10618950" transform="translate(1191.291 2663.813)">
      <g id="Grupo_1101783" data-name="Grupo 1101783" transform="translate(6.44 11.065)">
        <g id="Grupo_1101782" data-name="Grupo 1101782" transform="translate(0 20.235)">
          <path id="Trazado_877576" data-name="Trazado 877576" d="M81.655,86.945V44.1a2.721,2.721,0,0,0-2.721-2.721H17.721A2.721,2.721,0,0,0,15,44.1v42.85L36.765,88.52H59.89Z" transform="translate(-9.559 -41.375)" fill="#4ca6ff"/>
          <path id="Trazado_877577" data-name="Trazado 877577" d="M15,47.875H81.655V84.6H15Z" transform="translate(-9.559 -43.454)" fill="#e9f4ff"/>
          <path id="Trazado_877578" data-name="Trazado 877578" d="M81.817,113.816a2.721,2.721,0,0,0,2.721-2.721v-2.721H58.012l-.68,1.575H34.206l-.68-1.575H7V111.1a2.721,2.721,0,0,0,2.721,2.721Z" transform="translate(-7 -62.805)" fill="#59c7ff"/>
        </g>
        <circle id="Elipse_11632" data-name="Elipse 11632" cx="22.445" cy="22.445" r="22.445" transform="translate(16.324)" fill="#9cdd03"/>
        <path id="Trazado_877579" data-name="Trazado 877579" d="M58.381,25.125V37.912H54.4l6.529,6.529,6.529-6.529H63.478V25.125Z" transform="translate(-22.161 -15.943)" fill="#e9f4ff"/>
      </g>
      <g id="Grupo_1101784" data-name="Grupo 1101784" transform="translate(5.25 9.873)">
        <path id="Trazado_877580" data-name="Trazado 877580" d="M45.209,12.255A21.147,21.147,0,0,1,64.983,25.7a1.191,1.191,0,0,0,2.215-.875,23.638,23.638,0,0,0-45.376,5.284H14.6a3.916,3.916,0,0,0-3.911,3.911V75.679H6.44a1.191,1.191,0,0,0-1.19,1.19V79.59A3.916,3.916,0,0,0,9.161,83.5h8.921a1.19,1.19,0,1,0,0-2.381H9.161a1.532,1.532,0,0,1-1.53-1.53V78.06H32.184l.37.856a1.19,1.19,0,0,0,1.092.718H56.772a1.19,1.19,0,0,0,1.092-.718l.37-.856H82.788v1.53a1.532,1.532,0,0,1-1.53,1.53H33.863a1.19,1.19,0,0,0,0,2.381H81.257a3.916,3.916,0,0,0,3.911-3.911V76.869a1.19,1.19,0,0,0-1.19-1.19H79.727V48.12a1.19,1.19,0,0,0-2.381,0V71.258H13.072V36.91h8.75a23.633,23.633,0,0,0,46.774,0h8.75v5.01a1.19,1.19,0,0,0,2.381,0v-7.9a3.916,3.916,0,0,0-3.911-3.911H67.547a1.19,1.19,0,0,0-1.185,1.306c.068.692.1,1.4.1,2.095A21.255,21.255,0,1,1,45.209,12.255ZM77.346,73.639v2.04H57.452a1.19,1.19,0,0,0-1.092.718l-.37.856H34.429l-.37-.856a1.19,1.19,0,0,0-1.092-.718H13.072v-2.04ZM21.6,34.53H13.072v-.51a1.532,1.532,0,0,1,1.53-1.53h7c-.014.34-.026.68-.026,1.02S21.585,34.191,21.6,34.53Zm47.223-2.04h6.993a1.532,1.532,0,0,1,1.53,1.53v.51H68.819c.014-.34.026-.68.026-1.02S68.837,32.829,68.823,32.489Z" transform="translate(-5.25 -9.873)"/>
        <path id="Trazado_877581" data-name="Trazado 877581" d="M36.051,117.006a1.19,1.19,0,1,0,0-2.381h-3.38a1.19,1.19,0,1,0,0,2.381Z" transform="translate(-13.64 -43.377)"/>
        <path id="Trazado_877582" data-name="Trazado 877582" d="M62.918,23.375h-5.1a1.191,1.191,0,0,0-1.19,1.19v11.6H53.84A1.19,1.19,0,0,0,53,38.194l6.529,6.529a1.189,1.189,0,0,0,1.683,0l6.529-6.529a1.19,1.19,0,0,0-.841-2.032H64.11v-11.6a1.19,1.19,0,0,0-1.192-1.19ZM60.37,42.2l-3.656-3.656H57.82a1.19,1.19,0,0,0,1.189-1.19v-11.6H61.73v11.6a1.19,1.19,0,0,0,1.19,1.19h1.107Z" transform="translate(-20.411 -14.191)"/>
        <path id="Trazado_877583" data-name="Trazado 877583" d="M49.44,54.375a1.191,1.191,0,0,0-1.19,1.19v2.721a1.191,1.191,0,0,0,1.19,1.19H68.485a1.19,1.19,0,0,0,1.19-1.19V55.565a1.19,1.19,0,1,0-2.381,0V57.1H50.631v-1.53a1.191,1.191,0,0,0-1.19-1.19Z" transform="translate(-19.003 -24.107)"/>
      </g>
    </g>
  </g>
</svg>
