<svg xmlns="http://www.w3.org/2000/svg" xmlns:xlink="http://www.w3.org/1999/xlink" width="127" height="105" viewBox="0 0 127 105">
  <defs>
    <linearGradient id="linear-gradient" x1="0.5" x2="0.5" y2="1" gradientUnits="objectBoundingBox">
      <stop offset="0" stop-color="#7737f0"/>
      <stop offset="1" stop-color="#291155"/>
    </linearGradient>
  </defs>
  <g id="Grupo_1101797" data-name="Grupo 1101797" transform="translate(-1173 -3008)">
    <rect id="Rectángulo_402949" data-name="Rectángulo 402949" width="127" height="105" rx="5" transform="translate(1173 3008)" fill="url(#linear-gradient)"/>
    <g id="location_3233033" transform="translate(1192 3009)">
      <g id="Grupo_1101795" data-name="Grupo 1101795" transform="translate(9.172 17.172)">
        <g id="Grupo_1101794" data-name="Grupo 1101794" transform="translate(0 5.859)">
          <path id="Trazado_877584" data-name="Trazado 877584" d="M86.313,66.93V109.7H16V66.93A2.929,2.929,0,0,1,18.93,64H83.384A2.929,2.929,0,0,1,86.313,66.93Z" transform="translate(-16 -64)" fill="#83d8f4"/>
          <path id="Trazado_877585" data-name="Trazado 877585" d="M86.313,376v2.93a2.929,2.929,0,0,1-2.93,2.93H18.93A2.929,2.929,0,0,1,16,378.93V376Z" transform="translate(-16 -330.296)" fill="#e0e0e2"/>
          <path id="Trazado_877586" data-name="Trazado 877586" d="M210.75,423.031H192L194.344,416h14.063Z" transform="translate(-166.218 -364.437)" fill="#898890"/>
          <path id="Trazado_877587" data-name="Trazado 877587" d="M168,464h25.782v3.516H168Z" transform="translate(-145.734 -405.405)" fill="#e0e0e2"/>
        </g>
        <path id="Trazado_877588" data-name="Trazado 877588" d="M120.251,72v34.571a2.929,2.929,0,0,1-2.93,2.93H66.93a2.929,2.929,0,0,1-2.93-2.93V72Z" transform="translate(-56.969 -64.969)" fill="#c2dff6"/>
        <path id="Trazado_877589" data-name="Trazado 877589" d="M102.063,103.031c0,3.883-7.031,10.547-7.031,10.547S88,106.915,88,103.031a7.031,7.031,0,0,1,14.063,0Z" transform="translate(-77.453 -85.453)" fill="#f21a6a"/>
        <path id="Trazado_877590" data-name="Trazado 877590" d="M120.251,26.93v4.1H64v-4.1A2.929,2.929,0,0,1,66.93,24h50.391A2.929,2.929,0,0,1,120.251,26.93Z" transform="translate(-56.969 -24)" fill="#e9f4ff"/>
        <circle id="Elipse_11633" data-name="Elipse 11633" cx="3" cy="3" r="3" transform="translate(14.695 14.828)" fill="#e0e0e2"/>
        <path id="Trazado_877591" data-name="Trazado 877591" d="M342.063,191.031c0,3.883-7.031,10.547-7.031,10.547S328,194.915,328,191.031a7.031,7.031,0,0,1,14.063,0Z" transform="translate(-282.296 -160.562)" fill="#f0c518"/>
        <ellipse id="Elipse_11634" data-name="Elipse 11634" cx="3" cy="2" rx="3" ry="2" transform="translate(49.695 28.828)" fill="#e0e0e2"/>
      </g>
      <g id="Grupo_1101796" data-name="Grupo 1101796" transform="translate(8 16)">
        <path id="Trazado_877592" data-name="Trazado 877592" d="M76.556,21.859h-2.93V20.1a4.106,4.106,0,0,0-4.1-4.1H19.133a4.106,4.106,0,0,0-4.1,4.1v1.758H12.1a4.106,4.106,0,0,0-4.1,4.1v45.7a4.106,4.106,0,0,0,4.1,4.1h23.57l-1.563,4.688h-2.67a1.172,1.172,0,0,0-1.172,1.172V83.97h-8.2a1.172,1.172,0,0,0,0,2.344H66.595a1.172,1.172,0,0,0,0-2.344h-8.2V81.626a1.172,1.172,0,0,0-1.172-1.172h-2.67l-1.563-4.688h23.57a4.106,4.106,0,0,0,4.1-4.1v-45.7a4.106,4.106,0,0,0-4.1-4.1ZM17.375,20.1a1.759,1.759,0,0,1,1.758-1.758H69.524A1.759,1.759,0,0,1,71.282,20.1v2.93H17.375Zm0,5.274H71.282v33.4a1.759,1.759,0,0,1-1.758,1.758H19.133a1.759,1.759,0,0,1-1.758-1.758ZM56.048,82.8V83.97H32.61V82.8ZM36.579,80.454l1.563-4.688H50.515l1.563,4.688Zm41.734-8.789a1.759,1.759,0,0,1-1.758,1.758H12.1a1.759,1.759,0,0,1-1.758-1.758V69.907h67.97Zm0-4.1H10.344v-41.6A1.759,1.759,0,0,1,12.1,24.2h2.93V58.774a4.106,4.106,0,0,0,4.1,4.1H69.524a4.106,4.106,0,0,0,4.1-4.1V24.2h2.93a1.759,1.759,0,0,1,1.758,1.758Z" transform="translate(-8 -16)"/>
        <path id="Trazado_877593" data-name="Trazado 877593" d="M82.344,40H81.172a1.172,1.172,0,1,0,0,2.344h1.172a1.172,1.172,0,0,0,0-2.344Z" transform="translate(-69.453 -36.484)"/>
        <path id="Trazado_877594" data-name="Trazado 877594" d="M114.344,40h-1.172a1.172,1.172,0,0,0,0,2.344h1.172a1.172,1.172,0,0,0,0-2.344Z" transform="translate(-96.765 -36.484)"/>
        <path id="Trazado_877595" data-name="Trazado 877595" d="M146.344,40h-1.172a1.172,1.172,0,0,0,0,2.344h1.172a1.172,1.172,0,0,0,0-2.344Z" transform="translate(-124.078 -36.484)"/>
        <path id="Trazado_877596" data-name="Trazado 877596" d="M119.031,123.516a3.516,3.516,0,1,0-3.516,3.516A3.516,3.516,0,0,0,119.031,123.516Zm-4.688,0a1.172,1.172,0,1,1,1.172,1.172,1.172,1.172,0,0,1-1.172-1.172Z" transform="translate(-96.765 -104.765)"/>
        <path id="Trazado_877597" data-name="Trazado 877597" d="M87.4,107.6a1.172,1.172,0,0,0,1.612,0,46.679,46.679,0,0,0,3.617-3.927c2.508-3.069,3.779-5.583,3.779-7.471A8.2,8.2,0,1,0,80,96.2c0,1.888,1.272,4.4,3.78,7.471A46.679,46.679,0,0,0,87.4,107.6ZM88.2,90.344A5.866,5.866,0,0,1,94.063,96.2c0,2.214-3.318,6.324-5.859,8.9-2.542-2.578-5.859-6.687-5.859-8.9A5.866,5.866,0,0,1,88.2,90.344Z" transform="translate(-69.453 -77.453)"/>
        <path id="Trazado_877598" data-name="Trazado 877598" d="M359.031,211.516a3.516,3.516,0,1,0-3.516,3.516,3.516,3.516,0,0,0,3.516-3.516Zm-4.688,0a1.172,1.172,0,1,1,1.172,1.172A1.172,1.172,0,0,1,354.344,211.516Z" transform="translate(-301.609 -179.875)"/>
        <path id="Trazado_877599" data-name="Trazado 877599" d="M327.4,195.6a1.172,1.172,0,0,0,1.612,0,46.676,46.676,0,0,0,3.617-3.927c2.508-3.069,3.779-5.583,3.779-7.471a8.2,8.2,0,1,0-16.406,0c0,1.888,1.272,4.4,3.78,7.471A46.683,46.683,0,0,0,327.4,195.6Zm.806-17.257a5.866,5.866,0,0,1,5.859,5.859c0,2.214-3.318,6.324-5.859,8.9-2.542-2.578-5.859-6.687-5.859-8.9A5.866,5.866,0,0,1,328.2,178.344Z" transform="translate(-274.296 -152.562)"/>
        <path id="Trazado_877600" data-name="Trazado 877600" d="M112.2,209.172a1.172,1.172,0,0,0,1.172,1.172h9.961a1.758,1.758,0,1,1,0,3.516H108.1a4.106,4.106,0,0,0-4.1,4.1v1.172a4.106,4.106,0,0,0,4.1,4.1h29.883a1.172,1.172,0,1,0,0-2.344H108.1a1.76,1.76,0,0,1-1.758-1.758v-1.172A1.76,1.76,0,0,1,108.1,216.2h15.235a4.1,4.1,0,1,0,0-8.2h-9.961A1.172,1.172,0,0,0,112.2,209.172Z" transform="translate(-89.937 -179.875)"/>
      </g>
    </g>
  </g>
</svg>
