<svg xmlns="http://www.w3.org/2000/svg" xmlns:xlink="http://www.w3.org/1999/xlink" width="127" height="105" viewBox="0 0 127 105">
  <defs>
    <linearGradient id="linear-gradient" x1="0.5" x2="0.5" y2="1" gradientUnits="objectBoundingBox">
      <stop offset="0" stop-color="#7737f0"/>
      <stop offset="1" stop-color="#291155"/>
    </linearGradient>
  </defs>
  <g id="Grupo_1101802" data-name="Grupo 1101802" transform="translate(-1173 -2658)">
    <rect id="Rectángulo_402949" data-name="Rectángulo 402949" width="127" height="105" rx="5" transform="translate(1173 2658)" fill="url(#linear-gradient)"/>
    <g id="Layer_2" transform="translate(1188.442 2668.951)">
      <g id="Grupo_1101831" data-name="Grupo 1101831" transform="translate(12.91 3.263)">
        <g id="Grupo_1101829" data-name="Grupo 1101829" transform="translate(0.76 0.76)">
          <path id="Trazado_878828" data-name="Trazado 878828" d="M119.273,210.775H105.732l.806-7.55.538-5.067h10.853l.538,5.067Z" transform="translate(-78.27 -139.662)" fill="#efefef"/>
          <path id="Trazado_878829" data-name="Trazado 878829" d="M120.311,203.225H108.382l.538-5.067h10.853Z" transform="translate(-80.115 -139.662)" fill="#afafaf"/>
          <path id="Trazado_878830" data-name="Trazado 878830" d="M83.874,50.643V93.173a3.039,3.039,0,0,1-3.04,3.04H18.45a3.039,3.039,0,0,1-3.04-3.04V50.643a3.04,3.04,0,0,1,3.04-3.04H80.833a3.04,3.04,0,0,1,3.04,3.04Z" transform="translate(-15.41 -34.882)" fill="#71c1e8"/>
          <path id="Trazado_878831" data-name="Trazado 878831" d="M96.471,51.5H47.734a3.1,3.1,0,0,1,.368-2.118l1.025-1.776H95.079L96.1,49.383A3.1,3.1,0,0,1,96.471,51.5Z" transform="translate(-37.871 -34.885)" fill="#4ba5c8"/>
          <path id="Trazado_878832" data-name="Trazado 878832" d="M88.894,61.937V94.062a1.521,1.521,0,0,1-1.52,1.52H29.74a1.521,1.521,0,0,1-1.52-1.52V61.937a1.521,1.521,0,0,1,1.52-1.52H87.374a1.521,1.521,0,0,1,1.52,1.52Z" transform="translate(-24.325 -43.8)" fill="#f0c020"/>
          <path id="Trazado_878833" data-name="Trazado 878833" d="M96.1,74.931,91.3,83.24a3.13,3.13,0,0,1-4.272,1.143l-1.2-.693a22.146,22.146,0,0,1-5.406,3.2V88.43A3.131,3.131,0,0,1,77.3,91.559H66.9a3.131,3.131,0,0,1-3.126-3.129V86.886a22.146,22.146,0,0,1-5.406-3.2l-1.2.693A3.13,3.13,0,0,1,52.9,83.24l-4.8-8.309a3.125,3.125,0,0,1,1.146-4.272l1.2-.69a22.062,22.062,0,0,1,0-6.71l-1.2-.69a3.1,3.1,0,0,1-1.514-2.156H96.469a3.1,3.1,0,0,1-1.514,2.156l-1.2.69a22.062,22.062,0,0,1,0,6.71l1.2.69A3.125,3.125,0,0,1,96.1,74.931Z" transform="translate(-37.868 -43.797)" fill="#e8a61e"/>
          <path id="Trazado_878834" data-name="Trazado 878834" d="M107.556,238.615H83.573a2.178,2.178,0,0,1-2.178-2.178v-.718a2.178,2.178,0,0,1,2.178-2.178h23.982a2.179,2.179,0,0,1,2.178,2.178v.718A2.178,2.178,0,0,1,107.556,238.615Z" transform="translate(-61.333 -164.287)" fill="#71c1e8"/>
          <path id="Trazado_878835" data-name="Trazado 878835" d="M55.182,34.468l2.508-1.448a19.932,19.932,0,0,1,0-8.883L55.182,22.69a1,1,0,0,1-.366-1.365l4.8-8.308a1,1,0,0,1,1.365-.366L63.49,14.1a19.771,19.771,0,0,1,7.285-4.316V6.762a1,1,0,0,1,1-1h10.4a1,1,0,0,1,1,1V9.786A19.771,19.771,0,0,1,90.457,14.1l2.513-1.451a1,1,0,0,1,1.365.366l4.8,8.308a1,1,0,0,1-.366,1.365l-2.508,1.448a19.932,19.932,0,0,1,0,8.883l2.508,1.448a1,1,0,0,1,.366,1.365l-4.8,8.308a1,1,0,0,1-1.365.366l-2.513-1.451a19.771,19.771,0,0,1-7.285,4.316V50.4a1,1,0,0,1-1,1h-10.4a1,1,0,0,1-1-1V47.373a19.771,19.771,0,0,1-7.285-4.316l-2.513,1.451a1,1,0,0,1-1.365-.366l-4.8-8.308A1,1,0,0,1,55.182,34.468Z" transform="translate(-42.742 -5.763)" fill="#fc5d3d"/>
          <circle id="Elipse_11639" data-name="Elipse 11639" cx="15.089" cy="15.089" r="15.089" transform="translate(19.143 7.727)" fill="#efefef"/>
          <path id="Trazado_878836" data-name="Trazado 878836" d="M114.415,51.021h-1.351v-8.29a2.128,2.128,0,0,0-2.128-2.128h-6.552a2.128,2.128,0,0,0-2.128,2.128v8.29H100.9a2.13,2.13,0,0,0-1.656,3.465l3.958,4.9h-1.711a2.128,2.128,0,1,0,0,4.257h12.33a2.128,2.128,0,1,0,0-4.257h-1.711l3.958-4.9A2.13,2.13,0,0,0,114.415,51.021Z" transform="translate(-73.427 -30.01)" fill="#afafaf"/>
          <g id="Grupo_1101826" data-name="Grupo 1101826" transform="translate(27.476 12.721)">
            <path id="Trazado_878837" data-name="Trazado 878837" d="M115.812,58.021V47.6H109.26V58.021h-3.48l6.756,8.369,6.756-8.369Z" transform="translate(-105.78 -47.603)" fill="#71c1e8"/>
          </g>
          <g id="Grupo_1101827" data-name="Grupo 1101827" transform="translate(6.489 18.704)">
            <path id="Trazado_878838" data-name="Trazado 878838" d="M37.511,98.271a.76.76,0,0,1-.76-.76V71.995a.76.76,0,1,1,1.52,0V97.512A.76.76,0,0,1,37.511,98.271Zm0-28.557a.76.76,0,0,1-.76-.76v-.912a.76.76,0,1,1,1.52,0v.912A.76.76,0,0,1,37.511,69.714Z" transform="translate(-36.751 -67.282)" fill="#f8e5b0"/>
          </g>
          <g id="Grupo_1101828" data-name="Grupo 1101828" transform="translate(60.455 18.704)">
            <path id="Trazado_878839" data-name="Trazado 878839" d="M215.01,98.271a.76.76,0,0,1-.76-.76V96.6a.76.76,0,0,1,1.52,0v.912A.76.76,0,0,1,215.01,98.271Zm0-3.953a.76.76,0,0,1-.76-.76V68.042a.76.76,0,0,1,1.52,0V93.559A.76.76,0,0,1,215.01,94.319Z" transform="translate(-214.25 -67.282)" fill="#f8e5b0"/>
          </g>
        </g>
        <g id="Grupo_1101830" data-name="Grupo 1101830" transform="translate(0 0)">
          <circle id="Elipse_11640" data-name="Elipse 11640" cx="0.76" cy="0.76" r="0.76" transform="translate(41.967 74.33)"/>
          <path id="Trazado_878840" data-name="Trazado 878840" d="M218.567,187.357a.76.76,0,0,0,0,1.52h1.24a.76.76,0,0,0,0-1.52Z" transform="translate(-155.51 -131.385)"/>
          <path id="Trazado_878841" data-name="Trazado 878841" d="M199.64,187.357a.76.76,0,1,0,0,1.52h1.24a.76.76,0,1,0,0-1.52Z" transform="translate(-142.338 -131.385)"/>
          <path id="Trazado_878842" data-name="Trazado 878842" d="M82.894,19.785a3.8,3.8,0,0,0-3.8-3.8H68.858L65.921,10.9a1.758,1.758,0,0,0-2.4-.644l-2.033,1.174A20.7,20.7,0,0,0,54.859,7.5V5.022A1.761,1.761,0,0,0,53.1,3.263H42.7a1.761,1.761,0,0,0-1.759,1.759V7.5a20.7,20.7,0,0,0-6.625,3.923l-2.033-1.174a1.758,1.758,0,0,0-2.4.644l-2.937,5.087H16.711a3.8,3.8,0,0,0-3.8,3.8V62.314a3.8,3.8,0,0,0,3.8,3.8H41.328l-.682,6.4H35.911a2.942,2.942,0,0,0-2.939,2.939v.718a2.941,2.941,0,0,0,2.9,2.937c.012,0,.023,0,.035,0H52.6a.76.76,0,0,0,0-1.52H35.929l-.018,0a1.42,1.42,0,0,1-1.419-1.419v-.718a1.42,1.42,0,0,1,1.419-1.418H59.893a1.42,1.42,0,0,1,1.419,1.418v.718a1.42,1.42,0,0,1-1.419,1.419l-.018,0h-1.2a.76.76,0,1,0,0,1.52h1.216c.012,0,.023,0,.035,0a2.941,2.941,0,0,0,2.9-2.937v-.718a2.942,2.942,0,0,0-2.939-2.939H55.159l-.682-6.4H79.094a3.8,3.8,0,0,0,3.8-3.8h0V50.187a.76.76,0,0,0-1.52,0V62.312h0a2.283,2.283,0,0,1-2.28,2.28H16.711a2.283,2.283,0,0,1-2.28-2.28V19.785a2.283,2.283,0,0,1,2.28-2.28h9.357l-.982,1.7a1.751,1.751,0,0,0-.223.674H19.085a2.283,2.283,0,0,0-2.28,2.28V54.284a2.283,2.283,0,0,0,2.28,2.28H76.719A2.283,2.283,0,0,0,79,54.284V22.159a2.283,2.283,0,0,0-2.28-2.28H70.941a1.746,1.746,0,0,0-.223-.674l-.982-1.7h9.357a2.283,2.283,0,0,1,2.28,2.28h0V44.108a.76.76,0,0,0,1.52,0V19.785h0ZM53.63,72.516H42.175l.682-6.4h10.09ZM31.2,11.658a.239.239,0,0,1,.327-.088l2.513,1.451a.761.761,0,0,0,.9-.1,19.134,19.134,0,0,1,7.005-4.151.76.76,0,0,0,.522-.722V5.022a.239.239,0,0,1,.239-.239H53.1a.239.239,0,0,1,.239.239V8.046a.76.76,0,0,0,.522.722,19.142,19.142,0,0,1,7.005,4.151.761.761,0,0,0,.9.1l2.513-1.451a.238.238,0,0,1,.327.088l4.8,8.307a.24.24,0,0,1-.088.327L66.805,21.74a.761.761,0,0,0-.361.829,19.18,19.18,0,0,1,0,8.543.76.76,0,0,0,.361.829l2.507,1.448a.24.24,0,0,1,.088.327l-4.8,8.307a.239.239,0,0,1-.327.088l-2.513-1.451a.76.76,0,0,0-.9.1,19.134,19.134,0,0,1-7.005,4.151.76.76,0,0,0-.522.722v3.023a.239.239,0,0,1-.239.239H42.7a.239.239,0,0,1-.239-.239V45.633a.76.76,0,0,0-.522-.722,19.142,19.142,0,0,1-7.005-4.151.759.759,0,0,0-.9-.1l-2.513,1.451a.238.238,0,0,1-.327-.088l-4.8-8.307a.24.24,0,0,1,.088-.327L29,31.939a.761.761,0,0,0,.361-.829,19.185,19.185,0,0,1,0-8.543A.76.76,0,0,0,29,21.74l-2.507-1.448a.24.24,0,0,1-.088-.327Zm46.28,10.5V54.284a.761.761,0,0,1-.76.76H19.085a.761.761,0,0,1-.76-.76V22.159a.761.761,0,0,1,.76-.76H25.44a1.741,1.741,0,0,0,.29.209l2.028,1.171a20.724,20.724,0,0,0,0,8.12L25.73,32.07a1.762,1.762,0,0,0-.644,2.4l4.8,8.307a1.758,1.758,0,0,0,2.4.644l2.033-1.174a20.7,20.7,0,0,0,6.625,3.923v2.482A1.761,1.761,0,0,0,42.7,50.415H53.1a1.761,1.761,0,0,0,1.759-1.759V46.174a20.7,20.7,0,0,0,6.625-3.923l2.033,1.174a1.758,1.758,0,0,0,2.4-.644l4.8-8.307a1.762,1.762,0,0,0-.644-2.4L68.046,30.9a20.723,20.723,0,0,0,0-8.12l2.028-1.171a1.771,1.771,0,0,0,.29-.209h6.355a.761.761,0,0,1,.76.76Z" transform="translate(-12.91 -3.263)"/>
          <path id="Trazado_878843" data-name="Trazado 878843" d="M78.808,90.783a.77.77,0,0,0-.921-.556.758.758,0,0,0-.556.915v0a.761.761,0,0,0,1.478-.362Z" transform="translate(-57.729 -63.771)"/>
          <path id="Trazado_878844" data-name="Trazado 878844" d="M76.645,45.9h.027a.761.761,0,0,0,.73-.79c-.006-.182-.012-.371-.012-.581A14.325,14.325,0,0,1,91.715,30.2h0a14.329,14.329,0,0,1,0,28.658h-.008a14.4,14.4,0,0,1-12.938-8.182.777.777,0,0,0-1.012-.359.76.76,0,0,0-.362,1.012,15.864,15.864,0,0,0,14.32,9.048h.012a15.849,15.849,0,0,0,0-31.7H91.72a15.85,15.85,0,0,0-15.85,15.85c0,.216.006.432.015.642A.756.756,0,0,0,76.645,45.9Z" transform="translate(-56.728 -20.95)"/>
          <path id="Trazado_878845" data-name="Trazado 878845" d="M238.85,145.106a.759.759,0,1,0,.76.757A.76.76,0,0,0,238.85,145.106Z" transform="translate(-169.626 -101.98)"/>
          <path id="Trazado_878846" data-name="Trazado 878846" d="M114.069,45.1h-6.552a.76.76,0,0,0-.76.76v9.658h-2.72a.761.761,0,0,0-.591,1.237l5.757,7.131h-4.575a.76.76,0,1,0,0,1.52h12.33a.76.76,0,1,0,0-1.52h-4.575l5.757-7.131a.761.761,0,0,0-.591-1.237h-2.72V45.864A.76.76,0,0,0,114.069,45.1Zm1.89,11.938-5.165,6.4-5.165-6.4h1.889a.76.76,0,0,0,.76-.76V46.624h5.032v9.658a.76.76,0,0,0,.76.76h1.89Z" transform="translate(-75.802 -32.383)"/>
        </g>
      </g>
    </g>
  </g>
</svg>
