<svg xmlns="http://www.w3.org/2000/svg" xmlns:xlink="http://www.w3.org/1999/xlink" width="127" height="105" viewBox="0 0 127 105">
  <defs>
    <linearGradient id="linear-gradient" x1="0.5" x2="0.5" y2="1" gradientUnits="objectBoundingBox">
      <stop offset="0" stop-color="#7737f0"/>
      <stop offset="1" stop-color="#291155"/>
    </linearGradient>
  </defs>
  <g id="Grupo_1101811" data-name="Grupo 1101811" transform="translate(-1173 -2658)">
    <rect id="Rectángulo_402949" data-name="Rectángulo 402949" width="127" height="105" rx="5" transform="translate(1173 2658)" fill="url(#linear-gradient)"/>
    <g id="magic-wand_5488301" transform="translate(1202.136 2676.136)">
      <g id="Grupo_1101834" data-name="Grupo 1101834" transform="translate(1.007 1.007)">
        <path id="Trazado_878847" data-name="Trazado 878847" d="M68.174,37.5a3.356,3.356,0,0,1,3.356,3.356V96.832a3.356,3.356,0,0,1-3.356,3.356H10.856A3.356,3.356,0,0,1,7.5,96.832V47.861C7.5,46.007,9,37.5,10.856,37.5Z" transform="translate(-7.5 -33.473)" fill="#e9f4ff"/>
        <path id="Trazado_878848" data-name="Trazado 878848" d="M434.869,17.5H429.5c1.853,0,3.356.16,3.356,2.014v60a3.356,3.356,0,0,1-3.356,3.356h6.712a3.356,3.356,0,0,0,3.356-3.356V30.546l-1.342-11.032C438.225,17.66,436.723,17.5,434.869,17.5Z" transform="translate(-372.853 -16.158)" fill="#cee4fa"/>
        <path id="Trazado_878849" data-name="Trazado 878849" d="M68.174,7.5H10.856A3.356,3.356,0,0,0,7.5,10.856V21.888h60L71.53,10.856A3.356,3.356,0,0,0,68.174,7.5Z" transform="translate(-7.5 -7.5)" fill="#7ec9fb"/>
        <path id="Trazado_878850" data-name="Trazado 878850" d="M432.856,10.856V21.888h6.712V10.856A3.356,3.356,0,0,0,436.212,7.5H429.5A3.356,3.356,0,0,1,432.856,10.856Z" transform="translate(-372.853 -7.5)" fill="#42b8fb"/>
        <path id="Trazado_878851" data-name="Trazado 878851" d="M192.109,45.689a2.388,2.388,0,1,1-2.388-2.388,2.388,2.388,0,0,1,2.388,2.388Z" transform="translate(-163.193 -38.495)" fill="#6cf5c2"/>
        <path id="Trazado_878852" data-name="Trazado 878852" d="M120.694,45.689a2.388,2.388,0,1,1-2.388-2.388,2.388,2.388,0,0,1,2.388,2.388Z" transform="translate(-101.364 -38.495)" fill="#fee45a"/>
        <path id="Trazado_878853" data-name="Trazado 878853" d="M49.28,45.689A2.388,2.388,0,1,1,46.892,43.3a2.388,2.388,0,0,1,2.388,2.388Z" transform="translate(-39.537 -38.495)" fill="#fd8087"/>
        <g id="Grupo_1101832" data-name="Grupo 1101832" transform="translate(24.037 19.415)">
          <path id="Trazado_878854" data-name="Trazado 878854" d="M193.032,192.435l2.5,1.367a.4.4,0,0,1,0,.707l-2.5,1.367a.4.4,0,0,0-.16.16l-1.366,2.5a.4.4,0,0,1-.707,0l-1.367-2.5a.4.4,0,0,0-.16-.16l-2.5-1.367a.4.4,0,0,1,0-.707l2.5-1.367a.4.4,0,0,0,.16-.16l1.367-2.5a.4.4,0,0,1,.707,0l1.366,2.5A.4.4,0,0,0,193.032,192.435Z" transform="translate(-186.564 -184.542)" fill="#fee45a"/>
          <path id="Trazado_878855" data-name="Trazado 878855" d="M303.063,155l2.5,1.367a.4.4,0,0,1,0,.707l-2.5,1.367a.4.4,0,0,0-.16.16l-1.367,2.5a.4.4,0,0,1-.707,0l-1.367-2.5a.4.4,0,0,0-.16-.16l-2.5-1.367a.4.4,0,0,1,0-.707L299.3,155a.4.4,0,0,0,.16-.16l1.367-2.5a.4.4,0,0,1,.707,0l1.367,2.5A.4.4,0,0,0,303.063,155Z" transform="translate(-281.825 -152.134)" fill="#fee45a"/>
          <path id="Trazado_878856" data-name="Trazado 878856" d="M343.549,273.38l2.853,1.56a.4.4,0,0,1,0,.707l-2.853,1.56a.4.4,0,0,0-.16.16l-1.56,2.853a.4.4,0,0,1-.707,0l-1.56-2.853a.4.4,0,0,0-.16-.16l-2.853-1.56a.4.4,0,0,1,0-.707l2.853-1.56a.4.4,0,0,0,.16-.16l1.56-2.853a.4.4,0,0,1,.707,0l1.56,2.853A.4.4,0,0,0,343.549,273.38Z" transform="translate(-316.234 -254.314)" fill="#fee45a"/>
        </g>
        <g id="Grupo_1101833" data-name="Grupo 1101833" transform="translate(12.301 31.969)">
          <path id="Trazado_878857" data-name="Trazado 878857" d="M99.946,274.562a2.771,2.771,0,0,1,0-3.919l14.075-14.075,2.867-1.8,2.027-3.091,5.208-5.208a2.771,2.771,0,1,1,3.918,3.918l-5.208,5.208-3.695,1.637-1.2,3.257-14.075,14.075a2.771,2.771,0,0,1-3.918,0Z" transform="translate(-99.134 -245.654)" fill="#5b596d"/>
        </g>
        <path id="Trazado_878858" data-name="Trazado 878858" d="M0,0H6.921V5.542H0Z" transform="translate(27.18 42.881) rotate(-45)" fill="#fee45a"/>
      </g>
      <g id="Grupo_1101835" data-name="Grupo 1101835" transform="translate(0 0)">
        <path id="Trazado_878859" data-name="Trazado 878859" d="M64.366,0H20.142a1.007,1.007,0,0,0,0,2.014H64.366a2.352,2.352,0,0,1,2.349,2.349V14.388H55.138a1.007,1.007,0,0,0,0,2.014H66.715V64.366a2.352,2.352,0,0,1-2.349,2.349h-60a2.352,2.352,0,0,1-2.349-2.349V16.4H50.751a1.007,1.007,0,0,0,0-2.014H2.014V4.363A2.352,2.352,0,0,1,4.363,2.014H15.755a1.007,1.007,0,1,0,0-2.014H4.363A4.368,4.368,0,0,0,0,4.363v60a4.368,4.368,0,0,0,4.363,4.363h60a4.368,4.368,0,0,0,4.363-4.363v-60A4.368,4.368,0,0,0,64.366,0Z" transform="translate(0 0)"/>
        <path id="Trazado_878860" data-name="Trazado 878860" d="M186.623,39.2a3.395,3.395,0,1,0-3.395,3.395,3.4,3.4,0,0,0,3.395-3.395Zm-4.776,0a1.381,1.381,0,1,1,1.381,1.381,1.383,1.383,0,0,1-1.381-1.381Z" transform="translate(-155.693 -30.995)"/>
        <path id="Trazado_878861" data-name="Trazado 878861" d="M108.418,39.2a3.395,3.395,0,1,0,3.395-3.395A3.4,3.4,0,0,0,108.418,39.2Zm3.395-1.381a1.381,1.381,0,1,1-1.381,1.381A1.383,1.383,0,0,1,111.813,37.815Z" transform="translate(-93.864 -30.995)"/>
        <path id="Trazado_878862" data-name="Trazado 878862" d="M37,39.2A3.395,3.395,0,1,0,40.4,35.8,3.4,3.4,0,0,0,37,39.2Zm4.776,0A1.381,1.381,0,1,1,40.4,37.815,1.383,1.383,0,0,1,41.779,39.2Z" transform="translate(-32.036 -30.995)"/>
        <path id="Trazado_878863" data-name="Trazado 878863" d="M182.141,190.18l1.282,2.343a1.409,1.409,0,0,0,2.473,0l1.282-2.344,2.343-1.282a1.409,1.409,0,0,0,0-2.473l-2.343-1.282L185.9,182.8a1.409,1.409,0,0,0-2.473,0l-1.282,2.343-2.343,1.282a1.409,1.409,0,0,0,0,2.473Zm1.122-3.355a1.407,1.407,0,0,0,.56-.56l.837-1.53.837,1.53a1.406,1.406,0,0,0,.56.56h0l1.53.837-1.53.836a1.406,1.406,0,0,0-.56.56l-.837,1.53-.837-1.53a1.406,1.406,0,0,0-.56-.56l-1.53-.837Z" transform="translate(-155.027 -157.627)"/>
        <path id="Trazado_878864" data-name="Trazado 878864" d="M295.927,155.093l1.282-2.343,2.343-1.282a1.409,1.409,0,0,0,0-2.473l-2.343-1.282-1.282-2.343a1.409,1.409,0,0,0-2.473,0l-1.282,2.343L289.829,149a1.409,1.409,0,0,0,0,2.473l2.343,1.282,1.282,2.344a1.409,1.409,0,0,0,2.473,0Zm-2.633-4.025-1.53-.837,1.53-.837a1.407,1.407,0,0,0,.56-.56l.837-1.53.837,1.53a1.407,1.407,0,0,0,.56.56h0l1.53.837-1.53.837a1.407,1.407,0,0,0-.56.56l-.837,1.53-.837-1.53A1.408,1.408,0,0,0,293.294,151.068Z" transform="translate(-250.289 -125.222)"/>
        <path id="Trazado_878865" data-name="Trazado 878865" d="M329.573,270.037l2.7,1.475,1.476,2.7a1.409,1.409,0,0,0,1.236.733h0a1.409,1.409,0,0,0,1.237-.733l1.475-2.7,2.7-1.475a1.409,1.409,0,0,0,0-2.473l-2.7-1.475-1.476-2.7a1.409,1.409,0,0,0-1.237-.733h0a1.409,1.409,0,0,0-1.236.733l-1.476,2.7-2.7,1.475a1.409,1.409,0,0,0,0,2.473Zm3.82-2.267a1.407,1.407,0,0,0,.56-.56l1.03-1.884,1.03,1.883a1.4,1.4,0,0,0,.561.562h0l1.884,1.03-1.884,1.03a1.4,1.4,0,0,0-.561.561l-1.031,1.884-1.03-1.884a1.407,1.407,0,0,0-.56-.56l-1.884-1.03Z" transform="translate(-284.698 -227.399)"/>
        <path id="Trazado_878866" data-name="Trazado 878866" d="M122.271,244.614a3.778,3.778,0,1,0-5.342-5.342l-14.361,14.361a1.007,1.007,0,0,0,1.424,1.424l3.547-3.547L110.033,254,96.67,267.368a1.764,1.764,0,0,1-2.495-2.495l6.777-6.777a1.007,1.007,0,0,0-1.424-1.424l-6.777,6.777a3.777,3.777,0,0,0,5.342,5.342Zm-3.918-3.918a1.764,1.764,0,1,1,2.495,2.495l-4.5,4.5-2.495-2.495Zm-9.391,9.391,3.47-3.47,2.495,2.495-3.47,3.47Z" transform="translate(-79.345 -206.197)"/>
      </g>
    </g>
  </g>
</svg>
