<svg xmlns="http://www.w3.org/2000/svg" xmlns:xlink="http://www.w3.org/1999/xlink" width="127" height="105" viewBox="0 0 127 105">
  <defs>
    <linearGradient id="linear-gradient" x1="0.5" x2="0.5" y2="1" gradientUnits="objectBoundingBox">
      <stop offset="0" stop-color="#7737f0"/>
      <stop offset="1" stop-color="#291155"/>
    </linearGradient>
  </defs>
  <g id="Grupo_1101819" data-name="Grupo 1101819" transform="translate(-1173 -2658)">
    <rect id="Rectángulo_402949" data-name="Rectángulo 402949" width="127" height="105" rx="5" transform="translate(1173 2658)" fill="url(#linear-gradient)"/>
    <g id="control-system_9218091" transform="translate(1200.049 2671.049)">
      <path id="Trazado_878897" data-name="Trazado 878897" d="M162.813,473.437h28.721v4.787H162.813Z" transform="translate(-137.722 -400.477)" fill="#71c1e8"/>
      <path id="Trazado_878898" data-name="Trazado 878898" d="M319.187,473.437h4.623v4.787h-4.623Z" transform="translate(-269.998 -400.477)" fill="#4ba5c8"/>
      <path id="Trazado_878899" data-name="Trazado 878899" d="M224.938,425.516h9.574V432.9h-9.574Z" transform="translate(-190.274 -359.941)" fill="#71c1e8"/>
      <path id="Trazado_878900" data-name="Trazado 878900" d="M224.938,425.516V428.6h3.872a1.079,1.079,0,0,1,1.079,1.079V432.9h4.623v-7.385Z" transform="translate(-190.274 -359.941)" fill="#4ba5c8"/>
      <path id="Trazado_878901" data-name="Trazado 878901" d="M7.5,69.828h76.59v54.814H7.5Z" transform="translate(-6.346 -59.067)" fill="#71c1e8"/>
      <path id="Trazado_878902" data-name="Trazado 878902" d="M474.5,69.828h4.623v54.814H474.5Z" transform="translate(-401.375 -59.067)" fill="#71c1e8"/>
      <path id="Trazado_878903" data-name="Trazado 878903" d="M38.564,100.688H105.58v40.453H38.564Z" transform="translate(-32.621 -85.171)" fill="#eef4ff"/>
      <path id="Trazado_878904" data-name="Trazado 878904" d="M143.475,35.932V29.2L137.8,27.738a19.863,19.863,0,0,0-2.267-5.472l2.975-5.044-4.759-4.759-5.044,2.975a19.864,19.864,0,0,0-5.472-2.267L121.774,7.5h-6.73l-1.463,5.671a19.864,19.864,0,0,0-5.472,2.267l-5.044-2.975L98.3,17.221l2.975,5.044a19.864,19.864,0,0,0-2.267,5.472L93.342,29.2v6.73L99.013,37.4a19.864,19.864,0,0,0,2.267,5.472L98.3,47.912l4.759,4.759,5.044-2.975a19.864,19.864,0,0,0,5.472,2.267l1.463,5.671h6.73l1.463-5.671a19.864,19.864,0,0,0,5.472-2.267l5.044,2.975,4.759-4.759-2.975-5.044A19.865,19.865,0,0,0,137.8,37.4Z" transform="translate(-78.957 -6.344)" fill="#9cdd03"/>
      <g id="Grupo_1101836" data-name="Grupo 1101836" transform="translate(38.193 1.156)">
        <path id="Trazado_878905" data-name="Trazado 878905" d="M255.315,15.117l1.6-.945a19.9,19.9,0,0,0-2.995-1L252.459,7.5h-4.623l1.306,5.06a1.076,1.076,0,0,0,.751.767,19.858,19.858,0,0,1,4.347,1.8A1.077,1.077,0,0,0,255.315,15.117Z" transform="translate(-247.836 -7.5)" fill="#bcea51"/>
        <path id="Trazado_878906" data-name="Trazado 878906" d="M349.334,63.17V56.44l-5.671-1.463A19.865,19.865,0,0,0,341.4,49.5l2.975-5.044L339.613,39.7,336.7,41.416l2.453,2.453a1.079,1.079,0,0,1,.166,1.311l-2.23,3.782a1.077,1.077,0,0,0-.011,1.075,19.864,19.864,0,0,1,1.8,4.347,1.076,1.076,0,0,0,.767.751l4.251,1.1a1.079,1.079,0,0,1,.809,1.045v5.059a1.079,1.079,0,0,1-.809,1.045l-4.251,1.1a1.076,1.076,0,0,0-.767.751,19.866,19.866,0,0,1-1.8,4.347,1.077,1.077,0,0,0,.011,1.075l2.23,3.782a1.079,1.079,0,0,1-.166,1.311L336.7,78.195l2.908,1.715,4.759-4.759L341.4,70.106a19.87,19.87,0,0,0,2.267-5.472Z" transform="translate(-323.01 -34.739)" fill="#bcea51"/>
        <path id="Trazado_878907" data-name="Trazado 878907" d="M254.24,282.561a19.855,19.855,0,0,1-4.347,1.8,1.077,1.077,0,0,0-.751.767l-1.306,5.06h4.623l1.463-5.671a19.887,19.887,0,0,0,2.995-1l-1.6-.945A1.076,1.076,0,0,0,254.24,282.561Z" transform="translate(-247.836 -240.056)" fill="#bcea51"/>
      </g>
      <ellipse id="Elipse_11642" data-name="Elipse 11642" cx="15.42" cy="15.42" rx="15.42" ry="15.42" transform="translate(20.793 14.933) rotate(-13.828)" fill="#ceddf4"/>
      <g id="Grupo_1101837" data-name="Grupo 1101837" transform="translate(31.056 19.433)">
        <path id="Trazado_878908" data-name="Trazado 878908" d="M208.721,140.5a2.412,2.412,0,0,1-1.705-.706L202.229,135a2.412,2.412,0,0,1,3.411-3.411l2.821,2.821,5.512-7.349a2.412,2.412,0,0,1,3.859,2.894l-7.18,9.574a2.412,2.412,0,0,1-1.759.959C208.835,140.494,208.778,140.5,208.721,140.5Z" transform="translate(-201.523 -126.099)" fill="#9cdd03"/>
      </g>
      <g id="Grupo_1101838" data-name="Grupo 1101838" transform="translate(0 0)">
        <path id="Trazado_878909" data-name="Trazado 878909" d="M104.02,9.605H86.191l-4.3-4.3a1.155,1.155,0,0,0-1.4-.178L76.021,7.754A21.016,21.016,0,0,0,71.5,5.883L70.209.867A1.156,1.156,0,0,0,69.09,0H62.36A1.156,1.156,0,0,0,61.24.867L59.946,5.883a21,21,0,0,0-4.517,1.871L50.967,5.123a1.155,1.155,0,0,0-1.4.178l-4.3,4.3H39.522a1.156,1.156,0,1,0,0,2.312h5.37l1.442,2.444H32.216a1.156,1.156,0,0,0-1.156,1.156V55.97a1.156,1.156,0,0,0,1.156,1.156H99.233a1.156,1.156,0,0,0,1.156-1.156V32.4a1.156,1.156,0,1,0-2.312,0V54.814H33.372V16.673H46.859a21,21,0,0,0-1.474,3.771l-5.016,1.294a1.156,1.156,0,0,0-.867,1.119v6.73a1.156,1.156,0,0,0,.867,1.119L45.386,32a21,21,0,0,0,1.871,4.517l-2.631,4.462a1.156,1.156,0,0,0,.178,1.4l4.759,4.759a1.155,1.155,0,0,0,1.4.178l4.462-2.631a21.01,21.01,0,0,0,4.517,1.871l1.294,5.016a1.156,1.156,0,0,0,1.119.867h6.73a1.156,1.156,0,0,0,1.119-.867L71.5,46.562a21,21,0,0,0,4.517-1.871l4.462,2.631a1.156,1.156,0,0,0,1.4-.178l4.759-4.759a1.155,1.155,0,0,0,.178-1.4l-2.631-4.462A21,21,0,0,0,86.064,32l5.016-1.295a1.156,1.156,0,0,0,.867-1.119v-6.73a1.156,1.156,0,0,0-.867-1.119l-5.016-1.294a21,21,0,0,0-1.474-3.771H98.078V27.359a1.156,1.156,0,0,0,2.312,0V15.517a1.156,1.156,0,0,0-1.156-1.156H85.116l1.442-2.444h16.307v52.5h-20.2a1.156,1.156,0,1,0,0,2.312H104.02a1.156,1.156,0,0,0,1.156-1.156V10.761a1.156,1.156,0,0,0-1.156-1.156ZM89.635,23.753v4.939l-4.8,1.24a1.155,1.155,0,0,0-.833.841,18.7,18.7,0,0,1-2.135,5.154,1.155,1.155,0,0,0-.006,1.184l2.52,4.273-3.493,3.493-4.273-2.52a1.157,1.157,0,0,0-1.184.006A18.7,18.7,0,0,1,70.275,44.5a1.155,1.155,0,0,0-.841.833l-1.24,4.8H63.255l-1.24-4.8a1.155,1.155,0,0,0-.841-.833,18.7,18.7,0,0,1-5.154-2.135,1.156,1.156,0,0,0-1.184-.006l-4.273,2.52-3.493-3.493,2.52-4.273a1.156,1.156,0,0,0-.006-1.184,18.7,18.7,0,0,1-2.135-5.154,1.155,1.155,0,0,0-.833-.841l-4.8-1.24V23.753l4.8-1.24a1.155,1.155,0,0,0,.833-.841,18.7,18.7,0,0,1,2.135-5.154c.383-.636.046-1.139-.246-1.609l-2.269-3.847,3.493-3.493,4.273,2.52a1.156,1.156,0,0,0,1.184-.006,18.7,18.7,0,0,1,5.154-2.135,1.155,1.155,0,0,0,.841-.833l1.24-4.8h4.939l1.24,4.8a1.155,1.155,0,0,0,.841.833,18.7,18.7,0,0,1,5.154,2.135,1.156,1.156,0,0,0,1.184.006l4.273-2.52,3.493,3.493L82.11,14.908c-.291.47-.629.974-.246,1.609A18.7,18.7,0,0,1,84,21.672a1.155,1.155,0,0,0,.833.841Z" transform="translate(-26.273 0)"/>
        <path id="Trazado_878910" data-name="Trazado 878910" d="M238.912,389.266a1.156,1.156,0,1,0,0-2.312h-4.787a1.156,1.156,0,0,0,0,2.312Z" transform="translate(-197.067 -327.322)"/>
        <path id="Trazado_878911" data-name="Trazado 878911" d="M53.812,124.527H45.394v-5.074h5.957a1.156,1.156,0,1,0,0-2.312H2.312v-52.5h5.9a1.156,1.156,0,1,0,0-2.312H1.156A1.156,1.156,0,0,0,0,63.485V118.3a1.156,1.156,0,0,0,1.156,1.156H33.509v5.074H25.091a1.156,1.156,0,0,0-1.156,1.156v4.787a1.156,1.156,0,0,0,1.156,1.156H53.812a1.156,1.156,0,0,0,1.156-1.156v-4.787A1.156,1.156,0,0,0,53.812,124.527ZM35.82,119.454h7.262v5.073H35.82Zm16.836,9.86H26.246v-2.475h26.41v2.475Z" transform="translate(0 -52.724)"/>
        <path id="Trazado_878912" data-name="Trazado 878912" d="M165.016,62.6a16.576,16.576,0,1,0,16.576,16.576A16.595,16.595,0,0,0,165.016,62.6Zm0,30.84A14.264,14.264,0,1,1,179.28,79.174,14.28,14.28,0,0,1,165.016,93.438Z" transform="translate(-125.564 -52.951)"/>
        <path id="Trazado_878913" data-name="Trazado 878913" d="M211.707,119.342a3.567,3.567,0,0,0-4.995.713L202,126.338l-1.878-1.879a3.568,3.568,0,0,0-5.045,5.046l4.787,4.787a3.569,3.569,0,0,0,5.377-.382l7.18-9.574a3.568,3.568,0,0,0-.714-4.994Zm-1.136,3.607-7.18,9.574a1.256,1.256,0,0,1-1.893.135l-4.787-4.787a1.256,1.256,0,0,1,1.776-1.776l2.821,2.821a1.156,1.156,0,0,0,1.742-.124l5.512-7.349a1.256,1.256,0,0,1,2.009,1.507Z" transform="translate(-164.131 -100.351)"/>
        <path id="Trazado_878914" data-name="Trazado 878914" d="M63.283,266.344H68.07a1.156,1.156,0,1,0,0-2.312H63.283a1.156,1.156,0,1,0,0,2.312Z" transform="translate(-52.553 -223.343)"/>
        <path id="Trazado_878915" data-name="Trazado 878915" d="M63.283,297.407h7.18a1.156,1.156,0,1,0,0-2.312h-7.18a1.156,1.156,0,1,0,0,2.312Z" transform="translate(-52.553 -249.619)"/>
        <path id="Trazado_878916" data-name="Trazado 878916" d="M63.283,327.631H77.643a1.156,1.156,0,1,0,0-2.312H63.283a1.156,1.156,0,1,0,0,2.312Z" transform="translate(-52.553 -275.185)"/>
        <path id="Trazado_878917" data-name="Trazado 878917" d="M409.754,264.032h-4.787a1.156,1.156,0,1,0,0,2.312h4.787a1.156,1.156,0,1,0,0-2.312Z" transform="translate(-341.581 -223.343)"/>
        <path id="Trazado_878918" data-name="Trazado 878918" d="M396.616,295.1h-7.18a1.156,1.156,0,1,0,0,2.312h7.18a1.156,1.156,0,0,0,0-2.312Z" transform="translate(-328.444 -249.619)"/>
        <path id="Trazado_878919" data-name="Trazado 878919" d="M357.521,326.156h-14.3a1.156,1.156,0,1,0,0,2.312h14.3a1.156,1.156,0,0,0,0-2.312Z" transform="translate(-289.348 -275.893)"/>
      </g>
    </g>
  </g>
</svg>
