<svg xmlns="http://www.w3.org/2000/svg" xmlns:xlink="http://www.w3.org/1999/xlink" width="80.561" height="81.676" viewBox="0 0 80.561 81.676">
  <defs>
    <filter id="Trazado_883800" x="0" y="0" width="80.561" height="81.676" filterUnits="userSpaceOnUse">
      <feOffset dy="1" input="SourceAlpha"/>
      <feGaussianBlur stdDeviation="5.5" result="blur"/>
      <feFlood flood-color="#fff" flood-opacity="0.902"/>
      <feComposite operator="in" in2="blur"/>
      <feComposite in="SourceGraphic"/>
    </filter>
  </defs>
  <g id="Grupo_1101890" data-name="Grupo 1101890" transform="translate(-202.36 -5177.148)">
    <g id="Grupo_1073070" data-name="Grupo 1073070" transform="translate(207 5189)">
      <rect id="Rectángulo_382263" data-name="Rectángulo 382263" width="73" height="64" rx="4" fill="#f0c518"/>
    </g>
    <g id="Grupo_1102163" data-name="Grupo 1102163" transform="translate(218.86 5192.648)">
      <g transform="matrix(1, 0, 0, 1, -16.5, -15.5)" filter="url(#Trazado_883800)">
        <g id="Trazado_883800-2" data-name="Trazado 883800" transform="translate(16.5 15.5)" fill="none">
          <path d="M23.781,0C36.914,0,47.561,10.9,47.561,24.338S36.914,48.676,23.781,48.676,0,37.78,0,24.338,10.647,0,23.781,0Z" stroke="none"/>
          <path d="M 23.78068542480469 14 C 18.38760566711426 14 14.00000381469727 18.63761901855469 14.00000381469727 24.33803939819336 C 14.00000381469727 30.03845977783203 18.38760566711426 34.67607879638672 23.78068542480469 34.67607879638672 C 29.17376518249512 34.67607879638672 33.56136322021484 30.03845977783203 33.56136322021484 24.33803939819336 C 33.56136322021484 18.63761901855469 29.17376518249512 14 23.78068542480469 14 M 23.78068542480469 0 C 36.91438674926758 0 47.56136703491211 10.89651870727539 47.56136703491211 24.33803939819336 C 47.56136703491211 37.77956008911133 36.91438674926758 48.67607879638672 23.78068542480469 48.67607879638672 C 10.64696502685547 48.67607879638672 3.814697265625e-06 37.77956008911133 3.814697265625e-06 24.33803939819336 C 3.814697265625e-06 10.89651870727539 10.64696502685547 0 23.78068542480469 0 Z" stroke="none" fill="#fff"/>
        </g>
      </g>
    </g>
    <g id="Page-1" transform="translate(213.793 5196.579)">
      <g id="_004---Male-Developer" data-name="004---Male-Developer">
        <path id="Shape" d="M52.214,23.337a3.762,3.762,0,0,1-3.762,3.752v2.05a3.769,3.769,0,0,1-1.288,2.84l-3.395,2.972L41.991,36.5a3.742,3.742,0,0,1-2.473.931H36.7a3.742,3.742,0,0,1-2.473-.931l-1.777-1.552L29.051,31.98a3.769,3.769,0,0,1-1.288-2.84v-2.05a3.752,3.752,0,0,1,0-7.5v-.019s0-8.464,5.643-6.583,5.643,3.762,13.166,2.821a4.075,4.075,0,0,1,1.881,3.762v.019A3.762,3.762,0,0,1,52.214,23.337Z" transform="translate(-3.313 -0.762)" fill="#ffe0b2"/>
        <path id="Shape-2" data-name="Shape" d="M49.255,19.781v-.019A4.075,4.075,0,0,0,47.375,16c-.94.118-1.758.188-2.487.226a4.267,4.267,0,0,1,1.546,3.536v.019a3.752,3.752,0,0,1,0,7.5v2.05a3.769,3.769,0,0,1-1.288,2.84l-3.395,2.972L39.973,36.7a3.742,3.742,0,0,1-2.473.931h2.821a3.742,3.742,0,0,0,2.473-.931l1.777-1.552,3.395-2.972a3.769,3.769,0,0,0,1.288-2.84v-2.05a3.752,3.752,0,0,0,0-7.5Z" transform="translate(-4.116 -0.958)" fill="#dfc49c"/>
        <path id="Shape-3" data-name="Shape" d="M50.442,12.314c0,5.633-1.881,6.574-1.881,6.574v-.019a4.075,4.075,0,0,0-1.881-3.762c-7.523.94-7.523-.94-13.166-2.821s-5.643,6.583-5.643,6.583v.019a14.623,14.623,0,0,1-.922-1.9c-.781-1.9-1.636-4.909-.7-7.524a6.671,6.671,0,0,1,3.5-3.715s4.364-7.834,14.765-3.376a.47.47,0,0,1,.019.856,3.292,3.292,0,0,0-1.27,1.025.47.47,0,0,0,.226.734c1.768.574,6.95,2.661,6.95,7.326Z" transform="translate(-3.422 -0.065)" fill="sienna"/>
        <path id="Shape-4" data-name="Shape" d="M44.2,4.989a.47.47,0,0,1-.226-.734,3.292,3.292,0,0,1,1.27-1.025.47.47,0,0,0-.019-.856A14.227,14.227,0,0,0,37.792,1.1a16.557,16.557,0,0,1,4.616,1.279.47.47,0,0,1,.019.856,3.292,3.292,0,0,0-1.27,1.025.47.47,0,0,0,.226.734c1.768.574,6.95,2.661,6.95,7.326a17.5,17.5,0,0,1-.282,3.312,4.4,4.4,0,0,1,1.223,3.243v.019s1.881-.94,1.881-6.574c0-4.665-5.182-6.752-6.95-7.326Z" transform="translate(-4.133 -0.066)" fill="#783e22"/>
        <path id="Shape-5" data-name="Shape" d="M46.047,42.6s-1.881,2.821-7.524,2.821S31,42.6,31,42.6c1.486-1.486,1.806-4.335,1.862-6.245l1.777,1.552a3.742,3.742,0,0,0,2.473.931h2.821a3.742,3.742,0,0,0,2.473-.931l1.777-1.552C44.241,38.269,44.561,41.119,46.047,42.6Z" transform="translate(-3.173 -2.171)" fill="#dfc49c"/>
        <path id="Shape-6" data-name="Shape" d="M56.617,57.041a.947.947,0,0,1-.94,1.006H19.94A.947.947,0,0,1,19,57.041a21.892,21.892,0,0,1,1.768-7.458,9.892,9.892,0,0,1,1.8-2.821C25.254,43.94,30.276,43,30.276,43h.009s1.881,2.821,7.524,2.821S45.332,43,45.332,43h.009s5.022.94,7.712,3.762C55.15,48.953,56.41,53.42,56.617,57.041Z" transform="translate(-3.014 -2.566)" fill="#02a9f4"/>
        <path id="Shape-7" data-name="Shape" d="M54.685,46.762C52,43.94,46.974,43,46.974,43h-.009a3.9,3.9,0,0,1-.564.612,13.77,13.77,0,0,1,5.464,3.15c2.1,2.191,3.357,6.658,3.564,10.279a.947.947,0,0,1-.94,1.006h2.821a.947.947,0,0,0,.94-1.006C58.043,53.42,56.782,48.953,54.685,46.762Z" transform="translate(-4.646 -2.566)" fill="#0377bc"/>
        <path id="Shape-8" data-name="Shape" d="M31.075,35.266c-.056,1.909-.376,4.759-1.862,6.245H29.2s-5.022.94-7.712,3.762a9.891,9.891,0,0,0-1.8,2.821H3.821A2.821,2.821,0,0,1,1,45.273V18H25.47a14.623,14.623,0,0,0,.922,1.9,3.752,3.752,0,0,0,0,7.5v2.05a3.769,3.769,0,0,0,1.288,2.84Z" transform="translate(-0.06 -1.077)" fill="#f5f5f5"/>
        <path id="Shape-9" data-name="Shape" d="M28.686,32.295a3.769,3.769,0,0,1-1.288-2.84V27.4a3.752,3.752,0,0,1,0-7.5,14.621,14.621,0,0,1-.922-1.9H23.654a14.623,14.623,0,0,0,.922,1.9,3.752,3.752,0,0,0,0,7.5v2.05a3.769,3.769,0,0,0,1.288,2.84l3.395,2.972c-.056,1.909-.376,4.759-1.862,6.245h-.009s-5.022.94-7.712,3.762a9.892,9.892,0,0,0-1.8,2.821H20.7a9.892,9.892,0,0,1,1.8-2.821c2.69-2.821,7.712-3.762,7.712-3.762h.009c1.486-1.486,1.806-4.335,1.862-6.245Z" transform="translate(-1.815 -1.077)" fill="#cfd8dc"/>
        <path id="Shape-10" data-name="Shape" d="M25.47,17.524H1v-4.7A2.821,2.821,0,0,1,3.821,10H24.774C23.834,12.614,24.69,15.624,25.47,17.524Z" transform="translate(-0.06 -0.601)" fill="#02a9f4"/>
        <path id="Shape-11" data-name="Shape" d="M26.075,10H23.254c-.94,2.614-.085,5.624.7,7.524h2.821C25.991,15.624,25.135,12.614,26.075,10Z" transform="translate(-2.131 -0.601)" fill="#0377bc"/>
        <g id="Grupo_1101944" data-name="Grupo 1101944">
          <path id="Shape-12" data-name="Shape" d="M3.636,47.963H17.629a24.517,24.517,0,0,0-1.265,6.468,1.92,1.92,0,0,0,.492,1.4,1.79,1.79,0,0,0,1.326.591H52.726a1.79,1.79,0,0,0,1.326-.591,1.92,1.92,0,0,0,.492-1.4c-.2-3.638-1.415-8.412-3.69-10.879-2.414-2.617-6.486-3.705-7.636-3.971-.778-.951-1.243-2.659-1.355-4.984l2.953-2.673a4.774,4.774,0,0,0,1.547-3.537V27.179a4.639,4.639,0,0,0,3.619-4.194,4.707,4.707,0,0,0-2.868-4.775,13.135,13.135,0,0,0,1.067-5.951c0-4.761-4.469-7.113-6.658-7.978a2.225,2.225,0,0,1,.415-.251,1.431,1.431,0,0,0-.029-2.584C32.3-2.806,27.538,3.574,26.636,4.971A7.5,7.5,0,0,0,23.3,8.464H3.636A3.7,3.7,0,0,0,0,12.226V44.2A3.7,3.7,0,0,0,3.636,47.963Zm0-1.881A1.85,1.85,0,0,1,1.818,44.2V17.869H23.966c.034.077.07.168.1.24a4.735,4.735,0,0,0,.476,9.071v1.208A4.773,4.773,0,0,0,26.1,31.926L29.05,34.6c-.113,2.324-.577,4.032-1.355,4.984-1.153.265-5.224,1.353-7.636,3.971A10.483,10.483,0,0,0,18.4,46.082Zm49.09,8.464-34.544-.009c.172-3.186,1.245-7.576,3.191-9.687,1.9-2.069,5.231-3.059,6.475-3.372.861.916,3.124,2.724,7.606,2.724s6.746-1.808,7.606-2.727c1.243.311,4.564,1.3,6.475,3.373,1.946,2.113,3.019,6.5,3.191,9.7Zm-11.2-14.14c-.765.708-2.582,1.914-6.07,1.914s-5.309-1.208-6.071-1.913a9.766,9.766,0,0,0,1.369-4.268l.347.315a4.458,4.458,0,0,0,2.991,1.163h2.727a4.458,4.458,0,0,0,2.994-1.163l.347-.315a9.774,9.774,0,0,0,1.365,4.267ZM48.18,22.579a2.775,2.775,0,0,1-2.727,2.813.925.925,0,0,0-.909.94v2.055a2.864,2.864,0,0,1-.932,2.124l-5,4.528a2.675,2.675,0,0,1-1.8.7H34.09a2.675,2.675,0,0,1-1.8-.7l-5-4.528a2.864,2.864,0,0,1-.932-2.124V26.333a.925.925,0,0,0-.909-.94,2.738,2.738,0,0,1-2.694-2.328,2.816,2.816,0,0,1,1.785-3.127V21.63a.91.91,0,1,0,1.818,0V18.809c0-1.156.329-4.4,1.833-5.519a2.484,2.484,0,0,1,2.425-.171,29.694,29.694,0,0,1,3.628,1.553c2.335,1.142,4.034,1.975,9.166,1.354a3.432,3.432,0,0,1,1.129,2.784V21.63a.91.91,0,1,0,1.818,0V19.938a2.805,2.805,0,0,1,1.818,2.642ZM24.644,10.051a5.567,5.567,0,0,1,3.034-3.518.936.936,0,0,0,.387-.376A8.8,8.8,0,0,1,35.7,1.881a12.948,12.948,0,0,1,4.659.95,4.181,4.181,0,0,0-.755.8A1.45,1.45,0,0,0,39.4,4.9a1.389,1.389,0,0,0,.876.918c1.432.483,6.091,2.369,6.091,6.441a14.471,14.471,0,0,1-.481,4.1,4.526,4.526,0,0,0-1.84-2.15.868.868,0,0,0-.519-.094c-4.864.628-6.232-.039-8.5-1.146A31.166,31.166,0,0,0,31.2,11.331a4.175,4.175,0,0,0-4.063.43,6.53,6.53,0,0,0-2.14,3.646,9.654,9.654,0,0,1-.349-5.356Zm-21.008.294h19.1a12.236,12.236,0,0,0,.531,5.643H1.818V12.226a1.85,1.85,0,0,1,1.818-1.881Z" transform="translate(0 -0.006)"/>
          <ellipse id="Oval" cx="0.826" cy="0.826" rx="0.826" ry="0.826" transform="translate(3.856 12.352)"/>
          <ellipse id="Oval-2" data-name="Oval" cx="0.826" cy="0.826" rx="0.826" ry="0.826" transform="translate(7.713 12.352)"/>
          <ellipse id="Oval-3" data-name="Oval" cx="1.102" cy="0.826" rx="1.102" ry="0.826" transform="translate(10.635 12.352)"/>
          <path id="Shape-13" data-name="Shape" d="M7.821,21H5.94a.94.94,0,0,0,0,1.881H7.821a.94.94,0,0,0,0-1.881Z" transform="translate(-0.298 -1.256)"/>
          <path id="Shape-14" data-name="Shape" d="M11.94,22.881h7.523a.94.94,0,0,0,0-1.881H11.94a.94.94,0,0,0,0,1.881Z" transform="translate(-1.069 -1.256)"/>
          <path id="Shape-15" data-name="Shape" d="M7.821,25H5.94a.94.94,0,0,0,0,1.881H7.821a.94.94,0,0,0,0-1.881Z" transform="translate(-0.298 -1.494)"/>
          <path id="Shape-16" data-name="Shape" d="M11.94,26.881h7.523a.94.94,0,0,0,0-1.881H11.94a.94.94,0,0,0,0,1.881Z" transform="translate(-1.069 -1.494)"/>
          <path id="Shape-17" data-name="Shape" d="M7.821,29H5.94a.94.94,0,0,0,0,1.881H7.821a.94.94,0,0,0,0-1.881Z" transform="translate(-0.298 -1.733)"/>
          <path id="Shape-18" data-name="Shape" d="M11.94,30.881h7.523a.94.94,0,0,0,0-1.881H11.94a.94.94,0,0,0,0,1.881Z" transform="translate(-1.069 -1.733)"/>
          <path id="Shape-19" data-name="Shape" d="M7.821,33H5.94a.94.94,0,0,0,0,1.881H7.821a.94.94,0,0,0,0-1.881Z" transform="translate(-0.298 -1.971)"/>
          <path id="Shape-20" data-name="Shape" d="M18,33.94a.94.94,0,0,0,.94.94h4.7a.94.94,0,1,0,0-1.881h-4.7A.94.94,0,0,0,18,33.94Z" transform="translate(-1.711 -1.971)"/>
          <path id="Shape-21" data-name="Shape" d="M11.94,34.881h2.821a.94.94,0,1,0,0-1.881H11.94a.94.94,0,0,0,0,1.881Z" transform="translate(-1.032 -1.971)"/>
          <path id="Shape-22" data-name="Shape" d="M7.821,37H5.94a.94.94,0,0,0,0,1.881H7.821a.94.94,0,0,0,0-1.881Z" transform="translate(-0.298 -2.209)"/>
          <path id="Shape-23" data-name="Shape" d="M11.94,38.881H20.4A.94.94,0,0,0,20.4,37H11.94a.94.94,0,0,0,0,1.881Z" transform="translate(-1.078 -2.209)"/>
          <path id="Shape-24" data-name="Shape" d="M24,37.94a.94.94,0,0,0,.94.94h2.821a.94.94,0,1,0,0-1.881H24.94A.94.94,0,0,0,24,37.94Z" transform="translate(-2.251 -2.209)"/>
          <path id="Shape-25" data-name="Shape" d="M7.821,41H5.94a.94.94,0,0,0,0,1.881H7.821a.94.94,0,0,0,0-1.881Z" transform="translate(-0.298 -2.447)"/>
          <path id="Shape-26" data-name="Shape" d="M11.94,42.881H22.285a.94.94,0,0,0,0-1.881H11.94a.94.94,0,0,0,0,1.881Z" transform="translate(-1.096 -2.447)"/>
          <path id="Shape-27" data-name="Shape" d="M7.821,45H5.94a.94.94,0,0,0,0,1.881H7.821a.94.94,0,0,0,0-1.881Z" transform="translate(-0.298 -2.685)"/>
          <path id="Shape-28" data-name="Shape" d="M17.583,45H11.94a.94.94,0,0,0,0,1.881h5.643a.94.94,0,0,0,0-1.881Z" transform="translate(-1.053 -2.685)"/>
        </g>
      </g>
    </g>
  </g>
</svg>
