<svg xmlns="http://www.w3.org/2000/svg" xmlns:xlink="http://www.w3.org/1999/xlink" width="295" height="519" viewBox="0 0 295 519">
  <defs>
    <clipPath id="clip-path">
      <rect id="Rectángulo_403417" data-name="Rectángulo 403417" width="295" height="519" rx="9" transform="translate(180 1401)" fill="#a854f3"/>
    </clipPath>
    <clipPath id="clip-path-2">
      <rect id="Rectángulo_402324" data-name="Rectángulo 402324" width="62" height="133" transform="translate(420 1064)" fill="#fff" opacity="0.67"/>
    </clipPath>
    <filter id="Trazado_877326" x="224.75" y="219.855" width="128.488" height="128.488" filterUnits="userSpaceOnUse">
      <feOffset dy="1" input="SourceAlpha"/>
      <feGaussianBlur stdDeviation="5.5" result="blur"/>
      <feFlood flood-color="#fff" flood-opacity="0.902"/>
      <feComposite operator="in" in2="blur"/>
      <feComposite in="SourceGraphic"/>
    </filter>
    <filter id="Trazado_877329" x="-10.484" y="4.584" width="76" height="76" filterUnits="userSpaceOnUse">
      <feOffset dy="1" input="SourceAlpha"/>
      <feGaussianBlur stdDeviation="5.5" result="blur-2"/>
      <feFlood flood-color="#fff" flood-opacity="0.902"/>
      <feComposite operator="in" in2="blur-2"/>
      <feComposite in="SourceGraphic"/>
    </filter>
    <linearGradient id="linear-gradient" x1="0.35" y1="0.433" x2="0.935" y2="0.848" gradientUnits="objectBoundingBox">
      <stop offset="0" stop-color="#f0c518"/>
      <stop offset="0.371" stop-color="#d1ae1f"/>
      <stop offset="1" stop-color="#78630c"/>
    </linearGradient>
    <clipPath id="clip-path-3">
      <rect id="Rectángulo_403411" data-name="Rectángulo 403411" width="163.043" height="486.916" fill="none"/>
    </clipPath>
    <clipPath id="clip-path-5">
      <rect id="Rectángulo_403395" data-name="Rectángulo 403395" width="18.364" height="6.307" fill="none"/>
    </clipPath>
    <clipPath id="clip-path-7">
      <rect id="Rectángulo_403397" data-name="Rectángulo 403397" width="77.255" height="16.439" fill="none"/>
    </clipPath>
    <clipPath id="clip-path-8">
      <rect id="Rectángulo_403398" data-name="Rectángulo 403398" width="14.388" height="60.085" fill="none"/>
    </clipPath>
    <clipPath id="clip-path-9">
      <rect id="Rectángulo_403399" data-name="Rectángulo 403399" width="5.506" height="21.221" fill="none"/>
    </clipPath>
    <clipPath id="clip-path-10">
      <rect id="Rectángulo_403400" data-name="Rectángulo 403400" width="13.72" height="23.336" fill="none"/>
    </clipPath>
    <clipPath id="clip-path-11">
      <rect id="Rectángulo_403401" data-name="Rectángulo 403401" width="8.987" height="3.701" fill="none"/>
    </clipPath>
    <clipPath id="clip-path-12">
      <rect id="Rectángulo_403402" data-name="Rectángulo 403402" width="9.467" height="16.547" fill="none"/>
    </clipPath>
    <clipPath id="clip-path-13">
      <rect id="Rectángulo_403404" data-name="Rectángulo 403404" width="8.35" height="1.593" fill="none"/>
    </clipPath>
    <clipPath id="clip-path-14">
      <rect id="Rectángulo_403405" data-name="Rectángulo 403405" width="8.124" height="0.941" fill="none"/>
    </clipPath>
    <clipPath id="clip-path-15">
      <rect id="Rectángulo_403406" data-name="Rectángulo 403406" width="6.147" height="0.649" fill="none"/>
    </clipPath>
    <clipPath id="clip-path-16">
      <rect id="Rectángulo_403407" data-name="Rectángulo 403407" width="7.857" height="1.598" fill="none"/>
    </clipPath>
    <clipPath id="clip-path-17">
      <rect id="Rectángulo_403408" data-name="Rectángulo 403408" width="7.651" height="0.98" fill="none"/>
    </clipPath>
    <clipPath id="clip-path-18">
      <rect id="Rectángulo_403409" data-name="Rectángulo 403409" width="5.792" height="0.681" fill="none"/>
    </clipPath>
    <clipPath id="clip-path-19">
      <rect id="Rectángulo_403412" data-name="Rectángulo 403412" width="116.359" height="181.629" fill="none"/>
    </clipPath>
    <filter id="Trazado_877329-2" x="221.5" y="454.25" width="76" height="76" filterUnits="userSpaceOnUse">
      <feOffset dy="1" input="SourceAlpha"/>
      <feGaussianBlur stdDeviation="5.5" result="blur-3"/>
      <feFlood flood-color="#fff" flood-opacity="0.902"/>
      <feComposite operator="in" in2="blur-3"/>
      <feComposite in="SourceGraphic"/>
    </filter>
  </defs>
  <g id="Enmascarar_grupo_1098738" data-name="Enmascarar grupo 1098738" transform="translate(-180 -1401)" clip-path="url(#clip-path)">
    <rect id="Rectángulo_402307" data-name="Rectángulo 402307" width="271" height="519" rx="9" transform="translate(195 1401)" fill="#a854f3"/>
    <path id="Trazado_877330" data-name="Trazado 877330" d="M8.669,0H262c4.788,0,8.669,5.383,8.669,12.024V496.976c0,6.641-3.881,12.024-8.669,12.024H8.669C3.881,509,0,503.617,0,496.976V12.024C0,5.383,3.881,0,8.669,0Z" transform="translate(180 1401)" fill="#3a1d71"/>
    <g id="Grupo_1100665" data-name="Grupo 1100665" transform="translate(341.5 1430.185)">
      <g id="Grupo_1100655" data-name="Grupo 1100655" transform="translate(0 0)">
        <path id="Trazado_877303" data-name="Trazado 877303" d="M279.666,105.741c-2.985,2.53-5.439,1.613-5.439-2.033V91.947c0-3.646-3.4-6.634-7.544-6.634H249.564c-4.147,0-7.544-2.988-7.544-6.634V32.174c0-3.646,3.4-6.634,7.544-6.634h80.275c4.147,0,7.544,2.988,7.544,6.634V78.679c0,3.646-3.4,6.634-7.544,6.634H311.363a23.357,23.357,0,0,0-12.983,4.6L279.655,105.75Z" transform="translate(-242.02 -25.54)" fill="#49496b"/>
      </g>
      <g id="Grupo_1100656" data-name="Grupo 1100656" transform="translate(6.524 8.457)">
        <rect id="Rectángulo_402310" data-name="Rectángulo 402310" width="37.432" height="3.976" transform="translate(43.176 12.707)" fill="#fff"/>
        <rect id="Rectángulo_402311" data-name="Rectángulo 402311" width="37.432" height="3.976" transform="translate(0 39.116)" fill="#fff"/>
        <rect id="Rectángulo_402312" data-name="Rectángulo 402312" width="24.774" height="3.976" transform="translate(55.833 21.51)" fill="#fff"/>
        <rect id="Rectángulo_402313" data-name="Rectángulo 402313" width="24.774" height="3.976" transform="translate(12.658 30.313)" fill="#fff"/>
        <rect id="Rectángulo_402314" data-name="Rectángulo 402314" width="8.978" height="3.976" transform="translate(43.175 21.51)" fill="#f0c518"/>
        <rect id="Rectángulo_402315" data-name="Rectángulo 402315" width="8.978" height="3.976" transform="translate(0 30.313)" fill="#f0c518"/>
        <rect id="Rectángulo_402316" data-name="Rectángulo 402316" width="23.196" height="3.976" transform="translate(43.176 30.313)" fill="#f0c518"/>
        <rect id="Rectángulo_402317" data-name="Rectángulo 402317" width="23.196" height="3.976" transform="translate(0 21.51)" fill="#f0c518"/>
        <rect id="Rectángulo_402318" data-name="Rectángulo 402318" width="10.864" height="3.976" transform="translate(69.744 30.313)" fill="#fff"/>
        <rect id="Rectángulo_402319" data-name="Rectángulo 402319" width="10.864" height="3.976" transform="translate(26.568 21.51)" fill="#fff"/>
        <rect id="Rectángulo_402320" data-name="Rectángulo 402320" width="19.786" height="3.976" transform="translate(60.822 39.116)" fill="#fff"/>
        <rect id="Rectángulo_402321" data-name="Rectángulo 402321" width="14.598" height="3.976" transform="translate(43.176 39.116)" fill="#f0c518"/>
        <rect id="Rectángulo_402322" data-name="Rectángulo 402322" width="16.062" height="3.976" transform="translate(21.37 12.707)" fill="#fff"/>
        <rect id="Rectángulo_402323" data-name="Rectángulo 402323" width="18.716" height="3.976" transform="translate(0 12.707)" fill="#f0c518"/>
        <path id="Trazado_877304" data-name="Trazado 877304" d="M32.389,20.5v1.911l7,2.662V23.23l-4.9-1.779,4.9-1.794V17.834Z" transform="translate(27.109 -17.834)" fill="#f0c518"/>
        <path id="Trazado_877305" data-name="Trazado 877305" d="M14.448,17.834v1.824l4.9,1.794-4.9,1.779v1.838l7-2.662V20.5Z" transform="translate(57.922 -17.834)" fill="#f0c518"/>
      </g>
    </g>
    <g id="Enmascarar_grupo_1098700" data-name="Enmascarar grupo 1098700" transform="translate(-7 551)" clip-path="url(#clip-path-2)">
      <g transform="matrix(1, 0, 0, 1, 187, 850)" filter="url(#Trazado_877326)">
        <g id="Trazado_877326-2" data-name="Trazado 877326" transform="translate(241.25 235.36)" fill="none">
          <path d="M47.744,0A47.744,47.744,0,1,1,0,47.744,47.744,47.744,0,0,1,47.744,0Z" stroke="none"/>
          <path d="M 47.74413681030273 16 C 30.2403564453125 16 16 30.2403564453125 16 47.74413681030273 C 16 65.24791717529297 30.2403564453125 79.48827362060547 47.74413681030273 79.48827362060547 C 65.24791717529297 79.48827362060547 79.48827362060547 65.24791717529297 79.48827362060547 47.74413681030273 C 79.48827362060547 30.2403564453125 65.24791717529297 16 47.74413681030273 16 M 47.74413681030273 0 C 74.11249542236328 0 95.48827362060547 21.37577819824219 95.48827362060547 47.74413681030273 C 95.48827362060547 74.11249542236328 74.11249542236328 95.48827362060547 47.74413681030273 95.48827362060547 C 21.37577819824219 95.48827362060547 0 74.11249542236328 0 47.74413681030273 C 0 21.37577819824219 21.37577819824219 0 47.74413681030273 0 Z" stroke="none" fill="#f0c518"/>
        </g>
      </g>
    </g>
    <path id="Trazado_884144" data-name="Trazado 884144" d="M66.46,30.341,69.8,17.633a6.42,6.42,0,1,1-1.88,4.542,6.407,6.407,0,0,1,1.88-4.542m1.387-6.363a11.225,11.225,0,0,0-2.516,1.071,11.353,11.353,0,0,0-2.209,1.664.39.39,0,0,1-.468.058l-2.985-1.722-.015-.011a.743.743,0,0,0-.992.28l-.014.02-2.1,3.636a.743.743,0,0,0,.273,1.012l.019.013L63.138,19a.394.394,0,0,1,.186.434,11.1,11.1,0,0,0-.249,1.358,11.547,11.547,0,0,0,0,2.766,11.061,11.061,0,0,0,.251,1.356.4.4,0,0,1-.21.448l-2.957,1.707h0a.74.74,0,0,0-.273,1.01L62,31.736h0a.727.727,0,0,0,.447.343.743.743,0,0,0,.561-.071l.023-.013,2.963-1.71a.394.394,0,0,1,.467.057A11.36,11.36,0,0,0,71.2,33.082a.4.4,0,0,1,.287.378V36.9a.738.738,0,0,0,.736.739H76.45a.744.744,0,0,0,.739-.739V33.46a.4.4,0,0,1,.3-.384,11.289,11.289,0,0,0,2.517-1.071,11.456,11.456,0,0,0,2.207-1.664A.394.394,0,0,1,82.7,30.3l2.963,1.711a.745.745,0,0,0,1.011-.272l.013-.02,2.1-3.637h0a.736.736,0,0,0,.071-.559.722.722,0,0,0-.342-.449l-2.98-1.722c-.154-.087-.185-.434-.185-.434s.19-.894.248-1.356a11.715,11.715,0,0,0,0-2.766,12.084,12.084,0,0,0-.248-1.358.391.391,0,0,1,.207-.447l2.959-1.708a.724.724,0,0,0,.342-.45.743.743,0,0,0-.071-.562l-.012-.02-2.1-3.636h0a.748.748,0,0,0-1.011-.272v0l-2.982,1.722A.391.391,0,0,1,82.208,14a11.454,11.454,0,0,0-2.2-1.656,11.263,11.263,0,0,0-2.533-1.075.4.4,0,0,1-.286-.38V7.445a.744.744,0,0,0-.739-.738H72.226a.738.738,0,0,0-.736.738v3.442a.4.4,0,0,1-.305.384" transform="translate(135.21 1651.368)" fill="#fff" stroke="#fff" stroke-width="1" fill-rule="evenodd" opacity="0.67"/>
    <path id="Trazado_877328" data-name="Trazado 877328" d="M67.627,34.475m3.921-14.931a7.543,7.543,0,1,1-2.209,5.336,7.528,7.528,0,0,1,2.209-5.336m1.63-7.475a13.189,13.189,0,0,0-2.956,1.259,13.338,13.338,0,0,0-2.6,1.955.459.459,0,0,1-.55.068L63.57,13.327l-.018-.013a.873.873,0,0,0-1.165.329l-.017.024L59.9,17.939a.873.873,0,0,0,.321,1.189l.022.015,3.476,2.007a.463.463,0,0,1,.219.509,13.038,13.038,0,0,0-.293,1.6,13.567,13.567,0,0,0,0,3.25,13,13,0,0,0,.294,1.594.468.468,0,0,1-.247.526l-3.475,2.005h0a.87.87,0,0,0-.321,1.186l2.48,4.3h0a.854.854,0,0,0,.525.4.873.873,0,0,0,.659-.084l.027-.015,3.482-2.009a.462.462,0,0,1,.548.067A13.347,13.347,0,0,0,73.2,37.7a.465.465,0,0,1,.338.444v4.044a.867.867,0,0,0,.865.868h4.962a.874.874,0,0,0,.868-.868V38.14a.465.465,0,0,1,.356-.451,13.265,13.265,0,0,0,2.957-1.259,13.459,13.459,0,0,0,2.593-1.955.463.463,0,0,1,.575-.053l3.482,2.011a.875.875,0,0,0,1.188-.32l.015-.024,2.466-4.273h0a.865.865,0,0,0,.084-.657.848.848,0,0,0-.4-.527l-3.5-2.023c-.181-.1-.218-.509-.218-.509s.223-1.051.292-1.594a13.765,13.765,0,0,0,0-3.25,14.2,14.2,0,0,0-.292-1.6.46.46,0,0,1,.243-.525l3.476-2.007a.851.851,0,0,0,.4-.529.874.874,0,0,0-.084-.66l-.014-.024-2.466-4.271h0a.879.879,0,0,0-1.188-.32v0l-3.5,2.023a.459.459,0,0,1-.561-.078,13.457,13.457,0,0,0-2.584-1.945,13.233,13.233,0,0,0-2.977-1.263.465.465,0,0,1-.336-.447V7.574a.874.874,0,0,0-.868-.867H74.4a.867.867,0,0,0-.865.867v4.044a.465.465,0,0,1-.359.451" transform="translate(350.023 1583.793)" fill="#fff" fill-rule="evenodd" opacity="0.84"/>
    <g id="Grupo_1100666" data-name="Grupo 1100666" transform="translate(-284.429 107.484)">
      <g transform="matrix(1, 0, 0, 1, 464.43, 1293.52)" filter="url(#Trazado_877329)">
        <g id="Trazado_877329-3" data-name="Trazado 877329" transform="translate(6.02 20.08)" fill="none">
          <path d="M21.5,0A21.5,21.5,0,1,1,0,21.5,21.5,21.5,0,0,1,21.5,0Z" stroke="none"/>
          <path d="M 21.5 6 C 12.95326995849609 6 6 12.95326995849609 6 21.5 C 6 30.04673004150391 12.95326995849609 37 21.5 37 C 30.04673004150391 37 37 30.04673004150391 37 21.5 C 37 12.95326995849609 30.04673004150391 6 21.5 6 M 21.5 0 C 33.37411880493164 0 43 9.625881195068359 43 21.5 C 43 33.37411880493164 33.37411880493164 43 21.5 43 C 9.625881195068359 43 0 33.37411880493164 0 21.5 C 0 9.625881195068359 9.625881195068359 0 21.5 0 Z" stroke="none" fill="#fff"/>
        </g>
      </g>
      <circle id="Elipse_11607" data-name="Elipse 11607" cx="16" cy="16" r="16" transform="translate(491.944 1303.1)" fill="url(#linear-gradient)"/>
      <circle id="Elipse_11699" data-name="Elipse 11699" cx="16" cy="16" r="16" transform="translate(480.444 1729.1)" fill="url(#linear-gradient)"/>
    </g>
    <g id="Grupo_1100671" data-name="Grupo 1100671" transform="translate(381.067 1570.396) rotate(-90)">
      <path id="Trazado_876146" data-name="Trazado 876146" d="M31.416,35.753H5.979A5.979,5.979,0,0,1,0,29.774V17.4a5.979,5.979,0,0,1,5.979-5.979h6.649L17.666,0l7.1,11.419h6.648A5.979,5.979,0,0,1,37.4,17.4V29.774a5.979,5.979,0,0,1-5.979,5.979" transform="translate(0 0)" fill="#fff"/>
      <path id="Trazado_876147" data-name="Trazado 876147" d="M31.416,35.753H5.979A5.979,5.979,0,0,1,0,29.774V17.4a5.979,5.979,0,0,1,5.979-5.979h6.649L17.666,0l7.1,11.419h6.648A5.979,5.979,0,0,1,37.4,17.4V29.774A5.979,5.979,0,0,1,31.416,35.753Z" transform="translate(0 0)" fill="none" stroke="#263238" stroke-linecap="round" stroke-linejoin="round" stroke-width="1"/>
      <path id="Trazado_877330-2" data-name="Trazado 877330" d="M165.819,257.676c.62.2.914.62.914,1.581V262.2a1.039,1.039,0,0,0,1.147,1.177h.326v1.549h-.775c-1.75,0-2.633-.883-2.633-2.525V259.21c0-.511-.263-.744-.7-.744h-.511v-1.58h.511c.434,0,.7-.233.7-.744v-3.192c0-1.641.884-2.525,2.633-2.525h.775v1.549h-.326a1.04,1.04,0,0,0-1.147,1.178V256.1c0,.961-.294,1.379-.914,1.581" transform="translate(276.374 -147.409) rotate(90)" fill="#263238"/>
      <path id="Trazado_877331" data-name="Trazado 877331" d="M176.026,256.886v1.581H175.5c-.417,0-.681.231-.681.743V262.4c0,1.642-.9,2.526-2.649,2.526H171.4v-1.551h.326a1.044,1.044,0,0,0,1.162-1.177v-2.943c0-.96.277-1.379.9-1.581-.621-.2-.9-.618-.9-1.58v-2.943a1.045,1.045,0,0,0-1.162-1.178H171.4v-1.548h.774c1.751,0,2.649.883,2.649,2.525v3.19c0,.513.264.744.681.744Z" transform="translate(276.375 -145.803) rotate(90)" fill="#263238"/>
    </g>
    <g id="Grupo_1102276" data-name="Grupo 1102276" transform="translate(206.957 1433.084)">
      <g id="Grupo_1102275" data-name="Grupo 1102275" transform="translate(0)" clip-path="url(#clip-path-3)">
        <path id="Trazado_884068" data-name="Trazado 884068" d="M74.146,283.3l14.489,1.418,10.707-36.682-22.041-2.4Z" transform="translate(-67.407 188.708)" fill="#eec1bb"/>
        <g id="Grupo_1102274" data-name="Grupo 1102274" transform="translate(0)">
          <g id="Grupo_1102273" data-name="Grupo 1102273" clip-path="url(#clip-path-3)">
            <path id="Trazado_884069" data-name="Trazado 884069" d="M87.417,264.119H82.245a3.674,3.674,0,0,0-2.946,1.537c-2.983,4.074-5.223,2.534-8.468-1.3-2.064-.241-2.619,2.127-2.787,2.764l-3.867,14.065a2.212,2.212,0,0,0,2.161,2.82h40.984c6.518,0,7.869-6.569,5.183-7.177-12.074-2.667-20.623-6.221-24.354-9.732-.693-.615.018-1.075-.734-2.979" transform="translate(-64.092 202.908)" fill="#263238"/>
            <path id="Trazado_884070" data-name="Trazado 884070" d="M77.2,268.416a23.56,23.56,0,0,1-4.847-.624.29.29,0,0,1-.173-.368.285.285,0,0,1,.173-.173c.727-.354,7.193-3.377,8.815-2.228a.943.943,0,0,1,.423.911,2.113,2.113,0,0,1-.879,1.689,5.765,5.765,0,0,1-3.512.794M73.369,267.4c1.908.355,5.455.828,6.923-.271a1.68,1.68,0,0,0,.642-1.232.375.375,0,0,0-.168-.389c-.895-.624-4.712.711-7.4,1.892" transform="translate(-46.164 203.403)" fill="#407bff"/>
            <path id="Trazado_884071" data-name="Trazado 884071" d="M74.29,269.332a.361.361,0,0,1-.2,0,.288.288,0,0,1-.083-.3c0-.269,1.519-6.636,5.066-6.231.877.118,1.13.541,1.164.9.221,1.689-3.849,4.879-5.791,5.69Zm4.424-6.028c-2.246,0-3.547,3.715-3.986,5.2,2.111-1.114,5.066-3.765,4.88-4.8,0-.085,0-.32-.658-.389Z" transform="translate(-48.032 201.878)" fill="#407bff"/>
            <path id="Trazado_884072" data-name="Trazado 884072" d="M77.176,269.839a.442.442,0,0,0,.375-.207,5.8,5.8,0,0,1,4.079-2.626.441.441,0,0,0,.377-.5.45.45,0,0,0-.5-.378,6.7,6.7,0,0,0-4.707,3.033.444.444,0,0,0,.14.61.452.452,0,0,0,.235.067" transform="translate(-54.652 204.45)" fill="#407bff"/>
            <path id="Trazado_884073" data-name="Trazado 884073" d="M75.358,271.208a.442.442,0,0,0,.375-.207,5.791,5.791,0,0,1,4.079-2.626.444.444,0,0,0,.377-.5.451.451,0,0,0-.5-.378,6.7,6.7,0,0,0-4.707,3.034.444.444,0,0,0,.14.61.452.452,0,0,0,.235.067" transform="translate(-49.619 205.501)" fill="#407bff"/>
            <path id="Trazado_884074" data-name="Trazado 884074" d="M73.1,272.359a.442.442,0,0,0,.375-.207,5.8,5.8,0,0,1,4.078-2.628.442.442,0,0,0,.378-.5.449.449,0,0,0-.5-.378,6.7,6.7,0,0,0-4.707,3.034.444.444,0,0,0,.14.61.452.452,0,0,0,.235.067" transform="translate(-43.358 206.386)" fill="#407bff"/>
            <g id="Grupo_1102233" data-name="Grupo 1102233" transform="translate(7.911 454.32)" opacity="0.3">
              <g id="Grupo_1102232" data-name="Grupo 1102232">
                <g id="Grupo_1102231" data-name="Grupo 1102231" clip-path="url(#clip-path-5)">
                  <path id="Trazado_884075" data-name="Trazado 884075" d="M95.711,258.742l-1.314,4.5-17.051-2.619.309-3.689Z" transform="translate(-77.347 -256.933)"/>
                </g>
              </g>
            </g>
            <path id="Trazado_884076" data-name="Trazado 884076" d="M26.45,283.3l14.489,1.418,10.707-36.682-22.041-2.4Z" transform="translate(64.626 188.708)" fill="#eec1bb"/>
            <path id="Trazado_884077" data-name="Trazado 884077" d="M39.721,264.119H34.549a3.674,3.674,0,0,0-2.946,1.537c-2.983,4.074-5.223,2.534-8.468-1.3-2.064-.241-2.619,2.127-2.787,2.764l-3.867,14.065a2.212,2.212,0,0,0,2.161,2.82H59.626c6.518,0,7.869-6.569,5.183-7.177-12.074-2.667-20.623-6.221-24.354-9.732-.693-.615.018-1.075-.734-2.979" transform="translate(67.942 202.908)" fill="#263238"/>
            <path id="Trazado_884078" data-name="Trazado 884078" d="M29.506,268.416a23.561,23.561,0,0,1-4.847-.624.29.29,0,0,1-.173-.368.281.281,0,0,1,.173-.173c.727-.354,7.193-3.377,8.815-2.228a.943.943,0,0,1,.423.911,2.113,2.113,0,0,1-.879,1.689,5.765,5.765,0,0,1-3.512.794M25.673,267.4c1.908.355,5.455.828,6.923-.271a1.68,1.68,0,0,0,.642-1.232.375.375,0,0,0-.168-.389c-.895-.624-4.712.711-7.4,1.892" transform="translate(85.87 203.403)" fill="#407bff"/>
            <path id="Trazado_884079" data-name="Trazado 884079" d="M26.594,269.332a.361.361,0,0,1-.2,0,.288.288,0,0,1-.083-.3c0-.269,1.519-6.636,5.066-6.231.877.118,1.13.541,1.164.9.221,1.689-3.849,4.879-5.791,5.69Zm4.424-6.028c-2.246,0-3.545,3.715-3.986,5.2,2.111-1.114,5.066-3.765,4.88-4.8,0-.085,0-.32-.658-.389Z" transform="translate(84.002 201.878)" fill="#407bff"/>
            <path id="Trazado_884080" data-name="Trazado 884080" d="M29.48,269.839a.442.442,0,0,0,.375-.207,5.8,5.8,0,0,1,4.079-2.626.441.441,0,0,0,.377-.5.45.45,0,0,0-.5-.378,6.7,6.7,0,0,0-4.707,3.033.444.444,0,0,0,.14.61.452.452,0,0,0,.235.067" transform="translate(77.382 204.45)" fill="#407bff"/>
            <path id="Trazado_884081" data-name="Trazado 884081" d="M27.662,271.208a.442.442,0,0,0,.375-.207,5.791,5.791,0,0,1,4.079-2.626.444.444,0,0,0,.377-.5.452.452,0,0,0-.5-.378,6.7,6.7,0,0,0-4.707,3.034.444.444,0,0,0,.14.61.452.452,0,0,0,.235.067" transform="translate(82.415 205.501)" fill="#407bff"/>
            <path id="Trazado_884082" data-name="Trazado 884082" d="M25.4,272.359a.442.442,0,0,0,.375-.207,5.8,5.8,0,0,1,4.078-2.628.442.442,0,0,0,.378-.5.448.448,0,0,0-.5-.378,6.7,6.7,0,0,0-4.707,3.034.444.444,0,0,0,.14.61.452.452,0,0,0,.235.067" transform="translate(88.677 206.386)" fill="#407bff"/>
            <g id="Grupo_1102236" data-name="Grupo 1102236" transform="translate(92.249 454.32)" opacity="0.3">
              <g id="Grupo_1102235" data-name="Grupo 1102235" transform="translate(0)">
                <g id="Grupo_1102234" data-name="Grupo 1102234" clip-path="url(#clip-path-5)">
                  <path id="Trazado_884083" data-name="Trazado 884083" d="M48.014,258.742l-1.314,4.5-17.049-2.619.308-3.689Z" transform="translate(-29.65 -256.933)"/>
                </g>
              </g>
            </g>
            <path id="Trazado_884084" data-name="Trazado 884084" d="M68.657,110.609s12.008,53.03,17.732,99.218c1.743,14.079,2.076,32.905-1.006,46.765L62.238,371.657l-29.126-2.918c4.578-49.626,10.956-110.832,12.783-136.873-6.406-30.516-20.057-67.457-33.48-104.192Z" transform="translate(53.388 84.975)" fill="#407bff"/>
            <path id="Trazado_884085" data-name="Trazado 884085" d="M40.505,247.754c.658-2.87,1.712-8.7,3-16.388l-.12-.027c.946-10.167,2.7-57.328,5.913-87.41,2.472-19.161,7.37-32.127,12.3-38.477q.382-.488.7-.886c.82-1.022,1.317-1.586,1.317-1.586q1.406.353,2.8.656.523.114,1.036.223c34.813,7.28,65.45-1.871,65.45-1.871,3.2,7.915,5.6,24.791,7.938,42.291-3.643,4-19.624,9.182-37.957,12.618l-5.229,23.645C94.9,195.2,91.367,209.581,88.366,222.53l-3.135,14.18c-.191.93-.378,1.853-.555,2.758-1.59,8.152-39.444,139.5-39.444,139.5L20.57,377.524s11.016-90.907,19.935-129.77" transform="translate(-14.165 78.352)" fill="#407bff"/>
            <g id="Grupo_1102239" data-name="Grupo 1102239" transform="translate(43.818 185.247)" opacity="0.2" style="isolation: isolate">
              <g id="Grupo_1102238" data-name="Grupo 1102238">
                <g id="Grupo_1102237" data-name="Grupo 1102237" clip-path="url(#clip-path-7)">
                  <path id="Trazado_884086" data-name="Trazado 884086" d="M100.99,107.675A47.8,47.8,0,0,1,67.98,121.2c-20.853.195-44.245-11.953-44.245-11.953l2.619-4.482L86.4,111.3l12.356-6.541Z" transform="translate(-23.734 -104.763)"/>
                </g>
              </g>
            </g>
            <g id="Grupo_1102242" data-name="Grupo 1102242" transform="translate(83.147 220.161)" opacity="0.2" style="isolation: isolate">
              <g id="Grupo_1102241" data-name="Grupo 1102241" transform="translate(0)">
                <g id="Grupo_1102240" data-name="Grupo 1102240" clip-path="url(#clip-path-8)">
                  <path id="Trazado_884087" data-name="Trazado 884087" d="M37.047,165.429c-.1.483,11.294-40.921,11.294-40.921s9.591,36.965-5,60.085Z" transform="translate(-37.046 -124.508)"/>
                </g>
              </g>
            </g>
            <path id="Trazado_884088" data-name="Trazado 884088" d="M20.217,58.18c3.073,16.94,9.228,39.214,9.228,39.214,3.966.84,32.486.011,32.486.011l-1.247,11.607s-10.594,2.15-21.148,4.53c-18.632,4.2-22.059,2.972-26.706-7.8S1.468,61.154,1.468,61.154Z" transform="translate(98.516 44.696)" fill="#eec1bb"/>
            <path id="Trazado_884089" data-name="Trazado 884089" d="M39.022,48.271A74.325,74.325,0,0,1,55.705,79.4l-28.623,6.85s-7.918-20.9-4.711-28.554c3.344-7.971,8.528-15.637,16.65-9.423" transform="translate(69.131 35.339)" fill="#263238"/>
            <g id="Grupo_1102245" data-name="Grupo 1102245" transform="translate(109.476 97.188)" opacity="0.3">
              <g id="Grupo_1102244" data-name="Grupo 1102244" transform="translate(0)">
                <g id="Grupo_1102243" data-name="Grupo 1102243" clip-path="url(#clip-path-9)">
                  <path id="Trazado_884090" data-name="Trazado 884090" d="M27.64,54.963a31.267,31.267,0,0,1,3.211,7.577c1.02,3.208,1.581,9.043,1.835,12.056L27.18,76.182c.214-7.359.246-13.859.46-21.219" transform="translate(-27.18 -54.963)"/>
                </g>
              </g>
            </g>
            <path id="Trazado_884091" data-name="Trazado 884091" d="M32.089,87.343,23.032,56.459c5.729-8.551,34.079-15.122,34.079-15.122l18.678,1.022s7.179,1.6,13.325,3.605c8.2,2.675,12.641,4.827,14.6,9.381,0,0,3.423,10.088,1.365,30.874-.568,5.717.076,35.432,1.671,45.249l9.667,23.152c-34.127,26.578-77.819.012-77.819.012a92.33,92.33,0,0,0,3.259-14.494c-.5-5.851.2-14.874-2.281-25.12-.479-1.977-6.656-25.753-7.487-27.675" transform="translate(5.9 31.757)" fill="#263238"/>
            <g id="Grupo_1102248" data-name="Grupo 1102248" transform="translate(38.252 104.24)" opacity="0.3">
              <g id="Grupo_1102247" data-name="Grupo 1102247" transform="translate(0)">
                <g id="Grupo_1102246" data-name="Grupo 1102246" clip-path="url(#clip-path-10)">
                  <path id="Trazado_884092" data-name="Trazado 884092" d="M65.419,82.287S78.508,65.8,76.278,58.951L62.814,71.55Z" transform="translate(-62.814 -58.951)"/>
                </g>
              </g>
            </g>
            <path id="Trazado_884093" data-name="Trazado 884093" d="M78.183,48.5c-7.168,2.412-14.309,25.07-14.309,25.07L84.94,87.478S97.277,69.159,95.049,59.692C93.145,51.7,87.283,45.426,78.183,48.5" transform="translate(-45.222 36.649)" fill="#263238"/>
            <path id="Trazado_884094" data-name="Trazado 884094" d="M86.34,74.646s-12.949,27.9-12.728,28.983c.813,3.973,42.36,1.289,42.36,1.289l1,11.149s-18.835,6.04-38.226,6.429c-20.006.4-29.128-10.088-24.283-22.577,5.174-13.333,14.593-36.68,14.593-36.68Z" transform="translate(-47.984 48.583)" fill="#eec1bb"/>
            <g id="Grupo_1102251" data-name="Grupo 1102251" transform="translate(17.399 150.117)" opacity="0.3">
              <g id="Grupo_1102250" data-name="Grupo 1102250">
                <g id="Grupo_1102249" data-name="Grupo 1102249" clip-path="url(#clip-path-11)">
                  <path id="Trazado_884095" data-name="Trazado 884095" d="M85.514,86.991A12.679,12.679,0,0,0,77.285,88.6s.407-1.841,3.8-3.1a15.512,15.512,0,0,1,5.188-.58Z" transform="translate(-77.286 -84.896)"/>
                </g>
              </g>
            </g>
            <path id="Trazado_884096" data-name="Trazado 884096" d="M58.337,30.6c1.662-1.485,4.216-1.075,6.39-1.558,3.2-.709,5.591-3.429,7.089-6.341s2.332-6.131,3.784-9.066a17.153,17.153,0,0,1,8.063-8.261c3.588-1.595,10.565-1.243,12.692,3.156l1.333,9.032c-4.337,7.184-3.347,13.177-2.615,21.535.538,6.132-2.794,9.214-5.913,12.44-2.58,2.67-8.558,3.735-12.259,3.434a8.12,8.12,0,0,1-5.485-2.246c-1.354-1.5-1.583-4.131-.044-5.446A14.75,14.75,0,0,1,57.219,36.208c-.453-1.952-.377-4.276,1.118-5.611" transform="translate(-35.394 3.459)" fill="#263238"/>
            <path id="Trazado_884097" data-name="Trazado 884097" d="M65.011,6.771c-2.865.506-5.133,2.845-6.341,5.492a9.737,9.737,0,0,0-.889,5.66,6.258,6.258,0,0,0,3.245,4.567,4.638,4.638,0,0,0,5.347-.889,5.783,5.783,0,0,0,1.013-4.974A40.145,40.145,0,0,0,65.7,11.648a8,8,0,0,1-.309-5.156" transform="translate(-6.461 4.987)" fill="#407bff"/>
            <path id="Trazado_884098" data-name="Trazado 884098" d="M42.079,55.8s5.793,4.454,13.249,10.88A27.678,27.678,0,0,0,60.4,70.134c4.887,2.6,9.342,4.081,10.548,1.724a7.876,7.876,0,0,0,.628-1.667c1.024-3.945.6-9.492-2.585-12.029-3.595-2.863-5.329-5.31-4.681-9.184a29.033,29.033,0,0,1,2.064-6.666L63.547,39l-14.8-14.936c.37,9.975,1.125,26.315-6.67,31.729" transform="translate(16.561 18.489)" fill="#eec1bb"/>
            <g id="Grupo_1102254" data-name="Grupo 1102254" transform="translate(72.709 51.769)" opacity="0.2">
              <g id="Grupo_1102253" data-name="Grupo 1102253" transform="translate(0)">
                <g id="Grupo_1102252" data-name="Grupo 1102252" clip-path="url(#clip-path-12)">
                  <path id="Trazado_884099" data-name="Trazado 884099" d="M53.777,45.823c-4.07-2.415-8.535-6.606-8-11.395a22.39,22.39,0,0,1,1.156-5.151L55.2,40.222a27.626,27.626,0,0,0-1.423,5.6" transform="translate(-45.732 -29.276)"/>
                </g>
              </g>
            </g>
            <path id="Trazado_884100" data-name="Trazado 884100" d="M33.092,24.487c1.393,15.205,1.662,21.654,9.508,29.627C54.4,66.106,72.561,62.073,75.687,47c2.813-13.566.062-36.152-14.866-42.542C46.115-1.839,31.7,9.282,33.092,24.487" transform="translate(28.027 2.045)" fill="#eec1bb"/>
            <path id="Trazado_884101" data-name="Trazado 884101" d="M44.885,18.819c.08,1.423.953,2.594,1.954,2.615s1.747-1.116,1.667-2.539-.955-2.594-1.954-2.615S44.8,17.4,44.885,18.819" transform="translate(35.174 12.507)" fill="#263238"/>
            <path id="Trazado_884102" data-name="Trazado 884102" d="M35.979,18.663c.08,1.379.953,2.514,1.95,2.536s1.74-1.08,1.66-2.46-.953-2.514-1.95-2.536-1.74,1.08-1.66,2.46" transform="translate(59.839 12.448)" fill="#263238"/>
            <path id="Trazado_884103" data-name="Trazado 884103" d="M45.356,16.031a.683.683,0,0,0,.541-.173,5.482,5.482,0,0,1,5.009-1.4.687.687,0,0,0,.877-.506.814.814,0,0,0-.555-.937,6.843,6.843,0,0,0-6.355,1.692.763.763,0,0,0-.014,1.061.775.775,0,0,0,.5.262" transform="translate(32.286 9.847)" fill="#263238"/>
            <path id="Trazado_884104" data-name="Trazado 884104" d="M40.58,16.351a.687.687,0,0,0,.532-.08.739.739,0,0,0,.2-1.029A7.838,7.838,0,0,0,35.5,11.417a.682.682,0,0,0-.72.713.811.811,0,0,0,.744.79A6.266,6.266,0,0,1,40.094,16a.8.8,0,0,0,.486.354" transform="translate(60.102 8.771)" fill="#263238"/>
            <path id="Trazado_884105" data-name="Trazado 884105" d="M49.581,34.753s4.691-7.092,2.758-20.9A4.368,4.368,0,0,1,55.775,8.9c6.56-1.275,15.331-9.55,26.032,6.886,0,0-5.448-20.89-34.981-11.755-19,5.874-8.385,29.593-5.642,31.911s8.4-1.186,8.4-1.186" transform="translate(18.017 1.319)" fill="#263238"/>
            <path id="Trazado_884106" data-name="Trazado 884106" d="M54.138,25.983a12.248,12.248,0,0,0,7.391,5.749c4.026,1.008,6.1-5.462,4.728-9.5A8.089,8.089,0,0,0,57.151,17c-3.86.78-5.064,5.423-3.013,8.988" transform="translate(2.38 12.941)" fill="#eec1bb"/>
            <path id="Trazado_884107" data-name="Trazado 884107" d="M51.537,27.994a43.1,43.1,0,0,0-2.727,5.6c-.359-.074-.718-.15-1.072-.242-4.84-1.133-6.712-3.259-7.319-5.271a6.415,6.415,0,0,1-.1-3.033,6.241,6.241,0,0,1,.534-1.653c2.209,2.134,6.64,3.538,9.037,4.189,1,.283,1.644.412,1.644.412" transform="translate(40.447 17.972)" fill="#263238"/>
            <path id="Trazado_884108" data-name="Trazado 884108" d="M50.687,27.582l-.847,1.629c-4.557-1.077-7.619-2.447-8.725-4.164a6.241,6.241,0,0,1,.534-1.653c2.207,2.134,6.64,3.538,9.037,4.189" transform="translate(39.652 17.972)" fill="#fff"/>
            <path id="Trazado_884109" data-name="Trazado 884109" d="M49.653,31.313c-4.841-1.133-6.712-3.257-7.319-5.269a15.972,15.972,0,0,1,5.126,2.323,5.99,5.99,0,0,1,2.193,2.946" transform="translate(38.533 20.008)" fill="#dc5753"/>
            <path id="Trazado_884110" data-name="Trazado 884110" d="M37.337,17.359A51.521,51.521,0,0,0,42.4,26.6a1.175,1.175,0,0,1-.552,1.795,7.518,7.518,0,0,1-4.074.065Z" transform="translate(54.394 13.336)" fill="#d4827d"/>
            <path id="Trazado_884111" data-name="Trazado 884111" d="M44.185,16.617l3.491-.822s-1.91,2.6-3.491.822" transform="translate(37.237 12.134)" fill="#263238"/>
            <path id="Trazado_884112" data-name="Trazado 884112" d="M35.308,16.582l3.491-.824s-1.91,2.6-3.491.824" transform="translate(61.811 12.106)" fill="#263238"/>
            <path id="Trazado_884113" data-name="Trazado 884113" d="M76.8,23.533s9.248-11.257-6.673-20.5c0,0-13.884-7.637-27.2,1.324S29.385,19.378,42.03,33.22c0,0-1.365-1.811,3.31-5.929s9.833-7.782,7.328-11.775c0,0,3.887,1.5,4.164,5.2l6.836-1.867a12.95,12.95,0,0,0-2.106-5.287s3.544,2.087,4.693,5.147l5.913,1.114s-.868-5.427-2.537-7.374c0,0,5.418,5.57,7.167,11.087" transform="translate(25.688 0)" fill="#263238"/>
            <rect id="Rectángulo_403403" data-name="Rectángulo 403403" width="83.503" height="28.631" transform="translate(69.336 123.229)" fill="#fff"/>
            <path id="Trazado_884114" data-name="Trazado 884114" d="M97.019,71.7v60.545a3.045,3.045,0,0,1-3.045,3.047H4.864a3.046,3.046,0,0,1-3.047-3.047V77.66a3.047,3.047,0,0,1,3.047-3.047H59.057a3.046,3.046,0,0,0,2.649-1.542l1.7-3a2.5,2.5,0,0,1,2.182-1.254H94.059a2.922,2.922,0,0,1,2.96,2.882" transform="translate(62.81 52.868)" fill="#407bff"/>
            <path id="Trazado_884115" data-name="Trazado 884115" d="M51.064,89.311s13.4,3.186,14.669,5.823-2.9,2.493-2.9,2.493,4.587.44,4.665,2.414c.092,2.368-4.284,2.2-4.284,2.2s3.729.513,3.68,2.272c-.051,1.825-5,1.984-5,1.984s2.559.858,1.832,2.062-11.232,1.745-14.355-.179-3.33-15.428-2.769-18.384.808-4.55,4.445-9.078Z" transform="translate(13.588 62.162)" fill="#eec1bb"/>
            <g id="Grupo_1102257" data-name="Grupo 1102257" transform="translate(68.264 158.417)" opacity="0.2">
              <g id="Grupo_1102256" data-name="Grupo 1102256">
                <g id="Grupo_1102255" data-name="Grupo 1102255" clip-path="url(#clip-path-13)">
                  <path id="Trazado_884116" data-name="Trazado 884116" d="M57.026,91.183l-.019,0-7.959-1.149a.218.218,0,0,1-.168-.248.207.207,0,0,1,.221-.193l7.959,1.149a.218.218,0,0,1,.168.248.208.208,0,0,1-.2.195" transform="translate(-48.879 -89.59)"/>
                </g>
              </g>
            </g>
            <g id="Grupo_1102260" data-name="Grupo 1102260" transform="translate(68.642 163.674)" opacity="0.2">
              <g id="Grupo_1102259" data-name="Grupo 1102259" transform="translate(0)">
                <g id="Grupo_1102258" data-name="Grupo 1102258" clip-path="url(#clip-path-14)">
                  <path id="Trazado_884117" data-name="Trazado 884117" d="M56.712,93.5h0l-7.734-.5a.214.214,0,0,1-.182-.233A.211.211,0,0,1,49,92.564l7.734.5a.214.214,0,0,1,.184.235.208.208,0,0,1-.205.207" transform="translate(-48.792 -92.562)"/>
                </g>
              </g>
            </g>
            <g id="Grupo_1102263" data-name="Grupo 1102263" transform="translate(69.258 168.22)" opacity="0.2">
              <g id="Grupo_1102262" data-name="Grupo 1102262" transform="translate(0)">
                <g id="Grupo_1102261" data-name="Grupo 1102261" clip-path="url(#clip-path-15)">
                  <path id="Trazado_884118" data-name="Trazado 884118" d="M55.507,95.782l-5.757-.205a.223.223,0,0,1,.016-.442l5.757.2a.213.213,0,0,1,.187.23.21.21,0,0,1-.2.214" transform="translate(-49.563 -95.133)"/>
                </g>
              </g>
            </g>
            <path id="Trazado_884119" data-name="Trazado 884119" d="M15.49,87.787S2.769,91.024,1.6,93.524s2.767,2.316,2.767,2.316S.048,96.311,0,98.171c-.058,2.233,4.065,2.019,4.065,2.019s-3.51.529-3.443,2.186c.071,1.72,4.741,1.811,4.741,1.811s-2.4.84-1.7,1.965,10.608,1.51,13.529-.341,2.951-14.583,2.387-17.362.573-4.29-2.911-8.516Z" transform="translate(143.18 61.407)" fill="#eec1bb"/>
            <g id="Grupo_1102266" data-name="Grupo 1102266" transform="translate(147.361 155.858)" opacity="0.2">
              <g id="Grupo_1102265" data-name="Grupo 1102265" transform="translate(0)">
                <g id="Grupo_1102264" data-name="Grupo 1102264" clip-path="url(#clip-path-16)">
                  <path id="Trazado_884120" data-name="Trazado 884120" d="M4.62,89.742l.018,0,7.489-1.181a.205.205,0,0,0,.156-.235.2.2,0,0,0-.21-.179L4.582,89.326a.205.205,0,0,0-.156.235.2.2,0,0,0,.193.18" transform="translate(-4.426 -88.143)"/>
                </g>
              </g>
            </g>
            <g id="Grupo_1102269" data-name="Grupo 1102269" transform="translate(147.274 160.818)" opacity="0.2">
              <g id="Grupo_1102268" data-name="Grupo 1102268" transform="translate(0)">
                <g id="Grupo_1102267" data-name="Grupo 1102267" clip-path="url(#clip-path-17)">
                  <path id="Trazado_884121" data-name="Trazado 884121" d="M4.786,91.928h.005l7.282-.562a.211.211,0,0,0-.028-.417l-7.283.562a.2.2,0,0,0-.17.223.2.2,0,0,0,.195.195" transform="translate(-4.592 -90.948)"/>
                </g>
              </g>
            </g>
            <g id="Grupo_1102272" data-name="Grupo 1102272" transform="translate(148.608 165.112)" opacity="0.2">
              <g id="Grupo_1102271" data-name="Grupo 1102271" transform="translate(0)">
                <g id="Grupo_1102270" data-name="Grupo 1102270" clip-path="url(#clip-path-18)">
                  <path id="Trazado_884122" data-name="Trazado 884122" d="M5.082,94.055l5.423-.262a.21.21,0,0,0-.019-.417l-5.423.262a.21.21,0,0,0,.019.417" transform="translate(-4.886 -93.376)"/>
                </g>
              </g>
            </g>
          </g>
        </g>
      </g>
    </g>
    <g id="Grupo_1102277" data-name="Grupo 1102277" transform="translate(358.641 1738.371)" clip-path="url(#clip-path-19)">
      <path id="Trazado_884123" data-name="Trazado 884123" d="M85.043,79.805,83.13,88.564l-.551,2.522-.07.336-1.094,5-.083.381-.144.666-.068.3-.257,1.173-.3,1.388-2.737,12.5-.212.965L77,116.584l-.214.991-1.275,5.82-.205.936L75,125.746l-.208.958-2.371,10.82-.058.269L72.092,139l-.284,1.307-1.17,5.333-.551,2.522L67.51,159.931c-.257.048-.512.093-.769.138h0c-.289.051-.574.1-.866.147a99.271,99.271,0,0,1-29.217.327c-.337-.041-.673-.086-1.01-.134-1.035-.144-2.077-.3-3.118-.477L30.266,149.6l-.209-.952-.105-.481-.555-2.522-.858-3.928-.205-.933-.1-.471-.554-2.518L26.122,130.7l-.205-.936-1.394-6.374-.23-1.055-1.862-8.486-.224-1.028-2.737-12.494-.3-1.388-.324-1.474-.227-1.047-.273-1.246-.22-1-.6-2.747-.07-.336L16.9,88.564l-1.91-8.759Z" transform="translate(3.788 20.166)" fill="#2cfedf"/>
      <path id="Trazado_884124" data-name="Trazado 884124" d="M36.251,79.805a12.11,12.11,0,0,1-2.435,5.611c-2.609,3.41-6.678,5.244-10.486,6.967-1.909.862-3.8,1.763-5.617,2.788l-.222-1c.279-.16.565-.314.847-.465,4.192-2.224,8.887-3.653,12.6-6.7a12.221,12.221,0,0,0,4.358-7.2Z" transform="translate(4.42 20.166)" fill="#5880eb"/>
      <path id="Trazado_884125" data-name="Trazado 884125" d="M76.371,110.223l-.212.965a18.5,18.5,0,0,1-8.652-7.8c-2.137-3.807-3.435-8.572-7.447-10.9-3.961-2.294-9.012-1.538-12.983.321-4.389,2.058-7.869,5.647-11.415,8.858A50.383,50.383,0,0,1,24.2,109.711c-.968.48-2.064,1.031-3.221,1.535l-.224-1.028c.109-.049.218-.093.327-.138a46.021,46.021,0,0,0,12.694-8.008c5.7-5,11.194-11.161,19.224-11.893a12.228,12.228,0,0,1,8.971,2.468c2.8,2.314,4.093,5.816,5.688,8.963a18.97,18.97,0,0,0,8.716,8.615" transform="translate(5.244 22.772)" fill="#5880eb"/>
      <path id="Trazado_884126" data-name="Trazado 884126" d="M71.612,96.8l-.144.666-.068.3c-.522.009-1.051-.008-1.583-.045A17.792,17.792,0,0,1,53.458,79.805h.965A16.821,16.821,0,0,0,69.817,96.76a15.111,15.111,0,0,0,1.8.039" transform="translate(13.508 20.166)" fill="#5880eb"/>
      <path id="Trazado_884127" data-name="Trazado 884127" d="M70.83,116.485l-.208.958a13.555,13.555,0,0,0-7.948,2.121c-4.842,3.138-7.239,8.64-7.762,14.213-.407,4.339-1.016,9.194-6.114,10.146-2.662.5-5.405,0-8.05.68A13.1,13.1,0,0,0,34,148.939a11.6,11.6,0,0,0-1.506,2.343q-.505-.062-1.01-.135a12.142,12.142,0,0,1,1.189-2.051,14.147,14.147,0,0,1,6.061-4.819c2.861-1.189,5.722-.878,8.735-1.141,3.776-.331,5.612-2.717,6.163-6.287.451-2.93.451-5.826,1.429-8.662,1.73-5.025,5.518-9.547,10.728-11.118a14.553,14.553,0,0,1,5.045-.582" transform="translate(7.955 29.428)" fill="#5880eb"/>
      <path id="Trazado_884128" data-name="Trazado 884128" d="M62.385,125.881l-.058.269-.266,1.211c-3.2,2.867-4.868,7.877-5.868,11.719-.773,2.98-.962,6.291.41,9.14.033.07.068.138.1.205-.288.051-.574.1-.866.148a14.252,14.252,0,0,1-.938-8.089,34.1,34.1,0,0,1,3.758-10.223,13.123,13.123,0,0,1,3.724-4.381" transform="translate(13.82 31.809)" fill="#5880eb"/>
      <path id="Trazado_884129" data-name="Trazado 884129" d="M46.787,121.32a7.056,7.056,0,0,0,.644,4.566c.382.744.962,1.372,1.32,2.125.738,1.546.237,2.981-.5,4.423a21.975,21.975,0,0,1-6.478,7.509,23.851,23.851,0,0,1-13.383,4.7l-.208-.952a22.95,22.95,0,0,0,15.049-6.217,20.716,20.716,0,0,0,3.3-3.989,17.622,17.622,0,0,0,1.086-1.939,3.557,3.557,0,0,0-.214-3.9c-1.689-2.653-2.336-5.627-.843-8.562,1.436-2.83,4.214-4.58,6.727-6.349,2.948-2.071,6.553-5.179,5.454-9.265-1.25-4.634-6.861-3.021-9.96-1.631a105.484,105.484,0,0,0-10.444,5.477,116.826,116.826,0,0,0-15.694,11.12l-.23-1.054a117.777,117.777,0,0,1,20.342-13.637c3.278-1.73,6.941-3.947,10.717-4.309,3.105-.3,5.958,1.342,6.345,4.614,1.042,8.769-11.534,9.717-13.033,17.267" transform="translate(5.664 25.119)" fill="#5880eb"/>
      <path id="Trazado_884130" data-name="Trazado 884130" d="M31.667,128.939a16.9,16.9,0,0,1-5.333,2.89l-.205-.932a16.131,16.131,0,0,0,4.125-2.089c2.121-1.5,5.64-4.954,3.151-7.643-1.808-1.952-5.67-1.333-7.932-.8q-.789.188-1.555.448l-.2-.936a17.659,17.659,0,0,1,3.044-.737c2.6-.388,6.5-.549,7.935,2.2,1.522,2.9-.882,5.868-3.025,7.6" transform="translate(5.992 30.052)" fill="#5880eb"/>
      <path id="Trazado_884131" data-name="Trazado 884131" d="M54.292,110.08c.314,1.561,2.355,2.772,3.586,3.554a20.253,20.253,0,0,0,7.963,2.986l-.205.936a21.555,21.555,0,0,1-6.448-2.067c-2.125-1.075-6.947-3.688-5.734-6.777,1.26-3.2,6.112-1.979,8.543-1.273a21.606,21.606,0,0,1,5.333,2.373l-.214.99a20.6,20.6,0,0,0-3.926-1.954c-1.826-.679-9.738-2.94-8.9,1.233" transform="translate(13.459 26.94)" fill="#5880eb"/>
      <path id="Trazado_884132" data-name="Trazado 884132" d="M85.043,80.37c0,1.546-15.681,2.8-35.025,2.8s-35.027-1.253-35.027-2.8,15.682-2.8,35.027-2.8,35.025,1.253,35.025,2.8" transform="translate(3.788 19.602)" fill="#171612"/>
      <path id="Trazado_884133" data-name="Trazado 884133" d="M49.448,83.714A19.64,19.64,0,0,1,54.13,73.64a20.422,20.422,0,0,1,5.184-4.363,1.358,1.358,0,0,0-1.268-2.4A23.222,23.222,0,0,0,46.7,83.714Z" transform="translate(11.801 16.859)" fill="#539380"/>
      <path id="Trazado_884134" data-name="Trazado 884134" d="M44.536,66.524S28.773,36.792,85.324,15.946a3.9,3.9,0,0,1,5.167,4.532C86.925,35.957,75.219,72.147,44.536,66.524" transform="translate(10.744 3.967)" fill="#365f54"/>
      <path id="Trazado_884135" data-name="Trazado 884135" d="M33.512,88.438A55.185,55.185,0,0,1,46.994,60.294a51.109,51.109,0,0,1,11.389-9.737l.029-.018a1.347,1.347,0,0,0,.462-1.855,1.366,1.366,0,0,0-1.869-.467,58.515,58.515,0,0,0-26.24,40.222Z" transform="translate(7.774 12.135)" fill="#365f54"/>
      <path id="Trazado_884136" data-name="Trazado 884136" d="M38.753,85.026h2.716c.153-12.071-7.078-22.472-7.393-22.921a1.358,1.358,0,0,0-2.22,1.565c.073.1,7.048,10.133,6.9,21.356" transform="translate(7.987 15.548)" fill="#365f54"/>
      <path id="Trazado_884137" data-name="Trazado 884137" d="M43.183,88.849l1.079-41.056a1.358,1.358,0,0,0-2.715-.071l-1.08,41.127Z" transform="translate(10.226 11.725)" fill="#539380"/>
      <path id="Trazado_884138" data-name="Trazado 884138" d="M42.532,74.685S10.46,84.879.061,25.512a3.9,3.9,0,0,1,5.383-4.274C20.036,27.515,53.55,45.5,42.532,74.685" transform="translate(0 5.285)" fill="#365f54"/>
      <path id="Trazado_884139" data-name="Trazado 884139" d="M50.6,81.723s28.831,17.359,52.722-37.974a3.906,3.906,0,0,0-4.244-5.408C83.424,41.062,46.652,50.78,50.6,81.723" transform="translate(12.711 9.673)" fill="#539380"/>
      <path id="Trazado_884140" data-name="Trazado 884140" d="M50.223,74.674a5.666,5.666,0,0,1-10.5-.785C32.881,52.052,21.422,5.766,45.148.455c26.621-5.96,17.7,48.1,5.075,74.22" transform="translate(7.799 0)" fill="#539380"/>
      <path id="Trazado_884141" data-name="Trazado 884141" d="M42.1,74.758h-.03a.74.74,0,0,1-.71-.769L43.866,12.1a.741.741,0,0,1,1.481.06L42.84,74.048a.741.741,0,0,1-.739.71" transform="translate(10.451 2.879)" fill="#365f54"/>
      <path id="Trazado_884142" data-name="Trazado 884142" d="M51.32,78.988a.74.74,0,0,1-.47-1.313L85.121,49.63a.741.741,0,0,1,.938,1.146L51.789,78.82a.737.737,0,0,1-.469.168" transform="translate(12.781 12.499)" fill="#365f54"/>
    </g>
    <g id="Grupo_1100667" data-name="Grupo 1100667" transform="translate(418 1870.75)">
      <g transform="matrix(1, 0, 0, 1, -238, -469.75)" filter="url(#Trazado_877329-2)">
        <g id="Trazado_877329-4" data-name="Trazado 877329" transform="translate(238 469.75)" fill="none">
          <path d="M21.5,0A21.5,21.5,0,1,1,0,21.5,21.5,21.5,0,0,1,21.5,0Z" stroke="none"/>
          <path d="M 21.5 6 C 12.95326995849609 6 6 12.95326995849609 6 21.5 C 6 30.04673004150391 12.95326995849609 37 21.5 37 C 30.04673004150391 37 37 30.04673004150391 37 21.5 C 37 12.95326995849609 30.04673004150391 6 21.5 6 M 21.5 0 C 33.37411880493164 0 43 9.625881195068359 43 21.5 C 43 33.37411880493164 33.37411880493164 43 21.5 43 C 9.625881195068359 43 0 33.37411880493164 0 21.5 C 0 9.625881195068359 9.625881195068359 0 21.5 0 Z" stroke="none" fill="#fff"/>
        </g>
      </g>
    </g>
  </g>
</svg>
