<svg xmlns="http://www.w3.org/2000/svg" width="150" height="128" viewBox="0 0 150 128">
  <g id="Grupo_1101737" data-name="Grupo 1101737" transform="translate(-253 -8839)">
    <rect id="Rectángulo_402836" data-name="Rectángulo 402836" width="150" height="128" rx="23" transform="translate(253 8839)" fill="#f7eefe"/>
    <g id="coding_13637482" transform="translate(228.125 8762.283)">
      <g id="Grupo_1101747" data-name="Grupo 1101747" transform="translate(55.982 99.436)">
        <path id="Trazado_877388" data-name="Trazado 877388" d="M8.26,0H40.1a8.26,8.26,0,0,1,8.26,8.26V29.6a8.26,8.26,0,0,1-8.26,8.26H8.26A8.26,8.26,0,0,1,0,29.6V8.26A8.26,8.26,0,0,1,8.26,0Z" transform="translate(40.437 0)" fill="#fff" stroke="#090817" stroke-linecap="round" stroke-width="1"/>
        <path id="Trazado_877332" data-name="Trazado 877332" d="M142.9,252.622l-8.284-19.728a11.881,11.881,0,0,1,5.186.573c3.064,1.083,4.851,3.164,6.58,5.511a95.1,95.1,0,0,0,10.928,12.149l16.373-12.289,5.14,3.74c-3.137,4.444-14.549,19.868-19.757,21.266C154.16,265.163,146.1,256.6,142.9,252.622Z" transform="translate(-114.934 -199.437)" fill="#0b47db"/>
        <path id="Trazado_877333" data-name="Trazado 877333" d="M288.765,235.1a1.452,1.452,0,0,1-.383-1.4,7.947,7.947,0,0,1,1.21-2.794c.916-1.077,2.424-3.61,3.233-3.233s0,2.371,0,2.371a8.789,8.789,0,0,0,2.8-2.668c1.132-1.75,1.724-2.235,2.209-2.073s.269,1.127.269,1.127,1.051-1.289,1.563-.993,0,1.427,0,1.427.97-.781,1.374-.3-.62,2.883-1.158,3.53c0,0,.741-.97,1.252-.647s-.981,3.664-3.3,5.6-4.418,3.233-5.873,2.586A14.058,14.058,0,0,1,288.765,235.1Z" transform="translate(-230.165 -193.769)" fill="#fff" stroke="#090817" stroke-linecap="round" stroke-linejoin="round" stroke-width="1"/>
        <path id="Trazado_877334" data-name="Trazado 877334" d="M218.605,312.339s-1.058-4.5,1.506-6.429" transform="translate(-177.73 -254.219)" fill="none" stroke="#fff" stroke-linecap="round" stroke-linejoin="round" stroke-width="1"/>
        <path id="Trazado_877335" data-name="Trazado 877335" d="M117.287,133.814a36.679,36.679,0,0,0,.365-6.513,8.377,8.377,0,0,0-5.281-7.563,17.811,17.811,0,0,0-4.962-1.232,12.479,12.479,0,0,0-12.473,19.8,15.4,15.4,0,0,0,4.671,4.162l.154,7.558,6.942-.141-.113-5.572a17.552,17.552,0,0,0,2.7-.182c4.162-.6,6.324-3.79,7.4-7.551a1.419,1.419,0,1,0,.6-2.762Z" transform="translate(-83.26 -113.532)" fill="#fff" stroke="#090817" stroke-linecap="round" stroke-linejoin="round" stroke-width="1"/>
        <path id="Trazado_877336" data-name="Trazado 877336" d="M134.367,218.087a10.511,10.511,0,0,0,4.009,1.074" transform="translate(-114.743 -188.383)" fill="none" stroke="#080717" stroke-linecap="round" stroke-linejoin="round" stroke-width="1"/>
        <path id="Trazado_877337" data-name="Trazado 877337" d="M161.418,166.069a5.167,5.167,0,0,0-5.318.277" transform="translate(-131.035 -148.933)" fill="none" stroke="#080717" stroke-linecap="round" stroke-linejoin="round" stroke-width="1"/>
        <g id="Grupo_1101738" data-name="Grupo 1101738" transform="translate(26.524 18.931)">
          <path id="Trazado_877338" data-name="Trazado 877338" d="M164.359,176.086a1.2,1.2,0,0,0-1,.055c-.459.284-.848.893-1.427.423" transform="translate(-161.931 -175.764)" fill="none" stroke="#080717" stroke-linecap="round" stroke-linejoin="round" stroke-width="1"/>
          <circle id="Elipse_11609" data-name="Elipse 11609" cx="1.34" cy="1.34" r="1.34" transform="translate(0.71)" fill="#080717"/>
        </g>
        <ellipse id="Elipse_11610" data-name="Elipse 11610" cx="1.208" cy="1.851" rx="1.208" ry="1.851" transform="matrix(0.068, -0.998, 0.998, 0.068, 22.183, 23.912)" fill="#0b47db"/>
        <g id="Grupo_1101739" data-name="Grupo 1101739" transform="translate(15.174 16.529)">
          <path id="Trazado_877339" data-name="Trazado 877339" d="M116.593,165.461l1.58.883s-1.994.81-.323,2.858" transform="translate(-116.593 -165.461)" fill="none" stroke="#080717" stroke-linecap="round" stroke-linejoin="round" stroke-width="1"/>
          <path id="Trazado_877340" data-name="Trazado 877340" d="M161.144,204.942a2.525,2.525,0,0,0,2.874,1.221" transform="translate(-149.991 -195.058)" fill="none" stroke="#080717" stroke-linecap="round" stroke-linejoin="round" stroke-width="1"/>
          <path id="Trazado_877341" data-name="Trazado 877341" d="M320.856,229.309s-1.21,2.709-2.207,3.355" transform="translate(-268.064 -213.325)" fill="none" stroke="#080717" stroke-linecap="round" stroke-linejoin="round" stroke-width="1"/>
          <path id="Trazado_877342" data-name="Trazado 877342" d="M326.589,231.63s-1.455,2.99-2.344,3.367" transform="translate(-272.259 -215.065)" fill="none" stroke="#080717" stroke-linecap="round" stroke-linejoin="round" stroke-width="1"/>
          <path id="Trazado_877343" data-name="Trazado 877343" d="M330.617,242.713a7.918,7.918,0,0,1-1.691,1.9" transform="translate(-275.768 -223.373)" fill="none" stroke="#080717" stroke-linecap="round" stroke-linejoin="round" stroke-width="1"/>
          <path id="Trazado_877344" data-name="Trazado 877344" d="M312.408,245.081s2.8,1.266,3.287,2.344" transform="translate(-263.386 -225.148)" fill="none" stroke="#080717" stroke-linecap="round" stroke-linejoin="round" stroke-width="1"/>
          <path id="Trazado_877345" data-name="Trazado 877345" d="M306.274,244.328s.943,2.1.646,2.8" transform="translate(-258.787 -224.584)" fill="none" stroke="#080717" stroke-linecap="round" stroke-linejoin="round" stroke-width="1"/>
        </g>
        <circle id="Elipse_11611" data-name="Elipse 11611" cx="1.411" cy="1.411" r="1.411" transform="translate(72.188 1.924)" fill="#080717"/>
        <circle id="Elipse_11612" data-name="Elipse 11612" cx="1.411" cy="1.411" r="1.411" transform="translate(77.831 1.924)" fill="#080717"/>
        <circle id="Elipse_11613" data-name="Elipse 11613" cx="1.411" cy="1.411" r="1.411" transform="translate(83.473 1.924)" fill="#080717"/>
        <path id="Trazado_877346" data-name="Trazado 877346" d="M324.7,315.387H303.82a1.585,1.585,0,0,1-1.584-1.584V300.3a1.584,1.584,0,0,1,1.584-1.584h1.833l.218-4.146a.261.261,0,0,1,.484-.123l2.627,4.269H324.7a1.584,1.584,0,0,1,1.584,1.584v13.5A1.585,1.585,0,0,1,324.7,315.387Z" transform="translate(-240.586 -245.533)" fill="#fff" stroke="#090817" stroke-linecap="round" stroke-linejoin="round" stroke-width="1"/>
        <path id="Trazado_877347" data-name="Trazado 877347" d="M89.474,264.3c-.148-5.247-.067-10.492.3-16.019.968-14.45,2.983-17.443,4.631-18.436,3.816-2.3,9.809-.6,13.062,2.527,4.817,4.628,1.963,10.919,9.18,31.928Z" transform="translate(-81.037 -196.399)" fill="#0b47db"/>
        <path id="Trazado_877348" data-name="Trazado 877348" d="M76.864,390.732a.215.215,0,0,1-.212-.175c-1.985-10.715,2.87-21.39,2.919-21.5a.216.216,0,0,1,.2-.125h26.666a.215.215,0,0,1,.206.152l6.53,21.366a.216.216,0,0,1-.206.279Z" transform="translate(-71.12 -301.466)" fill="#080717"/>
        <path id="Trazado_877349" data-name="Trazado 877349" d="M57.07,261.414c-3.982-5.918,4-21.025,7.3-27.2,2.422-4.544,8-5.206,8.06-5.212l.1-.011.073.07c4.674,4.47-2.526,21.054-3.667,23.591L90.314,253l2.113,7.329c-7.025,1.644-18.458,3.622-25.969,3.622C63.668,263.951,58.623,263.721,57.07,261.414Z" transform="translate(-55.982 -196.557)" fill="#0b47db"/>
        <path id="Trazado_877350" data-name="Trazado 877350" d="M164.005,262.792l24.282.018,5.747-19.343" transform="translate(-136.961 -207.409)" fill="none" stroke="#080717" stroke-linecap="round" stroke-linejoin="round" stroke-width="2"/>
        <path id="Trazado_877351" data-name="Trazado 877351" d="M176.79,323.347a5.055,5.055,0,0,0,5.551.607c2.919-1.477,8.608-4.476,9.364-5.791,1.024-1.78-1.132-1.077-3.987-.916s-4.688.328-6.033-.272.97-1.128.269-1.883-2.958,1.389-8.025,2.257c0,0,.3,3.823,2.862,6Z" transform="translate(-144.401 -260.983)" fill="#fff" stroke="#090817" stroke-linecap="round" stroke-linejoin="round" stroke-width="1"/>
        <path id="Trazado_877352" data-name="Trazado 877352" d="M116.557,224.312h8.917v3.745h-8.917Z" transform="translate(-101.392 -193.049)" fill="#0b47db"/>
        <path id="Trazado_877353" data-name="Trazado 877353" d="M110.086,257.886a11.266,11.266,0,0,1,0,6.969,49.668,49.668,0,0,1-3.608,8.764" transform="translate(-93.836 -218.218)" fill="none" stroke="#fff" stroke-linecap="round" stroke-linejoin="round" stroke-width="1"/>
        <path id="Trazado_877354" data-name="Trazado 877354" d="M70.9,326.7s5.465-4.714,9.413-4.907c0,0,11.575,1.566,16.38,1.172" transform="translate(-67.165 -266.125)" fill="none" stroke="#fff" stroke-linecap="round" stroke-linejoin="round" stroke-width="1"/>
        <path id="Trazado_877355" data-name="Trazado 877355" d="M168.514,252.22l1.891,4.274a5.184,5.184,0,0,1,1.347,5.873l1.024,5.553" transform="translate(-140.342 -213.97)" fill="none" stroke="#fff" stroke-linecap="round" stroke-linejoin="round" stroke-width="1"/>
        <path id="Trazado_877356" data-name="Trazado 877356" d="M156.751,412.466l-3.928,5.267v5.416" transform="translate(-128.578 -334.099)" fill="none" stroke="#fff" stroke-linecap="round" stroke-linejoin="round" stroke-width="1"/>
        <path id="Trazado_877357" data-name="Trazado 877357" d="M78.6,125.456c-2.251-1.354-2.941-3.648-2.189-4.9.635-1.06,2.431-1.6,3.233-1.024s.488,2.136,1.293,2.371a.906.906,0,0,0,.6-.068c.923-.358,1.264-1.593,1.4-2.318.377-2.032,2.1-2.786,5.55-3.433s4.549-3.748,3.972-5.188c0,0,4.713,3.177,4.306,8.475,0,0,2.823-2.8,1.26-6.359a5.774,5.774,0,0,0-5.316-3.395s-6.322-4.472-13.488-3.718-8.136,7.974-8.136,7.974-4.149-1.433-5.711,1.762-2.209,17.2,8.136,14.887c0,0,2.4,3.773,5.212,3.368s.714-8.056.714-8.056Z" transform="translate(-62.35 -104.215)" fill="#080717"/>
        <path id="Trazado_877358" data-name="Trazado 877358" d="M75.346,142.1a3.537,3.537,0,0,0-3.017,3.394" transform="translate(-68.236 -131.419)" fill="none" stroke="#fff" stroke-linecap="round" stroke-linejoin="round" stroke-width="1"/>
        <path id="Trazado_877359" data-name="Trazado 877359" d="M72.072,167.494s-.269,4.2,1.563,5.5" transform="translate(-68.034 -150.456)" fill="none" stroke="#fff" stroke-linecap="round" stroke-linejoin="round" stroke-width="1"/>
        <path id="Trazado_877360" data-name="Trazado 877360" d="M136.116,131.122a7.544,7.544,0,0,1-7.829,2.748" transform="translate(-110.185 -123.189)" fill="none" stroke="#fff" stroke-linecap="round" stroke-linejoin="round" stroke-width="1"/>
        <path id="Trazado_877361" data-name="Trazado 877361" d="M124.747,128.109s-4.508,2.209-8.154.539" transform="translate(-101.419 -120.931)" fill="none" stroke="#fff" stroke-linecap="round" stroke-linejoin="round" stroke-width="1"/>
        <path id="Trazado_877362" data-name="Trazado 877362" d="M184.674,128.109a5.866,5.866,0,0,1,2.64,4.041" transform="translate(-152.456 -120.931)" fill="none" stroke="#fff" stroke-linecap="round" stroke-linejoin="round" stroke-width="1"/>
        <path id="Trazado_877363" data-name="Trazado 877363" d="M101.384,189.446s1.562,5.873,5.388,5.28" transform="translate(-90.018 -166.912)" fill="none" stroke="#fff" stroke-linecap="round" stroke-linejoin="round" stroke-width="1"/>
        <g id="Grupo_1101740" data-name="Grupo 1101740" transform="translate(51.066 12.557)">
          <path id="Trazado_877364" data-name="Trazado 877364" d="M267.709,153.5l-7.75,5.655,7.611,5.865" transform="translate(-259.959 -152.522)" fill="none" stroke="#080717" stroke-linecap="round" stroke-linejoin="round" stroke-width="2"/>
          <path id="Trazado_877365" data-name="Trazado 877365" d="M341.122,153.5l7.751,5.656-7.611,5.865" transform="translate(-320.803 -152.522)" fill="none" stroke="#080717" stroke-linecap="round" stroke-linejoin="round" stroke-width="2"/>
          <path id="Trazado_877366" data-name="Trazado 877366" d="M308.466,149.594l-4.329,14.872" transform="translate(-293.077 -149.594)" fill="none" stroke="#080717" stroke-linecap="round" stroke-linejoin="round" stroke-width="2"/>
        </g>
        <g id="Grupo_1101745" data-name="Grupo 1101745" transform="translate(87.162 19.087)">
          <path id="Trazado_877374" data-name="Trazado 877374" d="M410.947,186.272a3.66,3.66,0,1,1,3.66-3.66A3.66,3.66,0,0,1,410.947,186.272Zm0-5.891a2.231,2.231,0,1,0,2.231,2.231A2.231,2.231,0,0,0,410.947,180.382Z" transform="translate(-406.5 -178.133)" fill="#080717"/>
          <path id="Trazado_877375" data-name="Trazado 877375" d="M419.939,177.619a.657.657,0,0,1-.656-.656v-.628a.656.656,0,0,1,1.313,0v.628A.657.657,0,0,1,419.939,177.619Z" transform="translate(-415.492 -175.678)" fill="#080717"/>
          <path id="Trazado_877376" data-name="Trazado 877376" d="M419.939,205.389a.657.657,0,0,1-.656-.656v-.628a.656.656,0,0,1,1.313,0v.628A.657.657,0,0,1,419.939,205.389Z" transform="translate(-415.492 -196.497)" fill="#080717"/>
          <path id="Trazado_877377" data-name="Trazado 877377" d="M432.572,192.132a.657.657,0,1,1,0-1.313h.628a.657.657,0,1,1,0,1.313Z" transform="translate(-424.962 -187.028)" fill="#080717"/>
          <path id="Trazado_877378" data-name="Trazado 877378" d="M404.8,192.132a.657.657,0,1,1,0-1.313h.628a.657.657,0,1,1,0,1.313Z" transform="translate(-404.142 -187.028)" fill="#080717"/>
          <path id="Trazado_877379" data-name="Trazado 877379" d="M428.875,181.871a.657.657,0,0,1-.464-1.121l.444-.444a.656.656,0,0,1,.928.928l-.444.444a.651.651,0,0,1-.464.192Z" transform="translate(-422.191 -179.003)" fill="#080717"/>
          <path id="Trazado_877380" data-name="Trazado 877380" d="M409.238,201.509a.657.657,0,0,1-.464-1.121l.444-.444a.656.656,0,1,1,.928.928l-.444.444A.651.651,0,0,1,409.238,201.509Z" transform="translate(-407.471 -193.725)" fill="#080717"/>
          <path id="Trazado_877381" data-name="Trazado 877381" d="M429.316,201.509a.652.652,0,0,1-.464-.192l-.444-.444a.656.656,0,1,1,.928-.928l.444.444a.657.657,0,0,1-.464,1.121Z" transform="translate(-422.189 -193.725)" fill="#080717"/>
          <path id="Trazado_877382" data-name="Trazado 877382" d="M409.678,181.871a.653.653,0,0,1-.464-.192l-.444-.444a.656.656,0,1,1,.928-.928l.444.444a.657.657,0,0,1-.464,1.121Z" transform="translate(-407.467 -179.003)" fill="#080717"/>
        </g>
        <g id="Grupo_1101748" data-name="Grupo 1101748" transform="translate(-249.271 -269.041)">
          <g id="Grupo_1101751" data-name="Grupo 1101751" transform="translate(327.431 326.601)">
            <path id="Trazado_877424" data-name="Trazado 877424" d="M366.965,327.213v7.843a.576.576,0,0,0,1.151,0v-7.843A.576.576,0,0,0,366.965,327.213Z" transform="translate(-366.965 -326.658)" fill="#090817"/>
            <path id="Trazado_877425" data-name="Trazado 877425" d="M370.311,328.393a1.6,1.6,0,0,1,.309.278c-.037-.048.06.093.072.115.027.046.052.1.075.145-.054-.115.012.046.023.085s.014.063.023.094c.03.106,0-.051.005.017a1.374,1.374,0,0,1,0,.33c-.006,0,.03-.15,0-.036a1.119,1.119,0,0,1-.171.446c-.023.037-.128.155-.042.065-.043.044-.081.092-.126.136-.02.02-.166.133-.069.065a1.312,1.312,0,0,1-.486.24,5.861,5.861,0,0,1-2.08.13.578.578,0,0,0-.575.575.589.589,0,0,0,.575.575c1.367.092,3.225.048,3.9-1.4a2.258,2.258,0,0,0-1.6-3.184A6.739,6.739,0,0,0,367.74,327a.588.588,0,0,0-.575.575.582.582,0,0,0,.575.575,4.279,4.279,0,0,1,2.571.246Z" transform="translate(-367.119 -326.865)" fill="#090817"/>
          </g>
          <g id="Grupo_1101752" data-name="Grupo 1101752" transform="translate(315.614 326.601)">
            <path id="Trazado_877426" data-name="Trazado 877426" d="M315.614,327.213v7.843a.576.576,0,0,0,1.151,0v-7.843A.576.576,0,0,0,315.614,327.213Z" transform="translate(-315.614 -326.658)" fill="#090817"/>
            <path id="Trazado_877427" data-name="Trazado 877427" d="M318.962,328.393a1.718,1.718,0,0,1,.309.278c-.037-.048.06.093.072.115.027.046.052.1.075.145-.054-.115.012.046.023.085s.014.063.023.094c.03.106,0-.051.006.017a1.371,1.371,0,0,1,0,.33c-.006,0,.03-.15,0-.036a1.123,1.123,0,0,1-.171.446c-.023.037-.128.155-.042.065-.043.044-.081.092-.126.136-.02.02-.166.133-.069.065a1.312,1.312,0,0,1-.486.24,5.86,5.86,0,0,1-2.08.13.578.578,0,0,0-.575.575.589.589,0,0,0,.575.575c1.367.092,3.225.048,3.9-1.4a2.258,2.258,0,0,0-1.6-3.184,6.74,6.74,0,0,0-2.407-.078.588.588,0,0,0-.575.575.582.582,0,0,0,.575.575,4.278,4.278,0,0,1,2.571.246Z" transform="translate(-315.77 -326.865)" fill="#090817"/>
          </g>
          <g id="Grupo_1101753" data-name="Grupo 1101753" transform="translate(321.377 326.585)">
            <path id="Trazado_877428" data-name="Trazado 877428" d="M340.661,327.14V335a.576.576,0,0,0,1.151,0V327.14A.576.576,0,0,0,340.661,327.14Z" transform="translate(-340.66 -326.585)" fill="#090817"/>
            <path id="Trazado_877429" data-name="Trazado 877429" d="M356.214,327.14v7.88a.576.576,0,0,0,1.151,0v-7.88A.576.576,0,0,0,356.214,327.14Z" transform="translate(-352.634 -326.585)" fill="#090817"/>
            <path id="Trazado_877430" data-name="Trazado 877430" d="M344.345,343.206a.575.575,0,0,0,0-1.151h-3.112a.575.575,0,0,0,0,1.151Z" transform="translate(-340.658 -338.495)" fill="#090817"/>
          </g>
        </g>
        <circle id="Elipse_11620" data-name="Elipse 11620" cx="4.5" cy="4.5" r="4.5" transform="translate(80.893 29.119)" fill="#fff"/>
        <g id="Grupo_1101746" data-name="Grupo 1101746" transform="translate(77.973 26.584)">
          <path id="Trazado_877383" data-name="Trazado 877383" d="M378.068,222.116a5.658,5.658,0,1,1,5.658-5.658A5.658,5.658,0,0,1,378.068,222.116Zm0-9.309a3.651,3.651,0,1,0,3.651,3.651A3.651,3.651,0,0,0,378.068,212.807Z" transform="translate(-371.166 -209.504)" fill="#080717"/>
          <rect id="Rectángulo_402911" data-name="Rectángulo 402911" width="1.825" height="2.816" rx="0.912" transform="translate(5.99)" fill="#080717"/>
          <rect id="Rectángulo_402912" data-name="Rectángulo 402912" width="1.825" height="2.816" rx="0.912" transform="translate(5.99 10.988)" fill="#080717"/>
          <rect id="Rectángulo_402913" data-name="Rectángulo 402913" width="2.816" height="1.825" rx="0.912" transform="translate(10.988 5.99)" fill="#080717"/>
          <rect id="Rectángulo_402914" data-name="Rectángulo 402914" width="2.816" height="1.825" rx="0.912" transform="translate(0 5.99)" fill="#080717"/>
          <path id="Trazado_877384" data-name="Trazado 877384" d="M406.133,214.981c-.354,0-.51-.221-.795-.5a.7.7,0,0,1,0-.991l1-1a.7.7,0,0,1,.5-.205c.35,0,.491.2.795.5a.7.7,0,0,1,0,.99l-1,1A.7.7,0,0,1,406.133,214.981Z" transform="translate(-395.697 -210.613)" fill="#080717"/>
          <path id="Trazado_877385" data-name="Trazado 877385" d="M375.1,246.016c-.354,0-.511-.221-.795-.5a.7.7,0,0,1,0-.991l1-1a.7.7,0,0,1,.5-.205c.354,0,.511.221.795.5a.7.7,0,0,1,0,.99l-1,1A.7.7,0,0,1,375.1,246.016Z" transform="translate(-372.431 -233.878)" fill="#080717"/>
          <path id="Trazado_877386" data-name="Trazado 877386" d="M406.833,246.016a.7.7,0,0,1-.5-.205l-1-1a.7.7,0,0,1,0-.991c.275-.275.439-.5.795-.5a.7.7,0,0,1,.5.205l1,1a.7.7,0,0,1,0,.991C407.352,245.787,407.189,246.016,406.833,246.016Z" transform="translate(-395.695 -233.878)" fill="#080717"/>
          <path id="Trazado_877387" data-name="Trazado 877387" d="M375.8,214.982a.7.7,0,0,1-.5-.205l-1-1a.7.7,0,0,1,0-.99c.275-.275.439-.5.795-.5a.7.7,0,0,1,.5.205l1,1a.7.7,0,0,1,0,.991C376.316,214.753,376.152,214.982,375.8,214.982Z" transform="translate(-372.428 -210.613)" fill="#080717"/>
        </g>
      </g>
    </g>
  </g>
</svg>
