<svg xmlns="http://www.w3.org/2000/svg" xmlns:xlink="http://www.w3.org/1999/xlink" width="150" height="128" viewBox="0 0 150 128">
  <defs>
    <clipPath id="clip-path">
      <rect id="Rectángulo_402917" data-name="Rectángulo 402917" width="55.111" height="35.543" rx="6.332"/>
    </clipPath>
  </defs>
  <g id="Grupo_1101736" data-name="Grupo 1101736" transform="translate(-808 -9187)">
    <rect id="Rectángulo_402834" data-name="Rectángulo 402834" width="150" height="128" rx="23" transform="translate(808 9187)" fill="#f7eefe"/>
    <g id="coding_13637461" transform="translate(798.959 9125.567)">
      <path id="Trazado_877431" data-name="Trazado 877431" d="M279.232,301.068H264.185l-3.221-19.7h15Z" transform="translate(-168.123 -152.458)" fill="#080717"/>
      <g id="Grupo_1101755" data-name="Grupo 1101755" transform="translate(68.169 98.101)">
        <rect id="Rectángulo_402915" data-name="Rectángulo 402915" width="61.888" height="41.169" rx="2" transform="translate(0.248 0.248)" fill="#fff"/>
        <path id="Trazado_877432" data-name="Trazado 877432" d="M220.014,198.731H165.225a3.8,3.8,0,0,1-3.8-3.8V160.864a3.8,3.8,0,0,1,3.8-3.8h54.789a3.8,3.8,0,0,1,3.8,3.8v34.069A3.8,3.8,0,0,1,220.014,198.731Zm-54.789-41.169a3.306,3.306,0,0,0-3.3,3.3v34.069a3.306,3.306,0,0,0,3.3,3.3h54.789a3.306,3.306,0,0,0,3.3-3.3V160.864a3.306,3.306,0,0,0-3.3-3.3Z" transform="translate(-161.427 -157.066)" fill="#090817"/>
      </g>
      <g id="Grupo_1101757" data-name="Grupo 1101757" transform="translate(71.805 101.161)" clip-path="url(#clip-path)">
        <g id="Grupo_1101756" data-name="Grupo 1101756" transform="translate(-0.248 -0.248)">
          <rect id="Rectángulo_402916" data-name="Rectángulo 402916" width="55.111" height="35.543" rx="6.332" transform="translate(0.248 0.248)" fill="#fff"/>
          <path id="Trazado_877433" data-name="Trazado 877433" d="M228.888,204.454H176.916a1.819,1.819,0,0,1-1.817-1.817v-32.4a1.819,1.819,0,0,1,1.817-1.817h51.972a1.82,1.82,0,0,1,1.817,1.817v32.4A1.82,1.82,0,0,1,228.888,204.454Zm-51.972-35.543a1.323,1.323,0,0,0-1.322,1.321v32.4a1.323,1.323,0,0,0,1.322,1.321h51.972a1.323,1.323,0,0,0,1.322-1.321v-32.4a1.323,1.323,0,0,0-1.322-1.321Z" transform="translate(-175.099 -168.416)" fill="#090817"/>
        </g>
        <path id="Trazado_877434" data-name="Trazado 877434" d="M162.427,160.031h61.888v7.552H162.427Z" transform="translate(-165.816 -162.357)" fill="#080717"/>
      </g>
      <circle id="Elipse_11615" data-name="Elipse 11615" cx="0.963" cy="0.963" r="0.963" transform="translate(114.309 102.659)" fill="#fff"/>
      <circle id="Elipse_11616" data-name="Elipse 11616" cx="0.963" cy="0.963" r="0.963" transform="translate(118.659 102.659)" fill="#fff"/>
      <circle id="Elipse_11617" data-name="Elipse 11617" cx="0.963" cy="0.963" r="0.963" transform="translate(123.008 102.659)" fill="#fff"/>
      <g id="Grupo_1101758" data-name="Grupo 1101758" transform="translate(74.202 110.025)">
        <rect id="Rectángulo_402918" data-name="Rectángulo 402918" width="20.754" height="22.618" rx="5.505" transform="translate(0.247 0.246)" fill="#fff"/>
        <path id="Trazado_877435" data-name="Trazado 877435" d="M205.4,228.285H187.377a1.614,1.614,0,0,1-1.611-1.611V206.785a1.614,1.614,0,0,1,1.611-1.611H205.4a1.614,1.614,0,0,1,1.611,1.611v19.889A1.614,1.614,0,0,1,205.4,228.285Zm-18.025-22.618a1.118,1.118,0,0,0-1.115,1.115v19.889a1.118,1.118,0,0,0,1.115,1.115H205.4a1.118,1.118,0,0,0,1.115-1.115V206.783a1.118,1.118,0,0,0-1.115-1.115Z" transform="translate(-185.766 -205.174)" fill="#090817"/>
      </g>
      <path id="Trazado_877436" data-name="Trazado 877436" d="M317.645,259.558H295.182a.248.248,0,0,1,0-.5h22.463a.248.248,0,1,1,0,.5Z" transform="translate(-193.673 -135.68)" fill="#080717"/>
      <path id="Trazado_877437" data-name="Trazado 877437" d="M317.645,271.6H295.182a.248.248,0,0,1,0-.5h22.463a.248.248,0,1,1,0,.5Z" transform="translate(-193.673 -144.734)" fill="#080717"/>
      <path id="Trazado_877438" data-name="Trazado 877438" d="M348.472,282.871h-12.3a.248.248,0,1,1,0-.5h12.3a.248.248,0,0,1,0,.5Z" transform="translate(-224.501 -153.214)" fill="#080717"/>
      <rect id="Rectángulo_402919" data-name="Rectángulo 402919" width="8.016" height="2.734" rx="1.367" transform="translate(101.509 110.271)" fill="#080717"/>
      <rect id="Rectángulo_402920" data-name="Rectángulo 402920" width="8.016" height="2.734" rx="1.367" transform="translate(116.235 110.271)" fill="#080717"/>
      <g id="Grupo_1101759" data-name="Grupo 1101759" transform="translate(76.95 145.3)">
        <path id="Trazado_877439" data-name="Trazado 877439" d="M241.524,358.459H199.288c-1.066,0-1.762-1.476-1.291-2.737l2.307-6.175a1.461,1.461,0,0,1,1.291-1.059h42.23c1.066,0,1.762,1.474,1.291,2.735l-2.3,6.175A1.461,1.461,0,0,1,241.524,358.459Z" transform="translate(-197.601 -348.24)" fill="#fff"/>
        <path id="Trazado_877440" data-name="Trazado 877440" d="M240.778,357.955H198.542c-1.284,0-2.039-1.691-1.523-3.071l2.306-6.175a1.713,1.713,0,0,1,1.523-1.22h42.23c1.283,0,2.038,1.69,1.524,3.07l-2.3,6.175A1.711,1.711,0,0,1,240.778,357.955Zm-39.929-9.971a1.229,1.229,0,0,0-1.059.9l-2.307,6.175a2.117,2.117,0,0,0,.2,1.9,1.053,1.053,0,0,0,.855.505h42.237a1.229,1.229,0,0,0,1.059-.9l2.3-6.175a2.117,2.117,0,0,0-.2-1.9,1.053,1.053,0,0,0-.855-.5Z" transform="translate(-196.855 -347.488)" fill="#090817"/>
      </g>
      <g id="Grupo_1101760" data-name="Grupo 1101760" transform="translate(55.382 107.121)">
        <path id="Trazado_877441" data-name="Trazado 877441" d="M137.507,206.689a40.909,40.909,0,0,0-.925-5.372,8.3,8.3,0,0,0-6.388-6.208,21.382,21.382,0,0,0-4.029-.454,13.065,13.065,0,0,0-6.938,25.068q.414.191.858.37v8.8h7.7v-7.583a19.514,19.514,0,0,0,3.4-.529c5.054-1.245,6.5-6.1,6.482-11.169a1.465,1.465,0,1,0-.159-2.92Z" transform="translate(-110.589 -194.209)" fill="#fff"/>
        <path id="Trazado_877442" data-name="Trazado 877442" d="M127.034,228.386h-7.7a.248.248,0,0,1-.248-.248v-8.629c-.239-.1-.478-.2-.714-.312a13.313,13.313,0,0,1,7.064-25.541,21.6,21.6,0,0,1,4.056.459,8.581,8.581,0,0,1,6.58,6.393,41.008,41.008,0,0,1,.907,5.174,1.713,1.713,0,0,1,.184,3.407c-.031,6.246-2.335,10.111-6.671,11.179a19.925,19.925,0,0,1-3.213.521v7.352A.248.248,0,0,1,127.034,228.386Zm-7.449-.5h7.2v-7.335a.248.248,0,0,1,.232-.248,19.358,19.358,0,0,0,3.359-.523c4.2-1.034,6.318-4.71,6.294-10.927a.248.248,0,0,1,.254-.248,1.217,1.217,0,1,0-.139-2.426.248.248,0,0,1-.273-.222,40.887,40.887,0,0,0-.919-5.339,8.084,8.084,0,0,0-6.2-6.023,21.087,21.087,0,0,0-3.982-.449.237.237,0,0,1-.04,0,12.818,12.818,0,0,0-6.807,24.592c.294.135.579.258.861.372a.248.248,0,0,1,.156.23Z" transform="translate(-109.841 -193.458)" fill="#090817"/>
      </g>
      <path id="Trazado_877443" data-name="Trazado 877443" d="M60.361,345.457S66.3,317.59,72.9,313.017s20.183-4.43,24.041,0,.715,32.44.715,32.44Z" transform="translate(-17.244 -173.721)" fill="#080717"/>
      <path id="Trazado_877444" data-name="Trazado 877444" d="M173.695,310.718c2.183-.112,5.128.119,7.366,2,2.6,2.186,2.927,5.537,3.333,7.7.767,4.082,2.894,9.869,9.136,16.72l-6.592,9.27C174.784,340.338,168.544,323.635,173.695,310.718Z" transform="translate(-101.12 -174.514)" fill="#080717"/>
      <path id="Trazado_877445" data-name="Trazado 877445" d="M235.982,375.728c-11.636,8.828-20.133,8.508-21.151,13.148a5.729,5.729,0,0,0,.857,4,6.888,6.888,0,0,0,4.716,2.644c5.463.878,10.5-4.007,13.587-7a36.814,36.814,0,0,0,6.36-8.247Z" transform="translate(-133.353 -223.428)" fill="#080717"/>
      <g id="Grupo_1101761" data-name="Grupo 1101761" transform="translate(101.727 146.865)">
        <path id="Trazado_877446" data-name="Trazado 877446" d="M297.814,360.934a2.135,2.135,0,0,1,.268-1.012c.567-1.036,2.047-3.641,2.85-4.156,1.007-.646,6.016-1.264,6.419-.843s-1.921,1.209-1.921,1.209,3.361-.68,3.677-.2-2.389,1.63-2.389,1.63,2.706-.957,3.195-.451-2.389,1.827-2.389,1.827a6.3,6.3,0,0,1,2.445.113c.692.337-2.33,1.377-2.992,1.685s-1.583,5.284-5.383,4.947A4.813,4.813,0,0,1,297.814,360.934Z" transform="translate(-297.566 -354.54)" fill="#fff"/>
        <path id="Trazado_877447" data-name="Trazado 877447" d="M301.2,365.21a3.552,3.552,0,0,1-.419-.023,5.062,5.062,0,0,1-3.972-5,2.388,2.388,0,0,1,.3-1.13c.745-1.361,2.118-3.722,2.934-4.246,1.009-.647,6.175-1.388,6.732-.806a.4.4,0,0,1,.1.376.912.912,0,0,1-.4.455c.808-.093,2.358-.209,2.122.57a1.474,1.474,0,0,1-.586.618c.917-.12,1.226.08,1.317.174.532.55-.707,1.3-1.376,1.677.528,0,1.622.052,1.6.571-.015.414-.768.781-2.565,1.5-.289.115-.538.215-.672.278-.485.3-1.544,4.985-5.125,4.985Zm-.322-.51c2.6.219,3.785-2.272,4.489-3.763.333-.7.5-1.049.75-1.164a23.861,23.861,0,0,0,2.861-1.287,6.672,6.672,0,0,0-2.178-.041.248.248,0,0,1-.135-.471,6.912,6.912,0,0,0,2.293-1.447,6.118,6.118,0,0,0-2.913.53.248.248,0,1,1-.18-.462,7.647,7.647,0,0,0,2.243-1.287,11.3,11.3,0,0,0-3.385.323.248.248,0,0,1-.129-.478,6.422,6.422,0,0,0,1.754-.83,16.747,16.747,0,0,0-6.038.908,15.283,15.283,0,0,0-2.767,4.067,1.9,1.9,0,0,0-.238.895,4.566,4.566,0,0,0,3.571,4.506Z" transform="translate(-296.813 -353.799)" fill="#090817"/>
      </g>
      <path id="Trazado_877448" data-name="Trazado 877448" d="M115.121,203.772a4.817,4.817,0,0,1-2.144-3.961c.162-2.47,1.346-2.877,2.736-2.647s.511,1.6,2.156,1.5.145-4.7,3.2-6.578,4.477-3.011,3.257-4.962a10.039,10.039,0,0,1,3.925,4.265,3.937,3.937,0,0,0-.351-4.629,4.115,4.115,0,0,0-3.579-1.162c-6.609-4.464-15.228-3.676-20.293,1.45-6.307,6.382-4.721,17.077.357,21.829,3.445,3.225,9.738,4.873,11.719,2.5C117.9,209.225,115.5,204.5,115.121,203.772Z" transform="translate(-46.987 -78.231)" fill="#6556ff"/>
      <path id="Trazado_877449" data-name="Trazado 877449" d="M64.651,310.7a34.847,34.847,0,0,0-12.4,4.187c-5.431,3.358-14.22,19.936-14.791,23.366s8,6.574,8,6.574l14.291-21.7Z" transform="translate(0 -174.518)" fill="#080717"/>
      <path id="Trazado_877450" data-name="Trazado 877450" d="M61.619,376.7a.248.248,0,0,1-.237-.322l6.936-22.42a.248.248,0,1,1,.474.146l-6.936,22.421A.248.248,0,0,1,61.619,376.7Z" transform="translate(-18.003 -206.922)" fill="#fff"/>
      <path id="Trazado_877451" data-name="Trazado 877451" d="M181.076,370.924a.246.246,0,0,1-.165-.064c-8-7.192-10.052-22.936-10.072-23.094a.248.248,0,1,1,.492-.062c.02.156,2.047,15.719,9.911,22.787a.248.248,0,0,1-.166.432Z" transform="translate(-100.335 -202.187)" fill="#fff"/>
      <path id="Trazado_877452" data-name="Trazado 877452" d="M227.873,411.9a.248.248,0,0,1-.239-.315,15.9,15.9,0,0,1,1.2-2.889,9.415,9.415,0,0,1,3.95-4.183.248.248,0,1,1,.209.449c-3.4,1.58-4.865,6.7-4.88,6.756A.248.248,0,0,1,227.873,411.9Z" transform="translate(-143.048 -245.059)" fill="#fff"/>
      <g id="Grupo_1101762" data-name="Grupo 1101762" transform="translate(63.445 117.004)">
        <path id="Trazado_877453" data-name="Trazado 877453" d="M142.37,305.281h9.941v3.4H142.37Z" transform="translate(-142.37 -287.446)" fill="#080717"/>
        <path id="Trazado_877454" data-name="Trazado 877454" d="M316.637,360.4a.248.248,0,0,1-.06-.488l2.764-.692a.248.248,0,0,1,.121.481C316.508,360.444,316.683,360.4,316.637,360.4Z" transform="translate(-273.255 -328.012)" fill="#080717"/>
        <path id="Trazado_877455" data-name="Trazado 877455" d="M322.212,366.311a.248.248,0,0,1-.09-.479l2.9-1.13a.248.248,0,1,1,.18.462C322.059,366.389,322.279,366.311,322.212,366.311Z" transform="translate(-277.448 -332.124)" fill="#080717"/>
        <path id="Trazado_877456" data-name="Trazado 877456" d="M327.787,371.88a.248.248,0,0,1-.092-.478l2.094-.829a.248.248,0,0,1,.182.461A17.817,17.817,0,0,1,327.787,371.88Z" transform="translate(-281.641 -336.54)" fill="#080717"/>
        <circle id="Elipse_11618" data-name="Elipse 11618" cx="1.393" cy="1.393" r="1.393" transform="translate(12.808 2.883)" fill="#080717"/>
        <path id="Trazado_877457" data-name="Trazado 877457" d="M189.292,235.506a.248.248,0,0,1-.22-.36,3.728,3.728,0,0,1,3.365-1.817.248.248,0,1,1,0,.5,3.246,3.246,0,0,0-2.925,1.547A.248.248,0,0,1,189.292,235.506Z" transform="translate(-177.476 -233.329)" fill="#080717"/>
        <path id="Trazado_877458" data-name="Trazado 877458" d="M158.463,250.1a.248.248,0,0,1-.211-.118c-.887-1.443-.488-2.412.489-2.875l-1.333-.62a.248.248,0,0,1,.209-.449l1.9.884a.248.248,0,0,1-.066.471,1.625,1.625,0,0,0-1.115.73,1.758,1.758,0,0,0,.337,1.6.248.248,0,0,1-.21.376Z" transform="translate(-153.572 -242.872)" fill="#080717"/>
        <path id="Trazado_877459" data-name="Trazado 877459" d="M171.025,300.46a7.62,7.62,0,0,1-2.751-.623.248.248,0,1,1,.2-.455,7.177,7.177,0,0,0,2.564.583.248.248,0,0,1-.01.5Z" transform="translate(-161.741 -282.994)" fill="#080717"/>
      </g>
      <ellipse id="Elipse_11619" data-name="Elipse 11619" cx="1.661" cy="1.072" rx="1.661" ry="1.072" transform="translate(74.083 125.005)" fill="#6556ff"/>
      <path id="Trazado_877460" data-name="Trazado 877460" d="M205.623,201.222a.248.248,0,0,1-.228-.151,3.53,3.53,0,0,0-2.013-1.923.248.248,0,1,1,.141-.475,3.966,3.966,0,0,1,2.328,2.2.248.248,0,0,1-.228.345Z" transform="translate(-124.68 -90.252)" fill="#fff"/>
      <path id="Trazado_877461" data-name="Trazado 877461" d="M145.593,213.135a.248.248,0,0,1,.213-.278c6.232-.824,7.51-5.486,7.563-5.685a.248.248,0,1,1,.48.124c-.013.052-1.4,5.183-7.978,6.052A.248.248,0,0,1,145.593,213.135Z" transform="translate(-81.348 -96.512)" fill="#fff"/>
      <path id="Trazado_877462" data-name="Trazado 877462" d="M137.6,218.155a8.459,8.459,0,0,1-1.518-.134.248.248,0,0,1,.088-.488,10.766,10.766,0,0,0,6.634-1.3.248.248,0,1,1,.257.424,11.61,11.61,0,0,1-5.461,1.5Z" transform="translate(-74.047 -103.438)" fill="#fff"/>
      <path id="Trazado_877463" data-name="Trazado 877463" d="M118.575,269.837c-1.682-.461-3.359-1.938-4.984-4.389a24.63,24.63,0,0,1-1.931-3.524.248.248,0,0,1,.457-.194c.028.066,2.839,6.6,6.59,7.628a.248.248,0,1,1-.131.478Z" transform="translate(-55.812 -137.573)" fill="#fff"/>
      <g id="Grupo_1101763" data-name="Grupo 1101763" transform="translate(44.361 82.312)">
        <path id="Trazado_877464" data-name="Trazado 877464" d="M87.65,94.37H67.874a1.5,1.5,0,0,0-1.5,1.5v12.787a1.5,1.5,0,0,0,1.5,1.5H82.762L85.25,114.2a.248.248,0,0,0,.458-.117l.207-3.926h1.735a1.5,1.5,0,0,0,1.5-1.5V95.871A1.5,1.5,0,0,0,87.65,94.37Z" transform="translate(-66.126 -94.122)" fill="#fff"/>
        <path id="Trazado_877465" data-name="Trazado 877465" d="M84.29,113.58l-2.415-3.925H67.126a1.75,1.75,0,0,1-1.748-1.748V95.119a1.75,1.75,0,0,1,1.748-1.748H86.9a1.75,1.75,0,0,1,1.748,1.748v12.787a1.75,1.75,0,0,1-1.748,1.748H85.4l-.194,3.691a.5.5,0,0,1-.918.234ZM67.125,93.867a1.254,1.254,0,0,0-1.253,1.252v12.787a1.254,1.254,0,0,0,1.253,1.253H82.013a.248.248,0,0,1,.211.118l2.488,4.043.206-3.926a.248.248,0,0,1,.248-.235H86.9a1.254,1.254,0,0,0,1.253-1.253V95.119A1.254,1.254,0,0,0,86.9,93.867Z" transform="translate(-65.378 -93.371)" fill="#090817"/>
      </g>
      <g id="Grupo_1101764" data-name="Grupo 1101764" transform="translate(90.174 78.668)">
        <path id="Trazado_877466" data-name="Trazado 877466" d="M272.781,79.668H252.736a1.531,1.531,0,0,0-1.531,1.531V94.644a1.531,1.531,0,0,0,1.53,1.53h7.573l1.331,4.04a.124.124,0,0,0,.237-.006l1.1-4.034h9.8a1.53,1.53,0,0,0,1.53-1.53V81.2a1.531,1.531,0,0,0-1.531-1.531Z" transform="translate(-250.957 -79.42)" fill="#fff"/>
        <path id="Trazado_877467" data-name="Trazado 877467" d="M260.653,99.539l-1.275-3.869h-7.394a1.78,1.78,0,0,1-1.778-1.778V80.446a1.78,1.78,0,0,1,1.778-1.778h20.045a1.78,1.78,0,0,1,1.778,1.778V93.892a1.78,1.78,0,0,1-1.778,1.778h-9.614l-1.05,3.851a.372.372,0,0,1-.712.019Zm-8.669-20.375a1.284,1.284,0,0,0-1.282,1.283V93.892a1.284,1.284,0,0,0,1.282,1.283h7.573a.248.248,0,0,1,.235.17l1.2,3.648.991-3.636a.248.248,0,0,1,.239-.183h9.8a1.284,1.284,0,0,0,1.282-1.283V80.446a1.284,1.284,0,0,0-1.282-1.283Z" transform="translate(-250.206 -78.668)" fill="#090817"/>
      </g>
      <path id="Trazado_877468" data-name="Trazado 877468" d="M269.566,104.363a.37.37,0,0,1-.227-.077l-4.122-3.176a.372.372,0,0,1,.008-.595l4.2-3.063a.372.372,0,0,1,.439.6l-3.8,2.771,3.729,2.874a.372.372,0,0,1-.228.666Z" transform="translate(-171.213 -14.073)" fill="#080717"/>
      <path id="Trazado_877469" data-name="Trazado 877469" d="M309.915,104.363a.372.372,0,0,1-.227-.666l3.729-2.874-3.8-2.771a.372.372,0,1,1,.438-.6l4.2,3.063a.372.372,0,0,1,.008.595l-4.121,3.176A.369.369,0,0,1,309.915,104.363Z" transform="translate(-204.604 -14.074)" fill="#080717"/>
      <path id="Trazado_877470" data-name="Trazado 877470" d="M289.61,104.042a.372.372,0,0,1-.357-.476l2.345-8.054a.372.372,0,1,1,.714.208l-2.345,8.054A.372.372,0,0,1,289.61,104.042Z" transform="translate(-189.389 -12.467)" fill="#080717"/>
      <g id="Grupo_1101765" data-name="Grupo 1101765" transform="translate(49.226 83.584)">
        <path id="Trazado_877471" data-name="Trazado 877471" d="M95.322,114.579a5.557,5.557,0,1,1,5.557-5.557,5.556,5.556,0,0,1-5.557,5.557Zm0-9.378a3.821,3.821,0,1,0,3.822,3.821,3.821,3.821,0,0,0-3.822-3.821Z" transform="translate(-88.586 -102.235)" fill="#080717"/>
        <rect id="Rectángulo_402921" data-name="Rectángulo 402921" width="1.404" height="2.403" rx="0.702" transform="translate(6.034 0)" fill="#080717"/>
        <rect id="Rectángulo_402922" data-name="Rectángulo 402922" width="1.404" height="2.403" rx="0.702" transform="translate(6.034 11.069)" fill="#080717"/>
        <rect id="Rectángulo_402923" data-name="Rectángulo 402923" width="1.404" height="2.403" rx="0.702" transform="translate(0 7.438) rotate(-90)" fill="#080717"/>
        <rect id="Rectángulo_402924" data-name="Rectángulo 402924" width="1.404" height="2.403" rx="0.702" transform="translate(11.069 7.438) rotate(-90)" fill="#080717"/>
        <rect id="Rectángulo_402925" data-name="Rectángulo 402925" width="1.404" height="2.403" rx="0.702" transform="translate(1.472 2.469) rotate(-45)" fill="#080717"/>
        <rect id="Rectángulo_402926" data-name="Rectángulo 402926" width="1.404" height="2.403" rx="0.702" transform="translate(9.296 10.296) rotate(-45)" fill="#080717"/>
        <rect id="Rectángulo_402927" data-name="Rectángulo 402927" width="1.404" height="2.403" rx="0.702" transform="translate(2.468 12.001) rotate(-135)" fill="#080717"/>
        <rect id="Rectángulo_402928" data-name="Rectángulo 402928" width="1.404" height="2.403" rx="0.702" transform="translate(10.297 4.175) rotate(-135)" fill="#080717"/>
      </g>
      <g id="Grupo_1101766" data-name="Grupo 1101766" transform="translate(122.761 107.992)">
        <path id="Trazado_877472" data-name="Trazado 877472" d="M403.948,197.973H384.172a1.5,1.5,0,0,0-1.5,1.5v12.787a1.5,1.5,0,0,0,1.5,1.5h1.735l.207,3.926a.248.248,0,0,0,.458.117l2.488-4.043h14.888a1.5,1.5,0,0,0,1.5-1.5V199.474A1.5,1.5,0,0,0,403.948,197.973Z" transform="translate(-382.423 -197.725)" fill="#fff"/>
        <path id="Trazado_877473" data-name="Trazado 877473" d="M385.114,216.948l-.194-3.691h-1.5a1.75,1.75,0,0,1-1.748-1.748V198.721a1.75,1.75,0,0,1,1.748-1.748H403.2a1.75,1.75,0,0,1,1.748,1.748v12.787a1.75,1.75,0,0,1-1.748,1.748h-14.75l-2.415,3.924a.5.5,0,0,1-.917-.233Zm-1.695-19.479a1.254,1.254,0,0,0-1.253,1.253v12.787a1.254,1.254,0,0,0,1.253,1.253h1.735a.248.248,0,0,1,.248.235l.207,3.926,2.487-4.043a.248.248,0,0,1,.211-.118H403.2a1.254,1.254,0,0,0,1.253-1.253V198.721a1.254,1.254,0,0,0-1.253-1.253Z" transform="translate(-381.671 -196.973)" fill="#090817"/>
      </g>
      <text id="CODE" transform="translate(134.04 119.271)" fill="#080717" font-size="8" font-family="Roboto-Bold, Roboto" font-weight="700"><tspan x="-10.229" y="0">CODE</tspan></text>
    </g>
  </g>
</svg>
