<svg xmlns="http://www.w3.org/2000/svg" xmlns:xlink="http://www.w3.org/1999/xlink" width="132.59" height="132.59" viewBox="0 0 132.59 132.59">
  <defs>
    <filter id="Elipse_11310" x="0" y="0" width="132.59" height="132.59" filterUnits="userSpaceOnUse">
      <feOffset dy="3" input="SourceAlpha"/>
      <feGaussianBlur stdDeviation="5.5" result="blur"/>
      <feFlood flood-color="#fff" flood-opacity="0.82"/>
      <feComposite operator="in" in2="blur"/>
      <feComposite in="SourceGraphic"/>
    </filter>
    <linearGradient id="linear-gradient" x1="1.397" y1="-0.944" x2="0.993" y2="-0.222" gradientUnits="objectBoundingBox">
      <stop offset="0" stop-color="#41873f"/>
      <stop offset="0.33" stop-color="#418b3d"/>
      <stop offset="0.64" stop-color="#409637"/>
      <stop offset="0.93" stop-color="#3fa92d"/>
      <stop offset="1" stop-color="#3fae2a"/>
    </linearGradient>
    <linearGradient id="linear-gradient-2" x1="1.164" y1="-0.569" x2="2.324" y2="-1.304" gradientUnits="objectBoundingBox">
      <stop offset="0.14" stop-color="#41873f"/>
      <stop offset="0.4" stop-color="#54a044"/>
      <stop offset="0.71" stop-color="#66b748"/>
      <stop offset="0.91" stop-color="#6cc04a"/>
    </linearGradient>
    <linearGradient id="linear-gradient-3" x1="-36.761" y1="-682.284" x2="82.829" y2="-682.284" gradientUnits="objectBoundingBox">
      <stop offset="0.09" stop-color="#6cc04a"/>
      <stop offset="0.29" stop-color="#66b748"/>
      <stop offset="0.6" stop-color="#54a044"/>
      <stop offset="0.86" stop-color="#41873f"/>
    </linearGradient>
    <linearGradient id="linear-gradient-4" x1="0.688" y1="-0.621" x2="1.75" y2="-0.621" xlink:href="#linear-gradient-3"/>
    <linearGradient id="linear-gradient-5" x1="-305.54" y1="-340.905" x2="53.241" y2="-340.905" xlink:href="#linear-gradient-3"/>
    <linearGradient id="linear-gradient-6" x1="0.377" y1="-3.541" x2="2.422" y2="-3.541" xlink:href="#linear-gradient-3"/>
    <linearGradient id="linear-gradient-7" x1="2.719" y1="-6.144" x2="1.458" y2="-2.03" xlink:href="#linear-gradient"/>
  </defs>
  <g id="Grupo_1101787" data-name="Grupo 1101787" transform="translate(-576.205 -1992.338)">
    <g id="Grupo_1101720" data-name="Grupo 1101720" transform="translate(271.705 -8062.939)">
      <g id="Grupo_1098796" data-name="Grupo 1098796" transform="translate(321 10068.777)">
        <g transform="matrix(1, 0, 0, 1, -16.5, -13.5)" filter="url(#Elipse_11310)">
          <circle id="Elipse_11310-2" data-name="Elipse 11310" cx="49.795" cy="49.795" r="49.795" transform="translate(16.5 13.5)" fill="#fff"/>
        </g>
      </g>
    </g>
    <g id="Node_JS" data-name="Node JS" transform="translate(528.772 1938.061)">
      <path id="Trazado_877552" data-name="Trazado 877552" d="M333.6,358.283a1.362,1.362,0,0,1-.758-.208l-2.4-1.418c-.367-.208-.183-.269-.061-.306a5.112,5.112,0,0,0,1.088-.489.17.17,0,0,1,.183.024l1.845,1.088a.234.234,0,0,0,.22,0l7.186-4.155a.232.232,0,0,0,.1-.183v-8.3a.261.261,0,0,0-.1-.208L333.723,340a.233.233,0,0,0-.22,0l-7.186,4.131a.264.264,0,0,0-.122.208v8.286a.174.174,0,0,0,.122.183l1.968,1.149c1.063.538,1.723-.1,1.723-.721v-8.212a.206.206,0,0,1,.208-.208h.9a.2.2,0,0,1,.208.208h0v8.188a2,2,0,0,1-2.126,2.249,3.11,3.11,0,0,1-1.662-.452l-1.882-1.088a1.508,1.508,0,0,1-.758-1.308v-8.3a1.494,1.494,0,0,1,.758-1.308l7.186-4.155a1.525,1.525,0,0,1,1.515,0l7.186,4.155a1.508,1.508,0,0,1,.758,1.308v8.31a1.494,1.494,0,0,1-.758,1.308l-7.186,4.155A1.46,1.46,0,0,1,333.6,358.283Z" transform="translate(-220.326 -209.273)" fill="#699f63"/>
      <path id="Trazado_877553" data-name="Trazado 877553" d="M386.813,395.268c-3.153,0-3.813-1.43-3.813-2.664a.2.2,0,0,1,.208-.208h.917a.233.233,0,0,1,.208.183c.147.941.55,1.43,2.456,1.43,1.515,0,2.175-.342,2.175-1.149,0-.477-.183-.794-2.542-1.039-1.968-.183-3.19-.635-3.19-2.212,0-1.454,1.234-2.31,3.275-2.31,2.31,0,3.434.794,3.581,2.517a.232.232,0,0,1-.061.159.225.225,0,0,1-.147.061h-.941a.209.209,0,0,1-.208-.159c-.22-1-.782-1.308-2.249-1.308-1.662,0-1.845.574-1.845,1,0,.538.22.672,2.456.965s3.251.7,3.251,2.249S389.11,395.268,386.813,395.268Z" transform="translate(-271.326 -251.977)" fill="#699f63"/>
      <path id="Trazado_877554" data-name="Trazado 877554" d="M479.186,371.293a1.393,1.393,0,1,1-1.393-1.393A1.393,1.393,0,0,1,479.186,371.293Zm-2.566,0a1.161,1.161,0,1,0,1.161-1.161h0a1.168,1.168,0,0,0-1.161,1.161Zm.66-.77h.538c.183,0,.538,0,.538.415a.359.359,0,0,1-.281.391c.208.024.22.159.244.367a1.2,1.2,0,0,0,.086.415h-.342c0-.086-.061-.477-.061-.489a.14.14,0,0,0-.159-.122h-.269v.611h-.281v-1.589Zm.281.672h.244a.179.179,0,0,0,.22-.183v-.037c0-.208-.147-.208-.22-.208h-.244Z" transform="translate(-353.312 -236.704)" fill="#699f63"/>
      <path id="Trazado_877555" data-name="Trazado 877555" d="M91.009,195.5a.906.906,0,0,0-.477-.794l-7.614-4.387a.719.719,0,0,0-.415-.122h-.1a.816.816,0,0,0-.428.122l-7.6,4.375a.947.947,0,0,0-.477.794l.024,11.817a.467.467,0,0,0,.22.391.43.43,0,0,0,.452,0l4.546-2.579a1,1,0,0,0,.477-.794V198.8a.934.934,0,0,1,.452-.794l1.919-1.1a.924.924,0,0,1,.477-.122.811.811,0,0,1,.452.122l1.919,1.1a.923.923,0,0,1,.452.794v5.524a.906.906,0,0,0,.477.794l4.522,2.6a.475.475,0,0,0,.477,0,.427.427,0,0,0,.22-.391Z" transform="translate(0 -78.964)" fill="#333" fill-rule="evenodd"/>
      <path id="Trazado_877556" data-name="Trazado 877556" d="M427.023,100.3a.476.476,0,0,0-.635.183.457.457,0,0,0-.061.22v11.707a.323.323,0,0,1-.159.281.32.32,0,0,1-.33,0l-1.906-1.1a.941.941,0,0,0-.917,0l-7.638,4.4a.947.947,0,0,0-.477.794v8.8a.906.906,0,0,0,.477.794l7.638,4.4a.941.941,0,0,0,.917,0l7.638-4.4a1,1,0,0,0,.477-.794V103.634a.906.906,0,0,0-.477-.794Zm-.721,22.4a.227.227,0,0,1-.122.208l-2.615,1.515a.232.232,0,0,1-.22,0l-2.615-1.515a.264.264,0,0,1-.122-.208v-3.031a.227.227,0,0,1,.122-.208l2.615-1.515a.234.234,0,0,1,.22,0l2.615,1.515a.264.264,0,0,1,.122.208Z" transform="translate(-299.327)" fill="#333" fill-rule="evenodd"/>
      <path id="Trazado_877557" data-name="Trazado 877557" d="M602.884,199.359a.923.923,0,0,0,.452-.794v-2.126a.934.934,0,0,0-.452-.794l-7.577-4.4a.941.941,0,0,0-.917,0l-7.614,4.4a.947.947,0,0,0-.477.794v8.8a.906.906,0,0,0,.477.794l7.577,4.326a.918.918,0,0,0,.9,0l4.583-2.542a.476.476,0,0,0,.183-.635.337.337,0,0,0-.183-.183l-7.675-4.4a.44.44,0,0,1-.22-.415v-2.75a.467.467,0,0,1,.22-.391l2.4-1.369a.431.431,0,0,1,.452,0l2.4,1.369a.427.427,0,0,1,.22.391v2.175a.5.5,0,0,0,.452.477.422.422,0,0,0,.22-.061Z" transform="translate(-449.781 -79.776)" fill="#333" fill-rule="evenodd"/>
      <path id="Trazado_877558" data-name="Trazado 877558" d="M644.315,255a.167.167,0,0,1,.183,0l1.479.843a.166.166,0,0,1,.085.159v1.674a.169.169,0,0,1-.085.147l-1.454.843a.167.167,0,0,1-.183,0l-1.454-.843a.159.159,0,0,1-.086-.147V256a.209.209,0,0,1,.086-.159Z" transform="translate(-499.376 -135.823)" fill="#699f63" fill-rule="evenodd"/>
      <path id="Trazado_877559" data-name="Trazado 877559" d="M253.946,191.444a.941.941,0,0,0-.917,0l-7.577,4.387a.923.923,0,0,0-.452.794v8.762a.934.934,0,0,0,.452.794l7.577,4.387a.941.941,0,0,0,.917,0l7.577-4.387a.923.923,0,0,0,.452-.794v-8.762a.934.934,0,0,0-.452-.794Z" transform="translate(-150.19 -79.952)" fill-rule="evenodd" fill="url(#linear-gradient)"/>
      <g id="Grupo_1101772" data-name="Grupo 1101772" transform="translate(94.736 109.904)">
        <g id="Grupo_1101771" data-name="Grupo 1101771" transform="translate(0)">
          <path id="Trazado_877560" data-name="Trazado 877560" d="M252.59,191.493l-7.6,4.387a.987.987,0,0,0-.489.794v8.762a.775.775,0,0,0,.244.574l8.518-14.6A.925.925,0,0,0,252.59,191.493Z" transform="translate(-244.488 -189.905)" fill="none"/>
          <path id="Trazado_877561" data-name="Trazado 877561" d="M316.6,244.165a.533.533,0,0,0,.208-.086l7.6-4.387a.947.947,0,0,0,.477-.794v-8.762a.834.834,0,0,0-.281-.635Z" transform="translate(-307.777 -223.365)" fill="none"/>
          <path id="Trazado_877562" data-name="Trazado 877562" d="M262.6,195.985l-7.614-4.387a1.021,1.021,0,0,0-.244-.1L246.2,206.116a1.228,1.228,0,0,0,.244.208l7.614,4.387a.922.922,0,0,0,.721.086l8-14.665A.461.461,0,0,0,262.6,195.985Z" transform="translate(-245.98 -190.009)" fill="url(#linear-gradient-2)"/>
          <path id="Trazado_877563" data-name="Trazado 877563" d="M324.271,205.542v-8.762a.906.906,0,0,0-.477-.794l-7.614-4.387a1.094,1.094,0,0,0-.281-.1l8.335,14.249A1.236,1.236,0,0,0,324.271,205.542Z" transform="translate(-307.162 -190.009)" fill="none"/>
          <path id="Trazado_877564" data-name="Trazado 877564" d="M244.889,228.2a.987.987,0,0,0-.489.794v8.762a1,1,0,0,0,.489.794l7.614,4.387a1.022,1.022,0,0,0,.6.122L244.95,228.2Z" transform="translate(-244.4 -222.224)" fill="none"/>
          <path id="Trazado_877565" data-name="Trazado 877565" d="M307.91,179.3l-.11.061h.147Z" transform="translate(-300.052 -179.3)" fill="url(#linear-gradient-3)"/>
          <path id="Trazado_877566" data-name="Trazado 877566" d="M264.97,206.224a.926.926,0,0,0,.452-.574L257.088,191.4a1.021,1.021,0,0,0-.635.1L248.9,195.86l8.163,14.86a1.076,1.076,0,0,0,.33-.122Z" transform="translate(-248.35 -189.909)" fill="url(#linear-gradient-4)"/>
          <path id="Trazado_877567" data-name="Trazado 877567" d="M385.949,311.1l-.049-.1v.122Z" transform="translate(-368.608 -294.905)" fill="url(#linear-gradient-5)"/>
          <path id="Trazado_877568" data-name="Trazado 877568" d="M323.431,308.587l-7.6,4.387a1.075,1.075,0,0,1-.33.122l.147.269,8.432-4.876v-.122l-.208-.367A.865.865,0,0,1,323.431,308.587Z" transform="translate(-306.811 -292.272)" fill="url(#linear-gradient-6)"/>
          <path id="Trazado_877569" data-name="Trazado 877569" d="M323.431,308.587l-7.6,4.387a1.075,1.075,0,0,1-.33.122l.147.269,8.432-4.876v-.122l-.208-.367A.865.865,0,0,1,323.431,308.587Z" transform="translate(-306.811 -292.272)" fill="url(#linear-gradient-7)"/>
        </g>
      </g>
    </g>
  </g>
</svg>
