<svg xmlns="http://www.w3.org/2000/svg" width="85" height="72" viewBox="0 0 85 72">
  <g id="Grupo_1098872" data-name="Grupo 1098872" transform="translate(-234.955 -631.38)">
    <rect id="Rectángulo_400902" data-name="Rectángulo 400902" width="85" height="72" rx="8" transform="translate(234.955 631.38)" fill="#f0c518"/>
    <g id="profesor_6_" data-name="profesor (6)" transform="translate(254.823 642.246)">
      <path id="Trazado_873324" data-name="Trazado 873324" d="M42,59Z" transform="translate(-9.011 -12.659)" fill="#966857"/>
      <path id="Trazado_873331" data-name="Trazado 873331" d="M10.284,51A29.425,29.425,0,0,1,9.5,57.284S4,57.284,4,51a3.142,3.142,0,0,0,6.284,0Z" transform="translate(-0.858 -10.942)" fill="#99edf2"/>
      <path id="Trazado_873334" data-name="Trazado 873334" d="M30.636,56.778H18.069V45L11,53.636a29.425,29.425,0,0,0,.785-6.284l1.571-9.425,1.571-1.571L24.353,34v.785l3.142,3.142L29.065,39.5,26.709,49.709l2.356,1.571v3.927A1.576,1.576,0,0,0,30.636,56.778Z" transform="translate(-2.36 -7.295)" fill="#99edf2"/>
      <path id="Trazado_873336" data-name="Trazado 873336" d="M14.356,26v5.5H12V26Z" transform="translate(-2.575 -5.578)" fill="#99edf2"/>
      <path id="Trazado_873337" data-name="Trazado 873337" d="M6,30h4.713v2.356H6Z" transform="translate(-1.287 -6.437)" fill="#99edf2"/>
      <path id="Trazado_873338" data-name="Trazado 873338" d="M12.284,35.356a2.308,2.308,0,0,0-2.356,2.356H7.571L6,36.142V33H9.927a2.308,2.308,0,0,0,2.356,2.356Z" transform="translate(-1.287 -7.08)" fill="#99edf2"/>
      <path id="Trazado_873339" data-name="Trazado 873339" d="M14.927,33v3.142l-1.571,1.571H11a2.308,2.308,0,0,1,2.356-2.356A2.308,2.308,0,0,1,11,33Z" transform="translate(-2.36 -7.08)" fill="#99edf2"/>
      <path id="Trazado_873340" data-name="Trazado 873340" d="M11.854,39l-1.571,9.425a3.142,3.142,0,0,1-6.284,0L7.142,39Z" transform="translate(-0.858 -8.368)" fill="#99edf2"/>
      <path id="Trazado_873341" data-name="Trazado 873341" d="M8.713,50.782A3.142,3.142,0,0,1,5.571,47.64L8.451,39H7.142L4,48.425a3.132,3.132,0,0,0,5.269,2.3,3.17,3.17,0,0,1-.556.056Z" transform="translate(-0.858 -8.368)" fill="#99edf2"/>
      <g id="Grupo_1098908" data-name="Grupo 1098908" transform="translate(14.138 0.785)">
        <path id="Trazado_873319" data-name="Trazado 873319" d="M41.28,9.64v3.747a2.329,2.329,0,0,0-1.571-.6C29.5,12.782,29.5,8.854,29.5,8.854c0,3.927-3.927,3.927-3.927,3.927a2.329,2.329,0,0,0-1.571.6V9.64a8.64,8.64,0,0,1,17.28,0Z" transform="translate(-24 -1)" fill="#99edf2"/>
        <path id="Trazado_873320" data-name="Trazado 873320" d="M32.64,1A8.635,8.635,0,0,0,24,9.64v3.142a8.64,8.64,0,0,1,17.28,0V9.64A8.635,8.635,0,0,0,32.64,1Z" transform="translate(-24 -1)" fill="#7fced3"/>
        <path id="Trazado_873347" data-name="Trazado 873347" d="M40.138,14.927V19.64A7.069,7.069,0,0,1,26,19.64V14.927s3.927,0,3.927-3.927C29.927,11,29.927,14.927,40.138,14.927Z" transform="translate(-24.429 -3.146)" fill="#fff"/>
      </g>
      <g id="Grupo_1098907" data-name="Grupo 1098907">
        <path id="Trazado_873349" data-name="Trazado 873349" d="M32.854,27.28A7.863,7.863,0,0,1,25,19.425V14.713a.785.785,0,0,1,.785-.785,3.024,3.024,0,0,0,3.142-3.142.785.785,0,0,1,1.571,0c0,.006.323,3.142,9.425,3.142a.785.785,0,0,1,.785.785v4.713A7.863,7.863,0,0,1,32.854,27.28ZM26.571,15.431v3.994a6.284,6.284,0,0,0,12.567,0V15.49c-5.328-.108-7.878-1.323-9.1-2.5A4.572,4.572,0,0,1,26.571,15.431Z" transform="translate(-7.72 -2.146)" fill="#4529c7"/>
        <path id="Trazado_873350" data-name="Trazado 873350" d="M44,21.284V19.713a1.571,1.571,0,1,0,0-3.142V15a3.142,3.142,0,0,1,0,6.284Z" transform="translate(-11.797 -3.218)" fill="#4529c7"/>
        <path id="Trazado_873351" data-name="Trazado 873351" d="M25.142,21.284a3.142,3.142,0,0,1,0-6.284v1.571a1.571,1.571,0,0,0,0,3.142Z" transform="translate(-7.077 -3.218)" fill="#4529c7"/>
        <path id="Trazado_873352" data-name="Trazado 873352" d="M41.851,13.353H40.28V9.425a7.854,7.854,0,0,0-15.709,0v3.927H23V9.425a9.425,9.425,0,1,1,18.851,0Z" transform="translate(-7.291)" fill="#4529c7"/>
        <path id="Trazado_873356" data-name="Trazado 873356" d="M34.142,35.5a.785.785,0,0,1-.555-.23L31.23,32.912a.785.785,0,0,1-.23-.555V30h1.571v2.031L34.142,33.6l1.571-1.571V30h1.571v2.356a.785.785,0,0,1-.23.555L34.7,35.268A.785.785,0,0,1,34.142,35.5Z" transform="translate(-9.008 -6.437)" fill="#4529c7"/>
        <path id="Trazado_873357" data-name="Trazado 873357" d="M49.206,54H36.142a3.142,3.142,0,0,1,0-6.284H47.923V43h1.571v5.5a.785.785,0,0,1-.785.785H36.142a1.571,1.571,0,0,0,0,3.142H49.206a3.917,3.917,0,0,0,2.945-1.335,3.957,3.957,0,0,0,.95-3.122c-1.014-7.783-4.156-10.81-4.754-11.321l-11.625-3.1.405-1.517,11.782,3.142a.785.785,0,0,1,.254.119c.174.125,4.278,3.154,5.493,12.474A5.509,5.509,0,0,1,49.206,54Z" transform="translate(-9.437 -6.873)" fill="#4529c7"/>
        <path id="Trazado_873358" data-name="Trazado 873358" d="M44.782,60.138H35.356A2.356,2.356,0,0,1,33,57.782V48.356A2.356,2.356,0,0,1,35.356,46h9.425a.785.785,0,0,1,.785.785V51.5H44V47.571h-8.64a.785.785,0,0,0-.785.785v9.425a.785.785,0,0,0,.785.785H44V56.211h1.571v3.142A.785.785,0,0,1,44.782,60.138Z" transform="translate(-9.437 -9.869)" fill="#4529c7"/>
        <path id="Trazado_873359" data-name="Trazado 873359" d="M37,47h1.571v4.713H37Z" transform="translate(-10.295 -10.084)" fill="#4529c7"/>
        <path id="Trazado_873360" data-name="Trazado 873360" d="M37,59h1.571v3.142H37Z" transform="translate(-10.295 -12.659)" fill="#4529c7"/>
        <path id="Trazado_873361" data-name="Trazado 873361" d="M51.927,62.927H48V61.356h3.142V59h1.571v3.142A.785.785,0,0,1,51.927,62.927Z" transform="translate(-12.655 -12.659)" fill="#4529c7"/>
        <path id="Trazado_873362" data-name="Trazado 873362" d="M6.927,52.138A3.932,3.932,0,0,1,3,48.211a.785.785,0,0,1,.04-.248l3.142-9.425A.785.785,0,0,1,6.927,38H11.64a.785.785,0,0,1,.774.915l-1.56,9.364a3.931,3.931,0,0,1-3.927,3.859ZM4.571,48.329a2.357,2.357,0,1,0,4.713-.119.722.722,0,0,1,.011-.13l1.418-8.51H7.492Z" transform="translate(-3 -8.153)" fill="#4529c7"/>
        <path id="Trazado_873363" data-name="Trazado 873363" d="M13.7,38.053l-1.111-1.111L13.926,35.6v-.46a.785.785,0,0,1-.785.785A1.478,1.478,0,0,0,11.57,37.5H10a2.978,2.978,0,0,1,1-2.352,3.319,3.319,0,0,1-1-2.36A.785.785,0,0,1,10.785,32h3.927a.785.785,0,0,1,.785.785v3.142a.785.785,0,0,1-.23.555Zm-1.95-4.483a1.4,1.4,0,0,0,1.395.785.785.785,0,0,1,.785.785V33.571Z" transform="translate(-4.501 -6.866)" fill="#4529c7"/>
        <path id="Trazado_873364" data-name="Trazado 873364" d="M14.927,31.284H13.356V26.571h-.785v4.713H11v-5.5A.785.785,0,0,1,11.785,25h2.356a.785.785,0,0,1,.785.785Z" transform="translate(-4.716 -5.364)" fill="#4529c7"/>
        <path id="Trazado_873365" data-name="Trazado 873365" d="M9.713,32.927H5.785A.785.785,0,0,1,5,32.142V29.785A.785.785,0,0,1,5.785,29H10.5v1.571H6.571v.785H9.713Z" transform="translate(-3.429 -6.222)" fill="#4529c7"/>
        <path id="Trazado_873366" data-name="Trazado 873366" d="M6.8,38.268,5.23,36.7A.785.785,0,0,1,5,36.142V33H6.571v2.817l1.341,1.341Z" transform="translate(-3.429 -7.08)" fill="#4529c7"/>
        <path id="Trazado_873367" data-name="Trazado 873367" d="M56.1,56.15A3.027,3.027,0,0,0,53,53.57V52a4.57,4.57,0,0,1,4.659,3.956Z" transform="translate(-13.728 -11.156)" fill="#4529c7"/>
        <path id="Trazado_873368" data-name="Trazado 873368" d="M53,50h5.5v1.571H53Z" transform="translate(-13.728 -10.728)" fill="#4529c7"/>
        <path id="Trazado_873369" data-name="Trazado 873369" d="M0,0H12.954V1.571H0Z" transform="translate(10.029 28.293) rotate(-14.064)" fill="#4529c7"/>
        <path id="Trazado_873370" data-name="Trazado 873370" d="M28.92,60.353H16.353a.785.785,0,0,1-.785-.785V49.985L9.892,56.922a.785.785,0,0,1-.608.289C9.221,57.211,3,57.133,3,50.142H4.571c0,4.58,3.257,5.345,4.362,5.473l6.812-8.326a.785.785,0,0,1,1.393.5v11H28.92Z" transform="translate(-3 -10.084)" fill="#4529c7"/>
        <path id="Trazado_873371" data-name="Trazado 873371" d="M11.554,57.474l-1.524-.382A28.893,28.893,0,0,0,10.792,51h1.571a29.97,29.97,0,0,1-.809,6.474Z" transform="translate(-4.508 -10.942)" fill="#4529c7"/>
        <path id="Trazado_873372" data-name="Trazado 873372" d="M35.64,38.713a.785.785,0,0,1-.555-.23l-1.8-1.8-1.8,1.8a.785.785,0,0,1-1.111,0L27.23,35.341a.785.785,0,0,1-.23-.555V34h1.571v.46l2.356,2.356,1.8-1.8a.785.785,0,0,1,1.111,0l1.8,1.8L38,34.46V34h1.571v.785a.785.785,0,0,1-.23.555L36.2,38.483A.785.785,0,0,1,35.64,38.713Z" transform="translate(-8.149 -7.295)" fill="#4529c7"/>
        <path id="Trazado_873373" data-name="Trazado 873373" d="M34.99,41.2H33.419a.785.785,0,0,1-.555-.23L31.293,39.4,32.4,38.293l1.341,1.341h.921l1.341-1.341L37.116,39.4l-1.571,1.571a.785.785,0,0,1-.555.23Z" transform="translate(-9.07 -8.216)" fill="#4529c7"/>
        <path id="Trazado_873374" data-name="Trazado 873374" d="M32.706,53.387l-2.356-1.571a.785.785,0,0,1-.33-.83l2.356-10.211,1.532.353L31.673,50.81l1.9,1.27Z" transform="translate(-8.793 -8.748)" fill="#4529c7"/>
        <path id="Trazado_873375" data-name="Trazado 873375" d="M0,0H1.571V4.836H0Z" transform="translate(25.163 32.397) rotate(-12.939)" fill="#4529c7"/>
        <path id="Trazado_873376" data-name="Trazado 873376" d="M13,17h1.571v4.713H13Z" transform="translate(-5.146 -3.647)" fill="#4529c7"/>
        <path id="Trazado_873377" data-name="Trazado 873377" d="M0,0H4.443V1.571H0Z" transform="translate(9.653 17.509) rotate(-45)" fill="#4529c7"/>
        <path id="Trazado_873378" data-name="Trazado 873378" d="M0,0H1.571V4.443H0Z" transform="translate(3.37 15.478) rotate(-45)" fill="#4529c7"/>
      </g>
    </g>
  </g>
</svg>
