<svg xmlns="http://www.w3.org/2000/svg" xmlns:xlink="http://www.w3.org/1999/xlink" width="505" height="322" viewBox="0 0 505 322">
  <defs>
    <clipPath id="clip-path">
      <rect id="Rectángulo_401970" data-name="Rectángulo 401970" width="505" height="322" transform="translate(1020 524)" fill="#3a1d71" stroke="#707070" stroke-width="1" opacity="0.44"/>
    </clipPath>
    <clipPath id="clip-path-2">
      <rect id="Rectángulo_401121" data-name="Rectángulo 401121" width="106" height="79" transform="translate(0.037 0.4)" fill="#3a1d71" stroke="#707070" stroke-width="1"/>
    </clipPath>
    <clipPath id="clip-path-3">
      <rect id="Rectángulo_388582" data-name="Rectángulo 388582" width="40.418" height="38.698" transform="translate(0 0)" fill="none"/>
    </clipPath>
    <clipPath id="clip-path-4">
      <rect id="Rectángulo_388583" data-name="Rectángulo 388583" width="44.899" height="42.988" fill="none"/>
    </clipPath>
    <clipPath id="clip-path-5">
      <rect id="Rectángulo_388584" data-name="Rectángulo 388584" width="46.904" height="44.908" fill="none"/>
    </clipPath>
    <clipPath id="clip-path-6">
      <rect id="Rectángulo_388585" data-name="Rectángulo 388585" width="40.418" height="38.697" fill="none"/>
    </clipPath>
  </defs>
  <g id="Enmascarar_grupo_1098691" data-name="Enmascarar grupo 1098691" transform="translate(-1020 -524)" clip-path="url(#clip-path)">
    <g id="Grupo_1098903" data-name="Grupo 1098903" transform="translate(1020 555.563)">
      <g id="Grupo_1098902" data-name="Grupo 1098902" transform="translate(0.001)">
        <g id="OBJECTS" transform="translate(0 0)">
          <path id="Trazado_873223" data-name="Trazado 873223" d="M539.629,416.491s-53.1-77.947-21.829-119.975,78.2-49.844,130-91.872,130.883-79.84,186.6-74.955,37.143,62.557,43.986,75.258,39.188,28.04,68.5,56.383S985,357.116,954.7,416.251l-415.072.24Z" transform="translate(-502.676 -129.262)" fill="#bbadff"/>
          <g id="Grupo_1098880" data-name="Grupo 1098880" transform="translate(0 26.346)">
            <path id="Trazado_873224" data-name="Trazado 873224" d="M877.864,312.738H856.856a.313.313,0,0,1-.316-.316v-7.007a.313.313,0,0,1,.316-.316h21.008a.312.312,0,0,1,.316.316v7.007A.312.312,0,0,1,877.864,312.738Zm-20.7-.631h20.377v-6.376H857.159Z" transform="translate(-411.168 -109.45)" fill="#fff"/>
            <path id="Trazado_873225" data-name="Trazado 873225" d="M868.114,303H847.106a.313.313,0,0,1-.316-.316v-7.007a.313.313,0,0,1,.316-.316h21.008a.313.313,0,0,1,.316.316v7.007A.313.313,0,0,1,868.114,303Zm-20.692-.631H867.8v-6.376H847.421Z" transform="translate(-413.727 -112.007)" fill="#fff"/>
            <path id="Trazado_873226" data-name="Trazado 873226" d="M738.894,307.148H717.886a.313.313,0,0,1-.316-.316v-7.007a.313.313,0,0,1,.316-.316h21.008a.313.313,0,0,1,.316.316v7.007A.313.313,0,0,1,738.894,307.148Zm-20.692-.631h20.377v-6.376H718.2Z" transform="translate(-447.648 -110.918)" fill="#fff"/>
            <path id="Trazado_873227" data-name="Trazado 873227" d="M768.184,157.768H747.176a.313.313,0,0,1-.316-.316v-7.007a.313.313,0,0,1,.316-.316h21.008a.312.312,0,0,1,.316.316v7.007A.312.312,0,0,1,768.184,157.768Zm-20.705-.631h20.377v-6.376H747.479Z" transform="translate(-439.959 -150.13)" fill="#fff"/>
            <path id="Trazado_873228" data-name="Trazado 873228" d="M573.324,248.158H552.316a.313.313,0,0,1-.316-.316v-7.007a.313.313,0,0,1,.316-.316h21.008a.312.312,0,0,1,.316.316v7.007A.312.312,0,0,1,573.324,248.158Zm-20.693-.631h20.377v-6.376H552.631Z" transform="translate(-491.11 -126.403)" fill="#fff"/>
            <path id="Trazado_873229" data-name="Trazado 873229" d="M573.324,290.048H552.316a.313.313,0,0,1-.316-.316v-7.007a.313.313,0,0,1,.316-.316h21.008a.312.312,0,0,1,.316.316v7.007A.312.312,0,0,1,573.324,290.048Zm-20.693-.631h20.377v-6.376H552.631Z" transform="translate(-491.11 -115.406)" fill="#fff"/>
            <path id="Trazado_873230" data-name="Trazado 873230" d="M525.094,325.128H504.086a.313.313,0,0,1-.316-.316v-7.007a.313.313,0,0,1,.316-.316h21.008a.313.313,0,0,1,.316.316v7.007A.313.313,0,0,1,525.094,325.128ZM504.4,324.5h20.377v-6.376H504.4Z" transform="translate(-503.77 -106.198)" fill="#fff"/>
          </g>
          <g id="Grupo_1098881" data-name="Grupo 1098881" transform="translate(33.156 160.461)">
            <path id="Trazado_873231" data-name="Trazado 873231" d="M558.113,382.834s-20.352-23.634-23.369-62.039,1.868-63.314,1.868-63.314,23.432,18.079,40.552,62.683c0,0,8.269,20.541,10.984,38.923,0,0,9.8-34.151,36.676-51.258,0,0,9.532,38.115-10.63,74.778l-56.08.24Z" transform="translate(-529.053 -256.066)" fill="#0eb259"/>
            <path id="Trazado_873232" data-name="Trazado 873232" d="M569.2,306.443a.611.611,0,0,0-.227-.492c-15.807-33.406-34.479-49.225-34.744-49.452-.013,0-.025,0-.051-.025a.58.58,0,0,0-.2-.088c-.025,0-.051-.025-.088-.025a1.035,1.035,0,0,0-.278.025h0c-.013,0-.025.025-.038.025a1.148,1.148,0,0,0-.2.139.221.221,0,0,0-.051.063.46.46,0,0,0-.088.215c0,.013-.013.025-.025.038-3.775,23.962-3.851,44.326-1.982,61.269,0,.025-.025.051-.038.088a.613.613,0,0,0,.1.492c4.974,43.872,23,64.539,23.255,64.817a.626.626,0,0,0,.467.215.581.581,0,0,0,.417-.164.637.637,0,0,0,.051-.9c-.253-.278-17.865-20.5-22.877-63.5l23.217,5.138,19.758,58.744a.633.633,0,0,0,.593.429.385.385,0,0,0,.2-.038.625.625,0,0,0,.391-.8l-10.592-31.487,8.244-29.164A227.416,227.416,0,0,1,584.9,359.468a.63.63,0,1,0,1.237-.24,220.829,220.829,0,0,0-16.943-52.8Zm-1.313.151-7.625,26.98-25.061-74.487C540.218,263.847,555,279.312,567.892,306.595Zm-35.426,11.287c-1.768-16.185-1.742-35.527,1.6-58.189l21.286,63.251Zm33.014,31.2L560.986,335.7l7.739-27.358c1.7,3.7,3.358,7.626,4.962,11.741l-8.194,29Z" transform="translate(-530.032 -256.36)" fill="#251c4a"/>
            <path id="Trazado_873233" data-name="Trazado 873233" d="M609.315,354.322a116.884,116.884,0,0,0,3.207-57.254c0-.013-.013-.025-.025-.051a.537.537,0,0,0-.076-.177.265.265,0,0,0-.05-.076.812.812,0,0,0-.164-.126c-.013,0-.025-.025-.05-.038h0a.659.659,0,0,0-.265-.051h-.051a.426.426,0,0,0-.215.063H611.6c-.215.126-12.335,7.335-23.482,23.823a.622.622,0,0,0-.341.518c-1.654,2.474-3.27,5.151-4.823,8.029a.636.636,0,0,0-.278.518,111.8,111.8,0,0,0-12.436,42.988.626.626,0,0,0,.568.682.619.619,0,0,0,.682-.568,111.023,111.023,0,0,1,11.8-41.612l7.512,16.438-10.1,24.871a.628.628,0,0,0,.354.821.513.513,0,0,0,.24.051.63.63,0,0,0,.581-.391l5.934-14.62,19.935-3.03a90.433,90.433,0,0,1-7.247,17.082.637.637,0,0,0,.215.871.612.612,0,0,0,.328.088.657.657,0,0,0,.543-.3,94.554,94.554,0,0,0,7.613-18.129.633.633,0,0,0,.139-.454Zm-25.3-24.694c1.389-2.563,2.815-4.974,4.28-7.2l4.608,10.416a.631.631,0,0,0,.581.379.565.565,0,0,0,.252-.051.624.624,0,0,0,.316-.833l-4.936-11.148a86.106,86.106,0,0,1,21.425-22.346l-19.1,47.028-7.423-16.236Zm4.33,27.207,23.318-57.381a115.913,115.913,0,0,1-3.51,54.376l-19.809,3.017Z" transform="translate(-519.478 -245.81)" fill="#251c4a"/>
            <path id="Trazado_873234" data-name="Trazado 873234" d="M553.557,347.544a2.967,2.967,0,1,1,2.967-2.967A2.972,2.972,0,0,1,553.557,347.544Zm0-5.29a2.336,2.336,0,1,0,2.336,2.336A2.338,2.338,0,0,0,553.557,342.254Z" transform="translate(-524.636 -233.982)" fill="#fff"/>
            <path id="Trazado_873235" data-name="Trazado 873235" d="M598.054,332.268a1.654,1.654,0,1,1,1.641-1.654A1.66,1.66,0,0,1,598.054,332.268Zm0-2.664a1.023,1.023,0,1,0,0,2.045,1.023,1.023,0,0,0,0-2.045Z" transform="translate(-512.61 -237.303)" fill="#fff"/>
            <path id="Trazado_873236" data-name="Trazado 873236" d="M554.275,300.36a2.285,2.285,0,1,1,2.285-2.285A2.285,2.285,0,0,1,554.275,300.36Zm0-3.939a1.654,1.654,0,1,0,1.654,1.654A1.66,1.66,0,0,0,554.275,296.421Z" transform="translate(-524.268 -246.01)" fill="#fff"/>
          </g>
          <g id="Grupo_1098885" data-name="Grupo 1098885" transform="translate(149.695 48.023)">
            <rect id="Rectángulo_401108" data-name="Rectángulo 401108" width="171.7" height="103.083" transform="translate(4.709 3.787)" fill="#fff"/>
            <rect id="Rectángulo_401109" data-name="Rectángulo 401109" width="172.028" height="11.072" transform="translate(4.381 3.787)" fill="#7c60ff"/>
            <path id="Trazado_873318" data-name="Trazado 873318" d="M0,0H51.8V33.721H0Z" transform="translate(24.505 20.756)" fill="#f5c59d"/>
            <rect id="Rectángulo_401111" data-name="Rectángulo 401111" width="52.053" height="33.431" transform="translate(24.253 60.575)" fill="#f5c59d"/>
            <g id="Grupo_1098882" data-name="Grupo 1098882" transform="translate(145.642 3.466)">
              <path id="Trazado_873239" data-name="Trazado 873239" d="M749.255,174.961h-4.28a.312.312,0,0,1-.316-.316v-4.28a.312.312,0,0,1,.316-.316h4.28a.313.313,0,0,1,.316.316v4.28A.313.313,0,0,1,749.255,174.961Zm-3.964-.631h3.649v-3.649h-3.649Z" transform="translate(-735.873 -170.044)" fill="#fff"/>
              <path id="Trazado_873240" data-name="Trazado 873240" d="M754.342,172.5l1.919-1.919a.305.305,0,0,0,0-.442.316.316,0,0,0-.442,0l-1.919,1.919-1.919-1.919a.312.312,0,0,0-.442.442l1.919,1.919-1.919,1.919a.317.317,0,0,0,.454.442l1.919-1.919,1.919,1.919a.586.586,0,0,0,.227.088.31.31,0,0,0,.227-.53l-1.919-1.919Z" transform="translate(-734.092 -170.045)" fill="#fff"/>
              <path id="Trazado_873241" data-name="Trazado 873241" d="M742.409,174.071h-4.393a.316.316,0,0,1,0-.631h4.393a.316.316,0,0,1,0,.631Z" transform="translate(-737.7 -169.154)" fill="#fff"/>
            </g>
            <g id="Grupo_1098884" data-name="Grupo 1098884">
              <path id="Trazado_873242" data-name="Trazado 873242" d="M794.671,167.3h-171.7a.625.625,0,0,0-.631.631V271a.625.625,0,0,0,.631.631h171.7A.625.625,0,0,0,795.3,271V167.931A.625.625,0,0,0,794.671,167.3Zm-.631,1.262v9.81H623.6v-9.81ZM623.6,270.383V179.647H794.04v90.736Z" transform="translate(-622.34 -167.3)" fill="#251c4a"/>
              <path id="Trazado_873248" data-name="Trazado 873248" d="M693.734,218.15H641.681a.625.625,0,0,1-.631-.631V183.671a.625.625,0,0,1,.631-.631h52.053a.625.625,0,0,1,.631.631v33.848A.625.625,0,0,1,693.734,218.15Zm-51.422-1.263H693.1V184.3h-50.79Z" transform="translate(-617.429 -163.168)" fill="#251c4a"/>
              <path id="Trazado_873249" data-name="Trazado 873249" d="M693.734,249.91H641.681a.625.625,0,0,1-.631-.631V215.431a.625.625,0,0,1,.631-.631h52.053a.625.625,0,0,1,.631.631v33.848A.625.625,0,0,1,693.734,249.91Zm-51.422-1.263H693.1V216.063h-50.79Z" transform="translate(-617.429 -154.831)" fill="#251c4a"/>
            </g>
            <g id="Grupo_1098899" data-name="Grupo 1098899" transform="translate(80.79 29.932)">
              <path id="Trazado_873124" data-name="Trazado 873124" d="M646.521,302.8l-5.891,6.239,5.891,4.171" transform="translate(-566.913 -299.419)" fill="none" stroke="#0464f4" stroke-linecap="round" stroke-linejoin="round" stroke-width="1"/>
              <path id="Trazado_873125" data-name="Trazado 873125" d="M642.341,302.8l-5.891,6.239,5.891,4.171" transform="translate(-567.59 -299.419)" fill="none" stroke="#0464f4" stroke-linecap="round" stroke-linejoin="round" stroke-width="1"/>
              <path id="Trazado_873126" data-name="Trazado 873126" d="M627.79,307.956c0,2.684,1.394,4.856,3.125,4.856s3.125-2.173,3.125-4.856-1.394-4.856-3.125-4.856S627.79,305.273,627.79,307.956Z" transform="translate(-568.991 -299.371)" fill="none" stroke="#ff4440" stroke-linecap="round" stroke-linejoin="round" stroke-width="1"/>
              <line id="Línea_568" data-name="Línea 568" y2="9.713" transform="translate(51.514 3.729)" fill="none" stroke="#0464f4" stroke-linecap="round" stroke-linejoin="round" stroke-width="1"/>
              <rect id="Rectángulo_401077" data-name="Rectángulo 401077" width="5.554" height="9.016" transform="translate(41.464 4.078)" fill="#e3dfeb"/>
              <rect id="Rectángulo_401078" data-name="Rectángulo 401078" width="8.319" height="9.016" transform="translate(28.975 4.078)" fill="none" stroke="#ff4440" stroke-linecap="round" stroke-linejoin="round" stroke-width="1"/>
              <rect id="Rectángulo_401079" data-name="Rectángulo 401079" width="9.364" height="9.016" transform="translate(15.788 4.078)" fill="#e3dfeb"/>
              <path id="Trazado_873127" data-name="Trazado 873127" d="M585.877,299.948c-1.185-.348-2.277.941-2.405,2.173a23.111,23.111,0,0,0,.43,3.66c.081,1.232-.453,2.7-1.661,2.951a1.365,1.365,0,0,1,1.592,1,5.016,5.016,0,0,1,0,2.08,5.772,5.772,0,0,0,.651,3.927,2.706,2.706,0,0,0,3.543.964" transform="translate(-576.362 -299.89)" fill="none" stroke="#000" stroke-linecap="round" stroke-linejoin="round" stroke-width="1"/>
              <path id="Trazado_873128" data-name="Trazado 873128" d="M578.783,300.41a21.01,21.01,0,0,0-.058,15.952" transform="translate(-577.181 -299.806)" fill="none" stroke="#000" stroke-linecap="round" stroke-linejoin="round" stroke-width="1"/>
              <path id="Trazado_873129" data-name="Trazado 873129" d="M651.209,299.948c1.185-.348,2.277.941,2.405,2.173a23.125,23.125,0,0,1-.43,3.66c-.081,1.232.453,2.7,1.661,2.951a1.365,1.365,0,0,0-1.592,1,5.016,5.016,0,0,0,0,2.08,5.773,5.773,0,0,1-.651,3.927,2.707,2.707,0,0,1-3.544.964" transform="translate(-565.549 -299.89)" fill="none" stroke="#000" stroke-linecap="round" stroke-linejoin="round" stroke-width="1"/>
            </g>
            <g id="Grupo_1098900" data-name="Grupo 1098900" transform="translate(80.79 65.282)">
              <path id="Trazado_873124-2" data-name="Trazado 873124" d="M646.521,302.8l-5.891,6.239,5.891,4.171" transform="translate(-566.913 -299.419)" fill="none" stroke="#0464f4" stroke-linecap="round" stroke-linejoin="round" stroke-width="1"/>
              <path id="Trazado_873125-2" data-name="Trazado 873125" d="M642.341,302.8l-5.891,6.239,5.891,4.171" transform="translate(-567.59 -299.419)" fill="none" stroke="#0464f4" stroke-linecap="round" stroke-linejoin="round" stroke-width="1"/>
              <path id="Trazado_873126-2" data-name="Trazado 873126" d="M627.79,307.956c0,2.684,1.394,4.856,3.125,4.856s3.125-2.173,3.125-4.856-1.394-4.856-3.125-4.856S627.79,305.273,627.79,307.956Z" transform="translate(-568.991 -299.371)" fill="none" stroke="#ff4440" stroke-linecap="round" stroke-linejoin="round" stroke-width="1"/>
              <line id="Línea_568-2" data-name="Línea 568" y2="9.713" transform="translate(51.514 3.729)" fill="none" stroke="#0464f4" stroke-linecap="round" stroke-linejoin="round" stroke-width="1"/>
              <rect id="Rectángulo_401077-2" data-name="Rectángulo 401077" width="5.554" height="9.016" transform="translate(41.464 4.078)" fill="#e3dfeb"/>
              <rect id="Rectángulo_401078-2" data-name="Rectángulo 401078" width="8.319" height="9.016" transform="translate(28.975 4.078)" fill="none" stroke="#ff4440" stroke-linecap="round" stroke-linejoin="round" stroke-width="1"/>
              <rect id="Rectángulo_401079-2" data-name="Rectángulo 401079" width="9.364" height="9.016" transform="translate(15.788 4.078)" fill="#e3dfeb"/>
              <path id="Trazado_873127-2" data-name="Trazado 873127" d="M585.877,299.948c-1.185-.348-2.277.941-2.405,2.173a23.111,23.111,0,0,0,.43,3.66c.081,1.232-.453,2.7-1.661,2.951a1.365,1.365,0,0,1,1.592,1,5.016,5.016,0,0,1,0,2.08,5.772,5.772,0,0,0,.651,3.927,2.706,2.706,0,0,0,3.543.964" transform="translate(-576.362 -299.89)" fill="none" stroke="#000" stroke-linecap="round" stroke-linejoin="round" stroke-width="1"/>
              <path id="Trazado_873128-2" data-name="Trazado 873128" d="M578.783,300.41a21.01,21.01,0,0,0-.058,15.952" transform="translate(-577.181 -299.806)" fill="none" stroke="#000" stroke-linecap="round" stroke-linejoin="round" stroke-width="1"/>
              <path id="Trazado_873129-2" data-name="Trazado 873129" d="M651.209,299.948c1.185-.348,2.277.941,2.405,2.173a23.125,23.125,0,0,1-.43,3.66c-.081,1.232.453,2.7,1.661,2.951a1.365,1.365,0,0,0-1.592,1,5.016,5.016,0,0,0,0,2.08,5.773,5.773,0,0,1-.651,3.927,2.707,2.707,0,0,1-3.544.964" transform="translate(-565.549 -299.89)" fill="none" stroke="#000" stroke-linecap="round" stroke-linejoin="round" stroke-width="1"/>
            </g>
            <text id="C_" data-name="C++" transform="translate(31.305 85.414)" fill="#12263f" font-size="20" font-family="Montserrat-Bold, Montserrat" font-weight="700"><tspan x="0" y="0" letter-spacing="-0.005em">C</tspan><tspan y="0" letter-spacing="0.005em">+</tspan><tspan y="0">+</tspan></text>
            <text id="_" data-name="&lt;/&gt;" transform="matrix(-1, 0, 0, 1, 70.305, 46.414)" fill="#12263f" font-size="21" font-family="Montserrat-Black, Montserrat" font-weight="800"><tspan x="0" y="0">&lt;/&gt;</tspan></text>
          </g>
          <g id="Grupo_1098886" data-name="Grupo 1098886" transform="translate(66.117 20.412)">
            <rect id="Rectángulo_401112" data-name="Rectángulo 401112" width="113.347" height="92.529" transform="translate(2.462 2.664)" fill="#ffc7ec"/>
            <path id="Trazado_873252" data-name="Trazado 873252" d="M680.942,249.221H567.771a.625.625,0,0,1-.631-.631V156.061a.625.625,0,0,1,.631-.631h113.17a.625.625,0,0,1,.631.631V248.59A.625.625,0,0,1,680.942,249.221ZM568.4,247.959H680.311V156.693H568.4Z" transform="translate(-567.14 -155.43)" fill="#251c4a"/>
            <g id="Enmascarar_grupo_1098648" data-name="Enmascarar grupo 1098648" transform="translate(5.845 8.625)" clip-path="url(#clip-path-2)">
              <g id="Grupo_1098773" data-name="Grupo 1098773" transform="translate(0.514 3.714)">
                <rect id="Rectángulo_401002" data-name="Rectángulo 401002" width="29.492" height="4.324" fill="#3a1d71"/>
                <rect id="Rectángulo_401003" data-name="Rectángulo 401003" width="49.515" height="4.324" transform="translate(34.944)" fill="#3a1d71"/>
                <rect id="Rectángulo_401004" data-name="Rectángulo 401004" width="57.896" height="4.324" transform="translate(90.288)" fill="#3a1d71"/>
                <rect id="Rectángulo_401005" data-name="Rectángulo 401005" width="22.213" height="4.324" transform="translate(154.375)" fill="#3a1d71"/>
                <rect id="Rectángulo_401006" data-name="Rectángulo 401006" width="6.916" height="4.324" transform="translate(80.458 10.65)" fill="#3a1d71"/>
                <rect id="Rectángulo_401007" data-name="Rectángulo 401007" width="3.277" height="4.324" transform="translate(100.481 10.65)" fill="#3a1d71"/>
                <rect id="Rectángulo_401008" data-name="Rectángulo 401008" width="53.155" height="4.324" transform="translate(106.672 10.65)" fill="#3a1d71"/>
                <rect id="Rectángulo_401009" data-name="Rectángulo 401009" width="15.605" height="4.324" transform="translate(166.381 10.65)" fill="#3a1d71"/>
                <rect id="Rectángulo_401010" data-name="Rectángulo 401010" width="6.191" height="4.324" transform="translate(90.288 10.65)" fill="#3a1d71"/>
                <rect id="Rectángulo_401011" data-name="Rectángulo 401011" width="28.404" height="4.324" transform="translate(49.878 10.65)" fill="#3a1d71"/>
                <rect id="Rectángulo_401012" data-name="Rectángulo 401012" width="37.133" height="4.324" transform="translate(9.468 10.65)" fill="#3a1d71"/>
                <rect id="Rectángulo_401013" data-name="Rectángulo 401013" width="6.191" height="4.324" transform="translate(0 10.65)" fill="#3a1d71"/>
                <rect id="Rectángulo_401014" data-name="Rectángulo 401014" width="5.466" height="4.324" transform="translate(0 21.313)" fill="#3a1d71"/>
                <rect id="Rectángulo_401015" data-name="Rectángulo 401015" width="53.517" height="4.324" transform="translate(10.193 21.313)" fill="#3a1d71"/>
                <rect id="Rectángulo_401016" data-name="Rectángulo 401016" width="84.473" height="4.324" transform="translate(69.539 21.313)" fill="#3a1d71"/>
                <rect id="Rectángulo_401017" data-name="Rectángulo 401017" width="25.073" height="4.324" transform="translate(156.926 21.313)" fill="#3a1d71"/>
                <rect id="Rectángulo_401018" data-name="Rectángulo 401018" width="64.812" height="4.324" transform="translate(111.05 31.963)" fill="#3a1d71"/>
                <rect id="Rectángulo_401019" data-name="Rectángulo 401019" width="10.193" height="4.324" transform="translate(0 31.963)" fill="#3a1d71"/>
                <rect id="Rectángulo_401120" data-name="Rectángulo 401120" width="10.193" height="4.324" transform="translate(0 64.788)" fill="#3a1d71"/>
                <rect id="Rectángulo_401020" data-name="Rectángulo 401020" width="50.979" height="4.324" transform="translate(14.558 31.963)" fill="#3a1d71"/>
                <rect id="Rectángulo_401119" data-name="Rectángulo 401119" width="50.979" height="4.324" transform="translate(14.558 64.788)" fill="#3a1d71"/>
                <rect id="Rectángulo_401021" data-name="Rectángulo 401021" width="33.131" height="4.324" transform="translate(68.814 31.963)" fill="#3a1d71"/>
                <rect id="Rectángulo_401118" data-name="Rectángulo 401118" width="33.131" height="4.324" transform="translate(68.814 64.788)" fill="#3a1d71"/>
                <rect id="Rectángulo_401022" data-name="Rectángulo 401022" width="9.831" height="4.324" transform="translate(34.944 42.626)" fill="#3a1d71"/>
                <rect id="Rectángulo_401023" data-name="Rectángulo 401023" width="30.58" height="4.324" transform="translate(0 42.626)" fill="#3a1d71"/>
                <rect id="Rectángulo_401024" data-name="Rectángulo 401024" width="9.105" height="4.324" transform="translate(48.414 42.626)" fill="#3a1d71"/>
                <rect id="Rectángulo_401025" data-name="Rectángulo 401025" width="41.149" height="4.324" transform="translate(61.159 42.626)" fill="#3a1d71"/>
                <rect id="Rectángulo_401026" data-name="Rectángulo 401026" width="18.573" height="4.324" transform="translate(108.136 42.626)" fill="#3a1d71"/>
                <rect id="Rectángulo_401027" data-name="Rectángulo 401027" width="18.936" height="4.324" transform="translate(134.714 42.626)" fill="#3a1d71"/>
                <rect id="Rectángulo_401028" data-name="Rectángulo 401028" width="12.745" height="4.324" transform="translate(163.104 42.626)" fill="#3a1d71"/>
                <rect id="Rectángulo_401029" data-name="Rectángulo 401029" width="20.749" height="4.324" transform="translate(120.626 53.276)" fill="#3a1d71"/>
                <rect id="Rectángulo_401030" data-name="Rectángulo 401030" width="10.918" height="4.324" transform="translate(0 53.276)" fill="#3a1d71"/>
                <rect id="Rectángulo_401031" data-name="Rectángulo 401031" width="52.067" height="4.324" transform="translate(18.56 53.276)" fill="#3a1d71"/>
                <rect id="Rectángulo_401032" data-name="Rectángulo 401032" width="10.556" height="4.324" transform="translate(78.645 53.276)" fill="#3a1d71"/>
                <rect id="Rectángulo_401033" data-name="Rectángulo 401033" width="16.747" height="4.324" transform="translate(94.29 53.276)" fill="#3a1d71"/>
                <rect id="Rectángulo_401034" data-name="Rectángulo 401034" width="25.49" height="4.324" transform="translate(151.461 53.276)" fill="#3a1d71"/>
              </g>
            </g>
          </g>
          <g id="Grupo_1098889" data-name="Grupo 1098889" transform="translate(137.876 107.213)">
            <path id="Trazado_873255" data-name="Trazado 873255" d="M842.964,389.2a43,43,0,0,1-5.744-12.827,70.78,70.78,0,0,1-2.045-17.094h9.507l-24.366-58.037c-2.9-3.434-11.489-8.029-17.018-10.769.114-.139.2-.227.2-.227a26.236,26.236,0,0,0-4.116-1.654c-.619-.29-.972-.454-.972-.454s-.821-.189-2.1-.467c-1.742-.48-3.043-.783-3.043-.783-1.969-1.982-6.035-14.468-6.5-15.945s2.6-11.362,2.6-11.362l3.182-8.673L791,244.1l-7.979-6.83s-9.772-3.788-16.45-4.28a46.05,46.05,0,0,0-13.357.657c-4.078.656-9.279,8.8-9.279,8.8s2.942,12.7,3.409,13.231-.088,5.5,0,7.487,1.995,6,5.391,12.36,10.958,9.027,10.958,9.027l-7.537,2.853v.076c-4.393,1.78-10.58,4.33-10.58,4.33s-8.471,28.835-9.418,33.721-10.138,36.89-10.138,36.89L713.23,370.97l6.035,12.385,1.464-3.825,5.4-3.144c-3.8-.77-4.671-2.916-4.671-2.916,5.694-4.191,14.468-2.374,14.468-2.374l9.974-5.012,16.615,3.3c3.914,4.608,3.043,15.882,3.043,15.882h16.665v4.116l60.764-.164Zm-26.929-30.224,6.641,8.13-7.878.492,1.237-8.623Z" transform="translate(-586.662 -209.299)" fill="#fff"/>
            <path id="Trazado_873256" data-name="Trazado 873256" d="M690.33,368.9V310.85l28.709,58.05Z" transform="translate(-592.674 -188.809)" fill="#7c60ff"/>
            <path id="Trazado_873257" data-name="Trazado 873257" d="M641.922,368.748l-28.432-57.9H710.5V368.9Z" transform="translate(-612.844 -188.809)" fill="#251c4a"/>
            <path id="Trazado_873258" data-name="Trazado 873258" d="M666.8,333.045c1.868,3.3,1.237,7.184-1.4,8.686s-6.312.05-8.181-3.232-1.237-7.184,1.4-8.686S664.927,329.763,666.8,333.045Z" transform="translate(-601.649 -183.986)" fill="#fff"/>
            <path id="Trazado_873259" data-name="Trazado 873259" d="M843.878,378.555a43,43,0,0,1-5.744-12.827,70.78,70.78,0,0,1-2.045-17.094h5.138L816.861,290.6c-4.393-5.214-21.9-13.1-21.9-13.1s-10.5-2.374-16.211-3.611-19.556.391-22.4,1.464-14.254,5.782-14.254,5.782-8.471,28.836-9.418,33.721-10.138,36.89-10.138,36.89l-12.789,8.547,6.035,12.385,1.464-3.825,5.4-3.144c-3.8-.77-4.671-2.916-4.671-2.916,5.694-4.192,14.468-2.374,14.468-2.374l9.974-5.012,16.615,3.3c3.914,4.608,3.043,15.882,3.043,15.882h16.665v4.116l65.132-.164Zm-31.3-30.212,6.641,8.13-7.878.492Z" transform="translate(-587.576 -198.628)" fill="#7c60ff"/>
            <path id="Trazado_873260" data-name="Trazado 873260" d="M746.291,287.414l7.537-2.853s-7.562-2.664-10.958-9.027-5.29-10.378-5.391-12.36.467-6.956,0-7.487-3.409-13.231-3.409-13.231,5.214-8.143,9.279-8.8A46.474,46.474,0,0,1,756.707,233c6.679.492,16.45,4.28,16.45,4.28l7.979,6.83,1.553,6.8-3.182,8.673s-3.081,9.9-2.6,11.362,4.545,13.963,6.5,15.945c0,0,7.1,1.654,10.239,3.358,0,0-6.224,7.423-11.261,11s-15.251,10.4-25.679,9.759-11.59-8.585-11.678-11.779,1.25-11.842,1.25-11.842Z" transform="translate(-581.192 -209.295)" fill="#fff"/>
            <path id="Trazado_873261" data-name="Trazado 873261" d="M714.82,356.409l1.1-4.583,5.4-3.144s-4.8-2.134-4.671-2.916,4.646-1.881,6.35-2.374,6.211-1.1,8.118,0c0,0,8.749-4.886,9.974-5.012s16.615,3.3,16.615,3.3a25.656,25.656,0,0,1,3.043,15.882H715.388l-.568-1.162Z" transform="translate(-586.245 -181.583)" fill="#fff"/>
            <path id="Trazado_873262" data-name="Trazado 873262" d="M726.14,348.937l6.073-33.8,1.452,31.575-5.53,2.777Z" transform="translate(-583.274 -187.682)" fill="#251c4a"/>
            <path id="Trazado_873263" data-name="Trazado 873263" d="M776.65,310.51s3.156,20.187,17.132,35.186l1.237-7.083S779.579,318.173,776.65,310.51Z" transform="translate(-570.015 -188.898)" fill="#251c4a"/>
            <path id="Trazado_873264" data-name="Trazado 873264" d="M760.416,357.169h-.631c.29-10.946-4.507-16.337-4.545-16.4l.467-.429c.2.227,5.012,5.618,4.709,16.817Z" transform="translate(-575.635 -181.067)" fill="#fff"/>
            <path id="Trazado_873265" data-name="Trazado 873265" d="M765.019,357.106h-.631c.278-10.908-4.507-16.274-4.558-16.337l.467-.429c.2.227,5,5.593,4.722,16.753Z" transform="translate(-574.43 -181.067)" fill="#fff"/>
            <path id="Trazado_873266" data-name="Trazado 873266" d="M756.512,301.116c-6.312,0-10.971-1.528-13.888-4.532a10.4,10.4,0,0,1-3-7.121.318.318,0,0,1,.316-.3h.013a.313.313,0,0,1,.3.328,9.872,9.872,0,0,0,2.841,6.666c2.841,2.929,7.5,4.394,13.786,4.33a40.635,40.635,0,0,0,16.463-3.649.313.313,0,1,1,.265.568,41.207,41.207,0,0,1-16.716,3.712h-.379Z" transform="translate(-579.735 -194.502)" fill="#fff"/>
            <path id="Trazado_873267" data-name="Trazado 873267" d="M771.3,294.1a.33.33,0,0,1-.265-.139.322.322,0,0,1,.088-.442,33.4,33.4,0,0,0,5.328-4.255.3.3,0,0,1,.442,0,.305.305,0,0,1,0,.442,32.871,32.871,0,0,1-5.441,4.343.29.29,0,0,1-.177.051Z" transform="translate(-571.504 -194.502)" fill="#fff"/>
            <path id="Trazado_873268" data-name="Trazado 873268" d="M778.371,265.752a3.27,3.27,0,0,0,0,3.257,37.251,37.251,0,0,1,1.73,3.75s4.457-4.558,4.621-7.335-.492-4.558,1.136-6.679,2.449-3.257,1.3-6.186-3.421-2.285-1.3-5.871,2.6-2.285,1.629-5.378-2.449-3.914-2.285-6.843,0-4.393-1.629-6.514-2.929-4.393-6.514-5.871-2.765-2.285-5.214-3.914-2.121-4.886-7.335-3.75-4.229,4.229-7.979,4.722-5.214-1.136-8.143-.328-2.449,1.957-6.022,3.093-6.514-1.3-9.443.328-1.957,2.121-4.558,5.05-5.05,3.421-3.914,6.022,2.285,2.285,3.914,5.871.164,4.393,2.765,7.007c0,0,4.393,4.558,9.608-.656s5.542-5.05,9.443-4.229,4.722,1.629,8.307.821,2.929.328,6.022,1.465,4.722.164,4.558,2.449-1.464,3.421.164,5.707,1.464,2.6,1.464,5.378-1.136,4.078,1.136,4.558,2.929-2.285,3.586-5.542,1.464-5.214,3.586-6.515,5.214,1.3,5.214,3.093a7.917,7.917,0,0,1-.328,5.542,23.148,23.148,0,0,1-5.542,7.5Z" transform="translate(-583.792 -214.183)" fill="#251c4a"/>
            <g id="Grupo_1098887" data-name="Grupo 1098887" transform="translate(0 118.784)">
              <path id="Trazado_873269" data-name="Trazado 873269" d="M739.342,369.676h-97.25a.632.632,0,0,1-.568-.353l-28.469-58.4a.583.583,0,0,1,.038-.606.62.62,0,0,1,.53-.3h97.25a.632.632,0,0,1,.568.354l28.469,58.4a.582.582,0,0,1-.038.606A.62.62,0,0,1,739.342,369.676Zm-96.859-1.263h95.849l-27.851-57.141H614.632Z" transform="translate(-612.976 -307.813)" fill="#251c4a"/>
              <path id="Trazado_873270" data-name="Trazado 873270" d="M804.136,370.133a.625.625,0,0,1-.631-.631v-3.194H742.21a.632.632,0,0,1-.568-.353l-27.5-56.421H617.462l-3.522,2.108a.634.634,0,0,1-.656-1.086l3.661-2.2a.612.612,0,0,1,.328-.088h97.25a.632.632,0,0,1,.568.353l27.5,56.421H804.11a.625.625,0,0,1,.631.631V369.5a.625.625,0,0,1-.631.631Z" transform="translate(-612.979 -308.27)" fill="#251c4a"/>
            </g>
            <path id="Trazado_873271" data-name="Trazado 873271" d="M744.081,255.99s-.24,1.793.328,2.121,2.929-.732,2.929-.732S744.245,257.871,744.081,255.99Z" transform="translate(-578.577 -203.209)" fill="#251c4a"/>
            <path id="Trazado_873272" data-name="Trazado 873272" d="M749.47,249.643c.29,1.111.139,2.108-.341,2.235s-1.1-.669-1.389-1.78-.139-2.108.341-2.235S749.18,248.532,749.47,249.643Z" transform="translate(-577.642 -205.346)" fill="#251c4a"/>
            <path id="Trazado_873273" data-name="Trazado 873273" d="M742.5,251.123c.29,1.111.139,2.108-.341,2.235s-1.1-.669-1.389-1.78-.139-2.108.341-2.235S742.21,250.012,742.5,251.123Z" transform="translate(-579.472 -204.958)" fill="#251c4a"/>
            <g id="Grupo_1098888" data-name="Grupo 1098888" transform="translate(53.79 33.195)">
              <path id="Trazado_873274" data-name="Trazado 873274" d="M826.634,351.321l-24.2-57.911s-.013-.025-.025-.025l-.076-.114a.55.55,0,0,0-.076-.088s-.013-.025-.025-.025c-.543-.417-13.521-10.188-21.021-12.8a53.33,53.33,0,0,0-6.439-1.667.686.686,0,0,0-.227,0,52.711,52.711,0,0,1-5.782-16.387.638.638,0,0,0-.72-.53.631.631,0,0,0-.53.72,51.534,51.534,0,0,0,7.108,18.748.611.611,0,0,0,.53.278.753.753,0,0,0,.354-.1.629.629,0,0,0,.177-.871c-.088-.139-.164-.278-.253-.4a50.745,50.745,0,0,1,5.391,1.427c6.931,2.411,19.165,11.476,20.541,12.511L825.5,351.826a.643.643,0,0,0,.581.391.547.547,0,0,0,.24-.051.642.642,0,0,0,.341-.821Z" transform="translate(-626.206 -234.888)" fill="#251c4a"/>
              <path id="Trazado_873275" data-name="Trazado 873275" d="M777.211,309.463a.894.894,0,0,0,.151.025.619.619,0,0,0,.606-.48A33.371,33.371,0,0,1,793.056,290.1a.63.63,0,0,0-.619-1.1,34.081,34.081,0,0,0-15.693,19.7.629.629,0,0,0,.454.77Z" transform="translate(-623.786 -227.762)" fill="#251c4a"/>
              <path id="Trazado_873276" data-name="Trazado 873276" d="M834.717,368.41c-4.356-2.3-13.281-3.5-14.885-3.7-1.717-1.995-18.054-21.21-24.909-36.082a.627.627,0,0,0-1.136.53c4.33,9.38,12.385,20.465,18.231,27.939,0,.025-.025.051-.038.088-.29,1.957-.656,4.709-1.048,7.764l-51.964,1.679c-7.487-1.452-16.425-3.169-16.753-3.169-.038,0-1.439.707-3.535,1.793-1.035-17.372-1.515-27.788-1.376-30.123.3-5.176,4.974-40.968,5.492-44.895,1.1-.5,4.9-2.222,9.115-3.926-.77,3.093-2.576,12.145,1.225,18.092a11.436,11.436,0,0,0,8.547,5.1,23.889,23.889,0,0,0,3.282.215c15.226,0,29.555-13.812,33.633-19.026a.63.63,0,0,0-1-.77c-4.255,5.441-19.922,20.49-35.741,18.331a10.217,10.217,0,0,1-7.651-4.532c-4.015-6.262-1.161-16.816-.821-17.991,2.487-.985,5.012-1.919,7.158-2.563.038,0,.063-.038.1-.051.391.189.72.341.947.442v6.275a.631.631,0,0,0,1.263,0V283.52c2.184-1.212,14.3-7.992,16.438-9.835,2.462-2.108,2.651-7.247,2.664-7.461a.643.643,0,0,0-.606-.656.669.669,0,0,0-.656.606c-.038,1.326-.53,5.088-2.222,6.54-2.033,1.742-14.279,8.6-16.286,9.709-1.464-.656-8.156-3.787-10.5-6.691-2.613-3.232-6.426-11.135-6.881-13.408a30.176,30.176,0,0,1-.151-6.338v-.152c-.063-.417-1.654-10.214-3.459-14.948a.634.634,0,0,0-.821-.366.625.625,0,0,0-.366.808c1.667,4.406,3.219,13.711,3.371,14.632a29.869,29.869,0,0,0,.177,6.616c.53,2.639,4.52,10.719,7.133,13.951,1.78,2.2,5.631,4.406,8.332,5.782-6.982,2.272-16.968,6.881-17.069,6.931l-.025.013a.577.577,0,0,0-.215.177.1.1,0,0,1-.025.051.852.852,0,0,0-.076.151l-19.645,70.4-12.436,8.421a.619.619,0,0,0-.164.871.636.636,0,0,0,.518.278.619.619,0,0,0,.354-.114l12.625-8.547a.64.64,0,0,0,.252-.354l17.347-62.128c-1.553,12.057-4.179,32.661-4.406,36.587-.139,2.437.328,12.814,1.414,30.83-1.389.72-2.992,1.553-4.671,2.437-5.113-1.363-13.092,1.162-14.809,2.651a1.143,1.143,0,0,0-.492,1.023c.151,1.035,2.045,1.944,3.75,2.55a27.559,27.559,0,0,0-4.495,2.778,35.974,35.974,0,0,0-1.073,4.671.63.63,0,0,0,.505.732h.114a.624.624,0,0,0,.619-.518,41.94,41.94,0,0,1,.922-4.242c.48-.366,2.563-1.553,5.328-3.081h0c2.9-1.6,6.552-3.56,9.9-5.353a.378.378,0,0,0,.1-.051c4.431-2.361,8.32-4.381,9.141-4.76,1.25.2,10.113,1.906,16.211,3.093.72,1.275,4.229,7.992,3.068,15.554a.638.638,0,0,0,.53.72h.1a.625.625,0,0,0,.619-.53,26.709,26.709,0,0,0-2.866-15.718l51.308-1.654a.382.382,0,0,0,.114.038h.076a.575.575,0,0,0,.253-.063l7.752-.253c.568.063,10.251,1.288,14.632,3.586a.586.586,0,0,0,.29.076.63.63,0,0,0,.556-.341.615.615,0,0,0-.265-.846Zm-115.923,3.5c.985-.922,7.348-3.194,12.183-2.651-2.841,1.5-5.782,3.081-8.257,4.444a12.235,12.235,0,0,1-3.926-1.793Zm93.412-6.994c.316-2.437.606-4.671.859-6.451,2.26,2.853,4.1,5.063,5.113,6.262Z" transform="translate(-641.497 -240.476)" fill="#251c4a"/>
              <path id="Trazado_873277" data-name="Trazado 873277" d="M801.36,336.747a.715.715,0,0,0,.227-.038l6.451-2.437a.627.627,0,0,0-.442-1.174l-6.451,2.437a.625.625,0,0,0-.366.808.639.639,0,0,0,.593.4Z" transform="translate(-617.482 -216.174)" fill="#251c4a"/>
              <path id="Trazado_873278" data-name="Trazado 873278" d="M764.95,247.627a.626.626,0,0,0,.808-.366c.442-1.161,1.957-4.267,3.762-4.6a2.682,2.682,0,0,1,2.424,1.212,5.356,5.356,0,0,1,1.187,4.507c-.581,3.964-4.242,8.181-6.666,9.7a.636.636,0,0,0,.328,1.174.531.531,0,0,0,.328-.1c3.017-1.881,6.653-6.464,7.247-10.58a6.585,6.585,0,0,0-1.49-5.517,3.862,3.862,0,0,0-3.6-1.616c-2.879.53-4.646,5.2-4.722,5.4a.626.626,0,0,0,.366.808Z" transform="translate(-626.99 -240.236)" fill="#251c4a"/>
              <path id="Trazado_873279" data-name="Trazado 873279" d="M747.276,264.558a.615.615,0,0,0-.606.644.631.631,0,0,0,.631.619h.013a11.361,11.361,0,0,0,9.077-5.454.634.634,0,0,0-.227-.858.623.623,0,0,0-.858.227c-2.639,4.6-7.966,4.81-8.017,4.81Z" transform="translate(-631.675 -235.503)" fill="#251c4a"/>
              <path id="Trazado_873280" data-name="Trazado 873280" d="M745.681,244.932a.622.622,0,0,0,.48-.227,6.991,6.991,0,0,1,7.461-1.767.627.627,0,0,0,.4-1.187A8.305,8.305,0,0,0,745.2,243.9a.632.632,0,0,0,.48,1.035Z" transform="translate(-632.1 -240.269)" fill="#251c4a"/>
              <path id="Trazado_873281" data-name="Trazado 873281" d="M737.75,246.688a.581.581,0,0,0,.417-.164c1.326-1.187,3.838-1.06,3.863-1.06a.648.648,0,0,0,.669-.593.626.626,0,0,0-.593-.669c-.126,0-3.055-.164-4.772,1.376a.637.637,0,0,0-.05.9.646.646,0,0,0,.467.215Z" transform="translate(-634.181 -239.5)" fill="#251c4a"/>
              <path id="Trazado_873282" data-name="Trazado 873282" d="M663.129,329.12a5.422,5.422,0,0,0-7.487,4.608,8.728,8.728,0,0,0,5.517,8.938,6.452,6.452,0,0,0,2.134.379,5.32,5.32,0,0,0,2.777-.77,5.588,5.588,0,0,0,2.563-4.217,8.728,8.728,0,0,0-5.517-8.938Zm4.255,8.774a4.35,4.35,0,0,1-1.969,3.3,4.4,4.4,0,0,1-3.838.278,7.062,7.062,0,0,1-3.6-3.03,7.14,7.14,0,0,1-1.086-4.57,4.35,4.35,0,0,1,1.969-3.3,3.969,3.969,0,0,1,2.121-.581,5.242,5.242,0,0,1,1.717.3,7.047,7.047,0,0,1,3.6,3.017h0a7.14,7.14,0,0,1,1.086,4.57Z" transform="translate(-655.585 -217.309)" fill="#251c4a"/>
            </g>
          </g>
          <g id="Grupo_1098891" data-name="Grupo 1098891" transform="translate(385.667 179.416)">
            <path id="Trazado_873283" data-name="Trazado 873283" d="M847.276,363.01s7.7-8.711,7.941-30.01H811.8c.24,21.3,7.941,30.01,7.941,30.01Z" transform="translate(-808.579 -255.197)" fill="#fff"/>
            <path id="Trazado_873284" data-name="Trazado 873284" d="M841.19,358.573c14.519.341,21.324-7.663,19.367-16.337s-13.837-6.717-13.837-6.717v4.886c3.6-.732,9.759.631,8.295,6.451s-11.64,6.628-11.64,6.628l-2.184,5.1Z" transform="translate(-800.864 -254.585)" fill="#fff"/>
            <path id="Trazado_873285" data-name="Trazado 873285" d="M848.426,337.5H848.4a.628.628,0,0,0-.631.606,57.56,57.56,0,0,1-1.5,10.1.627.627,0,0,0,.467.758c.051,0,.1.013.151.013a.648.648,0,0,0,.619-.48,59.454,59.454,0,0,0,1.54-10.353.643.643,0,0,0-.606-.656Zm-3.043,16.122a.633.633,0,0,0-.808.379c-.354,1-.745,1.982-1.149,2.929a.629.629,0,0,0,.328.833.566.566,0,0,0,.253.051.631.631,0,0,0,.581-.379c.417-.972.821-1.982,1.174-3.017a.632.632,0,0,0-.379-.808Zm22.372-10.782c-1.78-7.916-11.274-7.537-13.888-7.285.025-.8.051-1.591.063-2.424a.685.685,0,0,0-.177-.454.65.65,0,0,0-.454-.189H809.882a.641.641,0,0,0-.454.189.59.59,0,0,0-.177.454c.24,21.3,7.777,30.06,8.093,30.426a.632.632,0,0,0,.48.215h27.535a.606.606,0,0,0,.467-.215,19.807,19.807,0,0,0,2.336-3.6h.467c7.436,0,13.332-2.222,16.678-6.3a12.419,12.419,0,0,0,2.437-10.82Zm-14.367-1.073h.038c2.2-.454,5.227-.051,6.767,1.553a4.143,4.143,0,0,1,.8,4.116c-1.086,4.292-7.588,5.656-10.087,6.022a61.631,61.631,0,0,0,2.5-11.7Zm-8.333,20.743H818.126c-1.111-1.439-7.247-10.2-7.6-28.747h42.142c-.354,18.559-6.489,27.308-7.6,28.747Zm19.278-9.645c-3.068,3.737-8.572,5.782-15.516,5.808a41.836,41.836,0,0,0,1.616-3.863c1.995-.227,10.378-1.49,11.779-7.057a5.34,5.34,0,0,0-1.111-5.3c-1.856-1.944-5.138-2.374-7.575-1.982.114-1.162.215-2.386.278-3.649,2.02-.253,11.072-.96,12.713,6.287a11.194,11.194,0,0,1-2.184,9.746Z" transform="translate(-809.249 -255.331)" fill="#251c4a"/>
            <g id="Grupo_1098890" data-name="Grupo 1098890" transform="translate(7.789)">
              <path id="Trazado_873286" data-name="Trazado 873286" d="M816.855,320.4a.632.632,0,1,0-1.25-.189,7.847,7.847,0,0,0,2.1,7.083.628.628,0,0,0,.417.151.652.652,0,0,0,.48-.215.639.639,0,0,0-.063-.9,6.664,6.664,0,0,1-1.679-5.934Z" transform="translate(-815.402 -258.695)" fill="#251c4a"/>
              <path id="Trazado_873287" data-name="Trazado 873287" d="M819.309,290c-.164-.581-.366-1.237-.568-1.995a.628.628,0,0,0-1.212.328c.215.77.4,1.439.581,2.02,1,3.421,1.187,4.04-.568,9.065-2.134,6.123-3.017,8.661-.947,12.966,1.868,3.9,2.5,6.994.417,12.145a.628.628,0,0,0,.354.821.739.739,0,0,0,.24.051.617.617,0,0,0,.581-.391c2.235-5.555,1.528-9.04-.454-13.168-1.843-3.838-1.124-5.9,1-12.006,1.881-5.4,1.629-6.249.581-9.835Z" transform="translate(-815.419 -267.129)" fill="#251c4a"/>
              <path id="Trazado_873288" data-name="Trazado 873288" d="M835.768,323.871c2.765-6.174,2.134-9.759,0-14.216-1.843-3.838-1.124-5.9,1.01-12.006.114-.328.227-.644.328-.947a.622.622,0,0,0-.4-.8.632.632,0,0,0-.8.4c-.1.29-.2.606-.316.934-2.134,6.123-3.017,8.661-.947,12.966,2.02,4.2,2.575,7.386,0,13.155-2.929,6.54.972,10.037,1.136,10.188a.628.628,0,0,0,.417.152.652.652,0,0,0,.48-.215.638.638,0,0,0-.063-.9c-.038-.025-3.371-3.017-.821-8.711Z" transform="translate(-810.681 -264.942)" fill="#251c4a"/>
              <path id="Trazado_873289" data-name="Trazado 873289" d="M828.618,293.312c1.1-5.012.126-6.83-1.225-9.342-.151-.29-.316-.593-.48-.909a.627.627,0,0,0-1.111.581c.164.328.328.631.492.922,1.263,2.361,2.1,3.914,1.1,8.471a45.691,45.691,0,0,1-1.641,5.479c-1.237,3.56-2.222,6.376-.417,9.62,2.474,4.444,3.219,7.487.8,12.789a10.53,10.53,0,0,0,1.4,10.933.609.609,0,0,0,.48.215.619.619,0,0,0,.4-.152.635.635,0,0,0,.076-.884,9.294,9.294,0,0,1-1.212-9.6c2.626-5.757,1.78-9.2-.833-13.925-1.528-2.752-.682-5.2.505-8.6a46.644,46.644,0,0,0,1.679-5.618Z" transform="translate(-813.075 -268.395)" fill="#251c4a"/>
              <path id="Trazado_873290" data-name="Trazado 873290" d="M824.944,283.148a.614.614,0,0,0,.177-.025.638.638,0,0,0,.429-.783c-1.149-3.9-.505-7.512,1.78-9.9a.634.634,0,0,0-.922-.871c-2.6,2.727-3.358,6.78-2.071,11.135a.622.622,0,0,0,.606.454Z" transform="translate(-813.239 -271.374)" fill="#251c4a"/>
            </g>
          </g>
          <g id="Grupo_1098892" data-name="Grupo 1098892" transform="translate(361.959 132.409)">
            <path id="Trazado_873292" data-name="Trazado 873292" d="M854.116,234.14h-60.6v37.774l-.126,9,9-9h51.725Z" transform="translate(-789.703 -234.14)" fill="#ffc7ec"/>
            <path id="Trazado_873293" data-name="Trazado 873293" d="M791.1,278.333a.385.385,0,0,1-.2-.038.638.638,0,0,1-.429-.593V236.481a.625.625,0,0,1,.631-.631h59.868a.625.625,0,0,1,.631.631v33.393a.625.625,0,0,1-.631.631H797.515l-5.921,7.575a.641.641,0,0,1-.492.24Zm.631-41.221v38.746l4.987-6.376a.622.622,0,0,1,.492-.24h53.126V237.113H791.733Z" transform="translate(-790.47 -233.691)" fill="#251c4a"/>
            <path id="Trazado_873294" data-name="Trazado 873294" d="M801.213,243.9a1.667,1.667,0,1,1-1.667-1.667A1.665,1.665,0,0,1,801.213,243.9Z" transform="translate(-788.525 -232.016)" fill="#7c60ff"/>
            <path id="Trazado_873295" data-name="Trazado 873295" d="M837.808,244.313h-33.8a.631.631,0,1,1,0-1.262h33.8a.631.631,0,0,1,0,1.262Z" transform="translate(-787.081 -231.801)" fill="#fff"/>
            <circle id="Elipse_11457" data-name="Elipse 11457" cx="1.667" cy="1.667" r="1.667" transform="translate(9.355 17.536)" fill="#7c60ff"/>
            <path id="Trazado_873296" data-name="Trazado 873296" d="M833.819,250.113H804.011a.631.631,0,1,1,0-1.262h29.808a.631.631,0,0,1,0,1.262Z" transform="translate(-787.081 -230.279)" fill="#fff"/>
            <path id="Trazado_873297" data-name="Trazado 873297" d="M801.213,255.507a1.667,1.667,0,1,1-1.667-1.667A1.665,1.665,0,0,1,801.213,255.507Z" transform="translate(-788.525 -228.969)" fill="#7c60ff"/>
            <path id="Trazado_873298" data-name="Trazado 873298" d="M828.279,255.923H804a.631.631,0,1,1,0-1.262h24.278a.631.631,0,0,1,0,1.262Z" transform="translate(-787.084 -228.754)" fill="#fff"/>
            <path id="Trazado_873299" data-name="Trazado 873299" d="M833.268,255.923h-7.007a.631.631,0,0,1,0-1.262h7.007a.631.631,0,1,1,0,1.262Z" transform="translate(-781.24 -228.754)" fill="#fff"/>
          </g>
          <g id="Grupo_1098893" data-name="Grupo 1098893" transform="translate(98.879 158.454)">
            <path id="Trazado_873300" data-name="Trazado 873300" d="M582.721,291.43a.592.592,0,0,1-.442-.189.643.643,0,0,1-.189-.442V255.941a.607.607,0,0,1,.619-.631h0a.625.625,0,0,1,.631.631v34.226l46.624-.013h0a.631.631,0,0,1,0,1.263H582.721Z" transform="translate(-582.09 -254.628)" fill="#251c4a"/>
            <rect id="Rectángulo_401114" data-name="Rectángulo 401114" width="7.335" height="20.402" transform="translate(8.484 10.517)" fill="#7c60ff"/>
            <rect id="Rectángulo_401115" data-name="Rectángulo 401115" width="7.335" height="30.906" transform="translate(20.705)" fill="#f5c59d"/>
            <rect id="Rectángulo_401116" data-name="Rectángulo 401116" width="7.335" height="24.922" transform="translate(32.926 5.984)" fill="#fff"/>
          </g>
          <g id="Grupo_1098895" data-name="Grupo 1098895" transform="translate(19.234 86.05)">
            <path id="Trazado_873301" data-name="Trazado 873301" d="M553.273,221.579a13.181,13.181,0,0,0,.177-2.007,12.969,12.969,0,0,0-.126-1.73l.189.341,6.818-5.53-1.969-3.409-1.969-3.4s-5.34,2.045-8.093,3.106l.3.53a13.135,13.135,0,0,0-3.169-1.881h.366c-.454-2.879-1.376-8.673-1.376-8.673H536.57s-.9,5.643-1.364,8.56h.619a13.479,13.479,0,0,0-3.245,1.843l.2-.341c-2.727-1.048-8.194-3.144-8.194-3.144l-1.97,3.409-1.969,3.4s4.444,3.6,6.729,5.454l.328-.543a13.173,13.173,0,0,0-.177,2.007,12.969,12.969,0,0,0,.126,1.73l-.189-.341-6.818,5.53,1.969,3.409,1.969,3.4s5.34-2.045,8.093-3.106l-.3-.53a13.134,13.134,0,0,0,3.169,1.881h-.366c.454,2.879,1.376,8.673,1.376,8.673h7.853s.9-5.643,1.364-8.56h-.619a13.48,13.48,0,0,0,3.245-1.843l-.2.341c2.727,1.048,8.194,3.144,8.194,3.144l1.969-3.4,1.969-3.409s-4.444-3.6-6.729-5.454ZM540.5,224.534a4.962,4.962,0,1,1,4.962-4.962A4.962,4.962,0,0,1,540.5,224.534Z" transform="translate(-518.573 -197.024)" fill="#f5c59d"/>
            <g id="Grupo_1098894" data-name="Grupo 1098894">
              <path id="Trazado_873302" data-name="Trazado 873302" d="M536.343,209.85a5.593,5.593,0,1,0,5.593,5.593A5.6,5.6,0,0,0,536.343,209.85Zm0,9.911a4.33,4.33,0,1,1,4.33-4.33A4.337,4.337,0,0,1,536.343,219.761Z" transform="translate(-515.922 -194.157)" fill="#251c4a"/>
              <path id="Trazado_873303" data-name="Trazado 873303" d="M552.96,219.69c.025-.328.05-.656.05-1s-.025-.669-.05-1l6.7-5.429a.64.64,0,0,0,.151-.808l-3.926-6.8a.644.644,0,0,0-.77-.278l-8.042,3.081a12.247,12.247,0,0,0-1.73-.985L544,197.95a.635.635,0,0,0-.619-.53h-7.853a.616.616,0,0,0-.619.53l-1.351,8.522a13.624,13.624,0,0,0-1.73.985l-8.042-3.081a.616.616,0,0,0-.77.278l-3.926,6.8a.643.643,0,0,0,.151.808l6.7,5.429c-.025.328-.051.656-.051,1s.025.669.051,1l-6.7,5.429a.64.64,0,0,0-.151.808l3.926,6.8a.625.625,0,0,0,.543.316.715.715,0,0,0,.227-.038l8.042-3.081a12.243,12.243,0,0,0,1.73.985l1.351,8.522a.635.635,0,0,0,.619.53h7.853a.616.616,0,0,0,.619-.53l1.351-8.522a13.632,13.632,0,0,0,1.73-.985l8.042,3.081a.715.715,0,0,0,.227.038.625.625,0,0,0,.543-.316l3.926-6.8a.643.643,0,0,0-.151-.808Zm2.1-13.925,3.384,5.871-5.669,4.6a13.6,13.6,0,0,0-4.545-7.853l6.83-2.613Zm-15.63,25.25a12.322,12.322,0,1,1,12.322-12.322A12.339,12.339,0,0,1,539.426,231.015Zm-3.384-32.32h6.78l1.149,7.222a13.311,13.311,0,0,0-9.065,0l1.149-7.222Zm-15.63,12.941,3.384-5.871,6.83,2.613a13.6,13.6,0,0,0-4.545,7.853l-5.669-4.6Zm3.384,20-3.384-5.871,5.669-4.6a13.6,13.6,0,0,0,4.545,7.853l-6.83,2.613Zm19.026,7.07h-6.78l-1.149-7.222a13.311,13.311,0,0,0,9.065,0L542.81,238.7Zm12.234-7.07-6.83-2.613a13.6,13.6,0,0,0,4.545-7.853l5.669,4.6-3.4,5.871Z" transform="translate(-519.005 -197.42)" fill="#251c4a"/>
            </g>
          </g>
          <g id="Grupo_1098896" data-name="Grupo 1098896" transform="translate(355.167 39.539)">
            <path id="Trazado_873304" data-name="Trazado 873304" d="M800.471,212.444l-3.194-13.092a20.038,20.038,0,0,1-9.267-17.157c0-11.994,8.989-22.005,22.5-20.907s19.4,12.537,18.925,19.152-.593,10.807-4.482,14.594-6.312,5.883-6.312,5.883l-3.182,11.527H800.471Z" transform="translate(-784.324 -160.416)" fill="#f5c59d"/>
            <path id="Trazado_873305" data-name="Trazado 873305" d="M801.4,167.574a2.424,2.424,0,1,1-2.424-2.424A2.425,2.425,0,0,1,801.4,167.574Z" transform="translate(-782.082 -159.38)" fill="#fff"/>
            <path id="Trazado_873306" data-name="Trazado 873306" d="M794.756,171.373a1.073,1.073,0,1,1-1.073-1.073A1.072,1.072,0,0,1,794.756,171.373Z" transform="translate(-783.116 -158.029)" fill="#fff"/>
            <path id="Trazado_873307" data-name="Trazado 873307" d="M796.56,201.79h20.314L815.182,215.8l-17.486-.126Z" transform="translate(-782.079 -149.762)" fill="#7c60ff"/>
            <path id="Trazado_873308" data-name="Trazado 873308" d="M793.466,207.169a.316.316,0,0,1-.025-.631l26.879-1.957a.3.3,0,0,1,.341.29.314.314,0,0,1-.29.341l-26.879,1.957Z" transform="translate(-782.974 -149.031)" fill="#fff"/>
            <path id="Trazado_873309" data-name="Trazado 873309" d="M793.466,210.8a.316.316,0,0,1-.025-.631l26.879-1.957a.307.307,0,0,1,.341.29.314.314,0,0,1-.29.341L793.491,210.8Z" transform="translate(-782.974 -148.077)" fill="#fff"/>
            <path id="Trazado_873310" data-name="Trazado 873310" d="M808,160.58c-12.638,0-22.914,9.86-22.914,21.98a21.741,21.741,0,0,0,9.9,17.789,4.178,4.178,0,0,1,1.73,2.5l2.235,9.141h-.909a.661.661,0,0,0-.467.2.608.608,0,0,0-.164.48l1.3,14.014a.622.622,0,0,0,.631.568h2.323c.417,2.411,3.081,4.28,6.338,4.28s5.934-1.868,6.338-4.28h2.323a.641.641,0,0,0,.631-.568l1.3-14.014a.608.608,0,0,0-.164-.48.639.639,0,0,0-.467-.2h-.909l2.235-9.141a4.287,4.287,0,0,1,1.73-2.5,21.741,21.741,0,0,0,9.9-17.789c0-12.12-10.277-21.98-22.914-21.98Zm0,69.677c-2.512,0-4.6-1.275-5.063-3.017H813.08C812.65,228.944,810.542,230.257,808,230.257Zm8.08-4.267H802.55a.571.571,0,0,0-.328-.114.653.653,0,0,0-.391.114H799.9l-1.187-12.751h18.546l-1.187,12.751Zm-7.651-14.014v-9.961a.631.631,0,0,0-1.263,0v9.961h-3.851l-4.81-28.116,2.727-2.386,2.916,3.068a.641.641,0,0,0,.454.189.652.652,0,0,0,.417-.151L807.979,182l2.954,2.575a.63.63,0,0,0,.871-.038l2.916-3.068,2.4,2.1-4.861,28.406h-3.851Zm11.88-12.675a5.48,5.48,0,0,0-2.247,3.245l-2.3,9.443h-2.2l4.8-28.053a.928.928,0,0,0,.076-.063.61.61,0,0,0,.063-.732l.316-1.856a.634.634,0,1,0-1.25-.215l-.177,1.048-2.273-1.982a.643.643,0,0,0-.871.038l-2.929,3.068-2.916-2.538a.649.649,0,0,0-.833,0l-2.916,2.538-2.929-3.068a.63.63,0,0,0-.871-.038l-2.6,2.273-.227-1.338a.639.639,0,0,0-.732-.518.632.632,0,0,0-.518.732l5.252,30.7h-1.805l-2.3-9.431a5.48,5.48,0,0,0-2.247-3.245,20.5,20.5,0,0,1-9.343-16.741c0-11.426,9.721-20.718,21.652-20.718s21.652,9.292,21.652,20.718a20.482,20.482,0,0,1-9.343,16.741Z" transform="translate(-785.09 -160.58)" fill="#251c4a"/>
          </g>
          <g id="Grupo_1098897" data-name="Grupo 1098897" transform="translate(175.286 166.597)">
            <path id="Trazado_873311" data-name="Trazado 873311" d="M645.55,264.06v32h45.362l5.138,6.818V264.06Z" transform="translate(-641.838 -260.474)" fill="#f5c59d"/>
            <path id="Trazado_873312" data-name="Trazado 873312" d="M693.325,301.965a.622.622,0,0,1-.492-.24l-5.921-7.575h-43.67a.625.625,0,0,1-.631-.631V264.191a.625.625,0,0,1,.631-.631h50.1a.625.625,0,0,1,.631.631v37.143a.638.638,0,0,1-.429.593.572.572,0,0,1-.2.038Zm-49.465-9.09h43.354a.622.622,0,0,1,.492.24l4.987,6.376V264.81H643.86v28.065Z" transform="translate(-642.61 -260.606)" fill="#251c4a"/>
            <path id="Trazado_873313" data-name="Trazado 873313" d="M660.876,281.592h-5.744a.631.631,0,1,1,0-1.262h5.744a.631.631,0,1,1,0,1.262Z" transform="translate(-639.489 -256.204)" fill="#fff"/>
            <path id="Trazado_873314" data-name="Trazado 873314" d="M681.288,281.592H663.941a.631.631,0,1,1,0-1.262h17.347a.631.631,0,0,1,0,1.262Z" transform="translate(-637.176 -256.204)" fill="#fff"/>
            <path id="Trazado_873315" data-name="Trazado 873315" d="M684.057,276.372H653.391a.631.631,0,0,1,0-1.263h30.666a.631.631,0,0,1,0,1.263Z" transform="translate(-639.946 -257.574)" fill="#fff"/>
            <path id="Trazado_873316" data-name="Trazado 873316" d="M656.172,271.143h-6.35a.631.631,0,0,1,0-1.263h6.35a.631.631,0,1,1,0,1.263Z" transform="translate(-640.883 -258.947)" fill="#fff"/>
            <path id="Trazado_873317" data-name="Trazado 873317" d="M682.33,271.143H659.971a.631.631,0,0,1,0-1.263H682.33a.631.631,0,0,1,0,1.263Z" transform="translate(-638.218 -258.947)" fill="#fff"/>
            <circle id="Elipse_11458" data-name="Elipse 11458" cx="3.586" cy="3.586" r="3.586" transform="translate(39.39)" fill="#7c60ff"/>
          </g>
        </g>
        <g id="Grupo_1098186" data-name="Grupo 1098186" transform="translate(231.815 29.552)">
          <g id="Grupo_1098185" data-name="Grupo 1098185" transform="translate(0 0)" clip-path="url(#clip-path-3)">
            <path id="Trazado_849140" data-name="Trazado 849140" d="M33.394.5H6.761A6.26,6.26,0,0,0,.5,6.761V19.719A6.261,6.261,0,0,0,6.761,25.98h6.961L19,37.936,26.433,25.98h6.961a6.261,6.261,0,0,0,6.261-6.261V6.761A6.26,6.26,0,0,0,33.394.5" transform="translate(0.131 0.132)" fill="#fff"/>
            <path id="Trazado_849141" data-name="Trazado 849141" d="M33.394.5H6.761A6.26,6.26,0,0,0,.5,6.761V19.719A6.261,6.261,0,0,0,6.761,25.98h6.961L19,37.936,26.433,25.98h6.961a6.261,6.261,0,0,0,6.261-6.261V6.761A6.26,6.26,0,0,0,33.394.5Z" transform="translate(0.131 0.132)" fill="none" stroke="#263238" stroke-linecap="round" stroke-linejoin="round" stroke-width="1"/>
            <path id="Trazado_849142" data-name="Trazado 849142" d="M11.728,13.466h-6.8a2.62,2.62,0,0,0,2.805,2.077,3.1,3.1,0,0,0,2.352-.942l1.087,1.25a4.4,4.4,0,0,1-3.487,1.41c-2.9,0-4.785-1.865-4.785-4.444A4.308,4.308,0,0,1,7.381,8.388a4.224,4.224,0,0,1,4.378,4.478c0,.162-.015.405-.032.6M4.915,12.12H9.83a2.359,2.359,0,0,0-2.449-2.11,2.394,2.394,0,0,0-2.466,2.11" transform="translate(0.762 2.202)" fill="#263238"/>
            <rect id="Rectángulo_388581" data-name="Rectángulo 388581" width="2.028" height="12.035" transform="translate(14.463 7.314)" fill="#263238"/>
            <path id="Trazado_849143" data-name="Trazado 849143" d="M14.383,16.287l.779-1.542a5.816,5.816,0,0,0,3.016.86c1.281,0,1.817-.356,1.817-.957,0-1.654-5.352-.1-5.352-3.553,0-1.637,1.475-2.708,3.811-2.708a6.886,6.886,0,0,1,3.243.746l-.779,1.54a4.74,4.74,0,0,0-2.481-.649c-1.233,0-1.817.407-1.817.973,0,1.752,5.353.194,5.353,3.584,0,1.624-1.492,2.677-3.926,2.677a6.891,6.891,0,0,1-3.665-.972" transform="translate(3.776 2.202)" fill="#263238"/>
            <path id="Trazado_849144" data-name="Trazado 849144" d="M30.038,13.466h-6.8a2.621,2.621,0,0,0,2.805,2.077A3.1,3.1,0,0,0,28.4,14.6l1.087,1.25A4.4,4.4,0,0,1,26,17.261c-2.9,0-4.785-1.865-4.785-4.444a4.308,4.308,0,0,1,4.477-4.429,4.224,4.224,0,0,1,4.378,4.478c0,.162-.015.405-.032.6M23.225,12.12H28.14a2.359,2.359,0,0,0-2.449-2.11,2.394,2.394,0,0,0-2.466,2.11" transform="translate(5.569 2.202)" fill="#263238"/>
          </g>
        </g>
        <g id="Grupo_1098188" data-name="Grupo 1098188" transform="translate(398.053 76.632)">
          <g id="Grupo_1098187" data-name="Grupo 1098187" transform="translate(0 0)" clip-path="url(#clip-path-4)">
            <path id="Trazado_849145" data-name="Trazado 849145" d="M37.041.5H7.455A6.954,6.954,0,0,0,.5,7.455V21.85A6.955,6.955,0,0,0,7.455,28.8h7.733l5.86,13.281L29.308,28.8h7.733A6.955,6.955,0,0,0,44,21.85V7.455A6.954,6.954,0,0,0,37.041.5" transform="translate(0.201 0.202)" fill="#fff"/>
            <path id="Trazado_849146" data-name="Trazado 849146" d="M37.041.5H7.455A6.954,6.954,0,0,0,.5,7.455V21.85A6.955,6.955,0,0,0,7.455,28.8h7.733l5.86,13.281L29.308,28.8h7.733A6.955,6.955,0,0,0,44,21.85V7.455A6.954,6.954,0,0,0,37.041.5Z" transform="translate(0.201 0.202)" fill="none" stroke="#263238" stroke-linecap="round" stroke-linejoin="round" stroke-width="1"/>
            <path id="Trazado_849147" data-name="Trazado 849147" d="M12.458,13.156c.721.234,1.063.721,1.063,1.839v3.423a1.209,1.209,0,0,0,1.334,1.369h.379v1.8h-.9c-2.035,0-3.063-1.027-3.063-2.937V14.94c0-.595-.306-.865-.811-.865H9.863V12.237h.595c.5,0,.811-.271.811-.865V7.66c0-1.909,1.028-2.937,3.063-2.937h.9v1.8h-.379A1.21,1.21,0,0,0,13.521,7.9v3.422c0,1.118-.342,1.6-1.063,1.839" transform="translate(3.97 1.901)" fill="#263238"/>
            <path id="Trazado_849148" data-name="Trazado 849148" d="M23.057,12.236v1.839h-.613c-.485,0-.792.269-.792.864v3.712c0,1.91-1.045,2.938-3.081,2.938h-.9v-1.8h.379A1.213,1.213,0,0,0,19.4,18.417V14.993c0-1.116.324-1.6,1.046-1.839-.722-.234-1.046-.719-1.046-1.837V7.894a1.214,1.214,0,0,0-1.351-1.37H17.67v-1.8h.9c2.036,0,3.081,1.027,3.081,2.937v3.711c0,.6.307.865.792.865Z" transform="translate(7.112 1.901)" fill="#263238"/>
          </g>
        </g>
        <g id="Grupo_1098190" data-name="Grupo 1098190" transform="translate(244.038 207.967) rotate(-90)">
          <g id="Grupo_1098189" data-name="Grupo 1098189" transform="translate(0 0)" clip-path="url(#clip-path-5)">
            <path id="Trazado_849149" data-name="Trazado 849149" d="M38.173,0H7.265A7.265,7.265,0,0,0,0,7.265V22.3a7.266,7.266,0,0,0,7.265,7.265h8.079l6.121,13.875,8.629-13.875h8.079A7.266,7.266,0,0,0,45.439,22.3V7.265A7.265,7.265,0,0,0,38.173,0" transform="translate(0.733 0.733)" fill="#fff"/>
            <path id="Trazado_849150" data-name="Trazado 849150" d="M38.173,0H7.265A7.265,7.265,0,0,0,0,7.265V22.3a7.266,7.266,0,0,0,7.265,7.265h8.079l6.121,13.875,8.629-13.875h8.079A7.266,7.266,0,0,0,45.439,22.3V7.265A7.265,7.265,0,0,0,38.173,0Z" transform="translate(0.733 0.733)" fill="none" stroke="#263238" stroke-linecap="round" stroke-linejoin="round" stroke-width="1"/>
            <path id="Trazado_849151" data-name="Trazado 849151" d="M0,1.412A1.434,1.434,0,0,1,1.506,0,1.4,1.4,0,0,1,3.012,1.355,1.445,1.445,0,0,1,1.506,2.825,1.434,1.434,0,0,1,0,1.412M.321,4.48H2.674V14.532H.321Z" transform="translate(32.398 9.367) rotate(90)" fill="#263238"/>
            <path id="Trazado_849152" data-name="Trazado 849152" d="M3.934,3.519v.6H6.7V6H4.009V14.1H1.656V6H0V4.121H1.656V3.483A3.248,3.248,0,0,1,5.251,0,3.764,3.764,0,0,1,7.378.545l-.659,1.77a2.315,2.315,0,0,0-1.3-.415c-.979,0-1.487.546-1.487,1.619" transform="translate(31.964 13.788) rotate(90)" fill="#263238"/>
          </g>
        </g>
        <g id="Grupo_1098901" data-name="Grupo 1098901" transform="translate(435.367 165.486)">
          <g id="Grupo_1098191" data-name="Grupo 1098191" transform="translate(0 0)" clip-path="url(#clip-path-6)">
            <path id="Trazado_849153" data-name="Trazado 849153" d="M33.395,37.935H6.761A6.26,6.26,0,0,1,.5,31.674V18.716a6.26,6.26,0,0,1,6.261-6.261h6.961L12.2.5,26.433,12.456h6.961a6.26,6.26,0,0,1,6.261,6.261V31.674a6.26,6.26,0,0,1-6.261,6.261" transform="translate(0.131 0.131)" fill="#fff"/>
            <path id="Trazado_849154" data-name="Trazado 849154" d="M33.395,37.935H6.761A6.26,6.26,0,0,1,.5,31.674V18.716a6.26,6.26,0,0,1,6.261-6.261h6.961L12.2.5,26.433,12.456h6.961a6.26,6.26,0,0,1,6.261,6.261V31.674A6.26,6.26,0,0,1,33.395,37.935Z" transform="translate(0.131 0.131)" fill="none" stroke="#263238" stroke-linecap="round" stroke-linejoin="round" stroke-width="1"/>
            <path id="Trazado_849155" data-name="Trazado 849155" d="M14.307,25.763a1.255,1.255,0,0,0-1.314-1.249,1.236,1.236,0,0,0-1.28,1.249,1.249,1.249,0,0,0,1.28,1.265,1.268,1.268,0,0,0,1.314-1.265m-.114-10.2h-2.4l.405,7.591H13.8Z" transform="translate(11.323 4.085)" fill="#263238"/>
            <path id="Trazado_849156" data-name="Trazado 849156" d="M22.838,17.862H15.36v1.621h7.478Zm0,3.924H15.36v1.622h7.478Z" transform="translate(-1.812 4.689)" fill="#263238"/>
          </g>
        </g>
      </g>
      <rect id="Rectángulo_401103" data-name="Rectángulo 401103" width="505" height="5" rx="2.5" transform="translate(0 285.438)" fill="#2e1460"/>
    </g>
  </g>
</svg>
